%TF.GenerationSoftware,Altium Limited,Altium Designer,23.6.0 (18)*%
G04 Layer_Color=255*
%FSLAX45Y45*%
%MOMM*%
%TF.SameCoordinates,8109348C-C8A1-492E-8D21-29312D9C8BDA*%
%TF.FilePolarity,Positive*%
%TF.FileFunction,Pads,Bot*%
%TF.Part,Single*%
G01*
G75*
%TA.AperFunction,ViaPad*%
%ADD14C,5.50000*%
%TA.AperFunction,ComponentPad*%
%ADD15O,1.80000X2.20000*%
%ADD16O,1.80000X2.20000*%
%ADD17C,4.00000*%
%ADD18R,7.00000X6.20000*%
%ADD19O,7.00000X6.20000*%
%ADD20R,1.80000X2.20000*%
%ADD21O,2.00000X1.40000*%
%ADD22O,2.00000X1.60000*%
%ADD23O,1.40000X2.00000*%
%ADD24R,1.40000X2.00000*%
%TA.AperFunction,SMDPad,CuDef*%
%ADD40R,1.80000X1.15000*%
%ADD41R,1.40000X1.20000*%
%ADD42R,1.32080X0.55880*%
%ADD43R,1.40000X1.00000*%
%ADD44R,1.00000X1.40000*%
D14*
X10450000Y300000D02*
D03*
Y3900000D02*
D03*
X300000D02*
D03*
Y300000D02*
D03*
D15*
X6272500Y4050000D02*
D03*
X6722500Y4050000D02*
D03*
X6272500Y3400000D02*
D03*
X6722500D02*
D03*
D16*
X2248512Y3850000D02*
D03*
X4530512Y349999D02*
D03*
X2500512D02*
D03*
X4278512Y3850000D02*
D03*
X5420512Y349999D02*
D03*
X6560512D02*
D03*
X6810512D02*
D03*
X6310512D02*
D03*
X3390512Y3850000D02*
D03*
X3140512D02*
D03*
X1360100D02*
D03*
X1110100D02*
D03*
X5420512D02*
D03*
X5170512D02*
D03*
X3390512Y349999D02*
D03*
X3640512D02*
D03*
X1360100D02*
D03*
X1610100D02*
D03*
D17*
X9495000Y3800000D02*
D03*
X8995000D02*
D03*
X8240000D02*
D03*
X7740000D02*
D03*
Y400000D02*
D03*
X8240000D02*
D03*
X8995000D02*
D03*
X9495000D02*
D03*
D18*
X10330000Y2460000D02*
D03*
D19*
Y1740000D02*
D03*
D20*
X2250512Y349999D02*
D03*
X6060512D02*
D03*
X4528512Y3850000D02*
D03*
X3640512D02*
D03*
X2498512D02*
D03*
X1610100D02*
D03*
X5670512D02*
D03*
X3140512Y349999D02*
D03*
X4280512D02*
D03*
X1110100D02*
D03*
X5170512D02*
D03*
D21*
X5600000Y2989000D02*
D03*
Y2735000D02*
D03*
Y2481000D02*
D03*
Y2227000D02*
D03*
Y1973000D02*
D03*
Y1719000D02*
D03*
Y1465000D02*
D03*
Y1211000D02*
D03*
X4724400Y1973000D02*
D03*
Y1719000D02*
D03*
Y2227000D02*
D03*
Y2481000D02*
D03*
D22*
X9296800Y2759300D02*
D03*
Y1438500D02*
D03*
Y2505300D02*
D03*
X7442600Y1438500D02*
D03*
Y1692500D02*
D03*
X9296800D02*
D03*
X7442600Y2759300D02*
D03*
Y2505300D02*
D03*
D23*
X787400Y1338000D02*
D03*
X279400D02*
D03*
X533400D02*
D03*
X1295400D02*
D03*
X1041400D02*
D03*
X1803400D02*
D03*
X2057400D02*
D03*
X2819400D02*
D03*
X2311400D02*
D03*
X2565400D02*
D03*
X1549400D02*
D03*
X533400Y2862000D02*
D03*
X279400D02*
D03*
X787400D02*
D03*
X1549400D02*
D03*
X1041400D02*
D03*
X1295400D02*
D03*
X1803400D02*
D03*
X2565400D02*
D03*
X2057400D02*
D03*
X2311400D02*
D03*
X3327400Y1338000D02*
D03*
X3073400D02*
D03*
X4089400D02*
D03*
X3581400D02*
D03*
X3835400D02*
D03*
X4597400D02*
D03*
X4343400D02*
D03*
X4851400D02*
D03*
X3327400Y2862000D02*
D03*
X2819400D02*
D03*
X3073400D02*
D03*
X4089400D02*
D03*
X3581400D02*
D03*
X3835400D02*
D03*
X4343400D02*
D03*
X4597400D02*
D03*
X4851400D02*
D03*
D24*
X5105400Y1338000D02*
D03*
Y2862000D02*
D03*
D40*
X7004994Y2255004D02*
D03*
Y2545004D02*
D03*
X6617500Y2684987D02*
D03*
Y2974987D02*
D03*
X6260006Y2977487D02*
D03*
Y2687487D02*
D03*
X4280018Y3140000D02*
D03*
Y3430000D02*
D03*
X4527520Y1030000D02*
D03*
Y740000D02*
D03*
X2565001Y1952499D02*
D03*
Y1662499D02*
D03*
X282500Y740001D02*
D03*
Y1030000D02*
D03*
X1295000Y2260000D02*
D03*
Y2550000D02*
D03*
X6624597Y1560000D02*
D03*
Y1270000D02*
D03*
X3830000Y2260000D02*
D03*
Y2550000D02*
D03*
X2095000Y740000D02*
D03*
Y1030000D02*
D03*
X1934997Y3430000D02*
D03*
Y3140000D02*
D03*
X6884989Y1270000D02*
D03*
Y1560000D02*
D03*
X4101252Y2550000D02*
D03*
Y2260000D02*
D03*
X4372503Y2550000D02*
D03*
X4372504Y2260000D02*
D03*
X4089998Y1577496D02*
D03*
X4089998Y1867496D02*
D03*
D41*
X6317497Y1269999D02*
D03*
Y1554999D02*
D03*
X6037501Y1269997D02*
D03*
Y1554998D02*
D03*
D42*
X6739100Y2349996D02*
D03*
Y2159996D02*
D03*
X6535900Y2254996D02*
D03*
D43*
X6039999Y2349991D02*
D03*
X6259999Y2444991D02*
D03*
X1712502Y2261500D02*
D03*
X1932502Y2356500D02*
D03*
X3850000Y1868496D02*
D03*
X3630000Y1773496D02*
D03*
X1125000Y740001D02*
D03*
X1345000Y835001D02*
D03*
X6259999Y2254991D02*
D03*
X1712502Y2451500D02*
D03*
X3850000Y1678496D02*
D03*
X1125000Y930001D02*
D03*
D44*
X2855000Y1950000D02*
D03*
X3550000Y2316500D02*
D03*
X3455000Y2536500D02*
D03*
X2950000Y1730000D02*
D03*
X3045000Y1950000D02*
D03*
X3360000Y2316500D02*
D03*
%TF.MD5,126ce01461d35f6efd3e6496d07663da*%
M02*
