%TF.GenerationSoftware,Altium Limited,Altium Designer,23.6.0 (18)*%
G04 Layer_Physical_Order=4*
G04 Layer_Color=16711680*
%FSLAX45Y45*%
%MOMM*%
%TF.SameCoordinates,8109348C-C8A1-492E-8D21-29312D9C8BDA*%
%TF.FilePolarity,Positive*%
%TF.FileFunction,Copper,L4,Bot,Signal*%
%TF.Part,Single*%
G01*
G75*
%TA.AperFunction,Conductor*%
%ADD10C,0.80000*%
%ADD11C,0.50000*%
%ADD13C,0.55000*%
%TA.AperFunction,ViaPad*%
%ADD14C,5.50000*%
%TA.AperFunction,ComponentPad*%
%ADD15O,1.80000X2.20000*%
%ADD16O,1.80000X2.20000*%
%ADD17C,4.00000*%
%ADD18R,7.00000X6.20000*%
%ADD19O,7.00000X6.20000*%
%ADD20R,1.80000X2.20000*%
%ADD21O,2.00000X1.40000*%
%ADD22O,2.00000X1.60000*%
%ADD23O,1.40000X2.00000*%
%ADD24R,1.40000X2.00000*%
%TA.AperFunction,ViaPad*%
%ADD25C,0.70000*%
%TA.AperFunction,SMDPad,CuDef*%
%ADD40R,1.80000X1.15000*%
%ADD41R,1.40000X1.20000*%
%ADD42R,1.32080X0.55880*%
%ADD43R,1.40000X1.00000*%
%ADD44R,1.00000X1.40000*%
%TA.AperFunction,Conductor*%
%ADD45C,0.60000*%
%ADD46C,4.00000*%
%ADD47C,0.40000*%
G36*
X10226013Y4149118D02*
X10218592Y4142354D01*
X10207646Y4131408D01*
X10197218Y4119968D01*
X10187329Y4108059D01*
X10178000Y4095706D01*
X10169252Y4082935D01*
X10161103Y4069774D01*
X10153570Y4056251D01*
X10146670Y4042394D01*
X10140418Y4028233D01*
X10134826Y4013799D01*
X10129907Y3999122D01*
X10125670Y3984233D01*
X10122126Y3969164D01*
X10119282Y3953948D01*
X10117143Y3938617D01*
X10115715Y3923203D01*
X10115000Y3907740D01*
Y3892260D01*
X10115715Y3876797D01*
X10117143Y3861383D01*
X10119282Y3846052D01*
X10122126Y3830836D01*
X10125670Y3815767D01*
X10129907Y3800879D01*
X10134826Y3786201D01*
X10140418Y3771767D01*
X10146670Y3757606D01*
X10153570Y3743749D01*
X10161103Y3730226D01*
X10169252Y3717065D01*
X10178000Y3704294D01*
X10187329Y3691941D01*
X10197218Y3680032D01*
X10207646Y3668592D01*
X10218592Y3657646D01*
X10230032Y3647218D01*
X10241941Y3637329D01*
X10254294Y3628000D01*
X10267065Y3619252D01*
X10280226Y3611103D01*
X10293749Y3603570D01*
X10307606Y3596670D01*
X10321767Y3590418D01*
X10336201Y3584826D01*
X10350878Y3579907D01*
X10365767Y3575671D01*
X10380836Y3572126D01*
X10396052Y3569282D01*
X10411383Y3567143D01*
X10426797Y3565715D01*
X10442260Y3565000D01*
X10457740D01*
X10473203Y3565715D01*
X10488617Y3567143D01*
X10503948Y3569282D01*
X10519164Y3572126D01*
X10534233Y3575671D01*
X10549121Y3579907D01*
X10563799Y3584826D01*
X10578233Y3590418D01*
X10592394Y3596670D01*
X10606251Y3603570D01*
X10619774Y3611103D01*
X10632935Y3619252D01*
X10645706Y3628000D01*
X10658059Y3637329D01*
X10669968Y3647218D01*
X10681408Y3657646D01*
X10692354Y3668592D01*
X10699118Y3676013D01*
X10711818Y3671093D01*
Y2811947D01*
X10710000Y2800000D01*
X10201283D01*
X9905093Y2971005D01*
Y4000000D01*
X9904722Y4004708D01*
X9903620Y4009299D01*
X9901813Y4013662D01*
X9899345Y4017688D01*
X9896279Y4021278D01*
X9892688Y4024345D01*
X9888662Y4026813D01*
X9884299Y4028620D01*
X9879708Y4029722D01*
X9875000Y4030093D01*
X9295000D01*
X9290292Y4029722D01*
X9285701Y4028620D01*
X9281338Y4026813D01*
X9277312Y4024345D01*
X9273721Y4021278D01*
X9270655Y4017688D01*
X9268187Y4013662D01*
X9266380Y4009299D01*
X9265278Y4004708D01*
X9264907Y4000000D01*
Y3480093D01*
X8647593D01*
Y4000000D01*
X8647222Y4004708D01*
X8646120Y4009299D01*
X8644313Y4013662D01*
X8641845Y4017688D01*
X8638779Y4021278D01*
X8635188Y4024345D01*
X8631162Y4026813D01*
X8626799Y4028620D01*
X8622208Y4029722D01*
X8617500Y4030093D01*
X8040000D01*
X8035293Y4029722D01*
X8030701Y4028620D01*
X8026339Y4026813D01*
X8022312Y4024345D01*
X8018722Y4021278D01*
X8015655Y4017688D01*
X8013188Y4013662D01*
X8011381Y4009299D01*
X8010278Y4004708D01*
X8009908Y4000000D01*
Y2221353D01*
X7946145Y2157591D01*
X7713855D01*
X7575718Y2295727D01*
X7570903Y2300030D01*
X7565636Y2303768D01*
X7559983Y2306892D01*
X7554017Y2309363D01*
X7547811Y2311151D01*
X7541444Y2312233D01*
X7534996Y2312595D01*
X7124994D01*
Y2342504D01*
X6884995D01*
Y2312590D01*
X6830540D01*
Y2328121D01*
X6964524Y2462104D01*
X7120394D01*
Y2627904D01*
X6889595D01*
Y2537034D01*
X6755979Y2403419D01*
X6739540D01*
X6738061Y2403336D01*
X6647660D01*
Y2402976D01*
X6355399D01*
Y2520391D01*
X6325481D01*
Y2604587D01*
X6375406D01*
Y2619508D01*
X6502100D01*
Y2602087D01*
X6732900D01*
Y2767887D01*
X6502100D01*
Y2750466D01*
X6375406D01*
Y2770387D01*
X6144606D01*
Y2604587D01*
X6194524D01*
Y2520391D01*
X6164599D01*
Y2402976D01*
X6135399D01*
Y2425391D01*
X5948180D01*
X5944599Y2425391D01*
X5935479Y2434035D01*
Y2620000D01*
X5935162Y2625652D01*
X5934214Y2631233D01*
X5932647Y2636673D01*
X5930480Y2641903D01*
X5927742Y2646857D01*
X5924466Y2651474D01*
X5920694Y2655695D01*
X5805695Y2770694D01*
X5801474Y2774467D01*
X5796857Y2777742D01*
X5791902Y2780481D01*
X5786672Y2782647D01*
X5781233Y2784214D01*
X5775652Y2785162D01*
X5770000Y2785480D01*
X5710956D01*
X5708222Y2789771D01*
X5703150Y2796380D01*
X5697522Y2802522D01*
X5691381Y2808150D01*
X5684771Y2813222D01*
X5677746Y2817698D01*
X5670356Y2821544D01*
X5662660Y2824732D01*
X5654715Y2827237D01*
X5646582Y2829040D01*
X5638323Y2830127D01*
X5630000Y2830491D01*
X5570000D01*
X5561677Y2830127D01*
X5553418Y2829040D01*
X5545285Y2827237D01*
X5537340Y2824732D01*
X5529644Y2821544D01*
X5522254Y2817698D01*
X5515228Y2813222D01*
X5508619Y2808150D01*
X5502478Y2802522D01*
X5496850Y2796380D01*
X5491778Y2789771D01*
X5487302Y2782746D01*
X5483456Y2775356D01*
X5480268Y2767660D01*
X5477763Y2759715D01*
X5475960Y2751582D01*
X5474872Y2743323D01*
X5474509Y2735000D01*
X5474872Y2726678D01*
X5475960Y2718418D01*
X5477763Y2710285D01*
X5480268Y2702340D01*
X5483456Y2694644D01*
X5487302Y2687255D01*
X5491778Y2680229D01*
X5496850Y2673620D01*
X5502478Y2667478D01*
X5508619Y2661850D01*
X5515228Y2656779D01*
X5522254Y2652303D01*
X5529644Y2648456D01*
X5537340Y2645268D01*
X5545285Y2642763D01*
X5553418Y2640960D01*
X5561677Y2639873D01*
X5570000Y2639509D01*
X5630000D01*
X5638323Y2639873D01*
X5646582Y2640960D01*
X5654715Y2642763D01*
X5662660Y2645268D01*
X5670356Y2648456D01*
X5677746Y2652303D01*
X5684771Y2656779D01*
X5691381Y2661850D01*
X5697522Y2667478D01*
X5703150Y2673620D01*
X5708222Y2680229D01*
X5710956Y2684521D01*
X5749091D01*
X5834520Y2599091D01*
Y1983409D01*
X5746591Y1895480D01*
X5705409D01*
X5702868Y1898701D01*
X5699998Y1908180D01*
X5703150Y1911620D01*
X5708222Y1918229D01*
X5712698Y1925255D01*
X5716544Y1932644D01*
X5719732Y1940340D01*
X5722237Y1948285D01*
X5724040Y1956418D01*
X5725127Y1964678D01*
X5725491Y1973000D01*
X5725127Y1981323D01*
X5724040Y1989582D01*
X5722237Y1997715D01*
X5719732Y2005660D01*
X5716544Y2013356D01*
X5712698Y2020746D01*
X5708222Y2027771D01*
X5703150Y2034380D01*
X5697522Y2040522D01*
X5691381Y2046150D01*
X5684771Y2051222D01*
X5677746Y2055698D01*
X5670356Y2059544D01*
X5662660Y2062732D01*
X5654715Y2065237D01*
X5646582Y2067040D01*
X5638323Y2068127D01*
X5630000Y2068491D01*
X5570000D01*
X5561677Y2068127D01*
X5553418Y2067040D01*
X5545285Y2065237D01*
X5537340Y2062732D01*
X5529644Y2059544D01*
X5522254Y2055698D01*
X5515228Y2051222D01*
X5508619Y2046150D01*
X5502478Y2040522D01*
X5496850Y2034380D01*
X5491778Y2027771D01*
X5487302Y2020746D01*
X5483456Y2013356D01*
X5480268Y2005660D01*
X5477763Y1997715D01*
X5475960Y1989582D01*
X5474872Y1981323D01*
X5474509Y1973000D01*
X5474872Y1964678D01*
X5475960Y1956418D01*
X5477763Y1948285D01*
X5480268Y1940340D01*
X5483456Y1932644D01*
X5487302Y1925255D01*
X5491778Y1918229D01*
X5496850Y1911620D01*
X5500002Y1908180D01*
X5497132Y1898701D01*
X5494590Y1895480D01*
X5225000D01*
X5219348Y1895162D01*
X5213768Y1894214D01*
X5208328Y1892647D01*
X5203098Y1890481D01*
X5198144Y1887742D01*
X5193527Y1884467D01*
X5189306Y1880694D01*
X5074306Y1765694D01*
X5070533Y1761473D01*
X5067258Y1756857D01*
X5064519Y1751902D01*
X5062353Y1746672D01*
X5060786Y1741232D01*
X5059838Y1735652D01*
X5059520Y1730000D01*
Y1463400D01*
X5010000D01*
Y1212600D01*
X5200800D01*
Y1463400D01*
X5160479D01*
Y1709091D01*
X5245909Y1794521D01*
X5492581D01*
X5498169Y1781821D01*
X5496850Y1780380D01*
X5491778Y1773771D01*
X5487302Y1766746D01*
X5483456Y1759356D01*
X5480268Y1751660D01*
X5477763Y1743715D01*
X5475960Y1735582D01*
X5474872Y1727323D01*
X5474509Y1719000D01*
X5474872Y1710678D01*
X5475960Y1702418D01*
X5477763Y1694285D01*
X5480268Y1686340D01*
X5483456Y1678644D01*
X5487302Y1671255D01*
X5491778Y1664229D01*
X5496850Y1657620D01*
X5502478Y1651478D01*
X5508619Y1645850D01*
X5515228Y1640779D01*
X5522254Y1636303D01*
X5529644Y1632456D01*
X5537340Y1629268D01*
X5545285Y1626763D01*
X5553418Y1624960D01*
X5561677Y1623873D01*
X5570000Y1623509D01*
X5630000D01*
X5638323Y1623873D01*
X5646582Y1624960D01*
X5654715Y1626763D01*
X5662660Y1629268D01*
X5670356Y1632456D01*
X5677746Y1636303D01*
X5684771Y1640779D01*
X5691381Y1645850D01*
X5697522Y1651478D01*
X5703150Y1657620D01*
X5708222Y1664229D01*
X5712698Y1671255D01*
X5716544Y1678644D01*
X5719732Y1686340D01*
X5722237Y1694285D01*
X5724040Y1702418D01*
X5725127Y1710678D01*
X5725491Y1719000D01*
X5725127Y1727323D01*
X5724040Y1735582D01*
X5722237Y1743715D01*
X5719732Y1751660D01*
X5716544Y1759356D01*
X5712698Y1766746D01*
X5708222Y1773771D01*
X5703150Y1780380D01*
X5701831Y1781821D01*
X5707419Y1794521D01*
X5767500D01*
X5773152Y1794838D01*
X5778733Y1795786D01*
X5784172Y1797353D01*
X5789402Y1799520D01*
X5794357Y1802258D01*
X5798973Y1805534D01*
X5803194Y1809306D01*
X5920694Y1926806D01*
X5924466Y1931027D01*
X5927742Y1935643D01*
X5930480Y1940598D01*
X5932647Y1945827D01*
X5934214Y1951267D01*
X5935162Y1956848D01*
X5935479Y1962500D01*
Y2265947D01*
X5944599Y2274591D01*
X5948180Y2274591D01*
X5974520D01*
Y1919621D01*
X5821200Y1766301D01*
X5816884Y1761540D01*
X5813056Y1756378D01*
X5809753Y1750867D01*
X5807006Y1745058D01*
X5804841Y1739008D01*
X5803279Y1732775D01*
X5802337Y1726418D01*
X5802021Y1720000D01*
Y1439998D01*
X5802337Y1433580D01*
X5803279Y1427224D01*
X5804841Y1420991D01*
X5807006Y1414940D01*
X5809753Y1409132D01*
X5813056Y1403620D01*
X5816884Y1398459D01*
X5821200Y1393697D01*
X5942101Y1272796D01*
Y1184597D01*
X6132901D01*
Y1355397D01*
X6044703D01*
X5943201Y1456899D01*
X5948462Y1469599D01*
X6132901D01*
Y1489520D01*
X6222097D01*
Y1469599D01*
X6412896D01*
Y1640399D01*
X6382976D01*
Y1882433D01*
X6382979Y1882500D01*
X6382663Y1888918D01*
X6381721Y1895274D01*
X6380159Y1901507D01*
X6377994Y1907558D01*
X6375247Y1913367D01*
X6371944Y1918878D01*
X6368116Y1924039D01*
X6363800Y1928800D01*
X6359039Y1933116D01*
X6353878Y1936944D01*
X6348367Y1940247D01*
X6342558Y1942994D01*
X6336507Y1945159D01*
X6330274Y1946721D01*
X6323918Y1947663D01*
X6317500Y1947979D01*
X6311082Y1947663D01*
X6304726Y1946721D01*
X6298492Y1945159D01*
X6292442Y1942994D01*
X6286633Y1940247D01*
X6281122Y1936944D01*
X6275961Y1933116D01*
X6271196Y1928797D01*
X6266881Y1924036D01*
X6263053Y1918875D01*
X6259749Y1913363D01*
X6257002Y1907554D01*
X6254837Y1901504D01*
X6253276Y1895271D01*
X6252333Y1888915D01*
X6252018Y1882497D01*
Y1640399D01*
X6222097D01*
Y1620478D01*
X6132901D01*
Y1640398D01*
X5945679D01*
X5942101Y1640399D01*
X5932979Y1649036D01*
Y1692878D01*
X6086299Y1846198D01*
X6090615Y1850959D01*
X6094443Y1856120D01*
X6097746Y1861632D01*
X6100494Y1867441D01*
X6102658Y1873491D01*
X6104220Y1879724D01*
X6105163Y1886081D01*
X6105478Y1892499D01*
Y2274591D01*
X6135399D01*
Y2297010D01*
X6164599D01*
Y2280390D01*
X6259999D01*
X6355399D01*
Y2297010D01*
X6439860D01*
Y2197056D01*
X6478310D01*
Y2006600D01*
X6478672Y2000151D01*
X6479754Y1993785D01*
X6481542Y1987579D01*
X6484013Y1981612D01*
X6487137Y1975960D01*
X6490874Y1970693D01*
X6495178Y1965877D01*
X6567006Y1894049D01*
Y1647500D01*
X6504597D01*
Y1472500D01*
X6568800D01*
X6568854Y1472185D01*
X6570641Y1465979D01*
X6573113Y1460013D01*
X6576237Y1454360D01*
X6579974Y1449093D01*
X6584277Y1444278D01*
X6654278Y1374277D01*
X6659093Y1369974D01*
X6664360Y1366237D01*
X6665512Y1365600D01*
X6662236Y1352900D01*
X6509197D01*
Y1335478D01*
X6412896D01*
Y1355399D01*
X6222097D01*
Y1184599D01*
X6269517D01*
Y1055906D01*
X6184091Y970479D01*
X4642920D01*
Y1112900D01*
X4412120D01*
Y1080480D01*
X3850909D01*
X3757980Y1173409D01*
Y1232481D01*
X3760927Y1234863D01*
X3770680Y1237910D01*
X3774020Y1234850D01*
X3780629Y1229778D01*
X3787655Y1225302D01*
X3795044Y1221456D01*
X3802740Y1218268D01*
X3810685Y1215763D01*
X3818818Y1213960D01*
X3827077Y1212873D01*
X3835400Y1212509D01*
X3843723Y1212873D01*
X3851982Y1213960D01*
X3860115Y1215763D01*
X3868060Y1218268D01*
X3875756Y1221456D01*
X3883145Y1225302D01*
X3890171Y1229778D01*
X3896780Y1234850D01*
X3902922Y1240478D01*
X3908550Y1246620D01*
X3913622Y1253229D01*
X3918098Y1260255D01*
X3921944Y1267644D01*
X3925132Y1275340D01*
X3927637Y1283285D01*
X3929440Y1291418D01*
X3930527Y1299677D01*
X3930891Y1308000D01*
Y1368000D01*
X3930527Y1376323D01*
X3929440Y1384582D01*
X3927637Y1392715D01*
X3925132Y1400660D01*
X3921944Y1408356D01*
X3918098Y1415746D01*
X3913622Y1422772D01*
X3908550Y1429381D01*
X3902922Y1435522D01*
X3896780Y1441151D01*
X3890171Y1446222D01*
X3883145Y1450698D01*
X3875756Y1454544D01*
X3868060Y1457732D01*
X3860115Y1460237D01*
X3851982Y1462041D01*
X3843723Y1463128D01*
X3835400Y1463491D01*
X3827077Y1463128D01*
X3818818Y1462041D01*
X3810685Y1460237D01*
X3802740Y1457732D01*
X3795044Y1454544D01*
X3787655Y1450698D01*
X3780629Y1446222D01*
X3774020Y1441151D01*
X3770680Y1438090D01*
X3760927Y1441138D01*
X3757980Y1443519D01*
Y1557500D01*
X3757662Y1563152D01*
X3756714Y1568732D01*
X3755147Y1574172D01*
X3752981Y1579402D01*
X3750242Y1584356D01*
X3746967Y1588973D01*
X3743194Y1593194D01*
X3680479Y1655909D01*
Y1698096D01*
X3725400D01*
Y1848896D01*
X3534600D01*
Y1698096D01*
X3579520D01*
Y1635000D01*
X3579838Y1629348D01*
X3580786Y1623767D01*
X3582353Y1618328D01*
X3584519Y1613098D01*
X3587258Y1608143D01*
X3590533Y1603527D01*
X3594305Y1599306D01*
X3657021Y1536591D01*
Y1445327D01*
X3644321Y1439739D01*
X3642780Y1441151D01*
X3636171Y1446222D01*
X3629145Y1450698D01*
X3621756Y1454544D01*
X3614060Y1457732D01*
X3606115Y1460237D01*
X3597982Y1462041D01*
X3589723Y1463128D01*
X3581400Y1463491D01*
X3573077Y1463128D01*
X3564818Y1462041D01*
X3556685Y1460237D01*
X3548740Y1457732D01*
X3541044Y1454544D01*
X3533655Y1450698D01*
X3526629Y1446222D01*
X3520020Y1441151D01*
X3513878Y1435522D01*
X3508250Y1429381D01*
X3503178Y1422772D01*
X3498702Y1415746D01*
X3494856Y1408356D01*
X3491668Y1400660D01*
X3489163Y1392715D01*
X3487360Y1384582D01*
X3486273Y1376323D01*
X3485909Y1368000D01*
Y1308000D01*
X3486273Y1299677D01*
X3487360Y1291418D01*
X3489163Y1283285D01*
X3491668Y1275340D01*
X3494856Y1267644D01*
X3498702Y1260255D01*
X3503178Y1253229D01*
X3508250Y1246620D01*
X3513878Y1240478D01*
X3520020Y1234850D01*
X3526629Y1229778D01*
X3533655Y1225302D01*
X3541044Y1221456D01*
X3548740Y1218268D01*
X3556685Y1215763D01*
X3564818Y1213960D01*
X3573077Y1212873D01*
X3581400Y1212509D01*
X3589723Y1212873D01*
X3597982Y1213960D01*
X3606115Y1215763D01*
X3614060Y1218268D01*
X3621756Y1221456D01*
X3629145Y1225302D01*
X3636171Y1229778D01*
X3642780Y1234850D01*
X3644321Y1236261D01*
X3657021Y1230673D01*
Y1152500D01*
X3657338Y1146848D01*
X3658286Y1141267D01*
X3659853Y1135828D01*
X3662020Y1130598D01*
X3664758Y1125643D01*
X3668034Y1121026D01*
X3671806Y1116805D01*
X3794305Y994306D01*
X3798526Y990534D01*
X3803143Y987258D01*
X3808098Y984520D01*
X3813327Y982353D01*
X3809398Y970479D01*
X3453409D01*
X3377879Y1046009D01*
Y1227044D01*
X3382171Y1229778D01*
X3388780Y1234850D01*
X3394922Y1240478D01*
X3400550Y1246620D01*
X3405622Y1253229D01*
X3410098Y1260255D01*
X3413944Y1267644D01*
X3417132Y1275340D01*
X3419637Y1283285D01*
X3421440Y1291418D01*
X3422527Y1299677D01*
X3422891Y1308000D01*
Y1368000D01*
X3422527Y1376323D01*
X3421440Y1384582D01*
X3419637Y1392715D01*
X3417132Y1400660D01*
X3413944Y1408356D01*
X3410098Y1415746D01*
X3405622Y1422772D01*
X3400550Y1429381D01*
X3394922Y1435522D01*
X3388780Y1441151D01*
X3382171Y1446222D01*
X3375145Y1450698D01*
X3367756Y1454544D01*
X3360060Y1457732D01*
X3352115Y1460237D01*
X3343982Y1462041D01*
X3335723Y1463128D01*
X3327400Y1463491D01*
X3319077Y1463128D01*
X3310818Y1462041D01*
X3302685Y1460237D01*
X3294740Y1457732D01*
X3287044Y1454544D01*
X3279655Y1450698D01*
X3272629Y1446222D01*
X3266020Y1441151D01*
X3259878Y1435522D01*
X3254250Y1429381D01*
X3249178Y1422772D01*
X3244702Y1415746D01*
X3240856Y1408356D01*
X3237668Y1400660D01*
X3235163Y1392715D01*
X3233360Y1384582D01*
X3232273Y1376323D01*
X3231909Y1368000D01*
Y1308000D01*
X3232273Y1299677D01*
X3233360Y1291418D01*
X3235163Y1283285D01*
X3237668Y1275340D01*
X3240856Y1267644D01*
X3244702Y1260255D01*
X3249178Y1253229D01*
X3254250Y1246620D01*
X3259878Y1240478D01*
X3266020Y1234850D01*
X3272629Y1229778D01*
X3276921Y1227044D01*
Y1025100D01*
X3277238Y1019448D01*
X3278186Y1013867D01*
X3279753Y1008428D01*
X3281920Y1003198D01*
X3284658Y998243D01*
X3287933Y993627D01*
X3291706Y989406D01*
X3371398Y909713D01*
X3366538Y897980D01*
X3090909D01*
X3000479Y988410D01*
Y1228199D01*
X3008996Y1233107D01*
X3013179Y1233960D01*
X3018629Y1229778D01*
X3025655Y1225302D01*
X3033044Y1221456D01*
X3040740Y1218268D01*
X3048685Y1215763D01*
X3056818Y1213960D01*
X3065077Y1212873D01*
X3073400Y1212509D01*
X3081723Y1212873D01*
X3089982Y1213960D01*
X3098115Y1215763D01*
X3106060Y1218268D01*
X3113756Y1221456D01*
X3121145Y1225302D01*
X3128171Y1229778D01*
X3134780Y1234850D01*
X3140922Y1240478D01*
X3146550Y1246620D01*
X3151622Y1253229D01*
X3156098Y1260255D01*
X3159944Y1267644D01*
X3163132Y1275340D01*
X3165637Y1283285D01*
X3167440Y1291418D01*
X3168527Y1299677D01*
X3168891Y1308000D01*
Y1368000D01*
X3168527Y1376323D01*
X3167440Y1384582D01*
X3165637Y1392715D01*
X3163132Y1400660D01*
X3159944Y1408356D01*
X3156098Y1415746D01*
X3151622Y1422772D01*
X3146550Y1429381D01*
X3140922Y1435522D01*
X3134780Y1441151D01*
X3128887Y1445672D01*
Y1620417D01*
X3442033Y1933562D01*
X3754600D01*
Y1793096D01*
X3945400D01*
Y1802517D01*
X3974598D01*
Y1784596D01*
X4205398D01*
Y1933562D01*
X4511549D01*
X4517762Y1933911D01*
X4523896Y1934953D01*
X4529875Y1936676D01*
X4535624Y1939057D01*
X4541070Y1942066D01*
X4546145Y1945667D01*
X4550784Y1949814D01*
X4587095Y1986124D01*
X4597224Y1982130D01*
X4599228Y1980296D01*
X4598909Y1973000D01*
X4599272Y1964678D01*
X4600360Y1956418D01*
X4602163Y1948285D01*
X4604668Y1940340D01*
X4607856Y1932644D01*
X4611702Y1925255D01*
X4616178Y1918229D01*
X4621250Y1911620D01*
X4626878Y1905478D01*
X4633019Y1899850D01*
X4639629Y1894779D01*
X4646654Y1890303D01*
X4654044Y1886456D01*
X4661740Y1883268D01*
X4669685Y1880763D01*
X4677818Y1878960D01*
X4686077Y1877873D01*
X4694400Y1877509D01*
X4754400D01*
X4762723Y1877873D01*
X4770982Y1878960D01*
X4779115Y1880763D01*
X4787060Y1883268D01*
X4794756Y1886456D01*
X4802146Y1890303D01*
X4809171Y1894779D01*
X4815781Y1899850D01*
X4821922Y1905478D01*
X4827550Y1911620D01*
X4832622Y1918229D01*
X4837098Y1925255D01*
X4840944Y1932644D01*
X4844132Y1940340D01*
X4846637Y1948285D01*
X4848440Y1956418D01*
X4849528Y1964678D01*
X4849891Y1973000D01*
X4849528Y1981323D01*
X4848440Y1989582D01*
X4846637Y1997715D01*
X4844132Y2005660D01*
X4840944Y2013356D01*
X4837098Y2020746D01*
X4832622Y2027771D01*
X4829521Y2031813D01*
X4832138Y2040233D01*
X4835491Y2044513D01*
X5205000D01*
X5211213Y2044862D01*
X5217347Y2045904D01*
X5223327Y2047627D01*
X5229075Y2050008D01*
X5234521Y2053017D01*
X5239596Y2056618D01*
X5244236Y2060765D01*
X5379235Y2195764D01*
X5383382Y2200404D01*
X5386982Y2205479D01*
X5389992Y2210925D01*
X5392374Y2216673D01*
X5394096Y2222653D01*
X5395138Y2228787D01*
X5395487Y2235000D01*
Y3107016D01*
X5460484Y3172013D01*
X6144517D01*
X6204519Y3112010D01*
Y3060387D01*
X6144606D01*
Y2894587D01*
X6375406D01*
Y3060387D01*
X6315494D01*
Y3134994D01*
X6315145Y3141207D01*
X6314102Y3147341D01*
X6312380Y3153320D01*
X6309999Y3159069D01*
X6306989Y3164515D01*
X6303388Y3169590D01*
X6299242Y3174230D01*
X6206736Y3266735D01*
X6202096Y3270882D01*
X6197021Y3274483D01*
X6191575Y3277492D01*
X6185827Y3279874D01*
X6179847Y3281596D01*
X6173713Y3282638D01*
X6167500Y3282987D01*
X5437500D01*
X5431288Y3282639D01*
X5425153Y3281596D01*
X5419174Y3279874D01*
X5413425Y3277493D01*
X5407979Y3274483D01*
X5402904Y3270882D01*
X5398265Y3266736D01*
X5300765Y3169235D01*
X5296618Y3164596D01*
X5293017Y3159521D01*
X5290008Y3154075D01*
X5287626Y3148326D01*
X5285904Y3142347D01*
X5284862Y3136212D01*
X5284513Y3130000D01*
Y2257984D01*
X5182017Y2155487D01*
X4835491D01*
X4832138Y2159767D01*
X4829521Y2168187D01*
X4832622Y2172229D01*
X4837098Y2179255D01*
X4840944Y2186644D01*
X4844132Y2194340D01*
X4846637Y2202285D01*
X4848440Y2210418D01*
X4849528Y2218678D01*
X4849891Y2227000D01*
X4849528Y2235323D01*
X4848440Y2243582D01*
X4846637Y2251715D01*
X4844132Y2259660D01*
X4840944Y2267356D01*
X4837098Y2274746D01*
X4832622Y2281771D01*
X4827550Y2288380D01*
X4821922Y2294522D01*
X4815781Y2300150D01*
X4809171Y2305222D01*
X4802146Y2309698D01*
X4794756Y2313544D01*
X4787060Y2316732D01*
X4779115Y2319237D01*
X4770982Y2321040D01*
X4762723Y2322127D01*
X4754400Y2322491D01*
X4694400D01*
X4686077Y2322127D01*
X4677818Y2321040D01*
X4669685Y2319237D01*
X4661740Y2316732D01*
X4654044Y2313544D01*
X4646654Y2309698D01*
X4639629Y2305222D01*
X4633019Y2300150D01*
X4626878Y2294522D01*
X4621250Y2288380D01*
X4616178Y2281771D01*
X4611702Y2274746D01*
X4607856Y2267356D01*
X4604668Y2259660D01*
X4602163Y2251715D01*
X4600360Y2243582D01*
X4599272Y2235323D01*
X4598909Y2227000D01*
X4599272Y2218678D01*
X4600360Y2210418D01*
X4602163Y2202285D01*
X4604668Y2194340D01*
X4607856Y2186644D01*
X4611702Y2179255D01*
X4616178Y2172229D01*
X4619397Y2168034D01*
X4617440Y2159917D01*
X4613986Y2154748D01*
X4610153Y2154096D01*
X4604174Y2152374D01*
X4598425Y2149993D01*
X4592979Y2146983D01*
X4587904Y2143382D01*
X4583265Y2139236D01*
X4488566Y2044536D01*
X3473471D01*
X3470813Y2056872D01*
X3476924Y2058726D01*
X3482825Y2061170D01*
X3485144Y2062410D01*
X3657500D01*
X3663948Y2062772D01*
X3670315Y2063854D01*
X3676521Y2065642D01*
X3682487Y2068113D01*
X3688140Y2071237D01*
X3693407Y2074974D01*
X3698222Y2079278D01*
X3791445Y2172500D01*
X3950000D01*
Y2342021D01*
X3985852D01*
Y2285401D01*
X4101252D01*
X4225697D01*
X4228385Y2286514D01*
X4257104Y2257795D01*
Y2177100D01*
X4487903D01*
Y2342900D01*
X4357201D01*
X4246301Y2453801D01*
X4241540Y2458116D01*
X4236378Y2461944D01*
X4230867Y2465247D01*
X4225058Y2467995D01*
X4219008Y2470159D01*
X4216651Y2470750D01*
Y2632900D01*
X3985852D01*
Y2615479D01*
X3945400D01*
Y2632900D01*
X3898179D01*
Y2760131D01*
X3902922Y2764478D01*
X3908550Y2770620D01*
X3913622Y2777229D01*
X3918098Y2784255D01*
X3921944Y2791644D01*
X3925132Y2799340D01*
X3927637Y2807285D01*
X3929440Y2815418D01*
X3930527Y2823677D01*
X3930891Y2832000D01*
Y2892000D01*
X3930527Y2900323D01*
X3929440Y2908582D01*
X3927637Y2916715D01*
X3925132Y2924660D01*
X3921944Y2932356D01*
X3918098Y2939746D01*
X3913622Y2946772D01*
X3908550Y2953381D01*
X3902922Y2959522D01*
X3896780Y2965151D01*
X3890171Y2970222D01*
X3883145Y2974698D01*
X3875756Y2978544D01*
X3868060Y2981732D01*
X3860115Y2984237D01*
X3851982Y2986041D01*
X3843723Y2987128D01*
X3835400Y2987491D01*
X3827077Y2987128D01*
X3818818Y2986041D01*
X3810685Y2984237D01*
X3802740Y2981732D01*
X3795044Y2978544D01*
X3787655Y2974698D01*
X3780629Y2970222D01*
X3774020Y2965151D01*
X3767878Y2959522D01*
X3762250Y2953381D01*
X3757178Y2946772D01*
X3752702Y2939746D01*
X3748856Y2932356D01*
X3745668Y2924660D01*
X3743163Y2916715D01*
X3741360Y2908582D01*
X3740273Y2900323D01*
X3739909Y2892000D01*
Y2832000D01*
X3740273Y2823677D01*
X3741360Y2815418D01*
X3743163Y2807285D01*
X3745668Y2799340D01*
X3748856Y2791644D01*
X3752702Y2784255D01*
X3757178Y2777229D01*
X3762250Y2770620D01*
X3767221Y2765195D01*
Y2632900D01*
X3714600D01*
Y2472979D01*
X3641000D01*
X3634582Y2472664D01*
X3628225Y2471721D01*
X3621992Y2470159D01*
X3615942Y2467995D01*
X3610133Y2465247D01*
X3604621Y2461944D01*
X3599460Y2458116D01*
X3594699Y2453801D01*
X3552798Y2411900D01*
X3474600D01*
Y2221100D01*
X3625400D01*
Y2299383D01*
X3626300Y2300199D01*
X3668122Y2342021D01*
X3710000D01*
Y2253945D01*
X3633645Y2177591D01*
X3485144D01*
X3482825Y2178830D01*
X3476924Y2181274D01*
X3470813Y2183128D01*
X3464549Y2184374D01*
X3458193Y2185000D01*
X3451807D01*
X3445451Y2184374D01*
X3439187Y2183128D01*
X3433076Y2181274D01*
X3427175Y2178830D01*
X3421543Y2175820D01*
X3416233Y2172272D01*
X3411296Y2168220D01*
X3406780Y2163704D01*
X3402729Y2158767D01*
X3399180Y2153457D01*
X3396170Y2147825D01*
X3393726Y2141924D01*
X3391872Y2135813D01*
X3390626Y2129549D01*
X3390000Y2123193D01*
Y2116807D01*
X3390626Y2110451D01*
X3391872Y2104187D01*
X3393726Y2098076D01*
X3396170Y2092175D01*
X3399180Y2086543D01*
X3402729Y2081233D01*
X3406780Y2076296D01*
X3411296Y2071780D01*
X3416233Y2067729D01*
X3421543Y2064181D01*
X3427175Y2061170D01*
X3433076Y2058726D01*
X3439187Y2056872D01*
X3436529Y2044536D01*
X3419049D01*
X3412836Y2044187D01*
X3406702Y2043145D01*
X3400723Y2041423D01*
X3394974Y2039041D01*
X3389528Y2036031D01*
X3384453Y2032431D01*
X3379813Y2028284D01*
X3038100Y1686571D01*
X3025400Y1691831D01*
Y1825400D01*
X2874600D01*
Y1634600D01*
X2899520D01*
Y1440572D01*
X2887203Y1435635D01*
X2886820Y1435616D01*
X2880780Y1441151D01*
X2874171Y1446222D01*
X2867145Y1450698D01*
X2859756Y1454544D01*
X2852060Y1457732D01*
X2844115Y1460237D01*
X2835982Y1462041D01*
X2827723Y1463128D01*
X2819400Y1463491D01*
X2811077Y1463128D01*
X2802818Y1462041D01*
X2794685Y1460237D01*
X2786740Y1457732D01*
X2779044Y1454544D01*
X2771655Y1450698D01*
X2764629Y1446222D01*
X2758020Y1441151D01*
X2751878Y1435522D01*
X2746250Y1429381D01*
X2741178Y1422772D01*
X2736702Y1415746D01*
X2732856Y1408356D01*
X2729668Y1400660D01*
X2727163Y1392715D01*
X2725360Y1384582D01*
X2724273Y1376323D01*
X2723909Y1368000D01*
Y1308000D01*
X2724273Y1299677D01*
X2725360Y1291418D01*
X2727163Y1283285D01*
X2729668Y1275340D01*
X2732856Y1267644D01*
X2736702Y1260255D01*
X2741178Y1253229D01*
X2746250Y1246620D01*
X2751878Y1240478D01*
X2758020Y1234850D01*
X2764629Y1229778D01*
X2771655Y1225302D01*
X2779044Y1221456D01*
X2786740Y1218268D01*
X2794685Y1215763D01*
X2802818Y1213960D01*
X2811077Y1212873D01*
X2819400Y1212509D01*
X2827723Y1212873D01*
X2835982Y1213960D01*
X2844115Y1215763D01*
X2852060Y1218268D01*
X2859756Y1221456D01*
X2867145Y1225302D01*
X2874171Y1229778D01*
X2880780Y1234850D01*
X2886820Y1240385D01*
X2887203Y1240365D01*
X2899520Y1235428D01*
Y967500D01*
X2899838Y961848D01*
X2900786Y956268D01*
X2902353Y950828D01*
X2904519Y945598D01*
X2907258Y940644D01*
X2910533Y936027D01*
X2914306Y931806D01*
X3034306Y811806D01*
X3038527Y808034D01*
X3043144Y804758D01*
X3048098Y802020D01*
X3053328Y799853D01*
X3058768Y798286D01*
X3064348Y797338D01*
X3070000Y797021D01*
X4412120D01*
Y657100D01*
X4463537D01*
Y464038D01*
X4462629Y463431D01*
X4455508Y457817D01*
X4448849Y451662D01*
X4442693Y445003D01*
X4437079Y437882D01*
X4432041Y430342D01*
X4427610Y422430D01*
X4423814Y414194D01*
X4420675Y405687D01*
X4418214Y396959D01*
X4416445Y388065D01*
X4415379Y379060D01*
X4415023Y369999D01*
Y329998D01*
X4415379Y320937D01*
X4416445Y311932D01*
X4418214Y303038D01*
X4420675Y294310D01*
X4423814Y285803D01*
X4427610Y277567D01*
X4432041Y269656D01*
X4437079Y262116D01*
X4442693Y254994D01*
X4447042Y250290D01*
X4445392Y243093D01*
X4441763Y237590D01*
X4395912D01*
Y485399D01*
X4165112D01*
Y237590D01*
X4021355D01*
X3930090Y328855D01*
Y547500D01*
X3929728Y553948D01*
X3928647Y560315D01*
X3926859Y566521D01*
X3924387Y572488D01*
X3921263Y578140D01*
X3917526Y583407D01*
X3913223Y588223D01*
X3775723Y725722D01*
X3770907Y730026D01*
X3765640Y733763D01*
X3759988Y736887D01*
X3754021Y739358D01*
X3747815Y741146D01*
X3741448Y742228D01*
X3735000Y742590D01*
X3485144D01*
X3482825Y743830D01*
X3476924Y746274D01*
X3470813Y748128D01*
X3464549Y749374D01*
X3458193Y750000D01*
X3451807D01*
X3445451Y749374D01*
X3439187Y748128D01*
X3433076Y746274D01*
X3427175Y743830D01*
X3421543Y740819D01*
X3416233Y737271D01*
X3411296Y733220D01*
X3406780Y728704D01*
X3402729Y723767D01*
X3399180Y718457D01*
X3396170Y712825D01*
X3393726Y706924D01*
X3391872Y700813D01*
X3390626Y694549D01*
X3390000Y688193D01*
Y681807D01*
X3390626Y675451D01*
X3391872Y669187D01*
X3393726Y663076D01*
X3396170Y657175D01*
X3399180Y651543D01*
X3402729Y646233D01*
X3406780Y641296D01*
X3411296Y636780D01*
X3416233Y632728D01*
X3421543Y629180D01*
X3427175Y626170D01*
X3433076Y623726D01*
X3439187Y621872D01*
X3445451Y620626D01*
X3451807Y620000D01*
X3458193D01*
X3464549Y620626D01*
X3470813Y621872D01*
X3476924Y623726D01*
X3482825Y626170D01*
X3485144Y627409D01*
X3711145D01*
X3814910Y523645D01*
Y305000D01*
X3815272Y298552D01*
X3816354Y292185D01*
X3818141Y285979D01*
X3820613Y280013D01*
X3823737Y274360D01*
X3827474Y269093D01*
X3831777Y264278D01*
X3956778Y139277D01*
X3961593Y134974D01*
X3966860Y131237D01*
X3972513Y128113D01*
X3978479Y125641D01*
X3984685Y123853D01*
X3991052Y122772D01*
X3997500Y122409D01*
X6995000D01*
X7001448Y122772D01*
X7007815Y123853D01*
X7014021Y125641D01*
X7019987Y128113D01*
X7025640Y131237D01*
X7030907Y134974D01*
X7035722Y139277D01*
X7160723Y264278D01*
X7165026Y269093D01*
X7168763Y274360D01*
X7171887Y280013D01*
X7174359Y285979D01*
X7176147Y292185D01*
X7177228Y298552D01*
X7177590Y305000D01*
Y1287500D01*
X7177228Y1293948D01*
X7176146Y1300315D01*
X7174359Y1306521D01*
X7171887Y1312488D01*
X7168763Y1318140D01*
X7165026Y1323407D01*
X7160723Y1328223D01*
X7033223Y1455723D01*
X7028407Y1460026D01*
X7023140Y1463763D01*
X7017488Y1466887D01*
X7011521Y1469359D01*
X7010057Y1469780D01*
X7003859Y1474473D01*
X7000388Y1482399D01*
Y1534600D01*
X6884989D01*
X6769589D01*
Y1485291D01*
X6769588Y1477100D01*
X6758757Y1472590D01*
X6744596D01*
Y1647500D01*
X6682187D01*
Y1917903D01*
X6681825Y1924351D01*
X6680743Y1930718D01*
X6678955Y1936924D01*
X6676484Y1942891D01*
X6673360Y1948543D01*
X6669623Y1953810D01*
X6665319Y1958626D01*
X6593490Y2030454D01*
Y2197056D01*
X6631939D01*
X6631940Y2197056D01*
Y2197055D01*
X6631940Y2197056D01*
X6643060Y2193241D01*
Y2102056D01*
X6737930D01*
X6739540Y2101965D01*
X6836457D01*
X6879145Y2059278D01*
X6883961Y2054974D01*
X6889228Y2051237D01*
X6894880Y2048113D01*
X6900847Y2045642D01*
X6907053Y2043854D01*
X6913419Y2042772D01*
X6919868Y2042410D01*
X7269856D01*
X7272175Y2041170D01*
X7278076Y2038726D01*
X7284187Y2036872D01*
X7290451Y2035626D01*
X7296807Y2035000D01*
X7303193D01*
X7309549Y2035626D01*
X7315813Y2036872D01*
X7321924Y2038726D01*
X7327825Y2041170D01*
X7333457Y2044181D01*
X7338767Y2047729D01*
X7343704Y2051780D01*
X7348220Y2056296D01*
X7352271Y2061233D01*
X7355819Y2066543D01*
X7358830Y2072175D01*
X7361274Y2078076D01*
X7363128Y2084187D01*
X7364374Y2090451D01*
X7365000Y2096807D01*
Y2103193D01*
X7364374Y2109549D01*
X7363128Y2115813D01*
X7361274Y2121924D01*
X7358830Y2127825D01*
X7355819Y2133457D01*
X7352271Y2138767D01*
X7348220Y2143704D01*
X7343704Y2148220D01*
X7338767Y2152272D01*
X7333457Y2155820D01*
X7327825Y2158830D01*
X7321924Y2161274D01*
X7315813Y2163128D01*
X7309549Y2164374D01*
X7303193Y2165000D01*
X7296807D01*
X7290451Y2164374D01*
X7284187Y2163128D01*
X7278076Y2161274D01*
X7272175Y2158830D01*
X7269856Y2157591D01*
X7131721D01*
X7124994Y2167505D01*
Y2197414D01*
X7511141D01*
X7649278Y2059278D01*
X7654093Y2054974D01*
X7659360Y2051237D01*
X7665013Y2048113D01*
X7670979Y2045642D01*
X7677185Y2043854D01*
X7683552Y2042772D01*
X7690000Y2042410D01*
X7946145D01*
X8009908Y1978647D01*
Y200000D01*
X8010278Y195292D01*
X8011381Y190701D01*
X8013188Y186338D01*
X8015655Y182312D01*
X8018722Y178722D01*
X8022312Y175655D01*
X8026339Y173187D01*
X8030701Y171380D01*
X8035293Y170278D01*
X8040000Y169907D01*
X8617500D01*
X8622208Y170278D01*
X8626800Y171380D01*
X8631162Y173187D01*
X8635188Y175655D01*
X8638779Y178722D01*
X8641846Y182312D01*
X8644313Y186338D01*
X8646120Y190701D01*
X8647222Y195292D01*
X8647593Y200000D01*
Y719907D01*
X9264908D01*
Y200000D01*
X9265278Y195292D01*
X9266381Y190701D01*
X9268188Y186338D01*
X9270655Y182312D01*
X9273722Y178722D01*
X9277312Y175655D01*
X9281339Y173187D01*
X9285701Y171380D01*
X9290293Y170278D01*
X9295000Y169907D01*
X9875000D01*
X9879708Y170278D01*
X9884299Y171380D01*
X9888662Y173187D01*
X9892688Y175655D01*
X9896279Y178722D01*
X9899345Y182312D01*
X9901813Y186338D01*
X9903620Y190701D01*
X9904722Y195292D01*
X9905093Y200000D01*
Y1948994D01*
X10201284Y2120000D01*
X10710000D01*
X10711818Y2108053D01*
Y528907D01*
X10699118Y523987D01*
X10692354Y531408D01*
X10681408Y542354D01*
X10669968Y552782D01*
X10658059Y562671D01*
X10645706Y572000D01*
X10632935Y580748D01*
X10619774Y588897D01*
X10606251Y596430D01*
X10592394Y603330D01*
X10578233Y609582D01*
X10563799Y615174D01*
X10549121Y620093D01*
X10534233Y624329D01*
X10519164Y627874D01*
X10503948Y630718D01*
X10488617Y632856D01*
X10473203Y634285D01*
X10457740Y635000D01*
X10442260D01*
X10426797Y634285D01*
X10411383Y632856D01*
X10396052Y630718D01*
X10380836Y627874D01*
X10365767Y624329D01*
X10350878Y620093D01*
X10336201Y615174D01*
X10321767Y609582D01*
X10307606Y603330D01*
X10293749Y596430D01*
X10280226Y588897D01*
X10267065Y580748D01*
X10254294Y572000D01*
X10241941Y562671D01*
X10230032Y552782D01*
X10218592Y542354D01*
X10207646Y531408D01*
X10197218Y519968D01*
X10187329Y508059D01*
X10178000Y495706D01*
X10169252Y482935D01*
X10161103Y469774D01*
X10153570Y456251D01*
X10146670Y442394D01*
X10140418Y428233D01*
X10134826Y413799D01*
X10129907Y399121D01*
X10125670Y384233D01*
X10122126Y369164D01*
X10119282Y353948D01*
X10117143Y338617D01*
X10115715Y323203D01*
X10115000Y307740D01*
Y292260D01*
X10115715Y276797D01*
X10117143Y261383D01*
X10119282Y246052D01*
X10122126Y230836D01*
X10125670Y215767D01*
X10129907Y200878D01*
X10134826Y186201D01*
X10140418Y171767D01*
X10146670Y157606D01*
X10153570Y143749D01*
X10161103Y130226D01*
X10169252Y117065D01*
X10178000Y104294D01*
X10187329Y91941D01*
X10197218Y80032D01*
X10207646Y68592D01*
X10218592Y57646D01*
X10226013Y50882D01*
X10221093Y38182D01*
X528907D01*
X523987Y50882D01*
X531408Y57647D01*
X542354Y68592D01*
X552782Y80032D01*
X562671Y91941D01*
X572000Y104294D01*
X580748Y117065D01*
X588897Y130226D01*
X596430Y143750D01*
X603330Y157606D01*
X609582Y171767D01*
X615174Y186202D01*
X620093Y200879D01*
X624329Y215767D01*
X627874Y230836D01*
X630718Y246052D01*
X632856Y261384D01*
X634285Y276797D01*
X635000Y292260D01*
Y307740D01*
X634285Y323203D01*
X632856Y338617D01*
X630718Y353948D01*
X627874Y369164D01*
X624329Y384233D01*
X620093Y399122D01*
X615174Y413799D01*
X609582Y428233D01*
X603330Y442394D01*
X596430Y456251D01*
X588897Y469774D01*
X580748Y482936D01*
X572000Y495706D01*
X562671Y508059D01*
X552782Y519968D01*
X542354Y531408D01*
X531408Y542354D01*
X519968Y552782D01*
X508059Y562671D01*
X495706Y572000D01*
X482935Y580748D01*
X469774Y588897D01*
X456251Y596430D01*
X442394Y603330D01*
X428233Y609582D01*
X413799Y615174D01*
X399121Y620094D01*
X384233Y624330D01*
X369164Y627874D01*
X353948Y630718D01*
X338617Y632857D01*
X323203Y634285D01*
X307740Y635000D01*
X292260D01*
X276797Y634285D01*
X261383Y632857D01*
X246052Y630718D01*
X230836Y627874D01*
X215767Y624330D01*
X200878Y620094D01*
X186201Y615174D01*
X171767Y609582D01*
X157606Y603330D01*
X143749Y596430D01*
X130226Y588897D01*
X117065Y580748D01*
X104294Y572000D01*
X91941Y562671D01*
X80032Y552782D01*
X68592Y542354D01*
X57646Y531408D01*
X50882Y523988D01*
X38182Y528908D01*
Y3671093D01*
X50882Y3676013D01*
X57646Y3668592D01*
X68592Y3657646D01*
X80032Y3647218D01*
X91941Y3637329D01*
X104294Y3628000D01*
X117065Y3619252D01*
X130226Y3611103D01*
X143749Y3603570D01*
X157606Y3596670D01*
X171767Y3590418D01*
X186201Y3584826D01*
X200878Y3579907D01*
X215767Y3575671D01*
X230836Y3572126D01*
X246052Y3569282D01*
X261383Y3567143D01*
X276797Y3565715D01*
X292260Y3565000D01*
X307740D01*
X323203Y3565715D01*
X338617Y3567143D01*
X353948Y3569282D01*
X369164Y3572126D01*
X384233Y3575671D01*
X399121Y3579907D01*
X413799Y3584826D01*
X428233Y3590418D01*
X442394Y3596670D01*
X456251Y3603570D01*
X469774Y3611103D01*
X482935Y3619252D01*
X495706Y3628000D01*
X508059Y3637329D01*
X519968Y3647218D01*
X531408Y3657646D01*
X542354Y3668592D01*
X552782Y3680032D01*
X562671Y3691941D01*
X572000Y3704294D01*
X580748Y3717065D01*
X588897Y3730226D01*
X596430Y3743749D01*
X603330Y3757606D01*
X609582Y3771767D01*
X615174Y3786201D01*
X620093Y3800879D01*
X624329Y3815767D01*
X627874Y3830836D01*
X630718Y3846052D01*
X632856Y3861383D01*
X634285Y3876797D01*
X635000Y3892260D01*
Y3907740D01*
X634285Y3923203D01*
X632856Y3938617D01*
X630718Y3953948D01*
X627874Y3969164D01*
X624329Y3984233D01*
X620093Y3999122D01*
X615174Y4013799D01*
X609582Y4028233D01*
X603330Y4042394D01*
X596430Y4056251D01*
X588897Y4069774D01*
X580748Y4082935D01*
X572000Y4095706D01*
X562671Y4108059D01*
X552782Y4119968D01*
X542354Y4131408D01*
X531408Y4142354D01*
X523987Y4149118D01*
X528907Y4161818D01*
X6183113D01*
X6185884Y4158175D01*
X6188484Y4149118D01*
X6184682Y4145005D01*
X6179067Y4137883D01*
X6174030Y4130343D01*
X6169599Y4122431D01*
X6165802Y4114196D01*
X6162664Y4105689D01*
X6161060Y4100001D01*
X6272500D01*
X6383940D01*
X6382336Y4105689D01*
X6379198Y4114196D01*
X6375402Y4122431D01*
X6370970Y4130343D01*
X6365933Y4137883D01*
X6360318Y4145005D01*
X6356516Y4149118D01*
X6359116Y4158175D01*
X6361887Y4161818D01*
X6633113D01*
X6635885Y4158174D01*
X6638484Y4149118D01*
X6634681Y4145004D01*
X6629067Y4137883D01*
X6624029Y4130343D01*
X6619598Y4122431D01*
X6615802Y4114196D01*
X6612663Y4105688D01*
X6611059Y4099999D01*
X6722500D01*
X6833941D01*
X6832336Y4105688D01*
X6829198Y4114196D01*
X6825401Y4122431D01*
X6820970Y4130343D01*
X6815933Y4137883D01*
X6810318Y4145004D01*
X6806516Y4149118D01*
X6809115Y4158174D01*
X6811887Y4161818D01*
X10221093D01*
X10226013Y4149118D01*
D02*
G37*
G36*
X9875000Y2760000D02*
X10706464D01*
Y2160000D01*
X9875000D01*
Y200000D01*
X9295000D01*
Y750000D01*
X8617500D01*
Y200000D01*
X8040000D01*
Y4000000D01*
X8617500D01*
Y3450000D01*
X9295000D01*
Y4000000D01*
X9875000D01*
Y2760000D01*
D02*
G37*
G36*
X7062410Y1263645D02*
Y328855D01*
X6971145Y237590D01*
X6899261D01*
X6895632Y243093D01*
X6893982Y250290D01*
X6898330Y254994D01*
X6903944Y262116D01*
X6908982Y269656D01*
X6913413Y277567D01*
X6917209Y285803D01*
X6920348Y294310D01*
X6922810Y303038D01*
X6924579Y311932D01*
X6925645Y320937D01*
X6926001Y329998D01*
Y369999D01*
X6925645Y379060D01*
X6924579Y388065D01*
X6922810Y396959D01*
X6920348Y405687D01*
X6917209Y414194D01*
X6913413Y422430D01*
X6908982Y430342D01*
X6908098Y431664D01*
X6828473Y352039D01*
X6810513Y369999D01*
X6792552Y352039D01*
X6712925Y431665D01*
X6712041Y430342D01*
X6707610Y422430D01*
X6703814Y414194D01*
X6700675Y405687D01*
X6698214Y396959D01*
X6696445Y388065D01*
X6695379Y379060D01*
X6695023Y369999D01*
Y329998D01*
X6695379Y320937D01*
X6696445Y311932D01*
X6698214Y303038D01*
X6700675Y294310D01*
X6703814Y285803D01*
X6707610Y277567D01*
X6712041Y269656D01*
X6717079Y262116D01*
X6722693Y254994D01*
X6727041Y250290D01*
X6725392Y243093D01*
X6721763Y237590D01*
X6649261D01*
X6645632Y243093D01*
X6643982Y250290D01*
X6648330Y254994D01*
X6653944Y262116D01*
X6658982Y269656D01*
X6663413Y277567D01*
X6667209Y285803D01*
X6670348Y294310D01*
X6672810Y303038D01*
X6674579Y311932D01*
X6675645Y320937D01*
X6676001Y329998D01*
Y369999D01*
X6675645Y379060D01*
X6674579Y388065D01*
X6672810Y396959D01*
X6670348Y405687D01*
X6667209Y414194D01*
X6663413Y422430D01*
X6658982Y430342D01*
X6653944Y437882D01*
X6648330Y445003D01*
X6642175Y451662D01*
X6635516Y457817D01*
X6628394Y463431D01*
X6620854Y468469D01*
X6612943Y472900D01*
X6604707Y476697D01*
X6596200Y479835D01*
X6587472Y482297D01*
X6578578Y484066D01*
X6569573Y485132D01*
X6560512Y485488D01*
X6551450Y485132D01*
X6542445Y484066D01*
X6533551Y482297D01*
X6524824Y479835D01*
X6516316Y476697D01*
X6508081Y472900D01*
X6500169Y468469D01*
X6492629Y463431D01*
X6485507Y457817D01*
X6478849Y451662D01*
X6472693Y445003D01*
X6467079Y437882D01*
X6462041Y430342D01*
X6457610Y422430D01*
X6453814Y414194D01*
X6450675Y405687D01*
X6448214Y396959D01*
X6446445Y388065D01*
X6445379Y379060D01*
X6445023Y369999D01*
Y329998D01*
X6445379Y320937D01*
X6446445Y311932D01*
X6448214Y303038D01*
X6450675Y294310D01*
X6453814Y285803D01*
X6457610Y277567D01*
X6462041Y269656D01*
X6467079Y262116D01*
X6472693Y254994D01*
X6477041Y250290D01*
X6475392Y243093D01*
X6471763Y237590D01*
X6399261D01*
X6395632Y243093D01*
X6393982Y250290D01*
X6398330Y254994D01*
X6403944Y262116D01*
X6408982Y269656D01*
X6413413Y277567D01*
X6417209Y285803D01*
X6420348Y294310D01*
X6422810Y303038D01*
X6424579Y311932D01*
X6425645Y320937D01*
X6426001Y329998D01*
Y369999D01*
X6425645Y379060D01*
X6424579Y388065D01*
X6422810Y396959D01*
X6420348Y405687D01*
X6417209Y414194D01*
X6413413Y422430D01*
X6408982Y430342D01*
X6403944Y437882D01*
X6398330Y445003D01*
X6392175Y451662D01*
X6385516Y457817D01*
X6378394Y463431D01*
X6370854Y468469D01*
X6362943Y472900D01*
X6354707Y476697D01*
X6346200Y479835D01*
X6337472Y482297D01*
X6328578Y484066D01*
X6319573Y485132D01*
X6310512Y485488D01*
X6301450Y485132D01*
X6292445Y484066D01*
X6283551Y482297D01*
X6274824Y479835D01*
X6266316Y476697D01*
X6258081Y472900D01*
X6250169Y468469D01*
X6242629Y463431D01*
X6235507Y457817D01*
X6228849Y451662D01*
X6222693Y445003D01*
X6217079Y437882D01*
X6212041Y430342D01*
X6207610Y422430D01*
X6203814Y414194D01*
X6200675Y405687D01*
X6198214Y396959D01*
X6196445Y388065D01*
X6195379Y379060D01*
X6195023Y369999D01*
Y329998D01*
X6195379Y320937D01*
X6196445Y311932D01*
X6198214Y303038D01*
X6200675Y294310D01*
X6203814Y285803D01*
X6207610Y277567D01*
X6212041Y269656D01*
X6217079Y262116D01*
X6222693Y254994D01*
X6227041Y250290D01*
X6225392Y243093D01*
X6221763Y237590D01*
X6175911D01*
Y485399D01*
X5945112D01*
Y237590D01*
X5509261D01*
X5505632Y243093D01*
X5503982Y250290D01*
X5508330Y254994D01*
X5513944Y262116D01*
X5518982Y269656D01*
X5523413Y277567D01*
X5527209Y285803D01*
X5530348Y294310D01*
X5532810Y303038D01*
X5534579Y311932D01*
X5535645Y320937D01*
X5536001Y329998D01*
Y369999D01*
X5535645Y379060D01*
X5534579Y388065D01*
X5532810Y396959D01*
X5530348Y405687D01*
X5527209Y414194D01*
X5523413Y422430D01*
X5518982Y430342D01*
X5513944Y437882D01*
X5508330Y445003D01*
X5502175Y451662D01*
X5495516Y457817D01*
X5488394Y463431D01*
X5480854Y468469D01*
X5472943Y472900D01*
X5470991Y473800D01*
Y724488D01*
X5470674Y730140D01*
X5469725Y735721D01*
X5468158Y741161D01*
X5465992Y746390D01*
X5463254Y751345D01*
X5459978Y755962D01*
X5456206Y760183D01*
X5358601Y857787D01*
X5363462Y869520D01*
X6205000D01*
X6210652Y869838D01*
X6216232Y870786D01*
X6221672Y872353D01*
X6226902Y874519D01*
X6231856Y877258D01*
X6236473Y880533D01*
X6240694Y884306D01*
X6355691Y999303D01*
X6359463Y1003524D01*
X6362739Y1008140D01*
X6365477Y1013095D01*
X6367644Y1018325D01*
X6369211Y1023764D01*
X6370159Y1029345D01*
X6370476Y1034997D01*
Y1184599D01*
X6412896D01*
Y1204521D01*
X6509197D01*
Y1187100D01*
X6739996D01*
Y1204521D01*
X6769589D01*
Y1187100D01*
X7000388D01*
Y1309073D01*
X7012122Y1313933D01*
X7062410Y1263645D01*
D02*
G37*
G36*
X5370032Y703579D02*
Y473800D01*
X5368081Y472900D01*
X5360169Y468469D01*
X5352629Y463431D01*
X5345507Y457817D01*
X5338849Y451662D01*
X5332693Y445003D01*
X5327079Y437882D01*
X5322041Y430342D01*
X5317610Y422430D01*
X5313814Y414194D01*
X5310675Y405687D01*
X5308214Y396959D01*
X5306445Y388065D01*
X5305379Y379060D01*
X5305023Y369999D01*
Y329998D01*
X5305379Y320937D01*
X5306445Y311932D01*
X5308214Y303038D01*
X5310675Y294310D01*
X5313814Y285803D01*
X5317610Y277567D01*
X5322041Y269656D01*
X5327079Y262116D01*
X5332693Y254994D01*
X5337041Y250290D01*
X5335392Y243093D01*
X5331763Y237590D01*
X5285911D01*
Y485399D01*
X5055112D01*
Y237590D01*
X4619261D01*
X4615632Y243093D01*
X4613982Y250290D01*
X4618330Y254994D01*
X4623945Y262116D01*
X4628982Y269656D01*
X4633413Y277567D01*
X4637210Y285803D01*
X4640348Y294310D01*
X4642810Y303038D01*
X4644579Y311932D01*
X4645645Y320937D01*
X4646001Y329998D01*
Y369999D01*
X4645645Y379060D01*
X4644579Y388065D01*
X4642810Y396959D01*
X4640348Y405687D01*
X4637210Y414194D01*
X4633413Y422430D01*
X4628982Y430342D01*
X4623945Y437882D01*
X4618330Y445003D01*
X4612175Y451662D01*
X4605516Y457817D01*
X4598395Y463431D01*
X4594495Y466037D01*
Y657100D01*
X4642920D01*
Y797021D01*
X5276590D01*
X5370032Y703579D01*
D02*
G37*
%LPC*%
G36*
X6222500Y4000001D02*
X6161059D01*
X6162664Y3994312D01*
X6165802Y3985804D01*
X6169599Y3977569D01*
X6174030Y3969657D01*
X6179067Y3962117D01*
X6184682Y3954996D01*
X6190837Y3948337D01*
X6197496Y3942182D01*
X6204617Y3936567D01*
X6212157Y3931530D01*
X6220069Y3927099D01*
X6222500Y3925978D01*
Y4000001D01*
D02*
G37*
G36*
X6383941D02*
X6322500D01*
Y3925978D01*
X6324931Y3927099D01*
X6332843Y3931530D01*
X6340383Y3936567D01*
X6347504Y3942182D01*
X6354163Y3948337D01*
X6360318Y3954996D01*
X6365933Y3962117D01*
X6370970Y3969657D01*
X6375402Y3977569D01*
X6379198Y3985804D01*
X6382336Y3994312D01*
X6383941Y4000001D01*
D02*
G37*
G36*
X6672500Y3999999D02*
X6611059D01*
X6612663Y3994312D01*
X6615802Y3985804D01*
X6619598Y3977569D01*
X6624029Y3969657D01*
X6629067Y3962117D01*
X6634681Y3954996D01*
X6640837Y3948337D01*
X6647496Y3942181D01*
X6654617Y3936567D01*
X6662157Y3931529D01*
X6670069Y3927098D01*
X6672500Y3925978D01*
Y3999999D01*
D02*
G37*
G36*
X6833940D02*
X6772500D01*
Y3925977D01*
X6774931Y3927098D01*
X6782843Y3931529D01*
X6790383Y3936567D01*
X6797504Y3942181D01*
X6804163Y3948337D01*
X6810318Y3954996D01*
X6815933Y3962117D01*
X6820970Y3969657D01*
X6825401Y3977569D01*
X6829198Y3985804D01*
X6832336Y3994312D01*
X6833940Y3999999D01*
D02*
G37*
G36*
X3140512Y3985489D02*
X3131451Y3985133D01*
X3122445Y3984067D01*
X3113552Y3982298D01*
X3104824Y3979837D01*
X3096316Y3976698D01*
X3088081Y3972902D01*
X3080169Y3968471D01*
X3078847Y3967587D01*
X3140512Y3905922D01*
X3202177Y3967587D01*
X3200855Y3968471D01*
X3192943Y3972902D01*
X3184708Y3976698D01*
X3176200Y3979837D01*
X3167472Y3982298D01*
X3158578Y3984067D01*
X3149573Y3985133D01*
X3140512Y3985489D01*
D02*
G37*
G36*
X1110100D02*
X1101038Y3985133D01*
X1092033Y3984067D01*
X1083139Y3982298D01*
X1074412Y3979837D01*
X1065904Y3976698D01*
X1057669Y3972902D01*
X1049757Y3968471D01*
X1048434Y3967587D01*
X1110100Y3905922D01*
X1171765Y3967587D01*
X1170442Y3968471D01*
X1162531Y3972902D01*
X1154295Y3976698D01*
X1145788Y3979837D01*
X1137060Y3982298D01*
X1128166Y3984067D01*
X1119161Y3985133D01*
X1110100Y3985489D01*
D02*
G37*
G36*
X5749990Y3985400D02*
X5591033D01*
X5670512Y3905922D01*
X5749990Y3985400D01*
D02*
G37*
G36*
X3042925Y3931666D02*
X3042041Y3930343D01*
X3037610Y3922431D01*
X3033814Y3914196D01*
X3030675Y3905688D01*
X3028214Y3896961D01*
X3026445Y3888067D01*
X3025379Y3879062D01*
X3025023Y3870000D01*
Y3830000D01*
X3025379Y3820939D01*
X3026445Y3811933D01*
X3028214Y3803040D01*
X3030675Y3794312D01*
X3033814Y3785804D01*
X3037610Y3777569D01*
X3042041Y3769657D01*
X3042925Y3768334D01*
X3122551Y3847961D01*
X3140512Y3830000D01*
X3158472Y3847961D01*
X3238099Y3768335D01*
X3238982Y3769657D01*
X3243413Y3777569D01*
X3247210Y3785804D01*
X3250348Y3794312D01*
X3252810Y3803040D01*
X3254579Y3811933D01*
X3255645Y3820939D01*
X3256001Y3830000D01*
Y3870000D01*
X3255645Y3879062D01*
X3254579Y3888067D01*
X3252810Y3896961D01*
X3250348Y3905688D01*
X3247210Y3914196D01*
X3243413Y3922431D01*
X3238982Y3930343D01*
X3238099Y3931666D01*
X3158472Y3852040D01*
X3140512Y3870000D01*
X3122551Y3852040D01*
X3042925Y3931666D01*
D02*
G37*
G36*
X1012513D02*
X1011629Y3930343D01*
X1007198Y3922431D01*
X1003402Y3914196D01*
X1000263Y3905688D01*
X997802Y3896961D01*
X996033Y3888067D01*
X994967Y3879062D01*
X994611Y3870000D01*
Y3830000D01*
X994967Y3820939D01*
X996033Y3811933D01*
X997802Y3803040D01*
X1000263Y3794312D01*
X1003402Y3785804D01*
X1007198Y3777569D01*
X1011629Y3769657D01*
X1012513Y3768334D01*
X1092139Y3847961D01*
X1110100Y3830000D01*
X1128060Y3847961D01*
X1207686Y3768335D01*
X1208570Y3769657D01*
X1213001Y3777569D01*
X1216797Y3785804D01*
X1219936Y3794312D01*
X1222398Y3803040D01*
X1224167Y3811933D01*
X1225233Y3820939D01*
X1225589Y3830000D01*
Y3870000D01*
X1225233Y3879062D01*
X1224167Y3888067D01*
X1222398Y3896961D01*
X1219936Y3905688D01*
X1216797Y3914196D01*
X1213001Y3922431D01*
X1208570Y3930343D01*
X1207686Y3931666D01*
X1128060Y3852040D01*
X1110100Y3870000D01*
X1092139Y3852040D01*
X1012513Y3931666D01*
D02*
G37*
G36*
X5555112Y3949479D02*
Y3750521D01*
X5652551Y3847961D01*
X5670512Y3830000D01*
X5688472Y3847961D01*
X5785911Y3750522D01*
Y3949479D01*
X5688472Y3852040D01*
X5670512Y3870000D01*
X5652551Y3852040D01*
X5555112Y3949479D01*
D02*
G37*
G36*
X5670512Y3794079D02*
X5591033Y3714600D01*
X5749991D01*
X5670512Y3794079D01*
D02*
G37*
G36*
X4643912Y3985400D02*
X4413112D01*
Y3714600D01*
X4643912D01*
Y3985400D01*
D02*
G37*
G36*
X2613912D02*
X2383112D01*
Y3714600D01*
X2613912D01*
Y3985400D01*
D02*
G37*
G36*
X5170512Y3985489D02*
X5161450Y3985133D01*
X5152445Y3984067D01*
X5143551Y3982298D01*
X5134824Y3979837D01*
X5126316Y3976698D01*
X5118081Y3972902D01*
X5110169Y3968471D01*
X5102629Y3963433D01*
X5095507Y3957819D01*
X5088849Y3951663D01*
X5082693Y3945005D01*
X5077079Y3937883D01*
X5072041Y3930343D01*
X5067610Y3922431D01*
X5063814Y3914196D01*
X5060675Y3905688D01*
X5058214Y3896961D01*
X5056445Y3888067D01*
X5055379Y3879062D01*
X5055023Y3870000D01*
Y3830000D01*
X5055379Y3820939D01*
X5056445Y3811933D01*
X5058214Y3803040D01*
X5060675Y3794312D01*
X5063814Y3785804D01*
X5067610Y3777569D01*
X5072041Y3769657D01*
X5077079Y3762117D01*
X5082693Y3754996D01*
X5088849Y3748337D01*
X5095507Y3742181D01*
X5102629Y3736567D01*
X5110169Y3731529D01*
X5118081Y3727098D01*
X5126316Y3723302D01*
X5134824Y3720164D01*
X5143551Y3717702D01*
X5152445Y3715933D01*
X5161450Y3714867D01*
X5170512Y3714511D01*
X5179573Y3714867D01*
X5188578Y3715933D01*
X5197472Y3717702D01*
X5206200Y3720164D01*
X5214707Y3723302D01*
X5222943Y3727098D01*
X5230854Y3731529D01*
X5238394Y3736567D01*
X5245516Y3742181D01*
X5252175Y3748337D01*
X5258330Y3754996D01*
X5263944Y3762117D01*
X5268982Y3769657D01*
X5273413Y3777569D01*
X5277209Y3785804D01*
X5280348Y3794312D01*
X5282810Y3803040D01*
X5284579Y3811933D01*
X5285644Y3820939D01*
X5286001Y3830000D01*
Y3870000D01*
X5285644Y3879062D01*
X5284579Y3888067D01*
X5282810Y3896961D01*
X5280348Y3905688D01*
X5277209Y3914196D01*
X5273413Y3922431D01*
X5268982Y3930343D01*
X5263944Y3937883D01*
X5258330Y3945005D01*
X5252175Y3951663D01*
X5245516Y3957819D01*
X5238394Y3963433D01*
X5230854Y3968471D01*
X5222943Y3972902D01*
X5214707Y3976698D01*
X5206200Y3979837D01*
X5197472Y3982298D01*
X5188578Y3984067D01*
X5179573Y3985133D01*
X5170512Y3985489D01*
D02*
G37*
G36*
X3390512D02*
X3381451Y3985133D01*
X3372445Y3984067D01*
X3363552Y3982298D01*
X3354824Y3979837D01*
X3346316Y3976698D01*
X3338081Y3972902D01*
X3330169Y3968471D01*
X3322629Y3963433D01*
X3315508Y3957819D01*
X3308849Y3951663D01*
X3302693Y3945005D01*
X3297079Y3937883D01*
X3292041Y3930343D01*
X3287610Y3922431D01*
X3283814Y3914196D01*
X3280675Y3905688D01*
X3278214Y3896961D01*
X3276445Y3888067D01*
X3275379Y3879062D01*
X3275023Y3870000D01*
Y3830000D01*
X3275379Y3820939D01*
X3276445Y3811933D01*
X3278214Y3803040D01*
X3280675Y3794312D01*
X3283814Y3785804D01*
X3287610Y3777569D01*
X3292041Y3769657D01*
X3297079Y3762117D01*
X3302693Y3754996D01*
X3308849Y3748337D01*
X3315508Y3742181D01*
X3322629Y3736567D01*
X3330169Y3731529D01*
X3338081Y3727098D01*
X3346316Y3723302D01*
X3354824Y3720164D01*
X3363552Y3717702D01*
X3372445Y3715933D01*
X3381451Y3714867D01*
X3390512Y3714511D01*
X3399573Y3714867D01*
X3408578Y3715933D01*
X3417472Y3717702D01*
X3426200Y3720164D01*
X3434708Y3723302D01*
X3442943Y3727098D01*
X3450855Y3731529D01*
X3458395Y3736567D01*
X3465516Y3742181D01*
X3472175Y3748337D01*
X3478330Y3754996D01*
X3483945Y3762117D01*
X3488982Y3769657D01*
X3493413Y3777569D01*
X3497210Y3785804D01*
X3500348Y3794312D01*
X3502810Y3803040D01*
X3504579Y3811933D01*
X3505645Y3820939D01*
X3506001Y3830000D01*
Y3870000D01*
X3505645Y3879062D01*
X3504579Y3888067D01*
X3502810Y3896961D01*
X3500348Y3905688D01*
X3497210Y3914196D01*
X3493413Y3922431D01*
X3488982Y3930343D01*
X3483945Y3937883D01*
X3478330Y3945005D01*
X3472175Y3951663D01*
X3465516Y3957819D01*
X3458395Y3963433D01*
X3450855Y3968471D01*
X3442943Y3972902D01*
X3434708Y3976698D01*
X3426200Y3979837D01*
X3417472Y3982298D01*
X3408578Y3984067D01*
X3399573Y3985133D01*
X3390512Y3985489D01*
D02*
G37*
G36*
X3140512Y3794079D02*
X3078846Y3732413D01*
X3080169Y3731529D01*
X3088081Y3727098D01*
X3096316Y3723302D01*
X3104824Y3720164D01*
X3113552Y3717702D01*
X3122445Y3715933D01*
X3131451Y3714867D01*
X3140512Y3714511D01*
X3149573Y3714867D01*
X3158578Y3715933D01*
X3167472Y3717702D01*
X3176200Y3720164D01*
X3184708Y3723302D01*
X3192943Y3727098D01*
X3200855Y3731529D01*
X3202177Y3732413D01*
X3140512Y3794079D01*
D02*
G37*
G36*
X2248512Y3985489D02*
X2239451Y3985133D01*
X2230445Y3984067D01*
X2221552Y3982298D01*
X2212824Y3979837D01*
X2204316Y3976698D01*
X2196081Y3972902D01*
X2188169Y3968471D01*
X2180629Y3963433D01*
X2173508Y3957819D01*
X2166849Y3951663D01*
X2160693Y3945005D01*
X2155079Y3937883D01*
X2150041Y3930343D01*
X2145610Y3922431D01*
X2142405Y3915479D01*
X2067500D01*
X2061082Y3915164D01*
X2054726Y3914221D01*
X2048492Y3912659D01*
X2042442Y3910495D01*
X2036633Y3907747D01*
X2031122Y3904444D01*
X2025961Y3900616D01*
X2021199Y3896301D01*
X1888697Y3763798D01*
X1884382Y3759037D01*
X1880554Y3753875D01*
X1877250Y3748364D01*
X1874503Y3742555D01*
X1872338Y3736505D01*
X1870777Y3730272D01*
X1869834Y3723915D01*
X1869518Y3717497D01*
Y3512900D01*
X1819598D01*
Y3347100D01*
X2050397D01*
Y3512900D01*
X2000476D01*
Y3690375D01*
X2094622Y3784521D01*
X2142406D01*
X2145610Y3777569D01*
X2150041Y3769657D01*
X2155079Y3762117D01*
X2160693Y3754996D01*
X2166849Y3748337D01*
X2173508Y3742181D01*
X2180629Y3736567D01*
X2188169Y3731529D01*
X2196081Y3727098D01*
X2204316Y3723302D01*
X2212824Y3720164D01*
X2221552Y3717702D01*
X2230445Y3715933D01*
X2239451Y3714867D01*
X2248512Y3714511D01*
X2257573Y3714867D01*
X2266578Y3715933D01*
X2275472Y3717702D01*
X2284200Y3720164D01*
X2292708Y3723302D01*
X2300943Y3727098D01*
X2308855Y3731529D01*
X2316395Y3736567D01*
X2323516Y3742181D01*
X2330175Y3748337D01*
X2336330Y3754996D01*
X2341945Y3762117D01*
X2346982Y3769657D01*
X2351413Y3777569D01*
X2355210Y3785804D01*
X2358348Y3794312D01*
X2360810Y3803040D01*
X2362579Y3811933D01*
X2363645Y3820939D01*
X2364001Y3830000D01*
Y3870000D01*
X2363645Y3879062D01*
X2362579Y3888067D01*
X2360810Y3896961D01*
X2358348Y3905688D01*
X2355210Y3914196D01*
X2351413Y3922431D01*
X2346982Y3930343D01*
X2341945Y3937883D01*
X2336330Y3945005D01*
X2330175Y3951663D01*
X2323516Y3957819D01*
X2316395Y3963433D01*
X2308855Y3968471D01*
X2300943Y3972902D01*
X2292708Y3976698D01*
X2284200Y3979837D01*
X2275472Y3982298D01*
X2266578Y3984067D01*
X2257573Y3985133D01*
X2248512Y3985489D01*
D02*
G37*
G36*
X1360100D02*
X1351038Y3985133D01*
X1342033Y3984067D01*
X1333139Y3982298D01*
X1324412Y3979837D01*
X1315904Y3976698D01*
X1307669Y3972902D01*
X1299757Y3968471D01*
X1292217Y3963433D01*
X1285095Y3957819D01*
X1278437Y3951663D01*
X1272281Y3945005D01*
X1266667Y3937883D01*
X1261629Y3930343D01*
X1257198Y3922431D01*
X1253402Y3914196D01*
X1250263Y3905688D01*
X1247802Y3896961D01*
X1246033Y3888067D01*
X1244967Y3879062D01*
X1244611Y3870000D01*
Y3830000D01*
X1244967Y3820939D01*
X1246033Y3811933D01*
X1247802Y3803040D01*
X1250263Y3794312D01*
X1253402Y3785804D01*
X1257198Y3777569D01*
X1261629Y3769657D01*
X1266667Y3762117D01*
X1272281Y3754996D01*
X1278437Y3748337D01*
X1285095Y3742181D01*
X1292217Y3736567D01*
X1299757Y3731529D01*
X1307669Y3727098D01*
X1315904Y3723302D01*
X1324412Y3720164D01*
X1333139Y3717702D01*
X1342033Y3715933D01*
X1351038Y3714867D01*
X1360100Y3714511D01*
X1369161Y3714867D01*
X1378166Y3715933D01*
X1387060Y3717702D01*
X1395788Y3720164D01*
X1404295Y3723302D01*
X1412531Y3727098D01*
X1420442Y3731529D01*
X1427982Y3736567D01*
X1435104Y3742181D01*
X1441763Y3748337D01*
X1447918Y3754996D01*
X1453532Y3762117D01*
X1458570Y3769657D01*
X1463001Y3777569D01*
X1466797Y3785804D01*
X1469936Y3794312D01*
X1472398Y3803040D01*
X1474167Y3811933D01*
X1475233Y3820939D01*
X1475589Y3830000D01*
Y3870000D01*
X1475233Y3879062D01*
X1474167Y3888067D01*
X1472398Y3896961D01*
X1469936Y3905688D01*
X1466797Y3914196D01*
X1463001Y3922431D01*
X1458570Y3930343D01*
X1453532Y3937883D01*
X1447918Y3945005D01*
X1441763Y3951663D01*
X1435104Y3957819D01*
X1427982Y3963433D01*
X1420442Y3968471D01*
X1412531Y3972902D01*
X1404295Y3976698D01*
X1395788Y3979837D01*
X1387060Y3982298D01*
X1378166Y3984067D01*
X1369161Y3985133D01*
X1360100Y3985489D01*
D02*
G37*
G36*
X1110100Y3794079D02*
X1048434Y3732413D01*
X1049757Y3731529D01*
X1057669Y3727098D01*
X1065904Y3723302D01*
X1074412Y3720164D01*
X1083139Y3717702D01*
X1092033Y3715933D01*
X1101038Y3714867D01*
X1110100Y3714511D01*
X1119161Y3714867D01*
X1128166Y3715933D01*
X1137060Y3717702D01*
X1145788Y3720164D01*
X1154295Y3723302D01*
X1162531Y3727098D01*
X1170442Y3731529D01*
X1171765Y3732413D01*
X1110100Y3794079D01*
D02*
G37*
G36*
X3755912Y3985400D02*
X3525112D01*
Y3714600D01*
X3575033D01*
Y3685134D01*
X3445378Y3555479D01*
X2470005D01*
X2470000Y3555479D01*
X2463582Y3555164D01*
X2457225Y3554221D01*
X2450992Y3552659D01*
X2444942Y3550495D01*
X2439133Y3547747D01*
X2433622Y3544444D01*
X2428460Y3540616D01*
X2423699Y3536301D01*
X2265099Y3377701D01*
X2260784Y3372939D01*
X2256956Y3367778D01*
X2253653Y3362267D01*
X2250905Y3356458D01*
X2248740Y3350408D01*
X2247179Y3344174D01*
X2246236Y3337818D01*
X2245921Y3331400D01*
Y2961395D01*
X2243878Y2959522D01*
X2238250Y2953381D01*
X2233178Y2946772D01*
X2228702Y2939746D01*
X2224856Y2932356D01*
X2221668Y2924660D01*
X2219163Y2916715D01*
X2217360Y2908582D01*
X2216273Y2900323D01*
X2215909Y2892000D01*
Y2832000D01*
X2216273Y2823677D01*
X2217360Y2815418D01*
X2219163Y2807285D01*
X2221668Y2799340D01*
X2224856Y2791644D01*
X2228702Y2784255D01*
X2233178Y2777229D01*
X2238250Y2770620D01*
X2243878Y2764478D01*
X2250020Y2758850D01*
X2256629Y2753778D01*
X2263655Y2749302D01*
X2271044Y2745456D01*
X2278740Y2742268D01*
X2286685Y2739763D01*
X2294818Y2737960D01*
X2303077Y2736873D01*
X2311400Y2736509D01*
X2319723Y2736873D01*
X2327982Y2737960D01*
X2336115Y2739763D01*
X2344060Y2742268D01*
X2351756Y2745456D01*
X2359145Y2749302D01*
X2366171Y2753778D01*
X2372780Y2758850D01*
X2378922Y2764478D01*
X2384550Y2770620D01*
X2389622Y2777229D01*
X2394098Y2784255D01*
X2397944Y2791644D01*
X2401132Y2799340D01*
X2403637Y2807285D01*
X2405440Y2815418D01*
X2406527Y2823677D01*
X2406891Y2832000D01*
Y2892000D01*
X2406527Y2900323D01*
X2405440Y2908582D01*
X2403637Y2916715D01*
X2401132Y2924660D01*
X2397944Y2932356D01*
X2394098Y2939746D01*
X2389622Y2946772D01*
X2384550Y2953381D01*
X2378922Y2959522D01*
X2376879Y2961395D01*
Y3304278D01*
X2497122Y3424521D01*
X3472500D01*
X3478918Y3424836D01*
X3485274Y3425779D01*
X3491508Y3427340D01*
X3497558Y3429505D01*
X3503367Y3432252D01*
X3508878Y3435556D01*
X3514039Y3439384D01*
X3518801Y3443699D01*
X3686813Y3611711D01*
X3691128Y3616472D01*
X3694956Y3621634D01*
X3698259Y3627145D01*
X3701007Y3632954D01*
X3703171Y3639004D01*
X3704733Y3645237D01*
X3705676Y3651594D01*
X3705991Y3658012D01*
Y3714600D01*
X3755912D01*
Y3985400D01*
D02*
G37*
G36*
X5420512Y3985489D02*
X5411450Y3985133D01*
X5402445Y3984067D01*
X5393551Y3982298D01*
X5384824Y3979837D01*
X5376316Y3976698D01*
X5368081Y3972902D01*
X5360169Y3968471D01*
X5352629Y3963433D01*
X5345507Y3957819D01*
X5338849Y3951663D01*
X5332693Y3945005D01*
X5327079Y3937883D01*
X5322041Y3930343D01*
X5317610Y3922431D01*
X5313814Y3914196D01*
X5310675Y3905688D01*
X5308214Y3896961D01*
X5306445Y3888067D01*
X5305379Y3879062D01*
X5305023Y3870000D01*
Y3830000D01*
X5305379Y3820939D01*
X5306445Y3811933D01*
X5308214Y3803040D01*
X5310675Y3794312D01*
X5313814Y3785804D01*
X5317610Y3777569D01*
X5322041Y3769657D01*
X5327079Y3762117D01*
X5332693Y3754996D01*
X5338849Y3748337D01*
X5345507Y3742181D01*
X5352629Y3736567D01*
X5354521Y3735303D01*
Y3489622D01*
X5215378Y3350479D01*
X4395418D01*
Y3512900D01*
X4344744D01*
Y3735464D01*
X4346395Y3736567D01*
X4353516Y3742181D01*
X4360175Y3748337D01*
X4366330Y3754996D01*
X4371945Y3762117D01*
X4376982Y3769657D01*
X4381413Y3777569D01*
X4385210Y3785804D01*
X4388348Y3794312D01*
X4390810Y3803040D01*
X4392579Y3811933D01*
X4393645Y3820939D01*
X4394001Y3830000D01*
Y3870000D01*
X4393645Y3879062D01*
X4392579Y3888067D01*
X4390810Y3896961D01*
X4388348Y3905688D01*
X4385210Y3914196D01*
X4381413Y3922431D01*
X4376982Y3930343D01*
X4371945Y3937883D01*
X4366330Y3945005D01*
X4360175Y3951663D01*
X4353516Y3957819D01*
X4346395Y3963433D01*
X4338855Y3968471D01*
X4330943Y3972902D01*
X4322708Y3976698D01*
X4314200Y3979837D01*
X4305472Y3982298D01*
X4296578Y3984067D01*
X4287573Y3985133D01*
X4278512Y3985489D01*
X4269451Y3985133D01*
X4260445Y3984067D01*
X4251552Y3982298D01*
X4242824Y3979837D01*
X4234316Y3976698D01*
X4226081Y3972902D01*
X4218169Y3968471D01*
X4210629Y3963433D01*
X4203508Y3957819D01*
X4196849Y3951663D01*
X4190693Y3945005D01*
X4185079Y3937883D01*
X4180041Y3930343D01*
X4175610Y3922431D01*
X4171814Y3914196D01*
X4168675Y3905688D01*
X4166214Y3896961D01*
X4164445Y3888067D01*
X4163379Y3879062D01*
X4163023Y3870000D01*
Y3830000D01*
X4163379Y3820939D01*
X4164445Y3811933D01*
X4166214Y3803040D01*
X4168675Y3794312D01*
X4171814Y3785804D01*
X4175610Y3777569D01*
X4180041Y3769657D01*
X4185079Y3762117D01*
X4190693Y3754996D01*
X4196849Y3748337D01*
X4203508Y3742181D01*
X4210629Y3736567D01*
X4213786Y3734458D01*
Y3512900D01*
X4164618D01*
Y3350479D01*
X3217500D01*
X3211082Y3350164D01*
X3204726Y3349221D01*
X3198492Y3347660D01*
X3192442Y3345495D01*
X3186633Y3342747D01*
X3181122Y3339444D01*
X3175961Y3335616D01*
X3171199Y3331301D01*
X3027099Y3187201D01*
X3022784Y3182439D01*
X3018956Y3177278D01*
X3015653Y3171767D01*
X3012905Y3165958D01*
X3010740Y3159908D01*
X3009179Y3153674D01*
X3008236Y3147318D01*
X3007921Y3140900D01*
Y2961395D01*
X3005878Y2959522D01*
X3000250Y2953381D01*
X2995178Y2946772D01*
X2990702Y2939746D01*
X2986856Y2932356D01*
X2983668Y2924660D01*
X2981163Y2916715D01*
X2979360Y2908582D01*
X2978273Y2900323D01*
X2977909Y2892000D01*
Y2832000D01*
X2978273Y2823677D01*
X2979360Y2815418D01*
X2981163Y2807285D01*
X2983668Y2799340D01*
X2986856Y2791644D01*
X2990702Y2784255D01*
X2995178Y2777229D01*
X3000250Y2770620D01*
X3005878Y2764478D01*
X3012020Y2758850D01*
X3018629Y2753778D01*
X3025655Y2749302D01*
X3033044Y2745456D01*
X3040740Y2742268D01*
X3048685Y2739763D01*
X3056818Y2737960D01*
X3065077Y2736873D01*
X3073400Y2736509D01*
X3081723Y2736873D01*
X3089982Y2737960D01*
X3098115Y2739763D01*
X3106060Y2742268D01*
X3113756Y2745456D01*
X3121145Y2749302D01*
X3128171Y2753778D01*
X3134780Y2758850D01*
X3140922Y2764478D01*
X3146550Y2770620D01*
X3151622Y2777229D01*
X3156098Y2784255D01*
X3159944Y2791644D01*
X3163132Y2799340D01*
X3165637Y2807285D01*
X3167440Y2815418D01*
X3168527Y2823677D01*
X3168891Y2832000D01*
Y2892000D01*
X3168527Y2900323D01*
X3167440Y2908582D01*
X3165637Y2916715D01*
X3163132Y2924660D01*
X3159944Y2932356D01*
X3156098Y2939746D01*
X3151622Y2946772D01*
X3146550Y2953381D01*
X3140922Y2959522D01*
X3138879Y2961395D01*
Y3113778D01*
X3244622Y3219521D01*
X4164618D01*
Y3190480D01*
X3572500D01*
X3566848Y3190162D01*
X3561267Y3189214D01*
X3555828Y3187647D01*
X3550598Y3185481D01*
X3545643Y3182742D01*
X3541027Y3179467D01*
X3536806Y3175694D01*
X3419305Y3058194D01*
X3415533Y3053973D01*
X3412258Y3049356D01*
X3409519Y3044402D01*
X3407353Y3039172D01*
X3405786Y3033732D01*
X3404837Y3028152D01*
X3404520Y3022500D01*
Y2967846D01*
X3402344Y2965960D01*
X3391820Y2962365D01*
X3388780Y2965151D01*
X3382171Y2970222D01*
X3375145Y2974698D01*
X3367756Y2978544D01*
X3360060Y2981732D01*
X3352115Y2984237D01*
X3343982Y2986041D01*
X3335723Y2987128D01*
X3327400Y2987491D01*
X3319077Y2987128D01*
X3310818Y2986041D01*
X3302685Y2984237D01*
X3294740Y2981732D01*
X3287044Y2978544D01*
X3279655Y2974698D01*
X3272629Y2970222D01*
X3266020Y2965151D01*
X3259878Y2959522D01*
X3254250Y2953381D01*
X3249178Y2946772D01*
X3244702Y2939746D01*
X3240856Y2932356D01*
X3237668Y2924660D01*
X3235163Y2916715D01*
X3233360Y2908582D01*
X3232273Y2900323D01*
X3231909Y2892000D01*
Y2832000D01*
X3232273Y2823677D01*
X3233360Y2815418D01*
X3235163Y2807285D01*
X3237668Y2799340D01*
X3240856Y2791644D01*
X3244702Y2784255D01*
X3249178Y2777229D01*
X3254250Y2770620D01*
X3259878Y2764478D01*
X3266020Y2758850D01*
X3272629Y2753778D01*
X3279655Y2749302D01*
X3287044Y2745456D01*
X3294740Y2742268D01*
X3302685Y2739763D01*
X3310818Y2737960D01*
X3319077Y2736873D01*
X3327400Y2736509D01*
X3335723Y2736873D01*
X3343982Y2737960D01*
X3352115Y2739763D01*
X3360060Y2742268D01*
X3367756Y2745456D01*
X3375145Y2749302D01*
X3382171Y2753778D01*
X3388780Y2758850D01*
X3391820Y2761635D01*
X3402344Y2758041D01*
X3404520Y2756154D01*
Y2631900D01*
X3379600D01*
Y2441100D01*
X3530400D01*
Y2631900D01*
X3505479D01*
Y2754948D01*
X3518179Y2760536D01*
X3520020Y2758850D01*
X3526629Y2753778D01*
X3533655Y2749302D01*
X3541044Y2745456D01*
X3548740Y2742268D01*
X3556685Y2739763D01*
X3564818Y2737960D01*
X3573077Y2736873D01*
X3581400Y2736509D01*
X3589723Y2736873D01*
X3597982Y2737960D01*
X3606115Y2739763D01*
X3614060Y2742268D01*
X3621756Y2745456D01*
X3629145Y2749302D01*
X3636171Y2753778D01*
X3642780Y2758850D01*
X3648922Y2764478D01*
X3654550Y2770620D01*
X3659622Y2777229D01*
X3664098Y2784255D01*
X3667944Y2791644D01*
X3671132Y2799340D01*
X3673637Y2807285D01*
X3675440Y2815418D01*
X3676527Y2823677D01*
X3676891Y2832000D01*
Y2892000D01*
X3676527Y2900323D01*
X3675440Y2908582D01*
X3673637Y2916715D01*
X3671132Y2924660D01*
X3667944Y2932356D01*
X3664098Y2939746D01*
X3659622Y2946772D01*
X3654550Y2953381D01*
X3648922Y2959522D01*
X3642780Y2965151D01*
X3636171Y2970222D01*
X3629145Y2974698D01*
X3621756Y2978544D01*
X3614060Y2981732D01*
X3606115Y2984237D01*
X3597982Y2986041D01*
X3589723Y2987128D01*
X3581400Y2987491D01*
X3573077Y2987128D01*
X3564818Y2986041D01*
X3556685Y2984237D01*
X3548740Y2981732D01*
X3541044Y2978544D01*
X3533655Y2974698D01*
X3526629Y2970222D01*
X3520020Y2965151D01*
X3518179Y2963464D01*
X3505479Y2969052D01*
Y3001590D01*
X3593409Y3089521D01*
X4164618D01*
Y3057100D01*
X4395418D01*
Y3219521D01*
X5242500D01*
X5248918Y3219836D01*
X5255274Y3220779D01*
X5261508Y3222341D01*
X5267558Y3224505D01*
X5273367Y3227253D01*
X5278878Y3230556D01*
X5284039Y3234384D01*
X5288801Y3238699D01*
X5466301Y3416199D01*
X5470616Y3420961D01*
X5474444Y3426122D01*
X5477747Y3431633D01*
X5480495Y3437442D01*
X5482660Y3443492D01*
X5484221Y3449726D01*
X5485164Y3456082D01*
X5485479Y3462500D01*
Y3734619D01*
X5488394Y3736567D01*
X5495516Y3742181D01*
X5502175Y3748337D01*
X5508330Y3754996D01*
X5513944Y3762117D01*
X5518982Y3769657D01*
X5523413Y3777569D01*
X5527209Y3785804D01*
X5530348Y3794312D01*
X5532810Y3803040D01*
X5534579Y3811933D01*
X5535645Y3820939D01*
X5536001Y3830000D01*
Y3870000D01*
X5535645Y3879062D01*
X5534579Y3888067D01*
X5532810Y3896961D01*
X5530348Y3905688D01*
X5527209Y3914196D01*
X5523413Y3922431D01*
X5518982Y3930343D01*
X5513944Y3937883D01*
X5508330Y3945005D01*
X5502175Y3951663D01*
X5495516Y3957819D01*
X5488394Y3963433D01*
X5480854Y3968471D01*
X5472943Y3972902D01*
X5464707Y3976698D01*
X5456200Y3979837D01*
X5447472Y3982298D01*
X5438578Y3984067D01*
X5429573Y3985133D01*
X5420512Y3985489D01*
D02*
G37*
G36*
X6722500Y3535489D02*
X6713439Y3535133D01*
X6704433Y3534067D01*
X6695540Y3532298D01*
X6686812Y3529837D01*
X6678304Y3526698D01*
X6670069Y3522902D01*
X6662157Y3518471D01*
X6654617Y3513433D01*
X6647496Y3507819D01*
X6640837Y3501663D01*
X6634681Y3495004D01*
X6629067Y3487883D01*
X6624029Y3480343D01*
X6619598Y3472431D01*
X6615802Y3464196D01*
X6612663Y3455688D01*
X6610202Y3446961D01*
X6608433Y3438067D01*
X6607367Y3429061D01*
X6607011Y3420000D01*
Y3380000D01*
X6607367Y3370939D01*
X6608433Y3361933D01*
X6610202Y3353040D01*
X6612663Y3344312D01*
X6615802Y3335804D01*
X6619598Y3327569D01*
X6624029Y3319657D01*
X6629067Y3312117D01*
X6634681Y3304996D01*
X6640837Y3298337D01*
X6647496Y3292181D01*
X6654617Y3286567D01*
X6662157Y3281529D01*
X6670069Y3277098D01*
X6678304Y3273302D01*
X6686812Y3270163D01*
X6695540Y3267702D01*
X6704433Y3265933D01*
X6713439Y3264867D01*
X6722500Y3264511D01*
X6731561Y3264867D01*
X6740566Y3265933D01*
X6749460Y3267702D01*
X6758188Y3270163D01*
X6766696Y3273302D01*
X6774931Y3277098D01*
X6782843Y3281529D01*
X6790383Y3286567D01*
X6797504Y3292181D01*
X6804163Y3298337D01*
X6810318Y3304996D01*
X6815933Y3312117D01*
X6820970Y3319657D01*
X6825401Y3327569D01*
X6829198Y3335804D01*
X6832336Y3344312D01*
X6834798Y3353040D01*
X6836567Y3361933D01*
X6837633Y3370939D01*
X6837989Y3380000D01*
Y3420000D01*
X6837633Y3429061D01*
X6836567Y3438067D01*
X6834798Y3446961D01*
X6832336Y3455688D01*
X6829198Y3464196D01*
X6825401Y3472431D01*
X6820970Y3480343D01*
X6815933Y3487883D01*
X6810318Y3495004D01*
X6804163Y3501663D01*
X6797504Y3507819D01*
X6790383Y3513433D01*
X6782843Y3518471D01*
X6774931Y3522902D01*
X6766696Y3526698D01*
X6758188Y3529837D01*
X6749460Y3532298D01*
X6740566Y3534067D01*
X6731561Y3535133D01*
X6722500Y3535489D01*
D02*
G37*
G36*
X6272500D02*
X6263438Y3535133D01*
X6254433Y3534067D01*
X6245539Y3532298D01*
X6236812Y3529837D01*
X6228304Y3526698D01*
X6220069Y3522902D01*
X6212157Y3518471D01*
X6204617Y3513433D01*
X6197495Y3507819D01*
X6190836Y3501663D01*
X6184681Y3495004D01*
X6179067Y3487883D01*
X6174029Y3480343D01*
X6169598Y3472431D01*
X6165802Y3464196D01*
X6162663Y3455688D01*
X6160202Y3446961D01*
X6158432Y3438067D01*
X6157367Y3429061D01*
X6157011Y3420000D01*
Y3380000D01*
X6157367Y3370939D01*
X6158432Y3361933D01*
X6160202Y3353040D01*
X6162663Y3344312D01*
X6165802Y3335804D01*
X6169598Y3327569D01*
X6174029Y3319657D01*
X6179067Y3312117D01*
X6184681Y3304996D01*
X6190836Y3298337D01*
X6197495Y3292181D01*
X6204617Y3286567D01*
X6212157Y3281529D01*
X6220069Y3277098D01*
X6228304Y3273302D01*
X6236812Y3270163D01*
X6245539Y3267702D01*
X6254433Y3265933D01*
X6263438Y3264867D01*
X6272500Y3264511D01*
X6281561Y3264867D01*
X6290566Y3265933D01*
X6299460Y3267702D01*
X6308188Y3270163D01*
X6316695Y3273302D01*
X6324930Y3277098D01*
X6332842Y3281529D01*
X6340382Y3286567D01*
X6347504Y3292181D01*
X6354163Y3298337D01*
X6360318Y3304996D01*
X6365932Y3312117D01*
X6370970Y3319657D01*
X6375401Y3327569D01*
X6379197Y3335804D01*
X6382336Y3344312D01*
X6384797Y3353040D01*
X6386567Y3361933D01*
X6387632Y3370939D01*
X6387988Y3380000D01*
Y3420000D01*
X6387632Y3429061D01*
X6386567Y3438067D01*
X6384797Y3446961D01*
X6382336Y3455688D01*
X6379197Y3464196D01*
X6375401Y3472431D01*
X6370970Y3480343D01*
X6365932Y3487883D01*
X6360318Y3495004D01*
X6354163Y3501663D01*
X6347504Y3507819D01*
X6340382Y3513433D01*
X6332842Y3518471D01*
X6324930Y3522902D01*
X6316695Y3526698D01*
X6308188Y3529837D01*
X6299460Y3532298D01*
X6290566Y3534067D01*
X6281561Y3535133D01*
X6272500Y3535489D01*
D02*
G37*
G36*
X6732900Y3057887D02*
X6642900D01*
Y3000388D01*
X6732900D01*
Y3057887D01*
D02*
G37*
G36*
X6592100D02*
X6502100D01*
Y3000388D01*
X6592100D01*
Y3057887D01*
D02*
G37*
G36*
X2050397Y3222900D02*
X1819598D01*
Y3057100D01*
X1882022D01*
Y2966207D01*
X1875307Y2962163D01*
X1869322Y2960989D01*
X1864780Y2965151D01*
X1858171Y2970222D01*
X1851145Y2974698D01*
X1843756Y2978544D01*
X1836060Y2981732D01*
X1828115Y2984237D01*
X1819982Y2986041D01*
X1811723Y2987128D01*
X1803400Y2987491D01*
X1795077Y2987128D01*
X1786818Y2986041D01*
X1778685Y2984237D01*
X1770740Y2981732D01*
X1763044Y2978544D01*
X1755655Y2974698D01*
X1748629Y2970222D01*
X1742020Y2965151D01*
X1735878Y2959522D01*
X1730250Y2953381D01*
X1725178Y2946772D01*
X1720702Y2939746D01*
X1716856Y2932356D01*
X1713668Y2924660D01*
X1711163Y2916715D01*
X1709360Y2908582D01*
X1708273Y2900323D01*
X1707909Y2892000D01*
Y2832000D01*
X1708273Y2823677D01*
X1709360Y2815418D01*
X1711163Y2807285D01*
X1713668Y2799340D01*
X1716856Y2791644D01*
X1720702Y2784255D01*
X1725178Y2777229D01*
X1730250Y2770620D01*
X1735878Y2764478D01*
X1742020Y2758850D01*
X1748629Y2753778D01*
X1755655Y2749302D01*
X1763044Y2745456D01*
X1770740Y2742268D01*
X1778685Y2739763D01*
X1786818Y2737960D01*
X1795077Y2736873D01*
X1803400Y2736509D01*
X1811723Y2736873D01*
X1819982Y2737960D01*
X1828115Y2739763D01*
X1836060Y2742268D01*
X1843756Y2745456D01*
X1851145Y2749302D01*
X1858171Y2753778D01*
X1864780Y2758850D01*
X1869322Y2763011D01*
X1875307Y2761837D01*
X1882022Y2757793D01*
Y2431900D01*
X1837102D01*
Y2281100D01*
X2006921D01*
Y1852600D01*
X2007238Y1846948D01*
X2008186Y1841367D01*
X2009753Y1835927D01*
X2011920Y1830698D01*
X2014658Y1825743D01*
X2017933Y1821126D01*
X2021706Y1816905D01*
X2385176Y1453435D01*
X2384626Y1447522D01*
X2376507Y1443155D01*
X2371378Y1442226D01*
X2366171Y1446222D01*
X2359145Y1450698D01*
X2351756Y1454544D01*
X2344060Y1457732D01*
X2336115Y1460237D01*
X2327982Y1462041D01*
X2319723Y1463128D01*
X2311400Y1463491D01*
X2303077Y1463128D01*
X2294818Y1462041D01*
X2286685Y1460237D01*
X2278740Y1457732D01*
X2271044Y1454544D01*
X2263655Y1450698D01*
X2256629Y1446222D01*
X2250020Y1441151D01*
X2243878Y1435522D01*
X2238250Y1429381D01*
X2233178Y1422772D01*
X2228702Y1415746D01*
X2224856Y1408356D01*
X2221668Y1400660D01*
X2219163Y1392715D01*
X2217360Y1384582D01*
X2216273Y1376323D01*
X2215909Y1368000D01*
Y1308000D01*
X2216273Y1299677D01*
X2217360Y1291418D01*
X2219163Y1283285D01*
X2221668Y1275340D01*
X2224856Y1267644D01*
X2228702Y1260255D01*
X2233178Y1253229D01*
X2238250Y1246620D01*
X2243878Y1240478D01*
X2250020Y1234850D01*
X2256629Y1229778D01*
X2263655Y1225302D01*
X2271044Y1221456D01*
X2278740Y1218268D01*
X2286685Y1215763D01*
X2294818Y1213960D01*
X2303077Y1212873D01*
X2311400Y1212509D01*
X2319723Y1212873D01*
X2327982Y1213960D01*
X2336115Y1215763D01*
X2344060Y1218268D01*
X2351756Y1221456D01*
X2359145Y1225302D01*
X2366171Y1229778D01*
X2372780Y1234850D01*
X2377221Y1238919D01*
X2383561Y1237612D01*
X2389921Y1233682D01*
Y1154600D01*
X2390238Y1148948D01*
X2391186Y1143367D01*
X2392753Y1137928D01*
X2394920Y1132698D01*
X2397658Y1127743D01*
X2400933Y1123127D01*
X2404706Y1118906D01*
X2669520Y854091D01*
Y477500D01*
X2669838Y471848D01*
X2670786Y466268D01*
X2672353Y460828D01*
X2674519Y455598D01*
X2677258Y450644D01*
X2680533Y446027D01*
X2684306Y441806D01*
X2811807Y314304D01*
X2816028Y310532D01*
X2820645Y307256D01*
X2825600Y304518D01*
X2830829Y302352D01*
X2836269Y300785D01*
X2841850Y299837D01*
X2847502Y299519D01*
X3025112D01*
Y214599D01*
X3255912D01*
Y485399D01*
X3025112D01*
Y400478D01*
X2868411D01*
X2770479Y498410D01*
Y875000D01*
X2770162Y880652D01*
X2769214Y886233D01*
X2767647Y891672D01*
X2765480Y896902D01*
X2762742Y901857D01*
X2759466Y906473D01*
X2755694Y910694D01*
X2490879Y1175509D01*
Y1229665D01*
X2503579Y1235253D01*
X2504020Y1234850D01*
X2510629Y1229778D01*
X2517655Y1225302D01*
X2525044Y1221456D01*
X2532740Y1218268D01*
X2540685Y1215763D01*
X2548818Y1213960D01*
X2557077Y1212873D01*
X2565400Y1212509D01*
X2573723Y1212873D01*
X2581982Y1213960D01*
X2590115Y1215763D01*
X2598060Y1218268D01*
X2605756Y1221456D01*
X2613145Y1225302D01*
X2620171Y1229778D01*
X2626780Y1234850D01*
X2632922Y1240478D01*
X2638550Y1246620D01*
X2643622Y1253229D01*
X2648098Y1260255D01*
X2651944Y1267644D01*
X2655132Y1275340D01*
X2657637Y1283285D01*
X2659440Y1291418D01*
X2660527Y1299677D01*
X2660891Y1308000D01*
Y1368000D01*
X2660527Y1376323D01*
X2659440Y1384582D01*
X2657637Y1392715D01*
X2655132Y1400660D01*
X2651944Y1408356D01*
X2648098Y1415746D01*
X2643622Y1422772D01*
X2638550Y1429381D01*
X2632922Y1435522D01*
X2630680Y1437577D01*
Y1579599D01*
X2680401D01*
Y1745399D01*
X2449602D01*
Y1579599D01*
X2499722D01*
Y1491273D01*
X2487022Y1488747D01*
X2485880Y1491502D01*
X2483142Y1496456D01*
X2479867Y1501073D01*
X2476094Y1505294D01*
X2107879Y1873509D01*
Y2751044D01*
X2112171Y2753778D01*
X2118780Y2758850D01*
X2124922Y2764478D01*
X2130550Y2770620D01*
X2135622Y2777229D01*
X2140098Y2784255D01*
X2143944Y2791644D01*
X2147132Y2799340D01*
X2149637Y2807285D01*
X2151440Y2815418D01*
X2152527Y2823677D01*
X2152891Y2832000D01*
Y2892000D01*
X2152527Y2900323D01*
X2151440Y2908582D01*
X2149637Y2916715D01*
X2147132Y2924660D01*
X2143944Y2932356D01*
X2140098Y2939746D01*
X2135622Y2946772D01*
X2130550Y2953381D01*
X2124922Y2959522D01*
X2118780Y2965151D01*
X2112171Y2970222D01*
X2105145Y2974698D01*
X2097756Y2978544D01*
X2090060Y2981732D01*
X2082115Y2984237D01*
X2073982Y2986041D01*
X2065723Y2987128D01*
X2057400Y2987491D01*
X2049077Y2987128D01*
X2040818Y2986041D01*
X2032685Y2984237D01*
X2024740Y2981732D01*
X2017044Y2978544D01*
X2009655Y2974698D01*
X2002629Y2970222D01*
X1996020Y2965151D01*
X1995681Y2964840D01*
X1982981Y2970428D01*
Y3057100D01*
X2050397D01*
Y3222900D01*
D02*
G37*
G36*
X533400Y2987491D02*
X525077Y2987128D01*
X516818Y2986041D01*
X508685Y2984237D01*
X500740Y2981732D01*
X493044Y2978544D01*
X486292Y2975030D01*
X533400Y2927921D01*
X580509Y2975029D01*
X573756Y2978544D01*
X566060Y2981732D01*
X558115Y2984237D01*
X549982Y2986041D01*
X541723Y2987128D01*
X533400Y2987491D01*
D02*
G37*
G36*
X5630000Y3084491D02*
X5570000D01*
X5561677Y3084127D01*
X5553418Y3083040D01*
X5545285Y3081237D01*
X5537340Y3078732D01*
X5529644Y3075544D01*
X5522254Y3071698D01*
X5515228Y3067222D01*
X5508619Y3062150D01*
X5502478Y3056522D01*
X5496850Y3050380D01*
X5491778Y3043771D01*
X5487302Y3036746D01*
X5483456Y3029356D01*
X5480268Y3021660D01*
X5477763Y3013715D01*
X5475960Y3005582D01*
X5474872Y2997323D01*
X5474509Y2989000D01*
X5474872Y2980678D01*
X5475960Y2972418D01*
X5477763Y2964285D01*
X5480268Y2956340D01*
X5483456Y2948644D01*
X5487302Y2941255D01*
X5491778Y2934229D01*
X5496850Y2927620D01*
X5502478Y2921478D01*
X5508619Y2915850D01*
X5515228Y2910779D01*
X5522254Y2906303D01*
X5529644Y2902456D01*
X5537340Y2899268D01*
X5545285Y2896763D01*
X5553418Y2894960D01*
X5561677Y2893873D01*
X5570000Y2893509D01*
X5630000D01*
X5638323Y2893873D01*
X5646582Y2894960D01*
X5654715Y2896763D01*
X5662660Y2899268D01*
X5670356Y2902456D01*
X5677746Y2906303D01*
X5684771Y2910779D01*
X5691381Y2915850D01*
X5697522Y2921478D01*
X5703150Y2927620D01*
X5708222Y2934229D01*
X5712698Y2941255D01*
X5716544Y2948644D01*
X5719732Y2956340D01*
X5722237Y2964285D01*
X5724040Y2972418D01*
X5725127Y2980678D01*
X5725491Y2989000D01*
X5725127Y2997323D01*
X5724040Y3005582D01*
X5722237Y3013715D01*
X5719732Y3021660D01*
X5716544Y3029356D01*
X5712698Y3036746D01*
X5708222Y3043771D01*
X5703150Y3050380D01*
X5697522Y3056522D01*
X5691381Y3062150D01*
X5684771Y3067222D01*
X5677746Y3071698D01*
X5670356Y3075544D01*
X5662660Y3078732D01*
X5654715Y3081237D01*
X5646582Y3083040D01*
X5638323Y3084127D01*
X5630000Y3084491D01*
D02*
G37*
G36*
X6732900Y2949588D02*
X6642900D01*
Y2892087D01*
X6732900D01*
Y2949588D01*
D02*
G37*
G36*
X6592100D02*
X6502100D01*
Y2892087D01*
X6592100D01*
Y2949588D01*
D02*
G37*
G36*
X450371Y2939108D02*
X446856Y2932356D01*
X443668Y2924660D01*
X441163Y2916715D01*
X439360Y2908582D01*
X438273Y2900323D01*
X437909Y2892000D01*
Y2832000D01*
X438273Y2823677D01*
X439360Y2815418D01*
X441163Y2807285D01*
X443668Y2799340D01*
X446856Y2791644D01*
X450371Y2784891D01*
X515440Y2849960D01*
X533400Y2832000D01*
X551361Y2849960D01*
X616429Y2784892D01*
X619944Y2791644D01*
X623132Y2799340D01*
X625637Y2807285D01*
X627440Y2815418D01*
X628527Y2823677D01*
X628891Y2832000D01*
Y2892000D01*
X628527Y2900323D01*
X627440Y2908582D01*
X625637Y2916715D01*
X623132Y2924660D01*
X619944Y2932356D01*
X616430Y2939108D01*
X551361Y2874039D01*
X533400Y2892000D01*
X515440Y2874039D01*
X450371Y2939108D01*
D02*
G37*
G36*
X5200800Y2987400D02*
X5010000D01*
Y2736600D01*
X5200800D01*
Y2987400D01*
D02*
G37*
G36*
X4851400Y2987491D02*
X4843077Y2987128D01*
X4834818Y2986041D01*
X4826685Y2984237D01*
X4818740Y2981732D01*
X4811044Y2978544D01*
X4803655Y2974698D01*
X4796629Y2970222D01*
X4790020Y2965151D01*
X4783878Y2959522D01*
X4778250Y2953381D01*
X4773178Y2946772D01*
X4768702Y2939746D01*
X4764856Y2932356D01*
X4761668Y2924660D01*
X4759163Y2916715D01*
X4757360Y2908582D01*
X4756273Y2900323D01*
X4755909Y2892000D01*
Y2832000D01*
X4756273Y2823677D01*
X4757360Y2815418D01*
X4759163Y2807285D01*
X4761668Y2799340D01*
X4764856Y2791644D01*
X4768702Y2784255D01*
X4773178Y2777229D01*
X4778250Y2770620D01*
X4783878Y2764478D01*
X4790020Y2758850D01*
X4796629Y2753778D01*
X4803655Y2749302D01*
X4811044Y2745456D01*
X4818740Y2742268D01*
X4826685Y2739763D01*
X4834818Y2737960D01*
X4843077Y2736873D01*
X4851400Y2736509D01*
X4859723Y2736873D01*
X4867982Y2737960D01*
X4876115Y2739763D01*
X4884060Y2742268D01*
X4891756Y2745456D01*
X4899145Y2749302D01*
X4906171Y2753778D01*
X4912780Y2758850D01*
X4918922Y2764478D01*
X4924550Y2770620D01*
X4929622Y2777229D01*
X4934098Y2784255D01*
X4937944Y2791644D01*
X4941132Y2799340D01*
X4943637Y2807285D01*
X4945440Y2815418D01*
X4946527Y2823677D01*
X4946891Y2832000D01*
Y2892000D01*
X4946527Y2900323D01*
X4945440Y2908582D01*
X4943637Y2916715D01*
X4941132Y2924660D01*
X4937944Y2932356D01*
X4934098Y2939746D01*
X4929622Y2946772D01*
X4924550Y2953381D01*
X4918922Y2959522D01*
X4912780Y2965151D01*
X4906171Y2970222D01*
X4899145Y2974698D01*
X4891756Y2978544D01*
X4884060Y2981732D01*
X4876115Y2984237D01*
X4867982Y2986041D01*
X4859723Y2987128D01*
X4851400Y2987491D01*
D02*
G37*
G36*
X4343400D02*
X4335077Y2987128D01*
X4326818Y2986041D01*
X4318685Y2984237D01*
X4310740Y2981732D01*
X4303044Y2978544D01*
X4295655Y2974698D01*
X4288629Y2970222D01*
X4282020Y2965151D01*
X4275878Y2959522D01*
X4270250Y2953381D01*
X4265178Y2946772D01*
X4260702Y2939746D01*
X4256856Y2932356D01*
X4253668Y2924660D01*
X4251163Y2916715D01*
X4249360Y2908582D01*
X4248273Y2900323D01*
X4247909Y2892000D01*
Y2832000D01*
X4248273Y2823677D01*
X4249360Y2815418D01*
X4251163Y2807285D01*
X4253668Y2799340D01*
X4256856Y2791644D01*
X4260702Y2784255D01*
X4265178Y2777229D01*
X4270250Y2770620D01*
X4275878Y2764478D01*
X4282020Y2758850D01*
X4288629Y2753778D01*
X4295655Y2749302D01*
X4303044Y2745456D01*
X4310740Y2742268D01*
X4318685Y2739763D01*
X4326818Y2737960D01*
X4335077Y2736873D01*
X4343400Y2736509D01*
X4351723Y2736873D01*
X4359982Y2737960D01*
X4368115Y2739763D01*
X4376060Y2742268D01*
X4383756Y2745456D01*
X4391145Y2749302D01*
X4398171Y2753778D01*
X4404780Y2758850D01*
X4410922Y2764478D01*
X4416550Y2770620D01*
X4421622Y2777229D01*
X4426098Y2784255D01*
X4429944Y2791644D01*
X4433132Y2799340D01*
X4435637Y2807285D01*
X4437440Y2815418D01*
X4438527Y2823677D01*
X4438891Y2832000D01*
Y2892000D01*
X4438527Y2900323D01*
X4437440Y2908582D01*
X4435637Y2916715D01*
X4433132Y2924660D01*
X4429944Y2932356D01*
X4426098Y2939746D01*
X4421622Y2946772D01*
X4416550Y2953381D01*
X4410922Y2959522D01*
X4404780Y2965151D01*
X4398171Y2970222D01*
X4391145Y2974698D01*
X4383756Y2978544D01*
X4376060Y2981732D01*
X4368115Y2984237D01*
X4359982Y2986041D01*
X4351723Y2987128D01*
X4343400Y2987491D01*
D02*
G37*
G36*
X4089400D02*
X4081077Y2987128D01*
X4072818Y2986041D01*
X4064685Y2984237D01*
X4056740Y2981732D01*
X4049044Y2978544D01*
X4041655Y2974698D01*
X4034629Y2970222D01*
X4028020Y2965151D01*
X4021878Y2959522D01*
X4016250Y2953381D01*
X4011178Y2946772D01*
X4006702Y2939746D01*
X4002856Y2932356D01*
X3999668Y2924660D01*
X3997163Y2916715D01*
X3995360Y2908582D01*
X3994273Y2900323D01*
X3993909Y2892000D01*
Y2832000D01*
X3994273Y2823677D01*
X3995360Y2815418D01*
X3997163Y2807285D01*
X3999668Y2799340D01*
X4002856Y2791644D01*
X4006702Y2784255D01*
X4011178Y2777229D01*
X4016250Y2770620D01*
X4021878Y2764478D01*
X4028020Y2758850D01*
X4034629Y2753778D01*
X4041655Y2749302D01*
X4049044Y2745456D01*
X4056740Y2742268D01*
X4064685Y2739763D01*
X4072818Y2737960D01*
X4081077Y2736873D01*
X4089400Y2736509D01*
X4097723Y2736873D01*
X4105982Y2737960D01*
X4114115Y2739763D01*
X4122060Y2742268D01*
X4129756Y2745456D01*
X4137145Y2749302D01*
X4144171Y2753778D01*
X4150780Y2758850D01*
X4156922Y2764478D01*
X4162550Y2770620D01*
X4167622Y2777229D01*
X4172098Y2784255D01*
X4175944Y2791644D01*
X4179132Y2799340D01*
X4181637Y2807285D01*
X4183440Y2815418D01*
X4184527Y2823677D01*
X4184891Y2832000D01*
Y2892000D01*
X4184527Y2900323D01*
X4183440Y2908582D01*
X4181637Y2916715D01*
X4179132Y2924660D01*
X4175944Y2932356D01*
X4172098Y2939746D01*
X4167622Y2946772D01*
X4162550Y2953381D01*
X4156922Y2959522D01*
X4150780Y2965151D01*
X4144171Y2970222D01*
X4137145Y2974698D01*
X4129756Y2978544D01*
X4122060Y2981732D01*
X4114115Y2984237D01*
X4105982Y2986041D01*
X4097723Y2987128D01*
X4089400Y2987491D01*
D02*
G37*
G36*
X2819400D02*
X2811077Y2987128D01*
X2802818Y2986041D01*
X2794685Y2984237D01*
X2786740Y2981732D01*
X2779044Y2978544D01*
X2771655Y2974698D01*
X2764629Y2970222D01*
X2758020Y2965151D01*
X2751878Y2959522D01*
X2746250Y2953381D01*
X2741178Y2946772D01*
X2736702Y2939746D01*
X2732856Y2932356D01*
X2729668Y2924660D01*
X2727163Y2916715D01*
X2725360Y2908582D01*
X2724273Y2900323D01*
X2723909Y2892000D01*
Y2832000D01*
X2724273Y2823677D01*
X2725360Y2815418D01*
X2727163Y2807285D01*
X2729668Y2799340D01*
X2732856Y2791644D01*
X2736702Y2784255D01*
X2741178Y2777229D01*
X2746250Y2770620D01*
X2751878Y2764478D01*
X2758020Y2758850D01*
X2764629Y2753778D01*
X2771655Y2749302D01*
X2779044Y2745456D01*
X2786740Y2742268D01*
X2794685Y2739763D01*
X2802818Y2737960D01*
X2811077Y2736873D01*
X2819400Y2736509D01*
X2827723Y2736873D01*
X2835982Y2737960D01*
X2844115Y2739763D01*
X2852060Y2742268D01*
X2859756Y2745456D01*
X2867145Y2749302D01*
X2874171Y2753778D01*
X2880780Y2758850D01*
X2886922Y2764478D01*
X2892550Y2770620D01*
X2897622Y2777229D01*
X2902098Y2784255D01*
X2905944Y2791644D01*
X2909132Y2799340D01*
X2911637Y2807285D01*
X2913440Y2815418D01*
X2914527Y2823677D01*
X2914891Y2832000D01*
Y2892000D01*
X2914527Y2900323D01*
X2913440Y2908582D01*
X2911637Y2916715D01*
X2909132Y2924660D01*
X2905944Y2932356D01*
X2902098Y2939746D01*
X2897622Y2946772D01*
X2892550Y2953381D01*
X2886922Y2959522D01*
X2880780Y2965151D01*
X2874171Y2970222D01*
X2867145Y2974698D01*
X2859756Y2978544D01*
X2852060Y2981732D01*
X2844115Y2984237D01*
X2835982Y2986041D01*
X2827723Y2987128D01*
X2819400Y2987491D01*
D02*
G37*
G36*
X2565400D02*
X2557077Y2987128D01*
X2548818Y2986041D01*
X2540685Y2984237D01*
X2532740Y2981732D01*
X2525044Y2978544D01*
X2517655Y2974698D01*
X2510629Y2970222D01*
X2504020Y2965151D01*
X2497878Y2959522D01*
X2492250Y2953381D01*
X2487178Y2946772D01*
X2482702Y2939746D01*
X2478856Y2932356D01*
X2475668Y2924660D01*
X2473163Y2916715D01*
X2471360Y2908582D01*
X2470273Y2900323D01*
X2469909Y2892000D01*
Y2832000D01*
X2470273Y2823677D01*
X2471360Y2815418D01*
X2473163Y2807285D01*
X2475668Y2799340D01*
X2478856Y2791644D01*
X2482702Y2784255D01*
X2487178Y2777229D01*
X2492250Y2770620D01*
X2497878Y2764478D01*
X2504020Y2758850D01*
X2510629Y2753778D01*
X2517655Y2749302D01*
X2525044Y2745456D01*
X2532740Y2742268D01*
X2540685Y2739763D01*
X2548818Y2737960D01*
X2557077Y2736873D01*
X2565400Y2736509D01*
X2573723Y2736873D01*
X2581982Y2737960D01*
X2590115Y2739763D01*
X2598060Y2742268D01*
X2605756Y2745456D01*
X2613145Y2749302D01*
X2620171Y2753778D01*
X2626780Y2758850D01*
X2632922Y2764478D01*
X2638550Y2770620D01*
X2643622Y2777229D01*
X2648098Y2784255D01*
X2651944Y2791644D01*
X2655132Y2799340D01*
X2657637Y2807285D01*
X2659440Y2815418D01*
X2660527Y2823677D01*
X2660891Y2832000D01*
Y2892000D01*
X2660527Y2900323D01*
X2659440Y2908582D01*
X2657637Y2916715D01*
X2655132Y2924660D01*
X2651944Y2932356D01*
X2648098Y2939746D01*
X2643622Y2946772D01*
X2638550Y2953381D01*
X2632922Y2959522D01*
X2626780Y2965151D01*
X2620171Y2970222D01*
X2613145Y2974698D01*
X2605756Y2978544D01*
X2598060Y2981732D01*
X2590115Y2984237D01*
X2581982Y2986041D01*
X2573723Y2987128D01*
X2565400Y2987491D01*
D02*
G37*
G36*
X1725499Y3985400D02*
X1494700D01*
Y3714600D01*
X1544621D01*
Y3552822D01*
X1503099Y3511301D01*
X1498784Y3506539D01*
X1494956Y3501378D01*
X1491653Y3495867D01*
X1488905Y3490058D01*
X1486740Y3484008D01*
X1485179Y3477774D01*
X1484236Y3471418D01*
X1483921Y3465000D01*
Y2961395D01*
X1481878Y2959522D01*
X1476250Y2953381D01*
X1471178Y2946772D01*
X1466702Y2939746D01*
X1462856Y2932356D01*
X1459668Y2924660D01*
X1457163Y2916715D01*
X1455360Y2908582D01*
X1454273Y2900323D01*
X1453909Y2892000D01*
Y2832000D01*
X1454273Y2823677D01*
X1455360Y2815418D01*
X1457163Y2807285D01*
X1459668Y2799340D01*
X1462856Y2791644D01*
X1466702Y2784255D01*
X1471178Y2777229D01*
X1476250Y2770620D01*
X1481878Y2764478D01*
X1488020Y2758850D01*
X1494629Y2753778D01*
X1501655Y2749302D01*
X1509044Y2745456D01*
X1516740Y2742268D01*
X1524685Y2739763D01*
X1532818Y2737960D01*
X1541077Y2736873D01*
X1549400Y2736509D01*
X1557723Y2736873D01*
X1565982Y2737960D01*
X1574115Y2739763D01*
X1582060Y2742268D01*
X1589756Y2745456D01*
X1597145Y2749302D01*
X1604171Y2753778D01*
X1610780Y2758850D01*
X1616922Y2764478D01*
X1622550Y2770620D01*
X1627622Y2777229D01*
X1632098Y2784255D01*
X1635944Y2791644D01*
X1639132Y2799340D01*
X1641637Y2807285D01*
X1643440Y2815418D01*
X1644527Y2823677D01*
X1644891Y2832000D01*
Y2892000D01*
X1644527Y2900323D01*
X1643440Y2908582D01*
X1641637Y2916715D01*
X1639132Y2924660D01*
X1635944Y2932356D01*
X1632098Y2939746D01*
X1627622Y2946772D01*
X1622550Y2953381D01*
X1616922Y2959522D01*
X1614879Y2961395D01*
Y3437878D01*
X1656400Y3479399D01*
X1660716Y3484160D01*
X1664544Y3489321D01*
X1667847Y3494833D01*
X1670594Y3500642D01*
X1672759Y3506692D01*
X1674321Y3512925D01*
X1675263Y3519282D01*
X1675579Y3525700D01*
X1675579Y3525705D01*
Y3714600D01*
X1725499D01*
Y3985400D01*
D02*
G37*
G36*
X1041400Y2987491D02*
X1033077Y2987128D01*
X1024818Y2986041D01*
X1016685Y2984237D01*
X1008740Y2981732D01*
X1001044Y2978544D01*
X993655Y2974698D01*
X986629Y2970222D01*
X980020Y2965151D01*
X973878Y2959522D01*
X968250Y2953381D01*
X963178Y2946772D01*
X958702Y2939746D01*
X954856Y2932356D01*
X951668Y2924660D01*
X949163Y2916715D01*
X947360Y2908582D01*
X946273Y2900323D01*
X945909Y2892000D01*
Y2832000D01*
X946273Y2823677D01*
X947360Y2815418D01*
X949163Y2807285D01*
X951668Y2799340D01*
X954856Y2791644D01*
X958702Y2784255D01*
X963178Y2777229D01*
X968250Y2770620D01*
X973878Y2764478D01*
X980020Y2758850D01*
X986629Y2753778D01*
X993655Y2749302D01*
X1001044Y2745456D01*
X1008740Y2742268D01*
X1016685Y2739763D01*
X1024818Y2737960D01*
X1033077Y2736873D01*
X1041400Y2736509D01*
X1049723Y2736873D01*
X1057982Y2737960D01*
X1066115Y2739763D01*
X1074060Y2742268D01*
X1081756Y2745456D01*
X1089145Y2749302D01*
X1096171Y2753778D01*
X1102780Y2758850D01*
X1108922Y2764478D01*
X1114550Y2770620D01*
X1119622Y2777229D01*
X1124098Y2784255D01*
X1127944Y2791644D01*
X1131132Y2799340D01*
X1133637Y2807285D01*
X1135440Y2815418D01*
X1136527Y2823677D01*
X1136891Y2832000D01*
Y2892000D01*
X1136527Y2900323D01*
X1135440Y2908582D01*
X1133637Y2916715D01*
X1131132Y2924660D01*
X1127944Y2932356D01*
X1124098Y2939746D01*
X1119622Y2946772D01*
X1114550Y2953381D01*
X1108922Y2959522D01*
X1102780Y2965151D01*
X1096171Y2970222D01*
X1089145Y2974698D01*
X1081756Y2978544D01*
X1074060Y2981732D01*
X1066115Y2984237D01*
X1057982Y2986041D01*
X1049723Y2987128D01*
X1041400Y2987491D01*
D02*
G37*
G36*
X787400D02*
X779077Y2987128D01*
X770818Y2986041D01*
X762685Y2984237D01*
X754740Y2981732D01*
X747044Y2978544D01*
X739655Y2974698D01*
X732629Y2970222D01*
X726020Y2965151D01*
X719878Y2959522D01*
X714250Y2953381D01*
X709178Y2946772D01*
X704702Y2939746D01*
X700856Y2932356D01*
X697668Y2924660D01*
X695163Y2916715D01*
X693360Y2908582D01*
X692273Y2900323D01*
X691909Y2892000D01*
Y2832000D01*
X692273Y2823677D01*
X693360Y2815418D01*
X695163Y2807285D01*
X697668Y2799340D01*
X700856Y2791644D01*
X704702Y2784255D01*
X709178Y2777229D01*
X714250Y2770620D01*
X719878Y2764478D01*
X726020Y2758850D01*
X732629Y2753778D01*
X739655Y2749302D01*
X747044Y2745456D01*
X754740Y2742268D01*
X762685Y2739763D01*
X770818Y2737960D01*
X779077Y2736873D01*
X787400Y2736509D01*
X795723Y2736873D01*
X803982Y2737960D01*
X812115Y2739763D01*
X820060Y2742268D01*
X827756Y2745456D01*
X835145Y2749302D01*
X842171Y2753778D01*
X848780Y2758850D01*
X854922Y2764478D01*
X860550Y2770620D01*
X865622Y2777229D01*
X870098Y2784255D01*
X873944Y2791644D01*
X877132Y2799340D01*
X879637Y2807285D01*
X881440Y2815418D01*
X882527Y2823677D01*
X882891Y2832000D01*
Y2892000D01*
X882527Y2900323D01*
X881440Y2908582D01*
X879637Y2916715D01*
X877132Y2924660D01*
X873944Y2932356D01*
X870098Y2939746D01*
X865622Y2946772D01*
X860550Y2953381D01*
X854922Y2959522D01*
X848780Y2965151D01*
X842171Y2970222D01*
X835145Y2974698D01*
X827756Y2978544D01*
X820060Y2981732D01*
X812115Y2984237D01*
X803982Y2986041D01*
X795723Y2987128D01*
X787400Y2987491D01*
D02*
G37*
G36*
X533400Y2796078D02*
X486292Y2748970D01*
X493044Y2745456D01*
X500740Y2742268D01*
X508685Y2739763D01*
X516818Y2737960D01*
X525077Y2736873D01*
X533400Y2736509D01*
X541723Y2736873D01*
X549982Y2737960D01*
X558115Y2739763D01*
X566060Y2742268D01*
X573756Y2745456D01*
X580508Y2748971D01*
X533400Y2796078D01*
D02*
G37*
G36*
X279400Y2987491D02*
X271077Y2987128D01*
X262818Y2986041D01*
X254685Y2984237D01*
X246740Y2981732D01*
X239044Y2978544D01*
X231655Y2974698D01*
X224629Y2970222D01*
X218020Y2965151D01*
X211878Y2959522D01*
X206250Y2953381D01*
X201178Y2946772D01*
X196702Y2939746D01*
X192856Y2932356D01*
X189668Y2924660D01*
X187163Y2916715D01*
X185360Y2908582D01*
X184273Y2900323D01*
X183909Y2892000D01*
Y2832000D01*
X184273Y2823677D01*
X185360Y2815418D01*
X187163Y2807285D01*
X189668Y2799340D01*
X192856Y2791644D01*
X196702Y2784255D01*
X201178Y2777229D01*
X206250Y2770620D01*
X211878Y2764478D01*
X218020Y2758850D01*
X224629Y2753778D01*
X231655Y2749302D01*
X239044Y2745456D01*
X246740Y2742268D01*
X254685Y2739763D01*
X262818Y2737960D01*
X271077Y2736873D01*
X279400Y2736509D01*
X287723Y2736873D01*
X295982Y2737960D01*
X304115Y2739763D01*
X312060Y2742268D01*
X319756Y2745456D01*
X327145Y2749302D01*
X334171Y2753778D01*
X340780Y2758850D01*
X346922Y2764478D01*
X352550Y2770620D01*
X357622Y2777229D01*
X362098Y2784255D01*
X365944Y2791644D01*
X369132Y2799340D01*
X371637Y2807285D01*
X373440Y2815418D01*
X374527Y2823677D01*
X374891Y2832000D01*
Y2892000D01*
X374527Y2900323D01*
X373440Y2908582D01*
X371637Y2916715D01*
X369132Y2924660D01*
X365944Y2932356D01*
X362098Y2939746D01*
X357622Y2946772D01*
X352550Y2953381D01*
X346922Y2959522D01*
X340780Y2965151D01*
X334171Y2970222D01*
X327145Y2974698D01*
X319756Y2978544D01*
X312060Y2981732D01*
X304115Y2984237D01*
X295982Y2986041D01*
X287723Y2987128D01*
X279400Y2987491D01*
D02*
G37*
G36*
X7462600Y2864781D02*
X7422600D01*
X7414324Y2864456D01*
X7406099Y2863482D01*
X7397976Y2861867D01*
X7390004Y2859619D01*
X7382234Y2856752D01*
X7374712Y2853284D01*
X7367486Y2849237D01*
X7360600Y2844636D01*
X7354095Y2839508D01*
X7348013Y2833886D01*
X7342391Y2827805D01*
X7337264Y2821300D01*
X7332663Y2814414D01*
X7328616Y2807187D01*
X7325148Y2799666D01*
X7322281Y2791896D01*
X7320033Y2783924D01*
X7318417Y2775801D01*
X7317444Y2767576D01*
X7317119Y2759300D01*
X7317444Y2751024D01*
X7318417Y2742799D01*
X7320033Y2734676D01*
X7322281Y2726704D01*
X7325148Y2718934D01*
X7328616Y2711413D01*
X7332663Y2704186D01*
X7337264Y2697300D01*
X7342391Y2690795D01*
X7348013Y2684714D01*
X7354095Y2679092D01*
X7360600Y2673964D01*
X7367486Y2669363D01*
X7374712Y2665316D01*
X7382234Y2661848D01*
X7390004Y2658981D01*
X7397976Y2656733D01*
X7406099Y2655118D01*
X7414324Y2654144D01*
X7422600Y2653819D01*
X7462600D01*
X7470876Y2654144D01*
X7479101Y2655118D01*
X7487224Y2656733D01*
X7495196Y2658981D01*
X7502966Y2661848D01*
X7510488Y2665316D01*
X7517714Y2669363D01*
X7524600Y2673964D01*
X7531105Y2679092D01*
X7537187Y2684714D01*
X7542809Y2690795D01*
X7547936Y2697300D01*
X7552538Y2704186D01*
X7556585Y2711413D01*
X7560052Y2718934D01*
X7562919Y2726704D01*
X7565167Y2734676D01*
X7566783Y2742799D01*
X7567756Y2751024D01*
X7568081Y2759300D01*
X7567756Y2767576D01*
X7566783Y2775801D01*
X7565167Y2783924D01*
X7562919Y2791896D01*
X7560052Y2799666D01*
X7556585Y2807187D01*
X7552538Y2814414D01*
X7547936Y2821300D01*
X7542809Y2827805D01*
X7537187Y2833886D01*
X7531105Y2839508D01*
X7524600Y2844636D01*
X7517714Y2849237D01*
X7510488Y2853284D01*
X7502966Y2856752D01*
X7495196Y2859619D01*
X7487224Y2861867D01*
X7479101Y2863482D01*
X7470876Y2864456D01*
X7462600Y2864781D01*
D02*
G37*
G36*
X4597400Y2987491D02*
X4589077Y2987128D01*
X4580818Y2986041D01*
X4572685Y2984237D01*
X4564740Y2981732D01*
X4557044Y2978544D01*
X4549655Y2974698D01*
X4542629Y2970222D01*
X4536020Y2965151D01*
X4529878Y2959522D01*
X4524250Y2953381D01*
X4519178Y2946772D01*
X4514702Y2939746D01*
X4510856Y2932356D01*
X4507668Y2924660D01*
X4505163Y2916715D01*
X4503360Y2908582D01*
X4502273Y2900323D01*
X4501909Y2892000D01*
Y2832000D01*
X4502273Y2823677D01*
X4503360Y2815418D01*
X4505163Y2807285D01*
X4507668Y2799340D01*
X4510856Y2791644D01*
X4514702Y2784255D01*
X4519178Y2777229D01*
X4524250Y2770620D01*
X4529878Y2764478D01*
X4534521Y2760223D01*
Y2664622D01*
X4498437Y2628537D01*
X4487903Y2632900D01*
Y2632900D01*
X4257103D01*
Y2467100D01*
X4487903D01*
Y2485625D01*
X4513604D01*
X4520022Y2485940D01*
X4526379Y2486883D01*
X4532612Y2488444D01*
X4538662Y2490609D01*
X4544471Y2493356D01*
X4549983Y2496660D01*
X4555144Y2500488D01*
X4559905Y2504803D01*
X4646298Y2591196D01*
X4646301Y2591199D01*
X4650616Y2595960D01*
X4654444Y2601121D01*
X4657747Y2606633D01*
X4660495Y2612442D01*
X4662659Y2618492D01*
X4664221Y2624725D01*
X4665164Y2631081D01*
X4665479Y2637499D01*
X4665479Y2637505D01*
Y2765085D01*
X4670550Y2770620D01*
X4675622Y2777229D01*
X4680098Y2784255D01*
X4683944Y2791644D01*
X4687132Y2799340D01*
X4689637Y2807285D01*
X4691440Y2815418D01*
X4692527Y2823677D01*
X4692891Y2832000D01*
Y2892000D01*
X4692527Y2900323D01*
X4691440Y2908582D01*
X4689637Y2916715D01*
X4687132Y2924660D01*
X4683944Y2932356D01*
X4680098Y2939746D01*
X4675622Y2946772D01*
X4670550Y2953381D01*
X4664922Y2959522D01*
X4658780Y2965151D01*
X4652171Y2970222D01*
X4645145Y2974698D01*
X4637756Y2978544D01*
X4630060Y2981732D01*
X4622115Y2984237D01*
X4613982Y2986041D01*
X4605723Y2987128D01*
X4597400Y2987491D01*
D02*
G37*
G36*
X5630000Y2576491D02*
X5625400D01*
Y2506400D01*
X5722021D01*
X5719732Y2513660D01*
X5716544Y2521356D01*
X5712698Y2528746D01*
X5708222Y2535771D01*
X5703150Y2542380D01*
X5697522Y2548522D01*
X5691381Y2554150D01*
X5684771Y2559222D01*
X5677746Y2563698D01*
X5670356Y2567544D01*
X5662660Y2570732D01*
X5654715Y2573237D01*
X5646582Y2575040D01*
X5638323Y2576127D01*
X5630000Y2576491D01*
D02*
G37*
G36*
X5574600D02*
X5570000D01*
X5561677Y2576127D01*
X5553418Y2575040D01*
X5545285Y2573237D01*
X5537340Y2570732D01*
X5529644Y2567544D01*
X5522254Y2563698D01*
X5515228Y2559222D01*
X5508619Y2554150D01*
X5502478Y2548522D01*
X5496850Y2542380D01*
X5491778Y2535771D01*
X5487302Y2528746D01*
X5483456Y2521356D01*
X5480268Y2513660D01*
X5477979Y2506400D01*
X5574600D01*
Y2576491D01*
D02*
G37*
G36*
X1807901Y2526900D02*
X1737902D01*
Y2476900D01*
X1807901D01*
Y2526900D01*
D02*
G37*
G36*
X1687102D02*
X1617102D01*
Y2476900D01*
X1687102D01*
Y2526900D01*
D02*
G37*
G36*
X1295400Y2987491D02*
X1287077Y2987128D01*
X1278818Y2986041D01*
X1270685Y2984237D01*
X1262740Y2981732D01*
X1255044Y2978544D01*
X1247655Y2974698D01*
X1240629Y2970222D01*
X1234020Y2965151D01*
X1227878Y2959522D01*
X1222250Y2953381D01*
X1217178Y2946772D01*
X1212702Y2939746D01*
X1208856Y2932356D01*
X1205668Y2924660D01*
X1203163Y2916715D01*
X1201360Y2908582D01*
X1200273Y2900323D01*
X1199909Y2892000D01*
Y2832000D01*
X1200273Y2823677D01*
X1201360Y2815418D01*
X1203163Y2807285D01*
X1205668Y2799340D01*
X1208856Y2791644D01*
X1212702Y2784255D01*
X1217178Y2777229D01*
X1222250Y2770620D01*
X1227878Y2764478D01*
X1229721Y2762788D01*
Y2632900D01*
X1179601D01*
Y2467100D01*
X1410400D01*
Y2632900D01*
X1360679D01*
Y2762422D01*
X1362922Y2764478D01*
X1368550Y2770620D01*
X1373622Y2777229D01*
X1378098Y2784255D01*
X1381944Y2791644D01*
X1385132Y2799340D01*
X1387637Y2807285D01*
X1389440Y2815418D01*
X1390527Y2823677D01*
X1390891Y2832000D01*
Y2892000D01*
X1390527Y2900323D01*
X1389440Y2908582D01*
X1387637Y2916715D01*
X1385132Y2924660D01*
X1381944Y2932356D01*
X1378098Y2939746D01*
X1373622Y2946772D01*
X1368550Y2953381D01*
X1362922Y2959522D01*
X1356780Y2965151D01*
X1350171Y2970222D01*
X1343145Y2974698D01*
X1335756Y2978544D01*
X1328060Y2981732D01*
X1320115Y2984237D01*
X1311982Y2986041D01*
X1303723Y2987128D01*
X1295400Y2987491D01*
D02*
G37*
G36*
X7462600Y2610781D02*
X7422600D01*
X7414324Y2610456D01*
X7406099Y2609482D01*
X7397976Y2607867D01*
X7390004Y2605619D01*
X7382234Y2602752D01*
X7374712Y2599284D01*
X7367486Y2595237D01*
X7360600Y2590636D01*
X7354095Y2585508D01*
X7348013Y2579886D01*
X7342391Y2573805D01*
X7337264Y2567300D01*
X7332663Y2560414D01*
X7328616Y2553187D01*
X7325148Y2545666D01*
X7322281Y2537896D01*
X7320033Y2529924D01*
X7318417Y2521801D01*
X7317444Y2513576D01*
X7317119Y2505300D01*
X7317444Y2497024D01*
X7318417Y2488799D01*
X7320033Y2480676D01*
X7322281Y2472704D01*
X7325148Y2464934D01*
X7328616Y2457413D01*
X7332663Y2450186D01*
X7337264Y2443300D01*
X7342391Y2436795D01*
X7348013Y2430714D01*
X7354095Y2425092D01*
X7360600Y2419964D01*
X7367486Y2415363D01*
X7374712Y2411316D01*
X7382234Y2407848D01*
X7390004Y2404981D01*
X7397976Y2402733D01*
X7406099Y2401118D01*
X7414324Y2400144D01*
X7422600Y2399819D01*
X7462600D01*
X7470876Y2400144D01*
X7479101Y2401118D01*
X7487224Y2402733D01*
X7495196Y2404981D01*
X7502966Y2407848D01*
X7510488Y2411316D01*
X7517714Y2415363D01*
X7524600Y2419964D01*
X7531105Y2425092D01*
X7537187Y2430714D01*
X7542809Y2436795D01*
X7547936Y2443300D01*
X7552538Y2450186D01*
X7556585Y2457413D01*
X7560052Y2464934D01*
X7562919Y2472704D01*
X7565167Y2480676D01*
X7566783Y2488799D01*
X7567756Y2497024D01*
X7568081Y2505300D01*
X7567756Y2513576D01*
X7566783Y2521801D01*
X7565167Y2529924D01*
X7562919Y2537896D01*
X7560052Y2545666D01*
X7556585Y2553187D01*
X7552538Y2560414D01*
X7547936Y2567300D01*
X7542809Y2573805D01*
X7537187Y2579886D01*
X7531105Y2585508D01*
X7524600Y2590636D01*
X7517714Y2595237D01*
X7510488Y2599284D01*
X7502966Y2602752D01*
X7495196Y2605619D01*
X7487224Y2607867D01*
X7479101Y2609482D01*
X7470876Y2610456D01*
X7462600Y2610781D01*
D02*
G37*
G36*
X5722021Y2455600D02*
X5625400D01*
Y2385509D01*
X5630000D01*
X5638323Y2385873D01*
X5646582Y2386960D01*
X5654715Y2388763D01*
X5662660Y2391268D01*
X5670356Y2394456D01*
X5677746Y2398303D01*
X5684771Y2402779D01*
X5691381Y2407850D01*
X5697522Y2413478D01*
X5703150Y2419620D01*
X5708222Y2426229D01*
X5712698Y2433255D01*
X5716544Y2440644D01*
X5719732Y2448340D01*
X5722021Y2455600D01*
D02*
G37*
G36*
X5574600D02*
X5477979D01*
X5480268Y2448340D01*
X5483456Y2440644D01*
X5487302Y2433255D01*
X5491778Y2426229D01*
X5496850Y2419620D01*
X5502478Y2413478D01*
X5508619Y2407850D01*
X5515228Y2402779D01*
X5522254Y2398303D01*
X5529644Y2394456D01*
X5537340Y2391268D01*
X5545285Y2388763D01*
X5553418Y2386960D01*
X5561677Y2385873D01*
X5570000Y2385509D01*
X5574600D01*
Y2455600D01*
D02*
G37*
G36*
X4754400Y2576491D02*
X4694400D01*
X4686077Y2576127D01*
X4677818Y2575040D01*
X4669685Y2573237D01*
X4661740Y2570732D01*
X4654044Y2567544D01*
X4646654Y2563698D01*
X4639629Y2559222D01*
X4633019Y2554150D01*
X4626878Y2548522D01*
X4621250Y2542380D01*
X4616178Y2535771D01*
X4611702Y2528746D01*
X4607856Y2521356D01*
X4604668Y2513660D01*
X4602163Y2505715D01*
X4600360Y2497582D01*
X4599272Y2489323D01*
X4598909Y2481000D01*
X4599272Y2472678D01*
X4600360Y2464418D01*
X4602163Y2456285D01*
X4604668Y2448340D01*
X4607856Y2440644D01*
X4611702Y2433255D01*
X4616178Y2426229D01*
X4621250Y2419620D01*
X4626878Y2413478D01*
X4633019Y2407850D01*
X4639629Y2402779D01*
X4646654Y2398303D01*
X4654044Y2394456D01*
X4661740Y2391268D01*
X4669685Y2388763D01*
X4677818Y2386960D01*
X4686077Y2385873D01*
X4694400Y2385509D01*
X4754400D01*
X4762723Y2385873D01*
X4770982Y2386960D01*
X4779115Y2388763D01*
X4787060Y2391268D01*
X4794756Y2394456D01*
X4802146Y2398303D01*
X4809171Y2402779D01*
X4815781Y2407850D01*
X4821922Y2413478D01*
X4827550Y2419620D01*
X4832622Y2426229D01*
X4837098Y2433255D01*
X4840944Y2440644D01*
X4844132Y2448340D01*
X4846637Y2456285D01*
X4848440Y2464418D01*
X4849528Y2472678D01*
X4849891Y2481000D01*
X4849528Y2489323D01*
X4848440Y2497582D01*
X4846637Y2505715D01*
X4844132Y2513660D01*
X4840944Y2521356D01*
X4837098Y2528746D01*
X4832622Y2535771D01*
X4827550Y2542380D01*
X4821922Y2548522D01*
X4815781Y2554150D01*
X4809171Y2559222D01*
X4802146Y2563698D01*
X4794756Y2567544D01*
X4787060Y2570732D01*
X4779115Y2573237D01*
X4770982Y2575040D01*
X4762723Y2576127D01*
X4754400Y2576491D01*
D02*
G37*
G36*
X1807901Y2426100D02*
X1737902D01*
Y2376100D01*
X1807901D01*
Y2426100D01*
D02*
G37*
G36*
X1687102D02*
X1617102D01*
Y2376100D01*
X1687102D01*
Y2426100D01*
D02*
G37*
G36*
X3435400Y2411900D02*
X3385399D01*
Y2341901D01*
X3435400D01*
Y2411900D01*
D02*
G37*
G36*
X3334599D02*
X3284600D01*
Y2341901D01*
X3334599D01*
Y2411900D01*
D02*
G37*
G36*
X3435400Y2291101D02*
X3385399D01*
Y2221100D01*
X3435400D01*
Y2291101D01*
D02*
G37*
G36*
X3334599D02*
X3284600D01*
Y2221100D01*
X3334599D01*
Y2291101D01*
D02*
G37*
G36*
X1410400Y2342900D02*
X1179601D01*
Y2177100D01*
X1410400D01*
Y2195271D01*
X1617102D01*
Y2186100D01*
X1807901D01*
Y2336900D01*
X1617102D01*
Y2326229D01*
X1410400D01*
Y2342900D01*
D02*
G37*
G36*
X6355399Y2229590D02*
X6285399D01*
Y2179591D01*
X6355399D01*
Y2229590D01*
D02*
G37*
G36*
X6234599D02*
X6164599D01*
Y2179591D01*
X6234599D01*
Y2229590D01*
D02*
G37*
G36*
X4216651Y2234601D02*
X4126652D01*
Y2177100D01*
X4216651D01*
Y2234601D01*
D02*
G37*
G36*
X4075852D02*
X3985852D01*
Y2177100D01*
X4075852D01*
Y2234601D01*
D02*
G37*
G36*
X5630000Y2322491D02*
X5570000D01*
X5561677Y2322127D01*
X5553418Y2321040D01*
X5545285Y2319237D01*
X5537340Y2316732D01*
X5529644Y2313544D01*
X5522254Y2309698D01*
X5515228Y2305222D01*
X5508619Y2300150D01*
X5502478Y2294522D01*
X5496850Y2288380D01*
X5491778Y2281771D01*
X5487302Y2274746D01*
X5483456Y2267356D01*
X5480268Y2259660D01*
X5477763Y2251715D01*
X5475960Y2243582D01*
X5474872Y2235323D01*
X5474509Y2227000D01*
X5474872Y2218678D01*
X5475960Y2210418D01*
X5477763Y2202285D01*
X5480268Y2194340D01*
X5483456Y2186644D01*
X5487302Y2179255D01*
X5491778Y2172229D01*
X5496850Y2165620D01*
X5502478Y2159478D01*
X5508619Y2153850D01*
X5515228Y2148779D01*
X5522254Y2144303D01*
X5529644Y2140456D01*
X5537340Y2137268D01*
X5545285Y2134763D01*
X5553418Y2132960D01*
X5561677Y2131873D01*
X5570000Y2131509D01*
X5630000D01*
X5638323Y2131873D01*
X5646582Y2132960D01*
X5654715Y2134763D01*
X5662660Y2137268D01*
X5670356Y2140456D01*
X5677746Y2144303D01*
X5684771Y2148779D01*
X5691381Y2153850D01*
X5697522Y2159478D01*
X5703150Y2165620D01*
X5708222Y2172229D01*
X5712698Y2179255D01*
X5716544Y2186644D01*
X5719732Y2194340D01*
X5722237Y2202285D01*
X5724040Y2210418D01*
X5725127Y2218678D01*
X5725491Y2227000D01*
X5725127Y2235323D01*
X5724040Y2243582D01*
X5722237Y2251715D01*
X5719732Y2259660D01*
X5716544Y2267356D01*
X5712698Y2274746D01*
X5708222Y2281771D01*
X5703150Y2288380D01*
X5697522Y2294522D01*
X5691381Y2300150D01*
X5684771Y2305222D01*
X5677746Y2309698D01*
X5670356Y2313544D01*
X5662660Y2316732D01*
X5654715Y2319237D01*
X5646582Y2321040D01*
X5638323Y2322127D01*
X5630000Y2322491D01*
D02*
G37*
G36*
X2930400Y2045400D02*
X2779600D01*
Y2016729D01*
X2680401D01*
Y2035399D01*
X2449602D01*
Y1869599D01*
X2680401D01*
Y1885771D01*
X2779600D01*
Y1854600D01*
X2930400D01*
Y2045400D01*
D02*
G37*
G36*
X3120400D02*
X3070400D01*
Y1975400D01*
X3120400D01*
Y2045400D01*
D02*
G37*
G36*
X3019600D02*
X2969600D01*
Y1975400D01*
X3019600D01*
Y2045400D01*
D02*
G37*
G36*
X3120400Y1924600D02*
X3070400D01*
Y1854600D01*
X3120400D01*
Y1924600D01*
D02*
G37*
G36*
X3019600D02*
X2969600D01*
Y1854600D01*
X3019600D01*
Y1924600D01*
D02*
G37*
G36*
X7462600Y1797981D02*
X7422600D01*
X7414324Y1797656D01*
X7406099Y1796682D01*
X7397976Y1795067D01*
X7392335Y1793476D01*
X7442601Y1743210D01*
X7492866Y1793476D01*
X7487224Y1795067D01*
X7479101Y1796682D01*
X7470876Y1797656D01*
X7462600Y1797981D01*
D02*
G37*
G36*
X3945400Y1753896D02*
X3875400D01*
Y1703896D01*
X3945400D01*
Y1753896D01*
D02*
G37*
G36*
X3824600D02*
X3754600D01*
Y1703896D01*
X3824600D01*
Y1753896D01*
D02*
G37*
G36*
X7442601Y1712500D02*
X7422600Y1692500D01*
X7442601Y1672500D01*
X7462601Y1692500D01*
X7442601Y1712500D01*
D02*
G37*
G36*
X7563576Y1722765D02*
X7533311Y1692500D01*
X7563576Y1662235D01*
X7565167Y1667876D01*
X7566783Y1675999D01*
X7567756Y1684224D01*
X7568081Y1692500D01*
X7567756Y1700776D01*
X7566783Y1709001D01*
X7565167Y1717124D01*
X7563576Y1722765D01*
D02*
G37*
G36*
X7321624Y1722765D02*
X7320033Y1717124D01*
X7318417Y1709001D01*
X7317444Y1700776D01*
X7317119Y1692500D01*
X7317444Y1684224D01*
X7318417Y1675999D01*
X7320033Y1667876D01*
X7321624Y1662234D01*
X7351890Y1692500D01*
X7321624Y1722765D01*
D02*
G37*
G36*
X4754400Y1814491D02*
X4694400D01*
X4686077Y1814127D01*
X4677818Y1813040D01*
X4669685Y1811237D01*
X4661740Y1808732D01*
X4654044Y1805544D01*
X4646654Y1801698D01*
X4639629Y1797222D01*
X4633019Y1792150D01*
X4626878Y1786522D01*
X4621250Y1780380D01*
X4616178Y1773771D01*
X4611702Y1766746D01*
X4607856Y1759356D01*
X4604668Y1751660D01*
X4602163Y1743715D01*
X4600360Y1735582D01*
X4599272Y1727323D01*
X4598909Y1719000D01*
X4599272Y1710678D01*
X4600360Y1702418D01*
X4602163Y1694285D01*
X4604668Y1686340D01*
X4607856Y1678644D01*
X4611702Y1671255D01*
X4616178Y1664229D01*
X4621250Y1657620D01*
X4626878Y1651478D01*
X4633019Y1645850D01*
X4639629Y1640779D01*
X4646654Y1636303D01*
X4654044Y1632456D01*
X4661740Y1629268D01*
X4669685Y1626763D01*
X4677818Y1624960D01*
X4686077Y1623873D01*
X4694400Y1623509D01*
X4754400D01*
X4762723Y1623873D01*
X4770982Y1624960D01*
X4779115Y1626763D01*
X4787060Y1629268D01*
X4794756Y1632456D01*
X4802146Y1636303D01*
X4809171Y1640779D01*
X4815781Y1645850D01*
X4821922Y1651478D01*
X4827550Y1657620D01*
X4832622Y1664229D01*
X4837098Y1671255D01*
X4840944Y1678644D01*
X4844132Y1686340D01*
X4846637Y1694285D01*
X4848440Y1702418D01*
X4849528Y1710678D01*
X4849891Y1719000D01*
X4849528Y1727323D01*
X4848440Y1735582D01*
X4846637Y1743715D01*
X4844132Y1751660D01*
X4840944Y1759356D01*
X4837098Y1766746D01*
X4832622Y1773771D01*
X4827550Y1780380D01*
X4821922Y1786522D01*
X4815781Y1792150D01*
X4809171Y1797222D01*
X4802146Y1801698D01*
X4794756Y1805544D01*
X4787060Y1808732D01*
X4779115Y1811237D01*
X4770982Y1813040D01*
X4762723Y1814127D01*
X4754400Y1814491D01*
D02*
G37*
G36*
X3945400Y1653096D02*
X3875400D01*
Y1603096D01*
X3945400D01*
Y1653096D01*
D02*
G37*
G36*
X3824600D02*
X3754600D01*
Y1603096D01*
X3824600D01*
Y1653096D01*
D02*
G37*
G36*
X7442601Y1641790D02*
X7392335Y1591524D01*
X7397976Y1589933D01*
X7406099Y1588318D01*
X7414324Y1587344D01*
X7422600Y1587019D01*
X7462600D01*
X7470876Y1587344D01*
X7479101Y1588318D01*
X7487224Y1589933D01*
X7492866Y1591524D01*
X7442601Y1641790D01*
D02*
G37*
G36*
X7000388Y1642900D02*
X6910389D01*
Y1585400D01*
X7000388D01*
Y1642900D01*
D02*
G37*
G36*
X6859589D02*
X6769589D01*
Y1585400D01*
X6859589D01*
Y1642900D01*
D02*
G37*
G36*
X7462600Y1543981D02*
X7422600D01*
X7414324Y1543656D01*
X7406099Y1542682D01*
X7397976Y1541067D01*
X7392335Y1539476D01*
X7442601Y1489210D01*
X7492866Y1539476D01*
X7487224Y1541067D01*
X7479101Y1542682D01*
X7470876Y1543656D01*
X7462600Y1543981D01*
D02*
G37*
G36*
X7442601Y1458500D02*
X7422600Y1438500D01*
X7442601Y1418500D01*
X7462601Y1438500D01*
X7442601Y1458500D01*
D02*
G37*
G36*
X7563576Y1468765D02*
X7533311Y1438500D01*
X7563576Y1408235D01*
X7565167Y1413876D01*
X7566783Y1421999D01*
X7567756Y1430224D01*
X7568081Y1438500D01*
X7567756Y1446776D01*
X7566783Y1455001D01*
X7565167Y1463124D01*
X7563576Y1468765D01*
D02*
G37*
G36*
X7321624Y1468765D02*
X7320033Y1463124D01*
X7318417Y1455001D01*
X7317444Y1446776D01*
X7317119Y1438500D01*
X7317444Y1430224D01*
X7318417Y1421999D01*
X7320033Y1413876D01*
X7321624Y1408234D01*
X7351890Y1438500D01*
X7321624Y1468765D01*
D02*
G37*
G36*
X4851400Y1463491D02*
X4843077Y1463128D01*
X4834818Y1462041D01*
X4826685Y1460237D01*
X4818740Y1457732D01*
X4811044Y1454544D01*
X4804292Y1451030D01*
X4851400Y1403921D01*
X4898509Y1451029D01*
X4891756Y1454544D01*
X4884060Y1457732D01*
X4876115Y1460237D01*
X4867982Y1462041D01*
X4859723Y1463128D01*
X4851400Y1463491D01*
D02*
G37*
G36*
X5630000Y1560491D02*
X5570000D01*
X5561677Y1560127D01*
X5553418Y1559040D01*
X5545285Y1557237D01*
X5537340Y1554732D01*
X5529644Y1551544D01*
X5522254Y1547698D01*
X5515228Y1543222D01*
X5508619Y1538150D01*
X5502478Y1532522D01*
X5496850Y1526380D01*
X5491778Y1519771D01*
X5487302Y1512746D01*
X5483456Y1505356D01*
X5480268Y1497660D01*
X5477763Y1489715D01*
X5475960Y1481582D01*
X5474872Y1473323D01*
X5474509Y1465000D01*
X5474872Y1456678D01*
X5475960Y1448418D01*
X5477763Y1440285D01*
X5480268Y1432340D01*
X5483456Y1424644D01*
X5487302Y1417255D01*
X5491778Y1410229D01*
X5496850Y1403620D01*
X5502478Y1397478D01*
X5508619Y1391850D01*
X5515228Y1386779D01*
X5522254Y1382303D01*
X5529644Y1378456D01*
X5537340Y1375268D01*
X5545285Y1372763D01*
X5553418Y1370960D01*
X5561677Y1369873D01*
X5570000Y1369509D01*
X5630000D01*
X5638323Y1369873D01*
X5646582Y1370960D01*
X5654715Y1372763D01*
X5662660Y1375268D01*
X5670356Y1378456D01*
X5677746Y1382303D01*
X5684771Y1386779D01*
X5691381Y1391850D01*
X5697522Y1397478D01*
X5703150Y1403620D01*
X5708222Y1410229D01*
X5712698Y1417255D01*
X5716544Y1424644D01*
X5719732Y1432340D01*
X5722237Y1440285D01*
X5724040Y1448418D01*
X5725127Y1456678D01*
X5725491Y1465000D01*
X5725127Y1473323D01*
X5724040Y1481582D01*
X5722237Y1489715D01*
X5719732Y1497660D01*
X5716544Y1505356D01*
X5712698Y1512746D01*
X5708222Y1519771D01*
X5703150Y1526380D01*
X5697522Y1532522D01*
X5691381Y1538150D01*
X5684771Y1543222D01*
X5677746Y1547698D01*
X5670356Y1551544D01*
X5662660Y1554732D01*
X5654715Y1557237D01*
X5646582Y1559040D01*
X5638323Y1560127D01*
X5630000Y1560491D01*
D02*
G37*
G36*
X7442601Y1387790D02*
X7392335Y1337524D01*
X7397976Y1335933D01*
X7406099Y1334318D01*
X7414324Y1333344D01*
X7422600Y1333019D01*
X7462600D01*
X7470876Y1333344D01*
X7479101Y1334318D01*
X7487224Y1335933D01*
X7492866Y1337524D01*
X7442601Y1387790D01*
D02*
G37*
G36*
X4768371Y1415108D02*
X4764856Y1408356D01*
X4761668Y1400660D01*
X4759163Y1392715D01*
X4757360Y1384582D01*
X4756273Y1376323D01*
X4755909Y1368000D01*
Y1308000D01*
X4756273Y1299677D01*
X4757360Y1291418D01*
X4759163Y1283285D01*
X4761668Y1275340D01*
X4764856Y1267644D01*
X4768371Y1260891D01*
X4833440Y1325960D01*
X4851400Y1308000D01*
X4869361Y1325960D01*
X4934429Y1260892D01*
X4937944Y1267644D01*
X4941132Y1275340D01*
X4943637Y1283285D01*
X4945440Y1291418D01*
X4946527Y1299677D01*
X4946891Y1308000D01*
Y1368000D01*
X4946527Y1376323D01*
X4945440Y1384582D01*
X4943637Y1392715D01*
X4941132Y1400660D01*
X4937944Y1408356D01*
X4934430Y1415108D01*
X4869361Y1350039D01*
X4851400Y1368000D01*
X4833440Y1350039D01*
X4768371Y1415108D01*
D02*
G37*
G36*
X4851400Y1272078D02*
X4804292Y1224970D01*
X4811044Y1221456D01*
X4818740Y1218268D01*
X4826685Y1215763D01*
X4834818Y1213960D01*
X4843077Y1212873D01*
X4851400Y1212509D01*
X4859723Y1212873D01*
X4867982Y1213960D01*
X4876115Y1215763D01*
X4884060Y1218268D01*
X4891756Y1221456D01*
X4898508Y1224971D01*
X4851400Y1272078D01*
D02*
G37*
G36*
X4597400Y1463491D02*
X4589077Y1463128D01*
X4580818Y1462041D01*
X4572685Y1460237D01*
X4564740Y1457732D01*
X4557044Y1454544D01*
X4549655Y1450698D01*
X4542629Y1446222D01*
X4536020Y1441151D01*
X4529878Y1435522D01*
X4524250Y1429381D01*
X4519178Y1422772D01*
X4514702Y1415746D01*
X4510856Y1408356D01*
X4507668Y1400660D01*
X4505163Y1392715D01*
X4503360Y1384582D01*
X4502273Y1376323D01*
X4501909Y1368000D01*
Y1308000D01*
X4502273Y1299677D01*
X4503360Y1291418D01*
X4505163Y1283285D01*
X4507668Y1275340D01*
X4510856Y1267644D01*
X4514702Y1260255D01*
X4519178Y1253229D01*
X4524250Y1246620D01*
X4529878Y1240478D01*
X4536020Y1234850D01*
X4542629Y1229778D01*
X4549655Y1225302D01*
X4557044Y1221456D01*
X4564740Y1218268D01*
X4572685Y1215763D01*
X4580818Y1213960D01*
X4589077Y1212873D01*
X4597400Y1212509D01*
X4605723Y1212873D01*
X4613982Y1213960D01*
X4622115Y1215763D01*
X4630060Y1218268D01*
X4637756Y1221456D01*
X4645145Y1225302D01*
X4652171Y1229778D01*
X4658780Y1234850D01*
X4664922Y1240478D01*
X4670550Y1246620D01*
X4675622Y1253229D01*
X4680098Y1260255D01*
X4683944Y1267644D01*
X4687132Y1275340D01*
X4689637Y1283285D01*
X4691440Y1291418D01*
X4692527Y1299677D01*
X4692891Y1308000D01*
Y1368000D01*
X4692527Y1376323D01*
X4691440Y1384582D01*
X4689637Y1392715D01*
X4687132Y1400660D01*
X4683944Y1408356D01*
X4680098Y1415746D01*
X4675622Y1422772D01*
X4670550Y1429381D01*
X4664922Y1435522D01*
X4658780Y1441151D01*
X4652171Y1446222D01*
X4645145Y1450698D01*
X4637756Y1454544D01*
X4630060Y1457732D01*
X4622115Y1460237D01*
X4613982Y1462041D01*
X4605723Y1463128D01*
X4597400Y1463491D01*
D02*
G37*
G36*
X4343400D02*
X4335077Y1463128D01*
X4326818Y1462041D01*
X4318685Y1460237D01*
X4310740Y1457732D01*
X4303044Y1454544D01*
X4295655Y1450698D01*
X4288629Y1446222D01*
X4282020Y1441151D01*
X4275878Y1435522D01*
X4270250Y1429381D01*
X4265178Y1422772D01*
X4260702Y1415746D01*
X4256856Y1408356D01*
X4253668Y1400660D01*
X4251163Y1392715D01*
X4249360Y1384582D01*
X4248273Y1376323D01*
X4247909Y1368000D01*
Y1308000D01*
X4248273Y1299677D01*
X4249360Y1291418D01*
X4251163Y1283285D01*
X4253668Y1275340D01*
X4256856Y1267644D01*
X4260702Y1260255D01*
X4265178Y1253229D01*
X4270250Y1246620D01*
X4275878Y1240478D01*
X4282020Y1234850D01*
X4288629Y1229778D01*
X4295655Y1225302D01*
X4303044Y1221456D01*
X4310740Y1218268D01*
X4318685Y1215763D01*
X4326818Y1213960D01*
X4335077Y1212873D01*
X4343400Y1212509D01*
X4351723Y1212873D01*
X4359982Y1213960D01*
X4368115Y1215763D01*
X4376060Y1218268D01*
X4383756Y1221456D01*
X4391145Y1225302D01*
X4398171Y1229778D01*
X4404780Y1234850D01*
X4410922Y1240478D01*
X4416550Y1246620D01*
X4421622Y1253229D01*
X4426098Y1260255D01*
X4429944Y1267644D01*
X4433132Y1275340D01*
X4435637Y1283285D01*
X4437440Y1291418D01*
X4438527Y1299677D01*
X4438891Y1308000D01*
Y1368000D01*
X4438527Y1376323D01*
X4437440Y1384582D01*
X4435637Y1392715D01*
X4433132Y1400660D01*
X4429944Y1408356D01*
X4426098Y1415746D01*
X4421622Y1422772D01*
X4416550Y1429381D01*
X4410922Y1435522D01*
X4404780Y1441151D01*
X4398171Y1446222D01*
X4391145Y1450698D01*
X4383756Y1454544D01*
X4376060Y1457732D01*
X4368115Y1460237D01*
X4359982Y1462041D01*
X4351723Y1463128D01*
X4343400Y1463491D01*
D02*
G37*
G36*
X4205398Y1660396D02*
X3974598D01*
Y1494596D01*
X4024220D01*
Y1437669D01*
X4021878Y1435522D01*
X4016250Y1429381D01*
X4011178Y1422772D01*
X4006702Y1415746D01*
X4002856Y1408356D01*
X3999668Y1400660D01*
X3997163Y1392715D01*
X3995360Y1384582D01*
X3994273Y1376323D01*
X3993909Y1368000D01*
Y1308000D01*
X3994273Y1299677D01*
X3995360Y1291418D01*
X3997163Y1283285D01*
X3999668Y1275340D01*
X4002856Y1267644D01*
X4006702Y1260255D01*
X4011178Y1253229D01*
X4016250Y1246620D01*
X4021878Y1240478D01*
X4028020Y1234850D01*
X4034629Y1229778D01*
X4041655Y1225302D01*
X4049044Y1221456D01*
X4056740Y1218268D01*
X4064685Y1215763D01*
X4072818Y1213960D01*
X4081077Y1212873D01*
X4089400Y1212509D01*
X4097723Y1212873D01*
X4105982Y1213960D01*
X4114115Y1215763D01*
X4122060Y1218268D01*
X4129756Y1221456D01*
X4137145Y1225302D01*
X4144171Y1229778D01*
X4150780Y1234850D01*
X4156922Y1240478D01*
X4162550Y1246620D01*
X4167622Y1253229D01*
X4172098Y1260255D01*
X4175944Y1267644D01*
X4179132Y1275340D01*
X4181637Y1283285D01*
X4183440Y1291418D01*
X4184527Y1299677D01*
X4184891Y1308000D01*
Y1368000D01*
X4184527Y1376323D01*
X4183440Y1384582D01*
X4181637Y1392715D01*
X4179132Y1400660D01*
X4175944Y1408356D01*
X4172098Y1415746D01*
X4167622Y1422772D01*
X4162550Y1429381D01*
X4156922Y1435522D01*
X4155178Y1437121D01*
Y1494596D01*
X4205398D01*
Y1660396D01*
D02*
G37*
G36*
X2057400Y1463491D02*
X2049077Y1463128D01*
X2040818Y1462041D01*
X2032685Y1460237D01*
X2024740Y1457732D01*
X2017044Y1454544D01*
X2009655Y1450698D01*
X2002629Y1446222D01*
X1996020Y1441151D01*
X1989878Y1435522D01*
X1984250Y1429381D01*
X1979178Y1422772D01*
X1974702Y1415746D01*
X1970856Y1408356D01*
X1967668Y1400660D01*
X1965163Y1392715D01*
X1963360Y1384582D01*
X1962273Y1376323D01*
X1961909Y1368000D01*
Y1308000D01*
X1962273Y1299677D01*
X1963360Y1291418D01*
X1965163Y1283285D01*
X1967668Y1275340D01*
X1970856Y1267644D01*
X1974702Y1260255D01*
X1979178Y1253229D01*
X1984250Y1246620D01*
X1989878Y1240478D01*
X1996020Y1234850D01*
X2002629Y1229778D01*
X2009655Y1225302D01*
X2017044Y1221456D01*
X2024740Y1218268D01*
X2032685Y1215763D01*
X2040818Y1213960D01*
X2049077Y1212873D01*
X2057400Y1212509D01*
X2065723Y1212873D01*
X2073982Y1213960D01*
X2082115Y1215763D01*
X2090060Y1218268D01*
X2097756Y1221456D01*
X2105145Y1225302D01*
X2112171Y1229778D01*
X2118780Y1234850D01*
X2124922Y1240478D01*
X2130550Y1246620D01*
X2135622Y1253229D01*
X2140098Y1260255D01*
X2143944Y1267644D01*
X2147132Y1275340D01*
X2149637Y1283285D01*
X2151440Y1291418D01*
X2152527Y1299677D01*
X2152891Y1308000D01*
Y1368000D01*
X2152527Y1376323D01*
X2151440Y1384582D01*
X2149637Y1392715D01*
X2147132Y1400660D01*
X2143944Y1408356D01*
X2140098Y1415746D01*
X2135622Y1422772D01*
X2130550Y1429381D01*
X2124922Y1435522D01*
X2118780Y1441151D01*
X2112171Y1446222D01*
X2105145Y1450698D01*
X2097756Y1454544D01*
X2090060Y1457732D01*
X2082115Y1460237D01*
X2073982Y1462041D01*
X2065723Y1463128D01*
X2057400Y1463491D01*
D02*
G37*
G36*
X1803400D02*
X1795077Y1463128D01*
X1786818Y1462041D01*
X1778685Y1460237D01*
X1770740Y1457732D01*
X1763044Y1454544D01*
X1755655Y1450698D01*
X1748629Y1446222D01*
X1742020Y1441151D01*
X1735878Y1435522D01*
X1730250Y1429381D01*
X1725178Y1422772D01*
X1720702Y1415746D01*
X1716856Y1408356D01*
X1713668Y1400660D01*
X1711163Y1392715D01*
X1709360Y1384582D01*
X1708273Y1376323D01*
X1707909Y1368000D01*
Y1308000D01*
X1708273Y1299677D01*
X1709360Y1291418D01*
X1711163Y1283285D01*
X1713668Y1275340D01*
X1716856Y1267644D01*
X1720702Y1260255D01*
X1725178Y1253229D01*
X1730250Y1246620D01*
X1735878Y1240478D01*
X1742020Y1234850D01*
X1748629Y1229778D01*
X1755655Y1225302D01*
X1763044Y1221456D01*
X1770740Y1218268D01*
X1778685Y1215763D01*
X1786818Y1213960D01*
X1795077Y1212873D01*
X1803400Y1212509D01*
X1811723Y1212873D01*
X1819982Y1213960D01*
X1828115Y1215763D01*
X1836060Y1218268D01*
X1843756Y1221456D01*
X1851145Y1225302D01*
X1858171Y1229778D01*
X1864780Y1234850D01*
X1870922Y1240478D01*
X1876550Y1246620D01*
X1881622Y1253229D01*
X1886098Y1260255D01*
X1889944Y1267644D01*
X1893132Y1275340D01*
X1895637Y1283285D01*
X1897440Y1291418D01*
X1898527Y1299677D01*
X1898891Y1308000D01*
Y1368000D01*
X1898527Y1376323D01*
X1897440Y1384582D01*
X1895637Y1392715D01*
X1893132Y1400660D01*
X1889944Y1408356D01*
X1886098Y1415746D01*
X1881622Y1422772D01*
X1876550Y1429381D01*
X1870922Y1435522D01*
X1864780Y1441151D01*
X1858171Y1446222D01*
X1851145Y1450698D01*
X1843756Y1454544D01*
X1836060Y1457732D01*
X1828115Y1460237D01*
X1819982Y1462041D01*
X1811723Y1463128D01*
X1803400Y1463491D01*
D02*
G37*
G36*
X1549400D02*
X1541077Y1463128D01*
X1532818Y1462041D01*
X1524685Y1460237D01*
X1516740Y1457732D01*
X1509044Y1454544D01*
X1501655Y1450698D01*
X1494629Y1446222D01*
X1488020Y1441151D01*
X1481878Y1435522D01*
X1476250Y1429381D01*
X1471178Y1422772D01*
X1466702Y1415746D01*
X1462856Y1408356D01*
X1459668Y1400660D01*
X1457163Y1392715D01*
X1455360Y1384582D01*
X1454273Y1376323D01*
X1453909Y1368000D01*
Y1308000D01*
X1454273Y1299677D01*
X1455360Y1291418D01*
X1457163Y1283285D01*
X1459668Y1275340D01*
X1462856Y1267644D01*
X1466702Y1260255D01*
X1471178Y1253229D01*
X1476250Y1246620D01*
X1481878Y1240478D01*
X1488020Y1234850D01*
X1494629Y1229778D01*
X1501655Y1225302D01*
X1509044Y1221456D01*
X1516740Y1218268D01*
X1524685Y1215763D01*
X1532818Y1213960D01*
X1541077Y1212873D01*
X1549400Y1212509D01*
X1557723Y1212873D01*
X1565982Y1213960D01*
X1574115Y1215763D01*
X1582060Y1218268D01*
X1589756Y1221456D01*
X1597145Y1225302D01*
X1604171Y1229778D01*
X1610780Y1234850D01*
X1616922Y1240478D01*
X1622550Y1246620D01*
X1627622Y1253229D01*
X1632098Y1260255D01*
X1635944Y1267644D01*
X1639132Y1275340D01*
X1641637Y1283285D01*
X1643440Y1291418D01*
X1644527Y1299677D01*
X1644891Y1308000D01*
Y1368000D01*
X1644527Y1376323D01*
X1643440Y1384582D01*
X1641637Y1392715D01*
X1639132Y1400660D01*
X1635944Y1408356D01*
X1632098Y1415746D01*
X1627622Y1422772D01*
X1622550Y1429381D01*
X1616922Y1435522D01*
X1610780Y1441151D01*
X1604171Y1446222D01*
X1597145Y1450698D01*
X1589756Y1454544D01*
X1582060Y1457732D01*
X1574115Y1460237D01*
X1565982Y1462041D01*
X1557723Y1463128D01*
X1549400Y1463491D01*
D02*
G37*
G36*
X1295400D02*
X1287077Y1463128D01*
X1278818Y1462041D01*
X1270685Y1460237D01*
X1262740Y1457732D01*
X1255044Y1454544D01*
X1247655Y1450698D01*
X1240629Y1446222D01*
X1234020Y1441151D01*
X1227878Y1435522D01*
X1222250Y1429381D01*
X1217178Y1422772D01*
X1212702Y1415746D01*
X1208856Y1408356D01*
X1205668Y1400660D01*
X1203163Y1392715D01*
X1201360Y1384582D01*
X1200273Y1376323D01*
X1199909Y1368000D01*
Y1308000D01*
X1200273Y1299677D01*
X1201360Y1291418D01*
X1203163Y1283285D01*
X1205668Y1275340D01*
X1208856Y1267644D01*
X1212702Y1260255D01*
X1217178Y1253229D01*
X1222250Y1246620D01*
X1227878Y1240478D01*
X1234020Y1234850D01*
X1240629Y1229778D01*
X1247655Y1225302D01*
X1255044Y1221456D01*
X1262740Y1218268D01*
X1270685Y1215763D01*
X1278818Y1213960D01*
X1287077Y1212873D01*
X1295400Y1212509D01*
X1303723Y1212873D01*
X1311982Y1213960D01*
X1320115Y1215763D01*
X1328060Y1218268D01*
X1335756Y1221456D01*
X1343145Y1225302D01*
X1350171Y1229778D01*
X1356780Y1234850D01*
X1362922Y1240478D01*
X1368550Y1246620D01*
X1373622Y1253229D01*
X1378098Y1260255D01*
X1381944Y1267644D01*
X1385132Y1275340D01*
X1387637Y1283285D01*
X1389440Y1291418D01*
X1390527Y1299677D01*
X1390891Y1308000D01*
Y1368000D01*
X1390527Y1376323D01*
X1389440Y1384582D01*
X1387637Y1392715D01*
X1385132Y1400660D01*
X1381944Y1408356D01*
X1378098Y1415746D01*
X1373622Y1422772D01*
X1368550Y1429381D01*
X1362922Y1435522D01*
X1356780Y1441151D01*
X1350171Y1446222D01*
X1343145Y1450698D01*
X1335756Y1454544D01*
X1328060Y1457732D01*
X1320115Y1460237D01*
X1311982Y1462041D01*
X1303723Y1463128D01*
X1295400Y1463491D01*
D02*
G37*
G36*
X1041400D02*
X1033077Y1463128D01*
X1024818Y1462041D01*
X1016685Y1460237D01*
X1008740Y1457732D01*
X1001044Y1454544D01*
X993655Y1450698D01*
X986629Y1446222D01*
X980020Y1441151D01*
X973878Y1435522D01*
X968250Y1429381D01*
X963178Y1422772D01*
X958702Y1415746D01*
X954856Y1408356D01*
X951668Y1400660D01*
X949163Y1392715D01*
X947360Y1384582D01*
X946273Y1376323D01*
X945909Y1368000D01*
Y1308000D01*
X946273Y1299677D01*
X947360Y1291418D01*
X949163Y1283285D01*
X951668Y1275340D01*
X954856Y1267644D01*
X958702Y1260255D01*
X963178Y1253229D01*
X968250Y1246620D01*
X973878Y1240478D01*
X980020Y1234850D01*
X986629Y1229778D01*
X993655Y1225302D01*
X1001044Y1221456D01*
X1008740Y1218268D01*
X1016685Y1215763D01*
X1024818Y1213960D01*
X1033077Y1212873D01*
X1041400Y1212509D01*
X1049723Y1212873D01*
X1057982Y1213960D01*
X1066115Y1215763D01*
X1074060Y1218268D01*
X1081756Y1221456D01*
X1089145Y1225302D01*
X1096171Y1229778D01*
X1102780Y1234850D01*
X1108922Y1240478D01*
X1114550Y1246620D01*
X1119622Y1253229D01*
X1124098Y1260255D01*
X1127944Y1267644D01*
X1131132Y1275340D01*
X1133637Y1283285D01*
X1135440Y1291418D01*
X1136527Y1299677D01*
X1136891Y1308000D01*
Y1368000D01*
X1136527Y1376323D01*
X1135440Y1384582D01*
X1133637Y1392715D01*
X1131132Y1400660D01*
X1127944Y1408356D01*
X1124098Y1415746D01*
X1119622Y1422772D01*
X1114550Y1429381D01*
X1108922Y1435522D01*
X1102780Y1441151D01*
X1096171Y1446222D01*
X1089145Y1450698D01*
X1081756Y1454544D01*
X1074060Y1457732D01*
X1066115Y1460237D01*
X1057982Y1462041D01*
X1049723Y1463128D01*
X1041400Y1463491D01*
D02*
G37*
G36*
X787400D02*
X779077Y1463128D01*
X770818Y1462041D01*
X762685Y1460237D01*
X754740Y1457732D01*
X747044Y1454544D01*
X739655Y1450698D01*
X732629Y1446222D01*
X726020Y1441151D01*
X719878Y1435522D01*
X714250Y1429381D01*
X709178Y1422772D01*
X704702Y1415746D01*
X700856Y1408356D01*
X697668Y1400660D01*
X695163Y1392715D01*
X693360Y1384582D01*
X692273Y1376323D01*
X691909Y1368000D01*
Y1308000D01*
X692273Y1299677D01*
X693360Y1291418D01*
X695163Y1283285D01*
X697668Y1275340D01*
X700856Y1267644D01*
X704702Y1260255D01*
X709178Y1253229D01*
X714250Y1246620D01*
X719878Y1240478D01*
X726020Y1234850D01*
X732629Y1229778D01*
X739655Y1225302D01*
X747044Y1221456D01*
X754740Y1218268D01*
X762685Y1215763D01*
X770818Y1213960D01*
X779077Y1212873D01*
X787400Y1212509D01*
X795723Y1212873D01*
X803982Y1213960D01*
X812115Y1215763D01*
X820060Y1218268D01*
X827756Y1221456D01*
X835145Y1225302D01*
X842171Y1229778D01*
X848780Y1234850D01*
X854922Y1240478D01*
X860550Y1246620D01*
X865622Y1253229D01*
X870098Y1260255D01*
X873944Y1267644D01*
X877132Y1275340D01*
X879637Y1283285D01*
X881440Y1291418D01*
X882527Y1299677D01*
X882891Y1308000D01*
Y1368000D01*
X882527Y1376323D01*
X881440Y1384582D01*
X879637Y1392715D01*
X877132Y1400660D01*
X873944Y1408356D01*
X870098Y1415746D01*
X865622Y1422772D01*
X860550Y1429381D01*
X854922Y1435522D01*
X848780Y1441151D01*
X842171Y1446222D01*
X835145Y1450698D01*
X827756Y1454544D01*
X820060Y1457732D01*
X812115Y1460237D01*
X803982Y1462041D01*
X795723Y1463128D01*
X787400Y1463491D01*
D02*
G37*
G36*
X533400D02*
X525077Y1463128D01*
X516818Y1462041D01*
X508685Y1460237D01*
X500740Y1457732D01*
X493044Y1454544D01*
X485655Y1450698D01*
X478629Y1446222D01*
X472020Y1441151D01*
X465878Y1435522D01*
X460250Y1429381D01*
X455178Y1422772D01*
X450702Y1415746D01*
X446856Y1408356D01*
X443668Y1400660D01*
X441163Y1392715D01*
X439360Y1384582D01*
X438273Y1376323D01*
X437909Y1368000D01*
Y1308000D01*
X438273Y1299677D01*
X439360Y1291418D01*
X441163Y1283285D01*
X443668Y1275340D01*
X446856Y1267644D01*
X450702Y1260255D01*
X455178Y1253229D01*
X460250Y1246620D01*
X465878Y1240478D01*
X472020Y1234850D01*
X478629Y1229778D01*
X485655Y1225302D01*
X493044Y1221456D01*
X500740Y1218268D01*
X508685Y1215763D01*
X516818Y1213960D01*
X525077Y1212873D01*
X533400Y1212509D01*
X541723Y1212873D01*
X549982Y1213960D01*
X558115Y1215763D01*
X566060Y1218268D01*
X573756Y1221456D01*
X581145Y1225302D01*
X588171Y1229778D01*
X594780Y1234850D01*
X600922Y1240478D01*
X606550Y1246620D01*
X611622Y1253229D01*
X616098Y1260255D01*
X619944Y1267644D01*
X623132Y1275340D01*
X625637Y1283285D01*
X627440Y1291418D01*
X628527Y1299677D01*
X628891Y1308000D01*
Y1368000D01*
X628527Y1376323D01*
X627440Y1384582D01*
X625637Y1392715D01*
X623132Y1400660D01*
X619944Y1408356D01*
X616098Y1415746D01*
X611622Y1422772D01*
X606550Y1429381D01*
X600922Y1435522D01*
X594780Y1441151D01*
X588171Y1446222D01*
X581145Y1450698D01*
X573756Y1454544D01*
X566060Y1457732D01*
X558115Y1460237D01*
X549982Y1462041D01*
X541723Y1463128D01*
X533400Y1463491D01*
D02*
G37*
G36*
X5630000Y1306491D02*
X5570000D01*
X5561677Y1306127D01*
X5553418Y1305040D01*
X5545285Y1303237D01*
X5537340Y1300732D01*
X5529644Y1297544D01*
X5522254Y1293698D01*
X5515228Y1289222D01*
X5508619Y1284150D01*
X5502478Y1278522D01*
X5496850Y1272380D01*
X5491778Y1265771D01*
X5487302Y1258746D01*
X5483456Y1251356D01*
X5480268Y1243660D01*
X5477763Y1235715D01*
X5475960Y1227582D01*
X5474872Y1219323D01*
X5474509Y1211000D01*
X5474872Y1202678D01*
X5475960Y1194418D01*
X5477763Y1186285D01*
X5480268Y1178340D01*
X5483456Y1170644D01*
X5487302Y1163255D01*
X5491778Y1156229D01*
X5496850Y1149620D01*
X5502478Y1143478D01*
X5508619Y1137850D01*
X5515228Y1132779D01*
X5522254Y1128303D01*
X5529644Y1124456D01*
X5537340Y1121268D01*
X5545285Y1118763D01*
X5553418Y1116960D01*
X5561677Y1115873D01*
X5570000Y1115509D01*
X5630000D01*
X5638323Y1115873D01*
X5646582Y1116960D01*
X5654715Y1118763D01*
X5662660Y1121268D01*
X5670356Y1124456D01*
X5677746Y1128303D01*
X5684771Y1132779D01*
X5691381Y1137850D01*
X5697522Y1143478D01*
X5703150Y1149620D01*
X5708222Y1156229D01*
X5712698Y1163255D01*
X5716544Y1170644D01*
X5719732Y1178340D01*
X5722237Y1186285D01*
X5724040Y1194418D01*
X5725127Y1202678D01*
X5725491Y1211000D01*
X5725127Y1219323D01*
X5724040Y1227582D01*
X5722237Y1235715D01*
X5719732Y1243660D01*
X5716544Y1251356D01*
X5712698Y1258746D01*
X5708222Y1265771D01*
X5703150Y1272380D01*
X5697522Y1278522D01*
X5691381Y1284150D01*
X5684771Y1289222D01*
X5677746Y1293698D01*
X5670356Y1297544D01*
X5662660Y1300732D01*
X5654715Y1303237D01*
X5646582Y1305040D01*
X5638323Y1306127D01*
X5630000Y1306491D01*
D02*
G37*
G36*
X2210400Y1112900D02*
X1979600D01*
Y1095479D01*
X1560004D01*
X1559999Y1095479D01*
X1553581Y1095164D01*
X1547225Y1094221D01*
X1540992Y1092660D01*
X1534942Y1090495D01*
X1529133Y1087748D01*
X1523621Y1084444D01*
X1518460Y1080616D01*
X1513699Y1076301D01*
X1513696Y1076298D01*
X1347799Y910401D01*
X1249600D01*
Y759601D01*
X1440400D01*
Y817799D01*
X1587122Y964521D01*
X1979600D01*
Y947100D01*
X2210400D01*
Y1112900D01*
D02*
G37*
G36*
X1220400Y1005401D02*
X1150400D01*
Y955401D01*
X1220400D01*
Y1005401D01*
D02*
G37*
G36*
X1099600D02*
X1029600D01*
Y955401D01*
X1099600D01*
Y1005401D01*
D02*
G37*
G36*
X279400Y1463491D02*
X271077Y1463128D01*
X262818Y1462041D01*
X254685Y1460237D01*
X246740Y1457732D01*
X239044Y1454544D01*
X231655Y1450698D01*
X224629Y1446222D01*
X218020Y1441151D01*
X211878Y1435522D01*
X206250Y1429381D01*
X201178Y1422772D01*
X196702Y1415746D01*
X192856Y1408356D01*
X189668Y1400660D01*
X187163Y1392715D01*
X185360Y1384582D01*
X184273Y1376323D01*
X183909Y1368000D01*
Y1308000D01*
X184273Y1299677D01*
X185360Y1291418D01*
X187163Y1283285D01*
X189668Y1275340D01*
X192856Y1267644D01*
X196702Y1260255D01*
X201178Y1253229D01*
X206250Y1246620D01*
X211878Y1240478D01*
X213921Y1238606D01*
Y1112900D01*
X167100D01*
Y947100D01*
X397900D01*
Y1112900D01*
X344879D01*
Y1238606D01*
X346922Y1240478D01*
X352550Y1246620D01*
X357622Y1253229D01*
X362098Y1260255D01*
X365944Y1267644D01*
X369132Y1275340D01*
X371637Y1283285D01*
X373440Y1291418D01*
X374527Y1299677D01*
X374891Y1308000D01*
Y1368000D01*
X374527Y1376323D01*
X373440Y1384582D01*
X371637Y1392715D01*
X369132Y1400660D01*
X365944Y1408356D01*
X362098Y1415746D01*
X357622Y1422772D01*
X352550Y1429381D01*
X346922Y1435522D01*
X340780Y1441151D01*
X334171Y1446222D01*
X327145Y1450698D01*
X319756Y1454544D01*
X312060Y1457732D01*
X304115Y1460237D01*
X295982Y1462041D01*
X287723Y1463128D01*
X279400Y1463491D01*
D02*
G37*
G36*
X1220400Y904601D02*
X1150400D01*
Y854601D01*
X1220400D01*
Y904601D01*
D02*
G37*
G36*
X1099600D02*
X1029600D01*
Y854601D01*
X1099600D01*
Y904601D01*
D02*
G37*
G36*
X397900Y822901D02*
X167100D01*
Y657101D01*
X397900D01*
Y674522D01*
X1029600D01*
Y664601D01*
X1220400D01*
Y815401D01*
X1029600D01*
Y805480D01*
X397900D01*
Y822901D01*
D02*
G37*
G36*
X1610100Y485488D02*
X1601038Y485132D01*
X1592033Y484066D01*
X1583139Y482297D01*
X1574412Y479835D01*
X1565904Y476697D01*
X1557669Y472900D01*
X1549757Y468469D01*
X1548435Y467586D01*
X1610100Y405920D01*
X1671765Y467586D01*
X1670442Y468469D01*
X1662531Y472900D01*
X1654295Y476697D01*
X1645788Y479835D01*
X1637060Y482297D01*
X1628166Y484066D01*
X1619161Y485132D01*
X1610100Y485488D01*
D02*
G37*
G36*
X3640512D02*
X3631451Y485132D01*
X3622445Y484066D01*
X3613552Y482297D01*
X3604824Y479835D01*
X3596316Y476697D01*
X3588081Y472900D01*
X3580169Y468469D01*
X3578847Y467586D01*
X3640512Y405920D01*
X3702177Y467586D01*
X3700855Y468469D01*
X3692943Y472900D01*
X3684708Y476697D01*
X3676200Y479835D01*
X3667472Y482297D01*
X3658578Y484066D01*
X3649573Y485132D01*
X3640512Y485488D01*
D02*
G37*
G36*
X3738098Y431665D02*
X3658472Y352039D01*
X3640512Y369999D01*
X3622551Y352039D01*
X3542925Y431664D01*
X3542041Y430342D01*
X3537610Y422430D01*
X3533814Y414194D01*
X3530675Y405687D01*
X3528214Y396959D01*
X3526445Y388065D01*
X3525379Y379060D01*
X3525023Y369999D01*
Y329998D01*
X3525379Y320937D01*
X3526445Y311932D01*
X3528214Y303038D01*
X3530675Y294310D01*
X3533814Y285803D01*
X3537610Y277567D01*
X3542041Y269656D01*
X3542925Y268333D01*
X3622551Y347959D01*
X3640512Y329999D01*
X3658472Y347959D01*
X3738099Y268333D01*
X3738982Y269656D01*
X3743413Y277567D01*
X3747210Y285803D01*
X3750348Y294310D01*
X3752810Y303038D01*
X3754579Y311932D01*
X3755645Y320937D01*
X3756001Y329998D01*
Y369999D01*
X3755645Y379060D01*
X3754579Y388065D01*
X3752810Y396959D01*
X3750348Y405687D01*
X3747210Y414194D01*
X3743413Y422430D01*
X3738982Y430342D01*
X3738098Y431665D01*
D02*
G37*
G36*
X1512513D02*
X1511629Y430342D01*
X1507198Y422430D01*
X1503402Y414194D01*
X1500263Y405687D01*
X1497802Y396959D01*
X1496033Y388065D01*
X1494967Y379060D01*
X1494611Y369999D01*
Y329998D01*
X1494967Y320937D01*
X1496033Y311932D01*
X1497802Y303038D01*
X1500263Y294310D01*
X1503402Y285803D01*
X1507198Y277567D01*
X1511629Y269656D01*
X1512513Y268333D01*
X1592140Y347959D01*
X1610100Y329999D01*
X1628061Y347959D01*
X1707687Y268333D01*
X1708570Y269656D01*
X1713001Y277567D01*
X1716797Y285803D01*
X1719936Y294310D01*
X1722398Y303038D01*
X1724167Y311932D01*
X1725233Y320937D01*
X1725589Y329998D01*
Y369999D01*
X1725233Y379060D01*
X1724167Y388065D01*
X1722398Y396959D01*
X1719936Y405687D01*
X1716797Y414194D01*
X1713001Y422430D01*
X1708570Y430342D01*
X1707686Y431664D01*
X1628061Y352039D01*
X1610100Y369999D01*
X1592140Y352039D01*
X1512513Y431665D01*
D02*
G37*
G36*
X2365912Y485399D02*
X2135112D01*
Y214599D01*
X2365912D01*
Y485399D01*
D02*
G37*
G36*
X1225499D02*
X994700D01*
Y214599D01*
X1225499D01*
Y485399D01*
D02*
G37*
G36*
X3640512Y294078D02*
X3578846Y232412D01*
X3580169Y231528D01*
X3588081Y227097D01*
X3596316Y223301D01*
X3604824Y220162D01*
X3613552Y217700D01*
X3622445Y215931D01*
X3631451Y214865D01*
X3640512Y214509D01*
X3649573Y214865D01*
X3658578Y215931D01*
X3667472Y217700D01*
X3676200Y220162D01*
X3684708Y223301D01*
X3692943Y227097D01*
X3700855Y231528D01*
X3702178Y232412D01*
X3640512Y294078D01*
D02*
G37*
G36*
X3390512Y485488D02*
X3381451Y485132D01*
X3372445Y484066D01*
X3363552Y482297D01*
X3354824Y479835D01*
X3346316Y476697D01*
X3338081Y472900D01*
X3330169Y468469D01*
X3322629Y463431D01*
X3315508Y457817D01*
X3308849Y451662D01*
X3302693Y445003D01*
X3297079Y437882D01*
X3292041Y430342D01*
X3287610Y422430D01*
X3283814Y414194D01*
X3280675Y405687D01*
X3278214Y396959D01*
X3276445Y388065D01*
X3275379Y379060D01*
X3275023Y369999D01*
Y329998D01*
X3275379Y320937D01*
X3276445Y311932D01*
X3278214Y303038D01*
X3280675Y294310D01*
X3283814Y285803D01*
X3287610Y277567D01*
X3292041Y269656D01*
X3297079Y262116D01*
X3302693Y254994D01*
X3308849Y248335D01*
X3315508Y242180D01*
X3322629Y236566D01*
X3330169Y231528D01*
X3338081Y227097D01*
X3346316Y223301D01*
X3354824Y220162D01*
X3363552Y217700D01*
X3372445Y215931D01*
X3381451Y214865D01*
X3390512Y214509D01*
X3399573Y214865D01*
X3408578Y215931D01*
X3417472Y217700D01*
X3426200Y220162D01*
X3434708Y223301D01*
X3442943Y227097D01*
X3450855Y231528D01*
X3458395Y236566D01*
X3465516Y242180D01*
X3472175Y248335D01*
X3478330Y254994D01*
X3483945Y262116D01*
X3488982Y269656D01*
X3493413Y277567D01*
X3497210Y285803D01*
X3500348Y294310D01*
X3502810Y303038D01*
X3504579Y311932D01*
X3505645Y320937D01*
X3506001Y329998D01*
Y369999D01*
X3505645Y379060D01*
X3504579Y388065D01*
X3502810Y396959D01*
X3500348Y405687D01*
X3497210Y414194D01*
X3493413Y422430D01*
X3488982Y430342D01*
X3483945Y437882D01*
X3478330Y445003D01*
X3472175Y451662D01*
X3465516Y457817D01*
X3458395Y463431D01*
X3450855Y468469D01*
X3442943Y472900D01*
X3434708Y476697D01*
X3426200Y479835D01*
X3417472Y482297D01*
X3408578Y484066D01*
X3399573Y485132D01*
X3390512Y485488D01*
D02*
G37*
G36*
X2210400Y822900D02*
X1979600D01*
Y657100D01*
X2210400D01*
Y674521D01*
X2347877D01*
X2439521Y582878D01*
Y468036D01*
X2432629Y463431D01*
X2425508Y457817D01*
X2418849Y451662D01*
X2412693Y445003D01*
X2407079Y437882D01*
X2402041Y430342D01*
X2397610Y422430D01*
X2393814Y414194D01*
X2390675Y405687D01*
X2388214Y396959D01*
X2386445Y388065D01*
X2385379Y379060D01*
X2385023Y369999D01*
Y329998D01*
X2385379Y320937D01*
X2386445Y311932D01*
X2388214Y303038D01*
X2390675Y294310D01*
X2393814Y285803D01*
X2397610Y277567D01*
X2402041Y269656D01*
X2407079Y262116D01*
X2412693Y254994D01*
X2418849Y248335D01*
X2425508Y242180D01*
X2432629Y236566D01*
X2440169Y231528D01*
X2448081Y227097D01*
X2456316Y223301D01*
X2464824Y220162D01*
X2473552Y217700D01*
X2482445Y215931D01*
X2491451Y214865D01*
X2500512Y214509D01*
X2509573Y214865D01*
X2518578Y215931D01*
X2527472Y217700D01*
X2536200Y220162D01*
X2544708Y223301D01*
X2552943Y227097D01*
X2560855Y231528D01*
X2568395Y236566D01*
X2575516Y242180D01*
X2582175Y248335D01*
X2588330Y254994D01*
X2593945Y262116D01*
X2598982Y269656D01*
X2603413Y277567D01*
X2607210Y285803D01*
X2610348Y294310D01*
X2612810Y303038D01*
X2614579Y311932D01*
X2615645Y320937D01*
X2616001Y329998D01*
Y369999D01*
X2615645Y379060D01*
X2614579Y388065D01*
X2612810Y396959D01*
X2610348Y405687D01*
X2607210Y414194D01*
X2603413Y422430D01*
X2598982Y430342D01*
X2593945Y437882D01*
X2588330Y445003D01*
X2582175Y451662D01*
X2575516Y457817D01*
X2570479Y461788D01*
Y610000D01*
X2570164Y616418D01*
X2569221Y622774D01*
X2567660Y629008D01*
X2565495Y635058D01*
X2562747Y640867D01*
X2559444Y646378D01*
X2555616Y651539D01*
X2551301Y656301D01*
X2551298Y656303D01*
X2421300Y786301D01*
X2416539Y790616D01*
X2411378Y794444D01*
X2405866Y797748D01*
X2400058Y800495D01*
X2394007Y802660D01*
X2387774Y804221D01*
X2381418Y805164D01*
X2375000Y805479D01*
X2210400D01*
Y822900D01*
D02*
G37*
G36*
X1610100Y294078D02*
X1548434Y232412D01*
X1549757Y231528D01*
X1557669Y227097D01*
X1565904Y223301D01*
X1574412Y220162D01*
X1583139Y217700D01*
X1592033Y215931D01*
X1601038Y214865D01*
X1610100Y214509D01*
X1619161Y214865D01*
X1628166Y215931D01*
X1637060Y217700D01*
X1645788Y220162D01*
X1654295Y223301D01*
X1662531Y227097D01*
X1670442Y231528D01*
X1671766Y232412D01*
X1610100Y294078D01*
D02*
G37*
G36*
X1360100Y485488D02*
X1351038Y485132D01*
X1342033Y484066D01*
X1333139Y482297D01*
X1324412Y479835D01*
X1315904Y476697D01*
X1307669Y472900D01*
X1299757Y468469D01*
X1292217Y463431D01*
X1285095Y457817D01*
X1278437Y451662D01*
X1272281Y445003D01*
X1266667Y437882D01*
X1261629Y430342D01*
X1257198Y422430D01*
X1253402Y414194D01*
X1250263Y405687D01*
X1247802Y396959D01*
X1246033Y388065D01*
X1244967Y379060D01*
X1244611Y369999D01*
Y329998D01*
X1244967Y320937D01*
X1246033Y311932D01*
X1247802Y303038D01*
X1250263Y294310D01*
X1253402Y285803D01*
X1257198Y277567D01*
X1261629Y269656D01*
X1266667Y262116D01*
X1272281Y254994D01*
X1278437Y248335D01*
X1285095Y242180D01*
X1292217Y236566D01*
X1299757Y231528D01*
X1307669Y227097D01*
X1315904Y223301D01*
X1324412Y220162D01*
X1333139Y217700D01*
X1342033Y215931D01*
X1351038Y214865D01*
X1360100Y214509D01*
X1369161Y214865D01*
X1378166Y215931D01*
X1387060Y217700D01*
X1395788Y220162D01*
X1404295Y223301D01*
X1412531Y227097D01*
X1420442Y231528D01*
X1427982Y236566D01*
X1435104Y242180D01*
X1441763Y248335D01*
X1447918Y254994D01*
X1453532Y262116D01*
X1458570Y269656D01*
X1463001Y277567D01*
X1466797Y285803D01*
X1469936Y294310D01*
X1472398Y303038D01*
X1474167Y311932D01*
X1475233Y320937D01*
X1475589Y329998D01*
Y369999D01*
X1475233Y379060D01*
X1474167Y388065D01*
X1472398Y396959D01*
X1469936Y405687D01*
X1466797Y414194D01*
X1463001Y422430D01*
X1458570Y430342D01*
X1453532Y437882D01*
X1447918Y445003D01*
X1441763Y451662D01*
X1435104Y457817D01*
X1427982Y463431D01*
X1420442Y468469D01*
X1412531Y472900D01*
X1404295Y476697D01*
X1395788Y479835D01*
X1387060Y482297D01*
X1378166Y484066D01*
X1369161Y485132D01*
X1360100Y485488D01*
D02*
G37*
G36*
X9316800Y2870249D02*
X9276800D01*
X9248084Y2866468D01*
X9221325Y2855385D01*
X9198347Y2837753D01*
X9180715Y2814775D01*
X9169631Y2788016D01*
X9165851Y2759300D01*
X9169631Y2730584D01*
X9180715Y2703825D01*
X9198347Y2680847D01*
X9221325Y2663215D01*
X9248084Y2652132D01*
X9276800Y2648351D01*
X9316800D01*
X9345516Y2652132D01*
X9372275Y2663215D01*
X9395253Y2680847D01*
X9412885Y2703825D01*
X9423969Y2730584D01*
X9427749Y2759300D01*
X9423969Y2788016D01*
X9412885Y2814775D01*
X9395253Y2837753D01*
X9372275Y2855385D01*
X9345516Y2866468D01*
X9316800Y2870249D01*
D02*
G37*
G36*
Y2616249D02*
X9276800D01*
X9248084Y2612468D01*
X9221325Y2601385D01*
X9198347Y2583753D01*
X9180715Y2560775D01*
X9169631Y2534016D01*
X9165851Y2505300D01*
X9169631Y2476584D01*
X9180715Y2449825D01*
X9198347Y2426847D01*
X9221325Y2409215D01*
X9248084Y2398132D01*
X9276800Y2394351D01*
X9316800D01*
X9345516Y2398132D01*
X9372275Y2409215D01*
X9395253Y2426847D01*
X9412885Y2449825D01*
X9423969Y2476584D01*
X9427749Y2505300D01*
X9423969Y2534016D01*
X9412885Y2560775D01*
X9395253Y2583753D01*
X9372275Y2601385D01*
X9345516Y2612468D01*
X9316800Y2616249D01*
D02*
G37*
G36*
Y1803449D02*
X9276800D01*
X9248084Y1799668D01*
X9221325Y1788585D01*
X9198347Y1770953D01*
X9180715Y1747975D01*
X9169631Y1721216D01*
X9165851Y1692500D01*
X9169631Y1663784D01*
X9180715Y1637025D01*
X9198347Y1614047D01*
X9221325Y1596415D01*
X9248084Y1585332D01*
X9276800Y1581551D01*
X9316800D01*
X9345516Y1585332D01*
X9372275Y1596415D01*
X9395253Y1614047D01*
X9412885Y1637025D01*
X9423969Y1663784D01*
X9427749Y1692500D01*
X9423969Y1721216D01*
X9412885Y1747975D01*
X9395253Y1770953D01*
X9372275Y1788585D01*
X9345516Y1799668D01*
X9316800Y1803449D01*
D02*
G37*
G36*
Y1549449D02*
X9276800D01*
X9248084Y1545668D01*
X9221325Y1534585D01*
X9198347Y1516953D01*
X9180715Y1493975D01*
X9169631Y1467216D01*
X9165851Y1438500D01*
X9169631Y1409784D01*
X9180715Y1383025D01*
X9198347Y1360047D01*
X9221325Y1342415D01*
X9248084Y1331332D01*
X9276800Y1327551D01*
X9316800D01*
X9345516Y1331332D01*
X9372275Y1342415D01*
X9395253Y1360047D01*
X9412885Y1383025D01*
X9423969Y1409784D01*
X9427749Y1438500D01*
X9423969Y1467216D01*
X9412885Y1493975D01*
X9395253Y1516953D01*
X9372275Y1534585D01*
X9345516Y1545668D01*
X9316800Y1549449D01*
D02*
G37*
G36*
X6810512Y485488D02*
X6801450Y485132D01*
X6792445Y484066D01*
X6783551Y482297D01*
X6774824Y479835D01*
X6766316Y476697D01*
X6758081Y472900D01*
X6750169Y468469D01*
X6748847Y467586D01*
X6810513Y405920D01*
X6872178Y467585D01*
X6870854Y468469D01*
X6862943Y472900D01*
X6854707Y476697D01*
X6846200Y479835D01*
X6837472Y482297D01*
X6828578Y484066D01*
X6819573Y485132D01*
X6810512Y485488D01*
D02*
G37*
%LPD*%
D10*
X6027501Y1269997D02*
X6037501D01*
X6007501Y1289997D02*
X6027501Y1269997D01*
X6007501Y1289997D02*
Y1299997D01*
X5867500Y1439998D02*
X6007501Y1299997D01*
X5867500Y1439998D02*
Y1720000D01*
X6039999Y1892499D01*
Y2349991D01*
X6317497Y1269999D02*
X6317497Y1269999D01*
X6624596D01*
X6624597Y1270000D01*
X6317496Y1554999D02*
X6317497Y1554999D01*
X6037502Y1554999D02*
X6317496D01*
X6037501Y1554998D02*
X6037502Y1554999D01*
X6317497Y1554999D02*
Y1882497D01*
X6317500Y1882500D01*
X6624597Y1270000D02*
X6884989D01*
X6036252Y1268749D02*
X6037501Y1269997D01*
X6038750Y2348742D02*
X6039998Y2349990D01*
X4089498Y1867996D02*
X4089998Y1867496D01*
X3850500Y1867996D02*
X4089498D01*
X3850000Y1868496D02*
X3850500Y1867996D01*
X4089699Y1577197D02*
X4089998Y1577496D01*
X4089699Y1338299D02*
Y1577197D01*
X4089400Y1338000D02*
X4089699Y1338299D01*
X3832700Y2859300D02*
X3835400Y2862000D01*
X3830000Y2550000D02*
X3832700Y2552700D01*
Y2859300D01*
X6260006Y2684987D02*
X6617500D01*
X6259999Y2444991D02*
X6260002Y2444994D01*
Y2684983D01*
X6260006Y2684987D01*
X1934997Y3430000D02*
Y3717497D01*
X2067500Y3850000D02*
X2248512D01*
X1934997Y3717497D02*
X2067500Y3850000D01*
X4372503Y2550000D02*
X4388608Y2566105D01*
X4513604Y2551104D02*
X4600000Y2637499D01*
Y2859400D01*
X4388608Y2551104D02*
X4513604D01*
X4597400Y2862000D02*
X4600000Y2859400D01*
X4322504Y2277500D02*
X4340004Y2260000D01*
X4322504Y2277500D02*
Y2284996D01*
X4200000Y2407500D02*
X4322504Y2284996D01*
X3641000Y2407500D02*
X4200000D01*
X4340004Y2260000D02*
X4372504D01*
X3550000Y2316500D02*
Y2336500D01*
X3560000Y2346500D01*
X3580000D01*
X3641000Y2407500D01*
X3830000Y2550000D02*
X4101252D01*
X4529016Y351495D02*
X4530512Y349999D01*
X4529016Y351495D02*
Y738504D01*
X4527520Y740000D02*
X4529016Y738504D01*
X3217500Y3285000D02*
X5242500D01*
X5420000Y3462500D02*
Y3849489D01*
X5242500Y3285000D02*
X5420000Y3462500D01*
X2311400Y2862000D02*
Y3331400D01*
X2470000Y3490000D02*
X3472500D01*
X2311400Y3331400D02*
X2470000Y3490000D01*
X3640512Y3658012D02*
Y3850000D01*
X3472500Y3490000D02*
X3640512Y3658012D01*
X3073400Y3140900D02*
X3217500Y3285000D01*
X3073400Y2862000D02*
Y3140900D01*
X4278512Y3850000D02*
X4279265Y3849247D01*
Y3430753D02*
Y3849247D01*
Y3430753D02*
X4280018Y3430000D01*
X2565001Y1662499D02*
X2565201Y1662300D01*
Y1338199D02*
Y1662300D01*
Y1338199D02*
X2565400Y1338000D01*
X2853750Y1951250D02*
X2855000Y1950000D01*
X2572250Y1951250D02*
X2853750D01*
X2248512Y3850000D02*
X2248512Y3850000D01*
X1679250Y2260750D02*
X1706751D01*
X1295750D02*
X1679250D01*
X1295000Y2260000D02*
X1295750Y2260750D01*
X1706751D02*
X1707501Y2261500D01*
X1679250Y2260750D02*
X1680000Y2261500D01*
X1295000Y2550000D02*
X1295200Y2550200D01*
Y2861800D01*
X1295400Y2862000D01*
X2500512Y349999D02*
X2505000Y354487D01*
Y610000D01*
X2095000Y740000D02*
X2375000D01*
X2505000Y610000D01*
X1559999Y1030000D02*
X2095000D01*
X1365000Y835001D02*
X1559999Y1030000D01*
X1345000Y835001D02*
X1365000D01*
X282500Y740001D02*
X282500Y740001D01*
X1125000D01*
X279400Y1033100D02*
Y1338000D01*
X4274512Y3854000D02*
X4278512Y3850000D01*
X5420000Y3849489D02*
X5420512Y3850000D01*
X1610100Y3525700D02*
Y3850000D01*
X1549400Y3465000D02*
X1610100Y3525700D01*
X1549400Y2862000D02*
Y3465000D01*
D11*
X5110000Y1342600D02*
Y1730000D01*
X5225000Y1845000D02*
X5767500D01*
X5110000Y1730000D02*
X5225000Y1845000D01*
X5105400Y1338000D02*
X5110000Y1342600D01*
X1927501Y3137504D02*
X1929997Y3140000D01*
X1922500Y2355000D02*
X1924000Y2356500D01*
X1927501Y2360001D01*
X1932502Y2356500D02*
Y3137504D01*
X1934997Y3140000D01*
X1924000Y2356500D02*
X1927501D01*
X2057400Y1852600D02*
X2440400Y1469600D01*
Y1154600D02*
X2720000Y875000D01*
X2440400Y1154600D02*
Y1469600D01*
X2950000Y967500D02*
Y1730000D01*
Y967500D02*
X3070000Y847500D01*
X6319997Y1034997D02*
Y1269999D01*
X3432500Y920000D02*
X6205000D01*
X6319997Y1034997D01*
X3630000Y1635000D02*
Y1773496D01*
X3835000Y2558000D02*
X3835400Y2558400D01*
X3835000Y2558000D02*
X3837000Y2556000D01*
X5885000Y1962500D02*
Y2620000D01*
X5767500Y1845000D02*
X5885000Y1962500D01*
X5770000Y2735000D02*
X5885000Y2620000D01*
X5600000Y2735000D02*
X5770000D01*
X2847502Y349999D02*
X3140512D01*
X2720000Y477500D02*
Y875000D01*
Y477500D02*
X2847502Y349999D01*
X5420512D02*
Y724488D01*
X3070000Y847500D02*
X5297500D01*
X5420512Y724488D01*
X3830000Y1030000D02*
X4527520D01*
X3707500Y1152500D02*
X3830000Y1030000D01*
X3707500Y1152500D02*
Y1557500D01*
X3327400Y1025100D02*
Y1338000D01*
Y1025100D02*
X3432500Y920000D01*
X3630000Y1635000D02*
X3707500Y1557500D01*
X3572500Y3140000D02*
X4280018D01*
X3455000Y2536500D02*
Y3022500D01*
X3572500Y3140000D01*
X2572250Y1951250D02*
X2573500Y1950000D01*
X2570000Y1953500D02*
X2572250Y1951250D01*
X279400Y1033100D02*
X282500Y1030000D01*
X1714750Y2261750D02*
X1715000Y2261500D01*
X1295000Y2262000D02*
X1295250Y2261750D01*
X2057400Y1852600D02*
Y2862000D01*
X4078000Y2556000D02*
X4080000Y2554000D01*
D13*
X3455000Y2120000D02*
X3657500D01*
X3797500Y2260000D01*
X3735000Y685000D02*
X3872500Y547500D01*
X3455000Y685000D02*
X3735000D01*
X3872500Y305000D02*
Y547500D01*
X3997500Y180000D02*
X6995000D01*
X3872500Y305000D02*
X3997500Y180000D01*
X7120000Y305000D02*
Y1287500D01*
X6695000Y1415000D02*
X6992500D01*
X7120000Y1287500D01*
X6995000Y180000D02*
X7120000Y305000D01*
X6625000Y1485000D02*
Y1559597D01*
Y1485000D02*
X6695000Y1415000D01*
X6624597Y1560000D02*
X6625000Y1559597D01*
X6624597Y1560000D02*
Y1917903D01*
X3797500Y2260000D02*
X3830000D01*
X6535900Y2006600D02*
X6624597Y1917903D01*
X6535900Y2006600D02*
Y2254996D01*
X6739100Y2349996D02*
X6739540Y2350436D01*
X6777926D01*
X6972494Y2545004D01*
X7004994D01*
X6739098Y2349993D02*
X6739100Y2349996D01*
X6040001Y2349993D02*
X6739098D01*
X6039998Y2349990D02*
X6039999Y2349991D01*
X6040001Y2349993D01*
X6535904Y2255000D02*
X7004990D01*
X7004994Y2255004D01*
X7690000Y2100000D02*
X7970000D01*
X7004994Y2255004D02*
X7534996D01*
X7690000Y2100000D01*
X6739100Y2159996D02*
X6739540Y2159556D01*
X6860312D01*
X6919868Y2100000D01*
X7300000D01*
X7970000D02*
X8105000Y2235000D01*
X7970000Y2100000D02*
X8210000D01*
X7970000D02*
X8105000Y1965000D01*
D14*
X10450000Y300000D02*
D03*
Y3900000D02*
D03*
X300000D02*
D03*
Y300000D02*
D03*
D15*
X6272500Y4050000D02*
D03*
X6722500Y4050000D02*
D03*
X6272500Y3400000D02*
D03*
X6722500D02*
D03*
D16*
X2248512Y3850000D02*
D03*
X4530512Y349999D02*
D03*
X2500512D02*
D03*
X4278512Y3850000D02*
D03*
X5420512Y349999D02*
D03*
X6560512D02*
D03*
X6810512D02*
D03*
X6310512D02*
D03*
X3390512Y3850000D02*
D03*
X3140512D02*
D03*
X1360100D02*
D03*
X1110100D02*
D03*
X5420512D02*
D03*
X5170512D02*
D03*
X3390512Y349999D02*
D03*
X3640512D02*
D03*
X1360100D02*
D03*
X1610100D02*
D03*
D17*
X9495000Y3800000D02*
D03*
X8995000D02*
D03*
X8240000D02*
D03*
X7740000D02*
D03*
Y400000D02*
D03*
X8240000D02*
D03*
X8995000D02*
D03*
X9495000D02*
D03*
D18*
X10330000Y2460000D02*
D03*
D19*
Y1740000D02*
D03*
D20*
X2250512Y349999D02*
D03*
X6060512D02*
D03*
X4528512Y3850000D02*
D03*
X3640512D02*
D03*
X2498512D02*
D03*
X1610100D02*
D03*
X5670512D02*
D03*
X3140512Y349999D02*
D03*
X4280512D02*
D03*
X1110100D02*
D03*
X5170512D02*
D03*
D21*
X5600000Y2989000D02*
D03*
Y2735000D02*
D03*
Y2481000D02*
D03*
Y2227000D02*
D03*
Y1973000D02*
D03*
Y1719000D02*
D03*
Y1465000D02*
D03*
Y1211000D02*
D03*
X4724400Y1973000D02*
D03*
Y1719000D02*
D03*
Y2227000D02*
D03*
Y2481000D02*
D03*
D22*
X9296800Y2759300D02*
D03*
Y1438500D02*
D03*
Y2505300D02*
D03*
X7442600Y1438500D02*
D03*
Y1692500D02*
D03*
X9296800D02*
D03*
X7442600Y2759300D02*
D03*
Y2505300D02*
D03*
D23*
X787400Y1338000D02*
D03*
X279400D02*
D03*
X533400D02*
D03*
X1295400D02*
D03*
X1041400D02*
D03*
X1803400D02*
D03*
X2057400D02*
D03*
X2819400D02*
D03*
X2311400D02*
D03*
X2565400D02*
D03*
X1549400D02*
D03*
X533400Y2862000D02*
D03*
X279400D02*
D03*
X787400D02*
D03*
X1549400D02*
D03*
X1041400D02*
D03*
X1295400D02*
D03*
X1803400D02*
D03*
X2565400D02*
D03*
X2057400D02*
D03*
X2311400D02*
D03*
X3327400Y1338000D02*
D03*
X3073400D02*
D03*
X4089400D02*
D03*
X3581400D02*
D03*
X3835400D02*
D03*
X4597400D02*
D03*
X4343400D02*
D03*
X4851400D02*
D03*
X3327400Y2862000D02*
D03*
X2819400D02*
D03*
X3073400D02*
D03*
X4089400D02*
D03*
X3581400D02*
D03*
X3835400D02*
D03*
X4343400D02*
D03*
X4597400D02*
D03*
X4851400D02*
D03*
D24*
X5105400Y1338000D02*
D03*
Y2862000D02*
D03*
D25*
X3455000Y2120000D02*
D03*
Y685000D02*
D03*
X6317500Y1882500D02*
D03*
X7300000Y2100000D02*
D03*
D40*
X7004994Y2255004D02*
D03*
Y2545004D02*
D03*
X6617500Y2684987D02*
D03*
Y2974987D02*
D03*
X6260006Y2977487D02*
D03*
Y2687487D02*
D03*
X4280018Y3140000D02*
D03*
Y3430000D02*
D03*
X4527520Y1030000D02*
D03*
Y740000D02*
D03*
X2565001Y1952499D02*
D03*
Y1662499D02*
D03*
X282500Y740001D02*
D03*
Y1030000D02*
D03*
X1295000Y2260000D02*
D03*
Y2550000D02*
D03*
X6624597Y1560000D02*
D03*
Y1270000D02*
D03*
X3830000Y2260000D02*
D03*
Y2550000D02*
D03*
X2095000Y740000D02*
D03*
Y1030000D02*
D03*
X1934997Y3430000D02*
D03*
Y3140000D02*
D03*
X6884989Y1270000D02*
D03*
Y1560000D02*
D03*
X4101252Y2550000D02*
D03*
Y2260000D02*
D03*
X4372503Y2550000D02*
D03*
X4372504Y2260000D02*
D03*
X4089998Y1577496D02*
D03*
X4089998Y1867496D02*
D03*
D41*
X6317497Y1269999D02*
D03*
Y1554999D02*
D03*
X6037501Y1269997D02*
D03*
Y1554998D02*
D03*
D42*
X6739100Y2349996D02*
D03*
Y2159996D02*
D03*
X6535900Y2254996D02*
D03*
D43*
X6039999Y2349991D02*
D03*
X6259999Y2444991D02*
D03*
X1712502Y2261500D02*
D03*
X1932502Y2356500D02*
D03*
X3850000Y1868496D02*
D03*
X3630000Y1773496D02*
D03*
X1125000Y740001D02*
D03*
X1345000Y835001D02*
D03*
X6259999Y2254991D02*
D03*
X1712502Y2451500D02*
D03*
X3850000Y1678496D02*
D03*
X1125000Y930001D02*
D03*
D44*
X2855000Y1950000D02*
D03*
X3550000Y2316500D02*
D03*
X3455000Y2536500D02*
D03*
X2950000Y1730000D02*
D03*
X3045000Y1950000D02*
D03*
X3360000Y2316500D02*
D03*
D45*
X5340000Y3130000D02*
X5437500Y3227500D01*
X6167500D02*
X6260006Y3134994D01*
X5437500Y3227500D02*
X6167500D01*
X3073400Y1643400D02*
X3419049Y1989049D01*
X4511549D01*
X4622500Y2100000D01*
X3073400Y1338000D02*
Y1643400D01*
X4622500Y2100000D02*
X5205000D01*
X5340000Y2235000D01*
X6260006Y2977487D02*
Y3134994D01*
X5340000Y2235000D02*
Y3130000D01*
D46*
X10156795Y2360000D02*
X10230000D01*
X10115112D02*
X10156795D01*
X10330000Y2460000D01*
X9762561Y2132389D02*
X10156795Y2360000D01*
X9762561Y2787611D02*
X10330000Y2460000D01*
X10230000Y2360000D02*
X10330000Y2460000D01*
D47*
X4724400Y2227000D02*
X4737900Y2213500D01*
%TF.MD5,aec2c3e024b329a55f7cf9caab6b3ccd*%
M02*
