%TF.GenerationSoftware,Altium Limited,Altium Designer,23.6.0 (18)*%
G04 Layer_Physical_Order=2*
G04 Layer_Color=32768*
%FSLAX45Y45*%
%MOMM*%
%TF.SameCoordinates,8109348C-C8A1-492E-8D21-29312D9C8BDA*%
%TF.FilePolarity,Negative*%
%TF.FileFunction,Copper,L2,Inr,Plane*%
%TF.Part,Single*%
G01*
G75*
%TA.AperFunction,NonConductor*%
%ADD26C,1.01600*%
%ADD27C,0.50800*%
%TA.AperFunction,ViaPad*%
%ADD28C,5.17500*%
%TA.AperFunction,ComponentPad*%
%ADD29C,2.99000*%
%ADD30C,3.00000*%
%ADD31C,3.30000*%
%ADD32C,6.55000*%
G04:AMPARAMS|DCode=33|XSize=2.524mm|YSize=2.524mm|CornerRadius=0mm|HoleSize=0mm|Usage=FLASHONLY|Rotation=0.000|XOffset=0mm|YOffset=0mm|HoleType=Round|Shape=Relief|Width=0.508mm|Gap=0.254mm|Entries=4|*
%AMTHD33*
7,0,0,2.52400,2.01600,0.50800,45*
%
%ADD33THD33*%
%ADD34C,3.00000*%
%ADD35C,2.80000*%
G04:AMPARAMS|DCode=36|XSize=2.324mm|YSize=2.324mm|CornerRadius=0mm|HoleSize=0mm|Usage=FLASHONLY|Rotation=0.000|XOffset=0mm|YOffset=0mm|HoleType=Round|Shape=Relief|Width=0.508mm|Gap=0.254mm|Entries=4|*
%AMTHD36*
7,0,0,2.32400,1.81600,0.50800,45*
%
%ADD36THD36*%
%TA.AperFunction,ViaPad*%
%ADD37C,2.35000*%
D26*
X10750000Y3900000D02*
G03*
X10450000Y4200000I-300000J0D01*
G01*
X300000D02*
G03*
X0Y3900000I0J-300000D01*
G01*
X10450000Y0D02*
G03*
X10750000Y300000I0J300000D01*
G01*
X0Y300000D02*
G03*
X300000Y0I300000J0D01*
G01*
X0Y300000D02*
Y3900000D01*
X300000Y4200000D02*
X10450000D01*
X10750000Y300000D02*
Y3900000D01*
X300000Y0D02*
X10450000D01*
D27*
X10192500Y2770000D02*
X10750000D01*
X10192500Y2150000D02*
X10750000D01*
X8040000Y4000000D02*
X8617500D01*
X9875000Y200000D02*
Y1967500D01*
X8617500Y3450000D02*
X9295000D01*
X9875000Y1967500D02*
X10192500Y2150000D01*
X9722500Y3040157D02*
Y4000000D01*
X9295000Y3450000D02*
Y4000000D01*
X9295000Y200000D02*
X9875000D01*
X9722500Y3040157D02*
X10192500Y2770000D01*
X8040000Y200000D02*
Y4000000D01*
X8617500Y750000D02*
X9295000D01*
X9295000Y4000000D02*
X9722500D01*
X8040000Y200000D02*
X8617500D01*
Y750000D01*
X8617500Y3450000D02*
Y4000000D01*
X9295000Y200000D02*
Y750000D01*
D28*
X10450000Y300000D02*
D03*
Y3900000D02*
D03*
X300000D02*
D03*
Y300000D02*
D03*
D29*
X6272500Y4050000D02*
D03*
X6722500Y4050000D02*
D03*
X6272500Y3400000D02*
D03*
X6722500D02*
D03*
D30*
X2248512Y3850000D02*
D03*
X4530512Y349999D02*
D03*
X2500512D02*
D03*
X4278512Y3850000D02*
D03*
X5420512Y349999D02*
D03*
X6560512D02*
D03*
X6810512D02*
D03*
X6310512D02*
D03*
X6060512D02*
D03*
X3640512Y3850000D02*
D03*
X3390512D02*
D03*
X3140512D02*
D03*
X1610100D02*
D03*
X1360100D02*
D03*
X1110100D02*
D03*
X5670512D02*
D03*
X5420512D02*
D03*
X3140512Y349999D02*
D03*
X3390512D02*
D03*
X3640512D02*
D03*
X1110100D02*
D03*
X1360100D02*
D03*
X1610100D02*
D03*
X9296800Y2759300D02*
D03*
Y1438500D02*
D03*
Y2505300D02*
D03*
X7442600Y1438500D02*
D03*
Y1692500D02*
D03*
X9296800D02*
D03*
X3581400Y1338000D02*
D03*
X3835400D02*
D03*
X4343400D02*
D03*
D31*
X8995000Y3800000D02*
D03*
X7740000D02*
D03*
Y400000D02*
D03*
X8995000D02*
D03*
D32*
X10330000Y1740000D02*
D03*
D33*
X2250512Y349999D02*
D03*
X4528512Y3850000D02*
D03*
X2498512D02*
D03*
X5170512D02*
D03*
X4280512Y349999D02*
D03*
X5170512D02*
D03*
X7442600Y2759300D02*
D03*
Y2505300D02*
D03*
D34*
X5600000Y2989000D02*
D03*
Y2735000D02*
D03*
Y2481000D02*
D03*
Y2227000D02*
D03*
Y1973000D02*
D03*
Y1719000D02*
D03*
Y1465000D02*
D03*
Y1211000D02*
D03*
D35*
X787400Y1338000D02*
D03*
X279400D02*
D03*
X533400D02*
D03*
X1295400D02*
D03*
X1041400D02*
D03*
X1803400D02*
D03*
X2057400D02*
D03*
X2819400D02*
D03*
X2311400D02*
D03*
X2565400D02*
D03*
X1549400D02*
D03*
X533400Y2862000D02*
D03*
X787400D02*
D03*
X1549400D02*
D03*
X1041400D02*
D03*
X1295400D02*
D03*
X1803400D02*
D03*
X2565400D02*
D03*
X2057400D02*
D03*
X2311400D02*
D03*
X3327400Y1338000D02*
D03*
X3073400D02*
D03*
X4089400D02*
D03*
X4851400D02*
D03*
X5105400D02*
D03*
X4724400Y1973000D02*
D03*
Y1719000D02*
D03*
X3327400Y2862000D02*
D03*
X2819400D02*
D03*
X3073400D02*
D03*
X4089400D02*
D03*
X3581400D02*
D03*
X3835400D02*
D03*
X4724400Y2227000D02*
D03*
Y2481000D02*
D03*
X4343400Y2862000D02*
D03*
X4597400D02*
D03*
X4851400D02*
D03*
X5105400D02*
D03*
D36*
X279400D02*
D03*
X4597400Y1338000D02*
D03*
D37*
X3455000Y2120000D02*
D03*
Y685000D02*
D03*
X6317500Y1882500D02*
D03*
X7300000Y2100000D02*
D03*
%TF.MD5,635537430c1aa8d1ac2805c15ce6329f*%
M02*
