%TF.GenerationSoftware,Altium Limited,Altium Designer,23.6.0 (18)*%
G04 Layer_Color=128*
%FSLAX45Y45*%
%MOMM*%
%TF.SameCoordinates,8109348C-C8A1-492E-8D21-29312D9C8BDA*%
%TF.FilePolarity,Positive*%
%TF.FileFunction,Paste,Bot*%
%TF.Part,Single*%
G01*
G75*
%TA.AperFunction,SMDPad,CuDef*%
%ADD40R,1.80000X1.15000*%
%ADD41R,1.40000X1.20000*%
%ADD42R,1.32080X0.55880*%
%ADD43R,1.40000X1.00000*%
%ADD44R,1.00000X1.40000*%
D40*
X7004994Y2255004D02*
D03*
Y2545004D02*
D03*
X6617500Y2684987D02*
D03*
Y2974987D02*
D03*
X6260006Y2977487D02*
D03*
Y2687487D02*
D03*
X4280018Y3140000D02*
D03*
Y3430000D02*
D03*
X4527520Y1030000D02*
D03*
Y740000D02*
D03*
X2565001Y1952499D02*
D03*
Y1662499D02*
D03*
X282500Y740001D02*
D03*
Y1030000D02*
D03*
X1295000Y2260000D02*
D03*
Y2550000D02*
D03*
X6624597Y1560000D02*
D03*
Y1270000D02*
D03*
X3830000Y2260000D02*
D03*
Y2550000D02*
D03*
X2095000Y740000D02*
D03*
Y1030000D02*
D03*
X1934997Y3430000D02*
D03*
Y3140000D02*
D03*
X6884989Y1270000D02*
D03*
Y1560000D02*
D03*
X4101252Y2550000D02*
D03*
Y2260000D02*
D03*
X4372503Y2550000D02*
D03*
X4372504Y2260000D02*
D03*
X4089998Y1577496D02*
D03*
X4089998Y1867496D02*
D03*
D41*
X6317497Y1269999D02*
D03*
Y1554999D02*
D03*
X6037501Y1269997D02*
D03*
Y1554998D02*
D03*
D42*
X6739100Y2349996D02*
D03*
Y2159996D02*
D03*
X6535900Y2254996D02*
D03*
D43*
X6039999Y2349991D02*
D03*
X6259999Y2444991D02*
D03*
X1712502Y2261500D02*
D03*
X1932502Y2356500D02*
D03*
X3850000Y1868496D02*
D03*
X3630000Y1773496D02*
D03*
X1125000Y740001D02*
D03*
X1345000Y835001D02*
D03*
X6259999Y2254991D02*
D03*
X1712502Y2451500D02*
D03*
X3850000Y1678496D02*
D03*
X1125000Y930001D02*
D03*
D44*
X2855000Y1950000D02*
D03*
X3550000Y2316500D02*
D03*
X3455000Y2536500D02*
D03*
X2950000Y1730000D02*
D03*
X3045000Y1950000D02*
D03*
X3360000Y2316500D02*
D03*
%TF.MD5,0e2bae6acb9989a7bf326961bf956337*%
M02*
