%TF.GenerationSoftware,Altium Limited,Altium Designer,23.6.0 (18)*%
G04 Layer_Color=255*
%FSLAX45Y45*%
%MOMM*%
%TF.SameCoordinates,8109348C-C8A1-492E-8D21-29312D9C8BDA*%
%TF.FilePolarity,Positive*%
%TF.FileFunction,Pads,Top*%
%TF.Part,Single*%
G01*
G75*
%TA.AperFunction,ViaPad*%
%ADD14C,5.50000*%
%TA.AperFunction,ComponentPad*%
%ADD15O,1.80000X2.20000*%
%ADD16O,1.80000X2.20000*%
%ADD17C,4.00000*%
%ADD18R,7.00000X6.20000*%
%ADD19O,7.00000X6.20000*%
%ADD20R,1.80000X2.20000*%
%ADD21O,2.00000X1.40000*%
%ADD22O,2.00000X1.60000*%
%ADD23O,1.40000X2.00000*%
%ADD24R,1.40000X2.00000*%
D14*
X10450000Y300000D02*
D03*
Y3900000D02*
D03*
X300000D02*
D03*
Y300000D02*
D03*
D15*
X6272500Y4050000D02*
D03*
X6722500Y4050000D02*
D03*
X6272500Y3400000D02*
D03*
X6722500D02*
D03*
D16*
X2248512Y3850000D02*
D03*
X4530512Y349999D02*
D03*
X2500512D02*
D03*
X4278512Y3850000D02*
D03*
X5420512Y349999D02*
D03*
X6560512D02*
D03*
X6810512D02*
D03*
X6310512D02*
D03*
X3390512Y3850000D02*
D03*
X3140512D02*
D03*
X1360100D02*
D03*
X1110100D02*
D03*
X5420512D02*
D03*
X5170512D02*
D03*
X3390512Y349999D02*
D03*
X3640512D02*
D03*
X1360100D02*
D03*
X1610100D02*
D03*
D17*
X9495000Y3800000D02*
D03*
X8995000D02*
D03*
X8240000D02*
D03*
X7740000D02*
D03*
Y400000D02*
D03*
X8240000D02*
D03*
X8995000D02*
D03*
X9495000D02*
D03*
D18*
X10330000Y2460000D02*
D03*
D19*
Y1740000D02*
D03*
D20*
X2250512Y349999D02*
D03*
X6060512D02*
D03*
X4528512Y3850000D02*
D03*
X3640512D02*
D03*
X2498512D02*
D03*
X1610100D02*
D03*
X5670512D02*
D03*
X3140512Y349999D02*
D03*
X4280512D02*
D03*
X1110100D02*
D03*
X5170512D02*
D03*
D21*
X5600000Y2989000D02*
D03*
Y2735000D02*
D03*
Y2481000D02*
D03*
Y2227000D02*
D03*
Y1973000D02*
D03*
Y1719000D02*
D03*
Y1465000D02*
D03*
Y1211000D02*
D03*
X4724400Y1973000D02*
D03*
Y1719000D02*
D03*
Y2227000D02*
D03*
Y2481000D02*
D03*
D22*
X9296800Y2759300D02*
D03*
Y1438500D02*
D03*
Y2505300D02*
D03*
X7442600Y1438500D02*
D03*
Y1692500D02*
D03*
X9296800D02*
D03*
X7442600Y2759300D02*
D03*
Y2505300D02*
D03*
D23*
X787400Y1338000D02*
D03*
X279400D02*
D03*
X533400D02*
D03*
X1295400D02*
D03*
X1041400D02*
D03*
X1803400D02*
D03*
X2057400D02*
D03*
X2819400D02*
D03*
X2311400D02*
D03*
X2565400D02*
D03*
X1549400D02*
D03*
X533400Y2862000D02*
D03*
X279400D02*
D03*
X787400D02*
D03*
X1549400D02*
D03*
X1041400D02*
D03*
X1295400D02*
D03*
X1803400D02*
D03*
X2565400D02*
D03*
X2057400D02*
D03*
X2311400D02*
D03*
X3327400Y1338000D02*
D03*
X3073400D02*
D03*
X4089400D02*
D03*
X3581400D02*
D03*
X3835400D02*
D03*
X4597400D02*
D03*
X4343400D02*
D03*
X4851400D02*
D03*
X3327400Y2862000D02*
D03*
X2819400D02*
D03*
X3073400D02*
D03*
X4089400D02*
D03*
X3581400D02*
D03*
X3835400D02*
D03*
X4343400D02*
D03*
X4597400D02*
D03*
X4851400D02*
D03*
D24*
X5105400Y1338000D02*
D03*
Y2862000D02*
D03*
%TF.MD5,d731f81068cdb01abdfe8501da2d5e97*%
M02*
