%TF.GenerationSoftware,Altium Limited,Altium Designer,23.6.0 (18)*%
G04 Layer_Physical_Order=1*
G04 Layer_Color=255*
%FSLAX45Y45*%
%MOMM*%
%TF.SameCoordinates,8109348C-C8A1-492E-8D21-29312D9C8BDA*%
%TF.FilePolarity,Positive*%
%TF.FileFunction,Copper,L1,Top,Signal*%
%TF.Part,Single*%
G01*
G75*
%TA.AperFunction,Conductor*%
%ADD10C,0.80000*%
%ADD11C,0.50000*%
%ADD12C,0.30000*%
%ADD13C,0.55000*%
%TA.AperFunction,ViaPad*%
%ADD14C,5.50000*%
%TA.AperFunction,ComponentPad*%
%ADD15O,1.80000X2.20000*%
%ADD16O,1.80000X2.20000*%
%ADD17C,4.00000*%
%ADD18R,7.00000X6.20000*%
%ADD19O,7.00000X6.20000*%
%ADD20R,1.80000X2.20000*%
%ADD21O,2.00000X1.40000*%
%ADD22O,2.00000X1.60000*%
%ADD23O,1.40000X2.00000*%
%ADD24R,1.40000X2.00000*%
%TA.AperFunction,ViaPad*%
%ADD25C,0.70000*%
G36*
X10226013Y4149118D02*
X10218592Y4142354D01*
X10207646Y4131408D01*
X10197218Y4119968D01*
X10187329Y4108059D01*
X10178000Y4095706D01*
X10169252Y4082935D01*
X10161103Y4069774D01*
X10153570Y4056251D01*
X10146670Y4042394D01*
X10140418Y4028233D01*
X10134826Y4013799D01*
X10129907Y3999122D01*
X10125670Y3984233D01*
X10122126Y3969164D01*
X10119282Y3953948D01*
X10117143Y3938617D01*
X10115715Y3923203D01*
X10115000Y3907740D01*
Y3892260D01*
X10115715Y3876797D01*
X10117143Y3861383D01*
X10119282Y3846052D01*
X10122126Y3830836D01*
X10125670Y3815767D01*
X10129907Y3800879D01*
X10134826Y3786201D01*
X10140418Y3771767D01*
X10146670Y3757606D01*
X10153570Y3743749D01*
X10161103Y3730226D01*
X10169252Y3717065D01*
X10178000Y3704294D01*
X10187329Y3691941D01*
X10197218Y3680032D01*
X10207646Y3668592D01*
X10218592Y3657646D01*
X10230032Y3647218D01*
X10241941Y3637329D01*
X10254294Y3628000D01*
X10267065Y3619252D01*
X10280226Y3611103D01*
X10293749Y3603570D01*
X10307606Y3596670D01*
X10321767Y3590418D01*
X10336201Y3584826D01*
X10350878Y3579907D01*
X10365767Y3575671D01*
X10380836Y3572126D01*
X10396052Y3569282D01*
X10411383Y3567143D01*
X10426797Y3565715D01*
X10442260Y3565000D01*
X10457740D01*
X10473203Y3565715D01*
X10488617Y3567143D01*
X10503948Y3569282D01*
X10519164Y3572126D01*
X10534233Y3575671D01*
X10549121Y3579907D01*
X10563799Y3584826D01*
X10578233Y3590418D01*
X10592394Y3596670D01*
X10606251Y3603570D01*
X10619774Y3611103D01*
X10632935Y3619252D01*
X10645706Y3628000D01*
X10658059Y3637329D01*
X10669968Y3647218D01*
X10681408Y3657646D01*
X10692354Y3668592D01*
X10699118Y3676013D01*
X10711818Y3671093D01*
Y2811947D01*
X10710000Y2800000D01*
X10699118Y2800000D01*
X9950000D01*
Y2120000D01*
X10699118D01*
X10710000Y2120000D01*
X10711818Y2108053D01*
Y528907D01*
X10699118Y523987D01*
X10692354Y531408D01*
X10681408Y542354D01*
X10669968Y552782D01*
X10658059Y562671D01*
X10645706Y572000D01*
X10632935Y580748D01*
X10619774Y588897D01*
X10606251Y596430D01*
X10592394Y603330D01*
X10578233Y609582D01*
X10563799Y615174D01*
X10549121Y620093D01*
X10534233Y624329D01*
X10519164Y627874D01*
X10503948Y630718D01*
X10488617Y632856D01*
X10473203Y634285D01*
X10457740Y635000D01*
X10442260D01*
X10426797Y634285D01*
X10411383Y632856D01*
X10396052Y630718D01*
X10380836Y627874D01*
X10365767Y624329D01*
X10350878Y620093D01*
X10336201Y615174D01*
X10321767Y609582D01*
X10307606Y603330D01*
X10293749Y596430D01*
X10280226Y588897D01*
X10267065Y580748D01*
X10254294Y572000D01*
X10241941Y562671D01*
X10230032Y552782D01*
X10218592Y542354D01*
X10207646Y531408D01*
X10197218Y519968D01*
X10187329Y508059D01*
X10178000Y495706D01*
X10169252Y482935D01*
X10161103Y469774D01*
X10153570Y456251D01*
X10146670Y442394D01*
X10140418Y428233D01*
X10134826Y413799D01*
X10129907Y399121D01*
X10125670Y384233D01*
X10122126Y369164D01*
X10119282Y353948D01*
X10117143Y338617D01*
X10115715Y323203D01*
X10115000Y307740D01*
Y292260D01*
X10115715Y276797D01*
X10117143Y261383D01*
X10119282Y246052D01*
X10122126Y230836D01*
X10125670Y215767D01*
X10129907Y200878D01*
X10134826Y186201D01*
X10140418Y171767D01*
X10146670Y157606D01*
X10153570Y143749D01*
X10161103Y130226D01*
X10169252Y117065D01*
X10178000Y104294D01*
X10187329Y91941D01*
X10197218Y80032D01*
X10207646Y68592D01*
X10218592Y57646D01*
X10226013Y50882D01*
X10221093Y38182D01*
X528907D01*
X523987Y50882D01*
X531408Y57647D01*
X542354Y68592D01*
X552782Y80032D01*
X562671Y91941D01*
X572000Y104294D01*
X580748Y117065D01*
X588897Y130226D01*
X596430Y143750D01*
X603330Y157606D01*
X609582Y171767D01*
X615174Y186202D01*
X620093Y200879D01*
X624329Y215767D01*
X627874Y230836D01*
X630718Y246052D01*
X632856Y261384D01*
X634285Y276797D01*
X635000Y292260D01*
Y307740D01*
X634285Y323203D01*
X632856Y338617D01*
X630718Y353948D01*
X627874Y369164D01*
X624329Y384233D01*
X620093Y399122D01*
X615174Y413799D01*
X609582Y428233D01*
X603330Y442394D01*
X596430Y456251D01*
X588897Y469774D01*
X580748Y482936D01*
X572000Y495706D01*
X562671Y508059D01*
X552782Y519968D01*
X542354Y531408D01*
X531408Y542354D01*
X519968Y552782D01*
X508059Y562671D01*
X495706Y572000D01*
X482935Y580748D01*
X469774Y588897D01*
X456251Y596430D01*
X442394Y603330D01*
X428233Y609582D01*
X413799Y615174D01*
X399121Y620094D01*
X384233Y624330D01*
X369164Y627874D01*
X353948Y630718D01*
X338617Y632857D01*
X323203Y634285D01*
X307740Y635000D01*
X292260D01*
X276797Y634285D01*
X261383Y632857D01*
X246052Y630718D01*
X230836Y627874D01*
X215767Y624330D01*
X200878Y620094D01*
X186201Y615174D01*
X171767Y609582D01*
X157606Y603330D01*
X143749Y596430D01*
X130226Y588897D01*
X117065Y580748D01*
X104294Y572000D01*
X91941Y562671D01*
X80032Y552782D01*
X68592Y542354D01*
X57646Y531408D01*
X50882Y523988D01*
X38182Y528908D01*
Y3671093D01*
X50882Y3676013D01*
X57646Y3668592D01*
X68592Y3657646D01*
X80032Y3647218D01*
X91941Y3637329D01*
X104294Y3628000D01*
X117065Y3619252D01*
X130226Y3611103D01*
X143749Y3603570D01*
X157606Y3596670D01*
X171767Y3590418D01*
X186201Y3584826D01*
X200878Y3579907D01*
X215767Y3575671D01*
X230836Y3572126D01*
X246052Y3569282D01*
X261383Y3567143D01*
X276797Y3565715D01*
X292260Y3565000D01*
X307740D01*
X323203Y3565715D01*
X338617Y3567143D01*
X353948Y3569282D01*
X369164Y3572126D01*
X384233Y3575671D01*
X399121Y3579907D01*
X413799Y3584826D01*
X428233Y3590418D01*
X442394Y3596670D01*
X456251Y3603570D01*
X469774Y3611103D01*
X482935Y3619252D01*
X495706Y3628000D01*
X508059Y3637329D01*
X519968Y3647218D01*
X531408Y3657646D01*
X542354Y3668592D01*
X552782Y3680032D01*
X562671Y3691941D01*
X572000Y3704294D01*
X580748Y3717065D01*
X588897Y3730226D01*
X596430Y3743749D01*
X603330Y3757606D01*
X609582Y3771767D01*
X615174Y3786201D01*
X620093Y3800879D01*
X624329Y3815767D01*
X627874Y3830836D01*
X630718Y3846052D01*
X632856Y3861383D01*
X634285Y3876797D01*
X635000Y3892260D01*
Y3907740D01*
X634285Y3923203D01*
X632856Y3938617D01*
X630718Y3953948D01*
X627874Y3969164D01*
X624329Y3984233D01*
X620093Y3999122D01*
X615174Y4013799D01*
X609582Y4028233D01*
X603330Y4042394D01*
X596430Y4056251D01*
X588897Y4069774D01*
X580748Y4082935D01*
X572000Y4095706D01*
X562671Y4108059D01*
X552782Y4119968D01*
X542354Y4131408D01*
X531408Y4142354D01*
X523987Y4149118D01*
X528907Y4161818D01*
X6183113D01*
X6185884Y4158175D01*
X6188484Y4149118D01*
X6184682Y4145005D01*
X6179067Y4137883D01*
X6174030Y4130343D01*
X6169599Y4122431D01*
X6165802Y4114196D01*
X6162664Y4105689D01*
X6161060Y4100001D01*
X6272500D01*
X6383940D01*
X6382336Y4105689D01*
X6379198Y4114196D01*
X6375402Y4122431D01*
X6370970Y4130343D01*
X6365933Y4137883D01*
X6360318Y4145005D01*
X6356516Y4149118D01*
X6359116Y4158175D01*
X6361887Y4161818D01*
X6633113D01*
X6635885Y4158174D01*
X6638484Y4149118D01*
X6634681Y4145004D01*
X6629067Y4137883D01*
X6624029Y4130343D01*
X6619598Y4122431D01*
X6615802Y4114196D01*
X6612663Y4105688D01*
X6611059Y4099999D01*
X6722500D01*
X6833941D01*
X6832336Y4105688D01*
X6829198Y4114196D01*
X6825401Y4122431D01*
X6820970Y4130343D01*
X6815933Y4137883D01*
X6810318Y4145004D01*
X6806516Y4149118D01*
X6809115Y4158174D01*
X6811887Y4161818D01*
X10221093D01*
X10226013Y4149118D01*
D02*
G37*
%LPC*%
G36*
X6222500Y4000001D02*
X6161059D01*
X6162664Y3994312D01*
X6165802Y3985804D01*
X6169599Y3977569D01*
X6174030Y3969657D01*
X6179067Y3962117D01*
X6184682Y3954996D01*
X6190837Y3948337D01*
X6197496Y3942182D01*
X6204617Y3936567D01*
X6212157Y3931530D01*
X6220069Y3927099D01*
X6222500Y3925978D01*
Y4000001D01*
D02*
G37*
G36*
X6383941D02*
X6322500D01*
Y3925978D01*
X6324931Y3927099D01*
X6332843Y3931530D01*
X6340383Y3936567D01*
X6347504Y3942182D01*
X6354163Y3948337D01*
X6360318Y3954996D01*
X6365933Y3962117D01*
X6370970Y3969657D01*
X6375402Y3977569D01*
X6379198Y3985804D01*
X6382336Y3994312D01*
X6383941Y4000001D01*
D02*
G37*
G36*
X6672500Y3999999D02*
X6611059D01*
X6612663Y3994312D01*
X6615802Y3985804D01*
X6619598Y3977569D01*
X6624029Y3969657D01*
X6629067Y3962117D01*
X6634681Y3954996D01*
X6640837Y3948337D01*
X6647496Y3942181D01*
X6654617Y3936567D01*
X6662157Y3931529D01*
X6670069Y3927098D01*
X6672500Y3925978D01*
Y3999999D01*
D02*
G37*
G36*
X6833940D02*
X6772500D01*
Y3925977D01*
X6774931Y3927098D01*
X6782843Y3931529D01*
X6790383Y3936567D01*
X6797504Y3942181D01*
X6804163Y3948337D01*
X6810318Y3954996D01*
X6815933Y3962117D01*
X6820970Y3969657D01*
X6825401Y3977569D01*
X6829198Y3985804D01*
X6832336Y3994312D01*
X6833940Y3999999D01*
D02*
G37*
G36*
X3140512Y3985489D02*
X3131451Y3985133D01*
X3122445Y3984067D01*
X3113552Y3982298D01*
X3104824Y3979837D01*
X3096316Y3976698D01*
X3088081Y3972902D01*
X3080169Y3968471D01*
X3078847Y3967587D01*
X3140512Y3905922D01*
X3202177Y3967587D01*
X3200855Y3968471D01*
X3192943Y3972902D01*
X3184708Y3976698D01*
X3176200Y3979837D01*
X3167472Y3982298D01*
X3158578Y3984067D01*
X3149573Y3985133D01*
X3140512Y3985489D01*
D02*
G37*
G36*
X1110100D02*
X1101038Y3985133D01*
X1092033Y3984067D01*
X1083139Y3982298D01*
X1074412Y3979837D01*
X1065904Y3976698D01*
X1057669Y3972902D01*
X1049757Y3968471D01*
X1048434Y3967587D01*
X1110100Y3905922D01*
X1171765Y3967587D01*
X1170442Y3968471D01*
X1162531Y3972902D01*
X1154295Y3976698D01*
X1145788Y3979837D01*
X1137060Y3982298D01*
X1128166Y3984067D01*
X1119161Y3985133D01*
X1110100Y3985489D01*
D02*
G37*
G36*
X5749990Y3985400D02*
X5591033D01*
X5670512Y3905922D01*
X5749990Y3985400D01*
D02*
G37*
G36*
X3042925Y3931666D02*
X3042041Y3930343D01*
X3037610Y3922431D01*
X3033814Y3914196D01*
X3030675Y3905688D01*
X3028214Y3896961D01*
X3026445Y3888067D01*
X3025379Y3879062D01*
X3025023Y3870000D01*
Y3830000D01*
X3025379Y3820939D01*
X3026445Y3811933D01*
X3028214Y3803040D01*
X3030675Y3794312D01*
X3033814Y3785804D01*
X3037610Y3777569D01*
X3042041Y3769657D01*
X3042925Y3768334D01*
X3122551Y3847961D01*
X3140512Y3830000D01*
X3158472Y3847961D01*
X3238099Y3768335D01*
X3238982Y3769657D01*
X3243413Y3777569D01*
X3247210Y3785804D01*
X3250348Y3794312D01*
X3252810Y3803040D01*
X3254579Y3811933D01*
X3255645Y3820939D01*
X3256001Y3830000D01*
Y3870000D01*
X3255645Y3879062D01*
X3254579Y3888067D01*
X3252810Y3896961D01*
X3250348Y3905688D01*
X3247210Y3914196D01*
X3243413Y3922431D01*
X3238982Y3930343D01*
X3238099Y3931666D01*
X3158472Y3852040D01*
X3140512Y3870000D01*
X3122551Y3852040D01*
X3042925Y3931666D01*
D02*
G37*
G36*
X1012513D02*
X1011629Y3930343D01*
X1007198Y3922431D01*
X1003402Y3914196D01*
X1000263Y3905688D01*
X997802Y3896961D01*
X996033Y3888067D01*
X994967Y3879062D01*
X994611Y3870000D01*
Y3830000D01*
X994967Y3820939D01*
X996033Y3811933D01*
X997802Y3803040D01*
X1000263Y3794312D01*
X1003402Y3785804D01*
X1007198Y3777569D01*
X1011629Y3769657D01*
X1012513Y3768334D01*
X1092139Y3847961D01*
X1110100Y3830000D01*
X1128060Y3847961D01*
X1207686Y3768335D01*
X1208570Y3769657D01*
X1213001Y3777569D01*
X1216797Y3785804D01*
X1219936Y3794312D01*
X1222398Y3803040D01*
X1224167Y3811933D01*
X1225233Y3820939D01*
X1225589Y3830000D01*
Y3870000D01*
X1225233Y3879062D01*
X1224167Y3888067D01*
X1222398Y3896961D01*
X1219936Y3905688D01*
X1216797Y3914196D01*
X1213001Y3922431D01*
X1208570Y3930343D01*
X1207686Y3931666D01*
X1128060Y3852040D01*
X1110100Y3870000D01*
X1092139Y3852040D01*
X1012513Y3931666D01*
D02*
G37*
G36*
X5555112Y3949479D02*
Y3750521D01*
X5652551Y3847961D01*
X5670512Y3830000D01*
X5688472Y3847961D01*
X5785911Y3750522D01*
Y3949479D01*
X5688472Y3852040D01*
X5670512Y3870000D01*
X5652551Y3852040D01*
X5555112Y3949479D01*
D02*
G37*
G36*
X5670512Y3794079D02*
X5591033Y3714600D01*
X5749991D01*
X5670512Y3794079D01*
D02*
G37*
G36*
X4643912Y3985400D02*
X4413112D01*
Y3714600D01*
X4643912D01*
Y3985400D01*
D02*
G37*
G36*
X3755912D02*
X3525112D01*
Y3714600D01*
X3755912D01*
Y3985400D01*
D02*
G37*
G36*
X2613912D02*
X2383112D01*
Y3714600D01*
X2613912D01*
Y3985400D01*
D02*
G37*
G36*
X1725499D02*
X1494700D01*
Y3714600D01*
X1725499D01*
Y3985400D01*
D02*
G37*
G36*
X5420512Y3985489D02*
X5411450Y3985133D01*
X5402445Y3984067D01*
X5393551Y3982298D01*
X5384824Y3979837D01*
X5376316Y3976698D01*
X5368081Y3972902D01*
X5360169Y3968471D01*
X5352629Y3963433D01*
X5345507Y3957819D01*
X5338849Y3951663D01*
X5332693Y3945005D01*
X5327079Y3937883D01*
X5322041Y3930343D01*
X5317610Y3922431D01*
X5313814Y3914196D01*
X5310675Y3905688D01*
X5308214Y3896961D01*
X5306445Y3888067D01*
X5305379Y3879062D01*
X5305023Y3870000D01*
Y3830000D01*
X5305379Y3820939D01*
X5306445Y3811933D01*
X5308214Y3803040D01*
X5310675Y3794312D01*
X5313814Y3785804D01*
X5317610Y3777569D01*
X5322041Y3769657D01*
X5327079Y3762117D01*
X5332693Y3754996D01*
X5338849Y3748337D01*
X5345507Y3742181D01*
X5352629Y3736567D01*
X5360169Y3731529D01*
X5368081Y3727098D01*
X5376316Y3723302D01*
X5384824Y3720164D01*
X5393551Y3717702D01*
X5402445Y3715933D01*
X5411450Y3714867D01*
X5420512Y3714511D01*
X5429573Y3714867D01*
X5438578Y3715933D01*
X5447472Y3717702D01*
X5456200Y3720164D01*
X5464707Y3723302D01*
X5472943Y3727098D01*
X5480854Y3731529D01*
X5488394Y3736567D01*
X5495516Y3742181D01*
X5502175Y3748337D01*
X5508330Y3754996D01*
X5513944Y3762117D01*
X5518982Y3769657D01*
X5523413Y3777569D01*
X5527209Y3785804D01*
X5530348Y3794312D01*
X5532810Y3803040D01*
X5534579Y3811933D01*
X5535645Y3820939D01*
X5536001Y3830000D01*
Y3870000D01*
X5535645Y3879062D01*
X5534579Y3888067D01*
X5532810Y3896961D01*
X5530348Y3905688D01*
X5527209Y3914196D01*
X5523413Y3922431D01*
X5518982Y3930343D01*
X5513944Y3937883D01*
X5508330Y3945005D01*
X5502175Y3951663D01*
X5495516Y3957819D01*
X5488394Y3963433D01*
X5480854Y3968471D01*
X5472943Y3972902D01*
X5464707Y3976698D01*
X5456200Y3979837D01*
X5447472Y3982298D01*
X5438578Y3984067D01*
X5429573Y3985133D01*
X5420512Y3985489D01*
D02*
G37*
G36*
X5170512D02*
X5161450Y3985133D01*
X5152445Y3984067D01*
X5143551Y3982298D01*
X5134824Y3979837D01*
X5126316Y3976698D01*
X5118081Y3972902D01*
X5110169Y3968471D01*
X5102629Y3963433D01*
X5095507Y3957819D01*
X5088849Y3951663D01*
X5082693Y3945005D01*
X5077079Y3937883D01*
X5072041Y3930343D01*
X5067610Y3922431D01*
X5063814Y3914196D01*
X5060675Y3905688D01*
X5058214Y3896961D01*
X5056445Y3888067D01*
X5055379Y3879062D01*
X5055023Y3870000D01*
Y3830000D01*
X5055379Y3820939D01*
X5056445Y3811933D01*
X5058214Y3803040D01*
X5060675Y3794312D01*
X5063814Y3785804D01*
X5067610Y3777569D01*
X5072041Y3769657D01*
X5077079Y3762117D01*
X5082693Y3754996D01*
X5088849Y3748337D01*
X5095507Y3742181D01*
X5102629Y3736567D01*
X5110169Y3731529D01*
X5118081Y3727098D01*
X5126316Y3723302D01*
X5134824Y3720164D01*
X5143551Y3717702D01*
X5152445Y3715933D01*
X5161450Y3714867D01*
X5170512Y3714511D01*
X5179573Y3714867D01*
X5188578Y3715933D01*
X5197472Y3717702D01*
X5206200Y3720164D01*
X5214707Y3723302D01*
X5222943Y3727098D01*
X5230854Y3731529D01*
X5238394Y3736567D01*
X5245516Y3742181D01*
X5252175Y3748337D01*
X5258330Y3754996D01*
X5263944Y3762117D01*
X5268982Y3769657D01*
X5273413Y3777569D01*
X5277209Y3785804D01*
X5280348Y3794312D01*
X5282810Y3803040D01*
X5284579Y3811933D01*
X5285644Y3820939D01*
X5286001Y3830000D01*
Y3870000D01*
X5285644Y3879062D01*
X5284579Y3888067D01*
X5282810Y3896961D01*
X5280348Y3905688D01*
X5277209Y3914196D01*
X5273413Y3922431D01*
X5268982Y3930343D01*
X5263944Y3937883D01*
X5258330Y3945005D01*
X5252175Y3951663D01*
X5245516Y3957819D01*
X5238394Y3963433D01*
X5230854Y3968471D01*
X5222943Y3972902D01*
X5214707Y3976698D01*
X5206200Y3979837D01*
X5197472Y3982298D01*
X5188578Y3984067D01*
X5179573Y3985133D01*
X5170512Y3985489D01*
D02*
G37*
G36*
X4278512D02*
X4269451Y3985133D01*
X4260445Y3984067D01*
X4251552Y3982298D01*
X4242824Y3979837D01*
X4234316Y3976698D01*
X4226081Y3972902D01*
X4218169Y3968471D01*
X4210629Y3963433D01*
X4203508Y3957819D01*
X4196849Y3951663D01*
X4190693Y3945005D01*
X4185079Y3937883D01*
X4180041Y3930343D01*
X4175610Y3922431D01*
X4171814Y3914196D01*
X4168675Y3905688D01*
X4166214Y3896961D01*
X4164445Y3888067D01*
X4163379Y3879062D01*
X4163023Y3870000D01*
Y3830000D01*
X4163379Y3820939D01*
X4164445Y3811933D01*
X4166214Y3803040D01*
X4168675Y3794312D01*
X4171814Y3785804D01*
X4175610Y3777569D01*
X4180041Y3769657D01*
X4185079Y3762117D01*
X4190693Y3754996D01*
X4196849Y3748337D01*
X4203508Y3742181D01*
X4210629Y3736567D01*
X4218169Y3731529D01*
X4226081Y3727098D01*
X4234316Y3723302D01*
X4242824Y3720164D01*
X4251552Y3717702D01*
X4260445Y3715933D01*
X4269451Y3714867D01*
X4278512Y3714511D01*
X4287573Y3714867D01*
X4296578Y3715933D01*
X4305472Y3717702D01*
X4314200Y3720164D01*
X4322708Y3723302D01*
X4330943Y3727098D01*
X4338855Y3731529D01*
X4346395Y3736567D01*
X4353516Y3742181D01*
X4360175Y3748337D01*
X4366330Y3754996D01*
X4371945Y3762117D01*
X4376982Y3769657D01*
X4381413Y3777569D01*
X4385210Y3785804D01*
X4388348Y3794312D01*
X4390810Y3803040D01*
X4392579Y3811933D01*
X4393645Y3820939D01*
X4394001Y3830000D01*
Y3870000D01*
X4393645Y3879062D01*
X4392579Y3888067D01*
X4390810Y3896961D01*
X4388348Y3905688D01*
X4385210Y3914196D01*
X4381413Y3922431D01*
X4376982Y3930343D01*
X4371945Y3937883D01*
X4366330Y3945005D01*
X4360175Y3951663D01*
X4353516Y3957819D01*
X4346395Y3963433D01*
X4338855Y3968471D01*
X4330943Y3972902D01*
X4322708Y3976698D01*
X4314200Y3979837D01*
X4305472Y3982298D01*
X4296578Y3984067D01*
X4287573Y3985133D01*
X4278512Y3985489D01*
D02*
G37*
G36*
X3390512D02*
X3381451Y3985133D01*
X3372445Y3984067D01*
X3363552Y3982298D01*
X3354824Y3979837D01*
X3346316Y3976698D01*
X3338081Y3972902D01*
X3330169Y3968471D01*
X3322629Y3963433D01*
X3315508Y3957819D01*
X3308849Y3951663D01*
X3302693Y3945005D01*
X3297079Y3937883D01*
X3292041Y3930343D01*
X3287610Y3922431D01*
X3283814Y3914196D01*
X3280675Y3905688D01*
X3278214Y3896961D01*
X3276445Y3888067D01*
X3275379Y3879062D01*
X3275023Y3870000D01*
Y3830000D01*
X3275379Y3820939D01*
X3276445Y3811933D01*
X3278214Y3803040D01*
X3280675Y3794312D01*
X3283814Y3785804D01*
X3287610Y3777569D01*
X3292041Y3769657D01*
X3297079Y3762117D01*
X3302693Y3754996D01*
X3308849Y3748337D01*
X3315508Y3742181D01*
X3322629Y3736567D01*
X3330169Y3731529D01*
X3338081Y3727098D01*
X3346316Y3723302D01*
X3354824Y3720164D01*
X3363552Y3717702D01*
X3372445Y3715933D01*
X3381451Y3714867D01*
X3390512Y3714511D01*
X3399573Y3714867D01*
X3408578Y3715933D01*
X3417472Y3717702D01*
X3426200Y3720164D01*
X3434708Y3723302D01*
X3442943Y3727098D01*
X3450855Y3731529D01*
X3458395Y3736567D01*
X3465516Y3742181D01*
X3472175Y3748337D01*
X3478330Y3754996D01*
X3483945Y3762117D01*
X3488982Y3769657D01*
X3493413Y3777569D01*
X3497210Y3785804D01*
X3500348Y3794312D01*
X3502810Y3803040D01*
X3504579Y3811933D01*
X3505645Y3820939D01*
X3506001Y3830000D01*
Y3870000D01*
X3505645Y3879062D01*
X3504579Y3888067D01*
X3502810Y3896961D01*
X3500348Y3905688D01*
X3497210Y3914196D01*
X3493413Y3922431D01*
X3488982Y3930343D01*
X3483945Y3937883D01*
X3478330Y3945005D01*
X3472175Y3951663D01*
X3465516Y3957819D01*
X3458395Y3963433D01*
X3450855Y3968471D01*
X3442943Y3972902D01*
X3434708Y3976698D01*
X3426200Y3979837D01*
X3417472Y3982298D01*
X3408578Y3984067D01*
X3399573Y3985133D01*
X3390512Y3985489D01*
D02*
G37*
G36*
X3140512Y3794079D02*
X3078846Y3732413D01*
X3080169Y3731529D01*
X3088081Y3727098D01*
X3096316Y3723302D01*
X3104824Y3720164D01*
X3113552Y3717702D01*
X3122445Y3715933D01*
X3131451Y3714867D01*
X3140512Y3714511D01*
X3149573Y3714867D01*
X3158578Y3715933D01*
X3167472Y3717702D01*
X3176200Y3720164D01*
X3184708Y3723302D01*
X3192943Y3727098D01*
X3200855Y3731529D01*
X3202177Y3732413D01*
X3140512Y3794079D01*
D02*
G37*
G36*
X2248512Y3985489D02*
X2239451Y3985133D01*
X2230445Y3984067D01*
X2221552Y3982298D01*
X2212824Y3979837D01*
X2204316Y3976698D01*
X2196081Y3972902D01*
X2188169Y3968471D01*
X2180629Y3963433D01*
X2173508Y3957819D01*
X2166849Y3951663D01*
X2160693Y3945005D01*
X2155079Y3937883D01*
X2150041Y3930343D01*
X2145610Y3922431D01*
X2141814Y3914196D01*
X2138675Y3905688D01*
X2136214Y3896961D01*
X2134445Y3888067D01*
X2133379Y3879062D01*
X2133023Y3870000D01*
Y3830000D01*
X2133379Y3820939D01*
X2134445Y3811933D01*
X2136214Y3803040D01*
X2138675Y3794312D01*
X2141814Y3785804D01*
X2145610Y3777569D01*
X2150041Y3769657D01*
X2155079Y3762117D01*
X2160693Y3754996D01*
X2166849Y3748337D01*
X2173508Y3742181D01*
X2180629Y3736567D01*
X2188169Y3731529D01*
X2196081Y3727098D01*
X2204316Y3723302D01*
X2212824Y3720164D01*
X2221552Y3717702D01*
X2230445Y3715933D01*
X2239451Y3714867D01*
X2248512Y3714511D01*
X2257573Y3714867D01*
X2266578Y3715933D01*
X2275472Y3717702D01*
X2284200Y3720164D01*
X2292708Y3723302D01*
X2300943Y3727098D01*
X2308855Y3731529D01*
X2316395Y3736567D01*
X2323516Y3742181D01*
X2330175Y3748337D01*
X2336330Y3754996D01*
X2341945Y3762117D01*
X2346982Y3769657D01*
X2351413Y3777569D01*
X2355210Y3785804D01*
X2358348Y3794312D01*
X2360810Y3803040D01*
X2362579Y3811933D01*
X2363645Y3820939D01*
X2364001Y3830000D01*
Y3870000D01*
X2363645Y3879062D01*
X2362579Y3888067D01*
X2360810Y3896961D01*
X2358348Y3905688D01*
X2355210Y3914196D01*
X2351413Y3922431D01*
X2346982Y3930343D01*
X2341945Y3937883D01*
X2336330Y3945005D01*
X2330175Y3951663D01*
X2323516Y3957819D01*
X2316395Y3963433D01*
X2308855Y3968471D01*
X2300943Y3972902D01*
X2292708Y3976698D01*
X2284200Y3979837D01*
X2275472Y3982298D01*
X2266578Y3984067D01*
X2257573Y3985133D01*
X2248512Y3985489D01*
D02*
G37*
G36*
X1360100D02*
X1351038Y3985133D01*
X1342033Y3984067D01*
X1333139Y3982298D01*
X1324412Y3979837D01*
X1315904Y3976698D01*
X1307669Y3972902D01*
X1299757Y3968471D01*
X1292217Y3963433D01*
X1285095Y3957819D01*
X1278437Y3951663D01*
X1272281Y3945005D01*
X1266667Y3937883D01*
X1261629Y3930343D01*
X1257198Y3922431D01*
X1253402Y3914196D01*
X1250263Y3905688D01*
X1247802Y3896961D01*
X1246033Y3888067D01*
X1244967Y3879062D01*
X1244611Y3870000D01*
Y3830000D01*
X1244967Y3820939D01*
X1246033Y3811933D01*
X1247802Y3803040D01*
X1250263Y3794312D01*
X1253402Y3785804D01*
X1257198Y3777569D01*
X1261629Y3769657D01*
X1266667Y3762117D01*
X1272281Y3754996D01*
X1278437Y3748337D01*
X1285095Y3742181D01*
X1292217Y3736567D01*
X1299757Y3731529D01*
X1307669Y3727098D01*
X1315904Y3723302D01*
X1324412Y3720164D01*
X1333139Y3717702D01*
X1342033Y3715933D01*
X1351038Y3714867D01*
X1360100Y3714511D01*
X1369161Y3714867D01*
X1378166Y3715933D01*
X1387060Y3717702D01*
X1395788Y3720164D01*
X1404295Y3723302D01*
X1412531Y3727098D01*
X1420442Y3731529D01*
X1427982Y3736567D01*
X1435104Y3742181D01*
X1441763Y3748337D01*
X1447918Y3754996D01*
X1453532Y3762117D01*
X1458570Y3769657D01*
X1463001Y3777569D01*
X1466797Y3785804D01*
X1469936Y3794312D01*
X1472398Y3803040D01*
X1474167Y3811933D01*
X1475233Y3820939D01*
X1475589Y3830000D01*
Y3870000D01*
X1475233Y3879062D01*
X1474167Y3888067D01*
X1472398Y3896961D01*
X1469936Y3905688D01*
X1466797Y3914196D01*
X1463001Y3922431D01*
X1458570Y3930343D01*
X1453532Y3937883D01*
X1447918Y3945005D01*
X1441763Y3951663D01*
X1435104Y3957819D01*
X1427982Y3963433D01*
X1420442Y3968471D01*
X1412531Y3972902D01*
X1404295Y3976698D01*
X1395788Y3979837D01*
X1387060Y3982298D01*
X1378166Y3984067D01*
X1369161Y3985133D01*
X1360100Y3985489D01*
D02*
G37*
G36*
X1110100Y3794079D02*
X1048434Y3732413D01*
X1049757Y3731529D01*
X1057669Y3727098D01*
X1065904Y3723302D01*
X1074412Y3720164D01*
X1083139Y3717702D01*
X1092033Y3715933D01*
X1101038Y3714867D01*
X1110100Y3714511D01*
X1119161Y3714867D01*
X1128166Y3715933D01*
X1137060Y3717702D01*
X1145788Y3720164D01*
X1154295Y3723302D01*
X1162531Y3727098D01*
X1170442Y3731529D01*
X1171765Y3732413D01*
X1110100Y3794079D01*
D02*
G37*
G36*
X9501453Y4030000D02*
X9488546D01*
X9475660Y4029276D01*
X9462835Y4027831D01*
X9450111Y4025669D01*
X9437528Y4022797D01*
X9425126Y4019224D01*
X9412944Y4014961D01*
X9401021Y4010022D01*
X9389392Y4004423D01*
X9378096Y3998180D01*
X9367168Y3991313D01*
X9356642Y3983844D01*
X9346552Y3975797D01*
X9336928Y3967198D01*
X9327802Y3958071D01*
X9319202Y3948448D01*
X9311155Y3938357D01*
X9303686Y3927831D01*
X9296820Y3916903D01*
X9290577Y3905607D01*
X9284977Y3893979D01*
X9280038Y3882055D01*
X9275775Y3869873D01*
X9272202Y3857471D01*
X9269330Y3844888D01*
X9267169Y3832164D01*
X9265723Y3819339D01*
X9265000Y3806453D01*
Y3793547D01*
X9265723Y3780661D01*
X9267169Y3767836D01*
X9269330Y3755112D01*
X9272202Y3742529D01*
X9275775Y3730127D01*
X9280038Y3717945D01*
X9284977Y3706021D01*
X9290577Y3694393D01*
X9296820Y3683097D01*
X9303686Y3672169D01*
X9311155Y3661643D01*
X9319202Y3651552D01*
X9327802Y3641929D01*
X9336928Y3632802D01*
X9346552Y3624203D01*
X9356642Y3616156D01*
X9367168Y3608687D01*
X9378096Y3601820D01*
X9389392Y3595577D01*
X9401021Y3589978D01*
X9412944Y3585039D01*
X9425126Y3580776D01*
X9437528Y3577203D01*
X9450111Y3574331D01*
X9462835Y3572169D01*
X9475660Y3570724D01*
X9488546Y3570000D01*
X9501453D01*
X9514339Y3570724D01*
X9527164Y3572169D01*
X9539888Y3574331D01*
X9552471Y3577203D01*
X9564873Y3580776D01*
X9577055Y3585039D01*
X9588979Y3589978D01*
X9600607Y3595577D01*
X9611903Y3601820D01*
X9622831Y3608687D01*
X9633357Y3616156D01*
X9643447Y3624203D01*
X9653071Y3632802D01*
X9662197Y3641929D01*
X9670797Y3651552D01*
X9678844Y3661643D01*
X9686313Y3672169D01*
X9693179Y3683097D01*
X9699422Y3694393D01*
X9705022Y3706021D01*
X9709961Y3717945D01*
X9714224Y3730127D01*
X9717797Y3742529D01*
X9720669Y3755112D01*
X9722830Y3767836D01*
X9724276Y3780661D01*
X9724999Y3793547D01*
Y3806453D01*
X9724276Y3819339D01*
X9722830Y3832164D01*
X9720669Y3844888D01*
X9717797Y3857471D01*
X9714224Y3869873D01*
X9709961Y3882055D01*
X9705022Y3893979D01*
X9699422Y3905607D01*
X9693179Y3916903D01*
X9686313Y3927831D01*
X9678844Y3938357D01*
X9670797Y3948448D01*
X9662197Y3958071D01*
X9653071Y3967198D01*
X9643447Y3975797D01*
X9633357Y3983844D01*
X9622831Y3991313D01*
X9611903Y3998180D01*
X9600607Y4004423D01*
X9588979Y4010022D01*
X9577055Y4014961D01*
X9564873Y4019224D01*
X9552471Y4022797D01*
X9539888Y4025669D01*
X9527164Y4027831D01*
X9514339Y4029276D01*
X9501453Y4030000D01*
D02*
G37*
G36*
X8246453D02*
X8233546D01*
X8220660Y4029276D01*
X8207835Y4027831D01*
X8195111Y4025669D01*
X8182528Y4022797D01*
X8170126Y4019224D01*
X8157944Y4014961D01*
X8146021Y4010022D01*
X8134392Y4004423D01*
X8123096Y3998180D01*
X8112168Y3991313D01*
X8101642Y3983844D01*
X8091552Y3975797D01*
X8081928Y3967198D01*
X8072802Y3958071D01*
X8064202Y3948448D01*
X8056155Y3938357D01*
X8048686Y3927831D01*
X8041820Y3916903D01*
X8035577Y3905607D01*
X8029977Y3893979D01*
X8025038Y3882055D01*
X8020775Y3869873D01*
X8017202Y3857471D01*
X8014330Y3844888D01*
X8012169Y3832164D01*
X8010723Y3819339D01*
X8010000Y3806453D01*
Y3793547D01*
X8010723Y3780661D01*
X8012169Y3767836D01*
X8014330Y3755112D01*
X8017202Y3742529D01*
X8020775Y3730127D01*
X8025038Y3717945D01*
X8029977Y3706021D01*
X8035577Y3694393D01*
X8041820Y3683097D01*
X8048686Y3672169D01*
X8056155Y3661643D01*
X8064202Y3651552D01*
X8072802Y3641929D01*
X8081928Y3632802D01*
X8091552Y3624203D01*
X8101642Y3616156D01*
X8112168Y3608687D01*
X8123096Y3601820D01*
X8134392Y3595577D01*
X8146021Y3589978D01*
X8157944Y3585039D01*
X8170126Y3580776D01*
X8182528Y3577203D01*
X8195111Y3574331D01*
X8207835Y3572169D01*
X8220660Y3570724D01*
X8233546Y3570000D01*
X8246453D01*
X8259339Y3570724D01*
X8272164Y3572169D01*
X8284888Y3574331D01*
X8297471Y3577203D01*
X8309873Y3580776D01*
X8322055Y3585039D01*
X8333979Y3589978D01*
X8345607Y3595577D01*
X8356903Y3601820D01*
X8367831Y3608687D01*
X8378357Y3616156D01*
X8388447Y3624203D01*
X8398071Y3632802D01*
X8407197Y3641929D01*
X8415797Y3651552D01*
X8423844Y3661643D01*
X8431313Y3672169D01*
X8438179Y3683097D01*
X8444422Y3694393D01*
X8450022Y3706021D01*
X8454961Y3717945D01*
X8459224Y3730127D01*
X8462797Y3742529D01*
X8465669Y3755112D01*
X8467830Y3767836D01*
X8469276Y3780661D01*
X8469999Y3793547D01*
Y3806453D01*
X8469276Y3819339D01*
X8467830Y3832164D01*
X8465669Y3844888D01*
X8462797Y3857471D01*
X8459224Y3869873D01*
X8454961Y3882055D01*
X8450022Y3893979D01*
X8444422Y3905607D01*
X8438179Y3916903D01*
X8431313Y3927831D01*
X8423844Y3938357D01*
X8415797Y3948448D01*
X8407197Y3958071D01*
X8398071Y3967198D01*
X8388447Y3975797D01*
X8378357Y3983844D01*
X8367831Y3991313D01*
X8356903Y3998180D01*
X8345607Y4004423D01*
X8333979Y4010022D01*
X8322055Y4014961D01*
X8309873Y4019224D01*
X8297471Y4022797D01*
X8284888Y4025669D01*
X8272164Y4027831D01*
X8259339Y4029276D01*
X8246453Y4030000D01*
D02*
G37*
G36*
X6722500Y3535489D02*
X6713439Y3535133D01*
X6704433Y3534067D01*
X6695540Y3532298D01*
X6686812Y3529837D01*
X6678304Y3526698D01*
X6670069Y3522902D01*
X6662157Y3518471D01*
X6654617Y3513433D01*
X6647496Y3507819D01*
X6640837Y3501663D01*
X6634681Y3495004D01*
X6629067Y3487883D01*
X6624029Y3480343D01*
X6619598Y3472431D01*
X6616393Y3465479D01*
X6378606D01*
X6375401Y3472431D01*
X6370970Y3480343D01*
X6365932Y3487883D01*
X6360318Y3495004D01*
X6354163Y3501663D01*
X6347504Y3507819D01*
X6340382Y3513433D01*
X6332842Y3518471D01*
X6324930Y3522902D01*
X6316695Y3526698D01*
X6308188Y3529837D01*
X6299460Y3532298D01*
X6290566Y3534067D01*
X6281561Y3535133D01*
X6272500Y3535489D01*
X6263438Y3535133D01*
X6254433Y3534067D01*
X6245539Y3532298D01*
X6236812Y3529837D01*
X6228304Y3526698D01*
X6220069Y3522902D01*
X6212157Y3518471D01*
X6204617Y3513433D01*
X6197495Y3507819D01*
X6190836Y3501663D01*
X6184681Y3495004D01*
X6179067Y3487883D01*
X6174029Y3480343D01*
X6169598Y3472431D01*
X6165802Y3464196D01*
X6162663Y3455688D01*
X6160202Y3446961D01*
X6158432Y3438067D01*
X6157367Y3429061D01*
X6157011Y3420000D01*
Y3380000D01*
X6157367Y3370939D01*
X6158432Y3361933D01*
X6160202Y3353040D01*
X6162663Y3344312D01*
X6165802Y3335804D01*
X6169598Y3327569D01*
X6174029Y3319657D01*
X6179067Y3312117D01*
X6184681Y3304996D01*
X6190836Y3298337D01*
X6197495Y3292181D01*
X6204617Y3286567D01*
X6207021Y3284961D01*
Y1927500D01*
X6207336Y1921082D01*
X6208279Y1914726D01*
X6209840Y1908493D01*
X6212005Y1902442D01*
X6214752Y1896634D01*
X6218056Y1891122D01*
X6221884Y1885961D01*
X6226199Y1881200D01*
X6271199Y1836199D01*
X6275961Y1831884D01*
X6281122Y1828056D01*
X6286633Y1824753D01*
X6292442Y1822005D01*
X6298493Y1819841D01*
X6304726Y1818279D01*
X6311082Y1817336D01*
X6317500Y1817021D01*
X6323918Y1817336D01*
X6330274Y1818279D01*
X6336507Y1819841D01*
X6342558Y1822005D01*
X6348367Y1824753D01*
X6353878Y1828056D01*
X6359039Y1831884D01*
X6363801Y1836199D01*
X6368116Y1840961D01*
X6371944Y1846122D01*
X6375247Y1851633D01*
X6377995Y1857442D01*
X6380159Y1863493D01*
X6381721Y1869726D01*
X6382664Y1876082D01*
X6382979Y1882500D01*
X6382664Y1888918D01*
X6381721Y1895274D01*
X6380159Y1901507D01*
X6377995Y1907558D01*
X6375247Y1913367D01*
X6371944Y1918878D01*
X6368116Y1924039D01*
X6363801Y1928801D01*
X6337978Y1954623D01*
Y3284961D01*
X6340382Y3286567D01*
X6347504Y3292181D01*
X6354163Y3298337D01*
X6360318Y3304996D01*
X6365932Y3312117D01*
X6370970Y3319657D01*
X6375401Y3327569D01*
X6378606Y3334521D01*
X6616393D01*
X6619598Y3327569D01*
X6624029Y3319657D01*
X6629067Y3312117D01*
X6634681Y3304996D01*
X6640837Y3298337D01*
X6647496Y3292181D01*
X6654617Y3286567D01*
X6662157Y3281529D01*
X6670069Y3277098D01*
X6678304Y3273302D01*
X6686812Y3270163D01*
X6695540Y3267702D01*
X6704433Y3265933D01*
X6713439Y3264867D01*
X6722500Y3264511D01*
X6731561Y3264867D01*
X6740566Y3265933D01*
X6749460Y3267702D01*
X6758188Y3270163D01*
X6766696Y3273302D01*
X6774931Y3277098D01*
X6782843Y3281529D01*
X6790383Y3286567D01*
X6797504Y3292181D01*
X6804163Y3298337D01*
X6810318Y3304996D01*
X6815933Y3312117D01*
X6820970Y3319657D01*
X6825401Y3327569D01*
X6829198Y3335804D01*
X6832336Y3344312D01*
X6834798Y3353040D01*
X6836567Y3361933D01*
X6837633Y3370939D01*
X6837989Y3380000D01*
Y3420000D01*
X6837633Y3429061D01*
X6836567Y3438067D01*
X6834798Y3446961D01*
X6832336Y3455688D01*
X6829198Y3464196D01*
X6825401Y3472431D01*
X6820970Y3480343D01*
X6815933Y3487883D01*
X6810318Y3495004D01*
X6804163Y3501663D01*
X6797504Y3507819D01*
X6790383Y3513433D01*
X6782843Y3518471D01*
X6774931Y3522902D01*
X6766696Y3526698D01*
X6758188Y3529837D01*
X6749460Y3532298D01*
X6740566Y3534067D01*
X6731561Y3535133D01*
X6722500Y3535489D01*
D02*
G37*
G36*
X533400Y2987491D02*
X525077Y2987128D01*
X516818Y2986041D01*
X508685Y2984237D01*
X500740Y2981732D01*
X493044Y2978544D01*
X486292Y2975030D01*
X533400Y2927921D01*
X580509Y2975029D01*
X573756Y2978544D01*
X566060Y2981732D01*
X558115Y2984237D01*
X549982Y2986041D01*
X541723Y2987128D01*
X533400Y2987491D01*
D02*
G37*
G36*
X5630000Y3084491D02*
X5570000D01*
X5561677Y3084127D01*
X5553418Y3083040D01*
X5545285Y3081237D01*
X5537340Y3078732D01*
X5529644Y3075544D01*
X5522254Y3071698D01*
X5515228Y3067222D01*
X5508619Y3062150D01*
X5502478Y3056522D01*
X5496850Y3050380D01*
X5491778Y3043771D01*
X5487302Y3036746D01*
X5483456Y3029356D01*
X5480268Y3021660D01*
X5477763Y3013715D01*
X5475960Y3005582D01*
X5474872Y2997323D01*
X5474509Y2989000D01*
X5474872Y2980678D01*
X5475960Y2972418D01*
X5477763Y2964285D01*
X5480268Y2956340D01*
X5483456Y2948644D01*
X5487302Y2941255D01*
X5491778Y2934229D01*
X5496850Y2927620D01*
X5502478Y2921478D01*
X5508619Y2915850D01*
X5515228Y2910779D01*
X5522254Y2906303D01*
X5529644Y2902456D01*
X5537340Y2899268D01*
X5545285Y2896763D01*
X5553418Y2894960D01*
X5561677Y2893873D01*
X5570000Y2893509D01*
X5630000D01*
X5638323Y2893873D01*
X5646582Y2894960D01*
X5654715Y2896763D01*
X5662660Y2899268D01*
X5670356Y2902456D01*
X5677746Y2906303D01*
X5684771Y2910779D01*
X5691381Y2915850D01*
X5697522Y2921478D01*
X5703150Y2927620D01*
X5708222Y2934229D01*
X5712698Y2941255D01*
X5716544Y2948644D01*
X5719732Y2956340D01*
X5722237Y2964285D01*
X5724040Y2972418D01*
X5725127Y2980678D01*
X5725491Y2989000D01*
X5725127Y2997323D01*
X5724040Y3005582D01*
X5722237Y3013715D01*
X5719732Y3021660D01*
X5716544Y3029356D01*
X5712698Y3036746D01*
X5708222Y3043771D01*
X5703150Y3050380D01*
X5697522Y3056522D01*
X5691381Y3062150D01*
X5684771Y3067222D01*
X5677746Y3071698D01*
X5670356Y3075544D01*
X5662660Y3078732D01*
X5654715Y3081237D01*
X5646582Y3083040D01*
X5638323Y3084127D01*
X5630000Y3084491D01*
D02*
G37*
G36*
X450371Y2939108D02*
X446856Y2932356D01*
X443668Y2924660D01*
X441163Y2916715D01*
X439360Y2908582D01*
X438273Y2900323D01*
X437909Y2892000D01*
Y2832000D01*
X438273Y2823677D01*
X439360Y2815418D01*
X441163Y2807285D01*
X443668Y2799340D01*
X446856Y2791644D01*
X450371Y2784891D01*
X515440Y2849960D01*
X533400Y2832000D01*
X551361Y2849960D01*
X616429Y2784892D01*
X619944Y2791644D01*
X623132Y2799340D01*
X625637Y2807285D01*
X627440Y2815418D01*
X628527Y2823677D01*
X628891Y2832000D01*
Y2892000D01*
X628527Y2900323D01*
X627440Y2908582D01*
X625637Y2916715D01*
X623132Y2924660D01*
X619944Y2932356D01*
X616430Y2939108D01*
X551361Y2874039D01*
X533400Y2892000D01*
X515440Y2874039D01*
X450371Y2939108D01*
D02*
G37*
G36*
X5200800Y2987400D02*
X5010000D01*
Y2736600D01*
X5200800D01*
Y2987400D01*
D02*
G37*
G36*
X4851400Y2987491D02*
X4843077Y2987128D01*
X4834818Y2986041D01*
X4826685Y2984237D01*
X4818740Y2981732D01*
X4811044Y2978544D01*
X4803655Y2974698D01*
X4796629Y2970222D01*
X4790020Y2965151D01*
X4783878Y2959522D01*
X4778250Y2953381D01*
X4773178Y2946772D01*
X4768702Y2939746D01*
X4764856Y2932356D01*
X4761668Y2924660D01*
X4759163Y2916715D01*
X4757360Y2908582D01*
X4756273Y2900323D01*
X4755909Y2892000D01*
Y2832000D01*
X4756273Y2823677D01*
X4757360Y2815418D01*
X4759163Y2807285D01*
X4761668Y2799340D01*
X4764856Y2791644D01*
X4768702Y2784255D01*
X4773178Y2777229D01*
X4778250Y2770620D01*
X4783878Y2764478D01*
X4790020Y2758850D01*
X4796629Y2753778D01*
X4803655Y2749302D01*
X4811044Y2745456D01*
X4818740Y2742268D01*
X4826685Y2739763D01*
X4834818Y2737960D01*
X4843077Y2736873D01*
X4851400Y2736509D01*
X4859723Y2736873D01*
X4867982Y2737960D01*
X4876115Y2739763D01*
X4884060Y2742268D01*
X4891756Y2745456D01*
X4899145Y2749302D01*
X4906171Y2753778D01*
X4912780Y2758850D01*
X4918922Y2764478D01*
X4924550Y2770620D01*
X4929622Y2777229D01*
X4934098Y2784255D01*
X4937944Y2791644D01*
X4941132Y2799340D01*
X4943637Y2807285D01*
X4945440Y2815418D01*
X4946527Y2823677D01*
X4946891Y2832000D01*
Y2892000D01*
X4946527Y2900323D01*
X4945440Y2908582D01*
X4943637Y2916715D01*
X4941132Y2924660D01*
X4937944Y2932356D01*
X4934098Y2939746D01*
X4929622Y2946772D01*
X4924550Y2953381D01*
X4918922Y2959522D01*
X4912780Y2965151D01*
X4906171Y2970222D01*
X4899145Y2974698D01*
X4891756Y2978544D01*
X4884060Y2981732D01*
X4876115Y2984237D01*
X4867982Y2986041D01*
X4859723Y2987128D01*
X4851400Y2987491D01*
D02*
G37*
G36*
X4597400D02*
X4589077Y2987128D01*
X4580818Y2986041D01*
X4572685Y2984237D01*
X4564740Y2981732D01*
X4557044Y2978544D01*
X4549655Y2974698D01*
X4542629Y2970222D01*
X4536020Y2965151D01*
X4529878Y2959522D01*
X4524250Y2953381D01*
X4519178Y2946772D01*
X4514702Y2939746D01*
X4510856Y2932356D01*
X4507668Y2924660D01*
X4505163Y2916715D01*
X4503360Y2908582D01*
X4502273Y2900323D01*
X4501909Y2892000D01*
Y2832000D01*
X4502273Y2823677D01*
X4503360Y2815418D01*
X4505163Y2807285D01*
X4507668Y2799340D01*
X4510856Y2791644D01*
X4514702Y2784255D01*
X4519178Y2777229D01*
X4524250Y2770620D01*
X4529878Y2764478D01*
X4536020Y2758850D01*
X4542629Y2753778D01*
X4549655Y2749302D01*
X4557044Y2745456D01*
X4564740Y2742268D01*
X4572685Y2739763D01*
X4580818Y2737960D01*
X4589077Y2736873D01*
X4597400Y2736509D01*
X4605723Y2736873D01*
X4613982Y2737960D01*
X4622115Y2739763D01*
X4630060Y2742268D01*
X4637756Y2745456D01*
X4645145Y2749302D01*
X4652171Y2753778D01*
X4658780Y2758850D01*
X4664922Y2764478D01*
X4670550Y2770620D01*
X4675622Y2777229D01*
X4680098Y2784255D01*
X4683944Y2791644D01*
X4687132Y2799340D01*
X4689637Y2807285D01*
X4691440Y2815418D01*
X4692527Y2823677D01*
X4692891Y2832000D01*
Y2892000D01*
X4692527Y2900323D01*
X4691440Y2908582D01*
X4689637Y2916715D01*
X4687132Y2924660D01*
X4683944Y2932356D01*
X4680098Y2939746D01*
X4675622Y2946772D01*
X4670550Y2953381D01*
X4664922Y2959522D01*
X4658780Y2965151D01*
X4652171Y2970222D01*
X4645145Y2974698D01*
X4637756Y2978544D01*
X4630060Y2981732D01*
X4622115Y2984237D01*
X4613982Y2986041D01*
X4605723Y2987128D01*
X4597400Y2987491D01*
D02*
G37*
G36*
X4343400D02*
X4335077Y2987128D01*
X4326818Y2986041D01*
X4318685Y2984237D01*
X4310740Y2981732D01*
X4303044Y2978544D01*
X4295655Y2974698D01*
X4288629Y2970222D01*
X4282020Y2965151D01*
X4275878Y2959522D01*
X4270250Y2953381D01*
X4265178Y2946772D01*
X4260702Y2939746D01*
X4256856Y2932356D01*
X4253668Y2924660D01*
X4251163Y2916715D01*
X4249360Y2908582D01*
X4248273Y2900323D01*
X4247909Y2892000D01*
Y2832000D01*
X4248273Y2823677D01*
X4249360Y2815418D01*
X4251163Y2807285D01*
X4253668Y2799340D01*
X4256856Y2791644D01*
X4260702Y2784255D01*
X4265178Y2777229D01*
X4270250Y2770620D01*
X4275878Y2764478D01*
X4282020Y2758850D01*
X4288629Y2753778D01*
X4295655Y2749302D01*
X4303044Y2745456D01*
X4310740Y2742268D01*
X4318685Y2739763D01*
X4326818Y2737960D01*
X4335077Y2736873D01*
X4343400Y2736509D01*
X4351723Y2736873D01*
X4359982Y2737960D01*
X4368115Y2739763D01*
X4376060Y2742268D01*
X4383756Y2745456D01*
X4391145Y2749302D01*
X4398171Y2753778D01*
X4404780Y2758850D01*
X4410922Y2764478D01*
X4416550Y2770620D01*
X4421622Y2777229D01*
X4426098Y2784255D01*
X4429944Y2791644D01*
X4433132Y2799340D01*
X4435637Y2807285D01*
X4437440Y2815418D01*
X4438527Y2823677D01*
X4438891Y2832000D01*
Y2892000D01*
X4438527Y2900323D01*
X4437440Y2908582D01*
X4435637Y2916715D01*
X4433132Y2924660D01*
X4429944Y2932356D01*
X4426098Y2939746D01*
X4421622Y2946772D01*
X4416550Y2953381D01*
X4410922Y2959522D01*
X4404780Y2965151D01*
X4398171Y2970222D01*
X4391145Y2974698D01*
X4383756Y2978544D01*
X4376060Y2981732D01*
X4368115Y2984237D01*
X4359982Y2986041D01*
X4351723Y2987128D01*
X4343400Y2987491D01*
D02*
G37*
G36*
X4089400D02*
X4081077Y2987128D01*
X4072818Y2986041D01*
X4064685Y2984237D01*
X4056740Y2981732D01*
X4049044Y2978544D01*
X4041655Y2974698D01*
X4034629Y2970222D01*
X4028020Y2965151D01*
X4021878Y2959522D01*
X4016250Y2953381D01*
X4011178Y2946772D01*
X4006702Y2939746D01*
X4002856Y2932356D01*
X3999668Y2924660D01*
X3997163Y2916715D01*
X3995360Y2908582D01*
X3994273Y2900323D01*
X3993909Y2892000D01*
Y2832000D01*
X3994273Y2823677D01*
X3995360Y2815418D01*
X3997163Y2807285D01*
X3999668Y2799340D01*
X4002856Y2791644D01*
X4006702Y2784255D01*
X4011178Y2777229D01*
X4016250Y2770620D01*
X4021878Y2764478D01*
X4028020Y2758850D01*
X4034629Y2753778D01*
X4041655Y2749302D01*
X4049044Y2745456D01*
X4056740Y2742268D01*
X4064685Y2739763D01*
X4072818Y2737960D01*
X4081077Y2736873D01*
X4089400Y2736509D01*
X4097723Y2736873D01*
X4105982Y2737960D01*
X4114115Y2739763D01*
X4122060Y2742268D01*
X4129756Y2745456D01*
X4137145Y2749302D01*
X4144171Y2753778D01*
X4150780Y2758850D01*
X4156922Y2764478D01*
X4162550Y2770620D01*
X4167622Y2777229D01*
X4172098Y2784255D01*
X4175944Y2791644D01*
X4179132Y2799340D01*
X4181637Y2807285D01*
X4183440Y2815418D01*
X4184527Y2823677D01*
X4184891Y2832000D01*
Y2892000D01*
X4184527Y2900323D01*
X4183440Y2908582D01*
X4181637Y2916715D01*
X4179132Y2924660D01*
X4175944Y2932356D01*
X4172098Y2939746D01*
X4167622Y2946772D01*
X4162550Y2953381D01*
X4156922Y2959522D01*
X4150780Y2965151D01*
X4144171Y2970222D01*
X4137145Y2974698D01*
X4129756Y2978544D01*
X4122060Y2981732D01*
X4114115Y2984237D01*
X4105982Y2986041D01*
X4097723Y2987128D01*
X4089400Y2987491D01*
D02*
G37*
G36*
X3835400D02*
X3827077Y2987128D01*
X3818818Y2986041D01*
X3810685Y2984237D01*
X3802740Y2981732D01*
X3795044Y2978544D01*
X3787655Y2974698D01*
X3780629Y2970222D01*
X3774020Y2965151D01*
X3767878Y2959522D01*
X3762250Y2953381D01*
X3757178Y2946772D01*
X3752702Y2939746D01*
X3748856Y2932356D01*
X3745668Y2924660D01*
X3743163Y2916715D01*
X3741360Y2908582D01*
X3740273Y2900323D01*
X3739909Y2892000D01*
Y2832000D01*
X3740273Y2823677D01*
X3741360Y2815418D01*
X3743163Y2807285D01*
X3745668Y2799340D01*
X3748856Y2791644D01*
X3752702Y2784255D01*
X3757178Y2777229D01*
X3762250Y2770620D01*
X3767878Y2764478D01*
X3774020Y2758850D01*
X3780629Y2753778D01*
X3787655Y2749302D01*
X3795044Y2745456D01*
X3802740Y2742268D01*
X3810685Y2739763D01*
X3818818Y2737960D01*
X3827077Y2736873D01*
X3835400Y2736509D01*
X3843723Y2736873D01*
X3851982Y2737960D01*
X3860115Y2739763D01*
X3868060Y2742268D01*
X3875756Y2745456D01*
X3883145Y2749302D01*
X3890171Y2753778D01*
X3896780Y2758850D01*
X3902922Y2764478D01*
X3908550Y2770620D01*
X3913622Y2777229D01*
X3918098Y2784255D01*
X3921944Y2791644D01*
X3925132Y2799340D01*
X3927637Y2807285D01*
X3929440Y2815418D01*
X3930527Y2823677D01*
X3930891Y2832000D01*
Y2892000D01*
X3930527Y2900323D01*
X3929440Y2908582D01*
X3927637Y2916715D01*
X3925132Y2924660D01*
X3921944Y2932356D01*
X3918098Y2939746D01*
X3913622Y2946772D01*
X3908550Y2953381D01*
X3902922Y2959522D01*
X3896780Y2965151D01*
X3890171Y2970222D01*
X3883145Y2974698D01*
X3875756Y2978544D01*
X3868060Y2981732D01*
X3860115Y2984237D01*
X3851982Y2986041D01*
X3843723Y2987128D01*
X3835400Y2987491D01*
D02*
G37*
G36*
X3581400D02*
X3573077Y2987128D01*
X3564818Y2986041D01*
X3556685Y2984237D01*
X3548740Y2981732D01*
X3541044Y2978544D01*
X3533655Y2974698D01*
X3526629Y2970222D01*
X3520020Y2965151D01*
X3513878Y2959522D01*
X3508250Y2953381D01*
X3503178Y2946772D01*
X3498702Y2939746D01*
X3494856Y2932356D01*
X3491668Y2924660D01*
X3489163Y2916715D01*
X3487360Y2908582D01*
X3486273Y2900323D01*
X3485909Y2892000D01*
Y2832000D01*
X3486273Y2823677D01*
X3487360Y2815418D01*
X3489163Y2807285D01*
X3491668Y2799340D01*
X3494856Y2791644D01*
X3498702Y2784255D01*
X3503178Y2777229D01*
X3508250Y2770620D01*
X3513878Y2764478D01*
X3520020Y2758850D01*
X3526629Y2753778D01*
X3533655Y2749302D01*
X3541044Y2745456D01*
X3548740Y2742268D01*
X3556685Y2739763D01*
X3564818Y2737960D01*
X3573077Y2736873D01*
X3581400Y2736509D01*
X3589723Y2736873D01*
X3597982Y2737960D01*
X3606115Y2739763D01*
X3614060Y2742268D01*
X3621756Y2745456D01*
X3629145Y2749302D01*
X3636171Y2753778D01*
X3642780Y2758850D01*
X3648922Y2764478D01*
X3654550Y2770620D01*
X3659622Y2777229D01*
X3664098Y2784255D01*
X3667944Y2791644D01*
X3671132Y2799340D01*
X3673637Y2807285D01*
X3675440Y2815418D01*
X3676527Y2823677D01*
X3676891Y2832000D01*
Y2892000D01*
X3676527Y2900323D01*
X3675440Y2908582D01*
X3673637Y2916715D01*
X3671132Y2924660D01*
X3667944Y2932356D01*
X3664098Y2939746D01*
X3659622Y2946772D01*
X3654550Y2953381D01*
X3648922Y2959522D01*
X3642780Y2965151D01*
X3636171Y2970222D01*
X3629145Y2974698D01*
X3621756Y2978544D01*
X3614060Y2981732D01*
X3606115Y2984237D01*
X3597982Y2986041D01*
X3589723Y2987128D01*
X3581400Y2987491D01*
D02*
G37*
G36*
X3327400D02*
X3319077Y2987128D01*
X3310818Y2986041D01*
X3302685Y2984237D01*
X3294740Y2981732D01*
X3287044Y2978544D01*
X3279655Y2974698D01*
X3272629Y2970222D01*
X3266020Y2965151D01*
X3259878Y2959522D01*
X3254250Y2953381D01*
X3249178Y2946772D01*
X3244702Y2939746D01*
X3240856Y2932356D01*
X3237668Y2924660D01*
X3235163Y2916715D01*
X3233360Y2908582D01*
X3232273Y2900323D01*
X3231909Y2892000D01*
Y2832000D01*
X3232273Y2823677D01*
X3233360Y2815418D01*
X3235163Y2807285D01*
X3237668Y2799340D01*
X3240856Y2791644D01*
X3244702Y2784255D01*
X3249178Y2777229D01*
X3254250Y2770620D01*
X3259878Y2764478D01*
X3266020Y2758850D01*
X3272629Y2753778D01*
X3279655Y2749302D01*
X3287044Y2745456D01*
X3294740Y2742268D01*
X3302685Y2739763D01*
X3310818Y2737960D01*
X3319077Y2736873D01*
X3327400Y2736509D01*
X3335723Y2736873D01*
X3343982Y2737960D01*
X3352115Y2739763D01*
X3360060Y2742268D01*
X3367756Y2745456D01*
X3375145Y2749302D01*
X3382171Y2753778D01*
X3388780Y2758850D01*
X3394922Y2764478D01*
X3400550Y2770620D01*
X3405622Y2777229D01*
X3410098Y2784255D01*
X3413944Y2791644D01*
X3417132Y2799340D01*
X3419637Y2807285D01*
X3421440Y2815418D01*
X3422527Y2823677D01*
X3422891Y2832000D01*
Y2892000D01*
X3422527Y2900323D01*
X3421440Y2908582D01*
X3419637Y2916715D01*
X3417132Y2924660D01*
X3413944Y2932356D01*
X3410098Y2939746D01*
X3405622Y2946772D01*
X3400550Y2953381D01*
X3394922Y2959522D01*
X3388780Y2965151D01*
X3382171Y2970222D01*
X3375145Y2974698D01*
X3367756Y2978544D01*
X3360060Y2981732D01*
X3352115Y2984237D01*
X3343982Y2986041D01*
X3335723Y2987128D01*
X3327400Y2987491D01*
D02*
G37*
G36*
X3073400D02*
X3065077Y2987128D01*
X3056818Y2986041D01*
X3048685Y2984237D01*
X3040740Y2981732D01*
X3033044Y2978544D01*
X3025655Y2974698D01*
X3018629Y2970222D01*
X3012020Y2965151D01*
X3005878Y2959522D01*
X3000250Y2953381D01*
X2995178Y2946772D01*
X2990702Y2939746D01*
X2986856Y2932356D01*
X2983668Y2924660D01*
X2981163Y2916715D01*
X2979360Y2908582D01*
X2978273Y2900323D01*
X2977909Y2892000D01*
Y2832000D01*
X2978273Y2823677D01*
X2979360Y2815418D01*
X2981163Y2807285D01*
X2983668Y2799340D01*
X2986856Y2791644D01*
X2990702Y2784255D01*
X2995178Y2777229D01*
X3000250Y2770620D01*
X3005878Y2764478D01*
X3012020Y2758850D01*
X3018629Y2753778D01*
X3025655Y2749302D01*
X3033044Y2745456D01*
X3040740Y2742268D01*
X3048685Y2739763D01*
X3056818Y2737960D01*
X3065077Y2736873D01*
X3073400Y2736509D01*
X3081723Y2736873D01*
X3089982Y2737960D01*
X3098115Y2739763D01*
X3106060Y2742268D01*
X3113756Y2745456D01*
X3121145Y2749302D01*
X3128171Y2753778D01*
X3134780Y2758850D01*
X3140922Y2764478D01*
X3146550Y2770620D01*
X3151622Y2777229D01*
X3156098Y2784255D01*
X3159944Y2791644D01*
X3163132Y2799340D01*
X3165637Y2807285D01*
X3167440Y2815418D01*
X3168527Y2823677D01*
X3168891Y2832000D01*
Y2892000D01*
X3168527Y2900323D01*
X3167440Y2908582D01*
X3165637Y2916715D01*
X3163132Y2924660D01*
X3159944Y2932356D01*
X3156098Y2939746D01*
X3151622Y2946772D01*
X3146550Y2953381D01*
X3140922Y2959522D01*
X3134780Y2965151D01*
X3128171Y2970222D01*
X3121145Y2974698D01*
X3113756Y2978544D01*
X3106060Y2981732D01*
X3098115Y2984237D01*
X3089982Y2986041D01*
X3081723Y2987128D01*
X3073400Y2987491D01*
D02*
G37*
G36*
X2819400D02*
X2811077Y2987128D01*
X2802818Y2986041D01*
X2794685Y2984237D01*
X2786740Y2981732D01*
X2779044Y2978544D01*
X2771655Y2974698D01*
X2764629Y2970222D01*
X2758020Y2965151D01*
X2751878Y2959522D01*
X2746250Y2953381D01*
X2741178Y2946772D01*
X2736702Y2939746D01*
X2732856Y2932356D01*
X2729668Y2924660D01*
X2727163Y2916715D01*
X2725360Y2908582D01*
X2724273Y2900323D01*
X2723909Y2892000D01*
Y2832000D01*
X2724273Y2823677D01*
X2725360Y2815418D01*
X2727163Y2807285D01*
X2729668Y2799340D01*
X2732856Y2791644D01*
X2736702Y2784255D01*
X2741178Y2777229D01*
X2746250Y2770620D01*
X2751878Y2764478D01*
X2758020Y2758850D01*
X2764629Y2753778D01*
X2771655Y2749302D01*
X2779044Y2745456D01*
X2786740Y2742268D01*
X2794685Y2739763D01*
X2802818Y2737960D01*
X2811077Y2736873D01*
X2819400Y2736509D01*
X2827723Y2736873D01*
X2835982Y2737960D01*
X2844115Y2739763D01*
X2852060Y2742268D01*
X2859756Y2745456D01*
X2867145Y2749302D01*
X2874171Y2753778D01*
X2880780Y2758850D01*
X2886922Y2764478D01*
X2892550Y2770620D01*
X2897622Y2777229D01*
X2902098Y2784255D01*
X2905944Y2791644D01*
X2909132Y2799340D01*
X2911637Y2807285D01*
X2913440Y2815418D01*
X2914527Y2823677D01*
X2914891Y2832000D01*
Y2892000D01*
X2914527Y2900323D01*
X2913440Y2908582D01*
X2911637Y2916715D01*
X2909132Y2924660D01*
X2905944Y2932356D01*
X2902098Y2939746D01*
X2897622Y2946772D01*
X2892550Y2953381D01*
X2886922Y2959522D01*
X2880780Y2965151D01*
X2874171Y2970222D01*
X2867145Y2974698D01*
X2859756Y2978544D01*
X2852060Y2981732D01*
X2844115Y2984237D01*
X2835982Y2986041D01*
X2827723Y2987128D01*
X2819400Y2987491D01*
D02*
G37*
G36*
X2565400D02*
X2557077Y2987128D01*
X2548818Y2986041D01*
X2540685Y2984237D01*
X2532740Y2981732D01*
X2525044Y2978544D01*
X2517655Y2974698D01*
X2510629Y2970222D01*
X2504020Y2965151D01*
X2497878Y2959522D01*
X2492250Y2953381D01*
X2487178Y2946772D01*
X2482702Y2939746D01*
X2478856Y2932356D01*
X2475668Y2924660D01*
X2473163Y2916715D01*
X2471360Y2908582D01*
X2470273Y2900323D01*
X2469909Y2892000D01*
Y2832000D01*
X2470273Y2823677D01*
X2471360Y2815418D01*
X2473163Y2807285D01*
X2475668Y2799340D01*
X2478856Y2791644D01*
X2482702Y2784255D01*
X2487178Y2777229D01*
X2492250Y2770620D01*
X2497878Y2764478D01*
X2504020Y2758850D01*
X2510629Y2753778D01*
X2517655Y2749302D01*
X2525044Y2745456D01*
X2532740Y2742268D01*
X2540685Y2739763D01*
X2548818Y2737960D01*
X2557077Y2736873D01*
X2565400Y2736509D01*
X2573723Y2736873D01*
X2581982Y2737960D01*
X2590115Y2739763D01*
X2598060Y2742268D01*
X2605756Y2745456D01*
X2613145Y2749302D01*
X2620171Y2753778D01*
X2626780Y2758850D01*
X2632922Y2764478D01*
X2638550Y2770620D01*
X2643622Y2777229D01*
X2648098Y2784255D01*
X2651944Y2791644D01*
X2655132Y2799340D01*
X2657637Y2807285D01*
X2659440Y2815418D01*
X2660527Y2823677D01*
X2660891Y2832000D01*
Y2892000D01*
X2660527Y2900323D01*
X2659440Y2908582D01*
X2657637Y2916715D01*
X2655132Y2924660D01*
X2651944Y2932356D01*
X2648098Y2939746D01*
X2643622Y2946772D01*
X2638550Y2953381D01*
X2632922Y2959522D01*
X2626780Y2965151D01*
X2620171Y2970222D01*
X2613145Y2974698D01*
X2605756Y2978544D01*
X2598060Y2981732D01*
X2590115Y2984237D01*
X2581982Y2986041D01*
X2573723Y2987128D01*
X2565400Y2987491D01*
D02*
G37*
G36*
X2311400D02*
X2303077Y2987128D01*
X2294818Y2986041D01*
X2286685Y2984237D01*
X2278740Y2981732D01*
X2271044Y2978544D01*
X2263655Y2974698D01*
X2256629Y2970222D01*
X2250020Y2965151D01*
X2243878Y2959522D01*
X2238250Y2953381D01*
X2233178Y2946772D01*
X2228702Y2939746D01*
X2224856Y2932356D01*
X2221668Y2924660D01*
X2219163Y2916715D01*
X2217360Y2908582D01*
X2216273Y2900323D01*
X2215909Y2892000D01*
Y2832000D01*
X2216273Y2823677D01*
X2217360Y2815418D01*
X2219163Y2807285D01*
X2221668Y2799340D01*
X2224856Y2791644D01*
X2228702Y2784255D01*
X2233178Y2777229D01*
X2238250Y2770620D01*
X2243878Y2764478D01*
X2250020Y2758850D01*
X2256629Y2753778D01*
X2263655Y2749302D01*
X2271044Y2745456D01*
X2278740Y2742268D01*
X2286685Y2739763D01*
X2294818Y2737960D01*
X2303077Y2736873D01*
X2311400Y2736509D01*
X2319723Y2736873D01*
X2327982Y2737960D01*
X2336115Y2739763D01*
X2344060Y2742268D01*
X2351756Y2745456D01*
X2359145Y2749302D01*
X2366171Y2753778D01*
X2372780Y2758850D01*
X2378922Y2764478D01*
X2384550Y2770620D01*
X2389622Y2777229D01*
X2394098Y2784255D01*
X2397944Y2791644D01*
X2401132Y2799340D01*
X2403637Y2807285D01*
X2405440Y2815418D01*
X2406527Y2823677D01*
X2406891Y2832000D01*
Y2892000D01*
X2406527Y2900323D01*
X2405440Y2908582D01*
X2403637Y2916715D01*
X2401132Y2924660D01*
X2397944Y2932356D01*
X2394098Y2939746D01*
X2389622Y2946772D01*
X2384550Y2953381D01*
X2378922Y2959522D01*
X2372780Y2965151D01*
X2366171Y2970222D01*
X2359145Y2974698D01*
X2351756Y2978544D01*
X2344060Y2981732D01*
X2336115Y2984237D01*
X2327982Y2986041D01*
X2319723Y2987128D01*
X2311400Y2987491D01*
D02*
G37*
G36*
X2057400D02*
X2049077Y2987128D01*
X2040818Y2986041D01*
X2032685Y2984237D01*
X2024740Y2981732D01*
X2017044Y2978544D01*
X2009655Y2974698D01*
X2002629Y2970222D01*
X1996020Y2965151D01*
X1989878Y2959522D01*
X1984250Y2953381D01*
X1979178Y2946772D01*
X1974702Y2939746D01*
X1970856Y2932356D01*
X1967668Y2924660D01*
X1965163Y2916715D01*
X1963360Y2908582D01*
X1962273Y2900323D01*
X1961909Y2892000D01*
Y2832000D01*
X1962273Y2823677D01*
X1963360Y2815418D01*
X1965163Y2807285D01*
X1967668Y2799340D01*
X1970856Y2791644D01*
X1974702Y2784255D01*
X1979178Y2777229D01*
X1984250Y2770620D01*
X1989878Y2764478D01*
X1996020Y2758850D01*
X2002629Y2753778D01*
X2009655Y2749302D01*
X2017044Y2745456D01*
X2024740Y2742268D01*
X2032685Y2739763D01*
X2040818Y2737960D01*
X2049077Y2736873D01*
X2057400Y2736509D01*
X2065723Y2736873D01*
X2073982Y2737960D01*
X2082115Y2739763D01*
X2090060Y2742268D01*
X2097756Y2745456D01*
X2105145Y2749302D01*
X2112171Y2753778D01*
X2118780Y2758850D01*
X2124922Y2764478D01*
X2130550Y2770620D01*
X2135622Y2777229D01*
X2140098Y2784255D01*
X2143944Y2791644D01*
X2147132Y2799340D01*
X2149637Y2807285D01*
X2151440Y2815418D01*
X2152527Y2823677D01*
X2152891Y2832000D01*
Y2892000D01*
X2152527Y2900323D01*
X2151440Y2908582D01*
X2149637Y2916715D01*
X2147132Y2924660D01*
X2143944Y2932356D01*
X2140098Y2939746D01*
X2135622Y2946772D01*
X2130550Y2953381D01*
X2124922Y2959522D01*
X2118780Y2965151D01*
X2112171Y2970222D01*
X2105145Y2974698D01*
X2097756Y2978544D01*
X2090060Y2981732D01*
X2082115Y2984237D01*
X2073982Y2986041D01*
X2065723Y2987128D01*
X2057400Y2987491D01*
D02*
G37*
G36*
X1549400D02*
X1541077Y2987128D01*
X1532818Y2986041D01*
X1524685Y2984237D01*
X1516740Y2981732D01*
X1509044Y2978544D01*
X1501655Y2974698D01*
X1494629Y2970222D01*
X1488020Y2965151D01*
X1481878Y2959522D01*
X1476250Y2953381D01*
X1471178Y2946772D01*
X1466702Y2939746D01*
X1462856Y2932356D01*
X1459668Y2924660D01*
X1457163Y2916715D01*
X1455360Y2908582D01*
X1454273Y2900323D01*
X1453909Y2892000D01*
Y2832000D01*
X1454273Y2823677D01*
X1455360Y2815418D01*
X1457163Y2807285D01*
X1459668Y2799340D01*
X1462856Y2791644D01*
X1466702Y2784255D01*
X1471178Y2777229D01*
X1476250Y2770620D01*
X1481878Y2764478D01*
X1488020Y2758850D01*
X1494629Y2753778D01*
X1501655Y2749302D01*
X1509044Y2745456D01*
X1516740Y2742268D01*
X1524685Y2739763D01*
X1532818Y2737960D01*
X1541077Y2736873D01*
X1549400Y2736509D01*
X1557723Y2736873D01*
X1565982Y2737960D01*
X1574115Y2739763D01*
X1582060Y2742268D01*
X1589756Y2745456D01*
X1597145Y2749302D01*
X1604171Y2753778D01*
X1610780Y2758850D01*
X1616922Y2764478D01*
X1622550Y2770620D01*
X1627622Y2777229D01*
X1632098Y2784255D01*
X1635944Y2791644D01*
X1639132Y2799340D01*
X1641637Y2807285D01*
X1643440Y2815418D01*
X1644527Y2823677D01*
X1644891Y2832000D01*
Y2892000D01*
X1644527Y2900323D01*
X1643440Y2908582D01*
X1641637Y2916715D01*
X1639132Y2924660D01*
X1635944Y2932356D01*
X1632098Y2939746D01*
X1627622Y2946772D01*
X1622550Y2953381D01*
X1616922Y2959522D01*
X1610780Y2965151D01*
X1604171Y2970222D01*
X1597145Y2974698D01*
X1589756Y2978544D01*
X1582060Y2981732D01*
X1574115Y2984237D01*
X1565982Y2986041D01*
X1557723Y2987128D01*
X1549400Y2987491D01*
D02*
G37*
G36*
X1295400D02*
X1287077Y2987128D01*
X1278818Y2986041D01*
X1270685Y2984237D01*
X1262740Y2981732D01*
X1255044Y2978544D01*
X1247655Y2974698D01*
X1240629Y2970222D01*
X1234020Y2965151D01*
X1227878Y2959522D01*
X1222250Y2953381D01*
X1217178Y2946772D01*
X1212702Y2939746D01*
X1208856Y2932356D01*
X1205668Y2924660D01*
X1203163Y2916715D01*
X1201360Y2908582D01*
X1200273Y2900323D01*
X1199909Y2892000D01*
Y2832000D01*
X1200273Y2823677D01*
X1201360Y2815418D01*
X1203163Y2807285D01*
X1205668Y2799340D01*
X1208856Y2791644D01*
X1212702Y2784255D01*
X1217178Y2777229D01*
X1222250Y2770620D01*
X1227878Y2764478D01*
X1234020Y2758850D01*
X1240629Y2753778D01*
X1247655Y2749302D01*
X1255044Y2745456D01*
X1262740Y2742268D01*
X1270685Y2739763D01*
X1278818Y2737960D01*
X1287077Y2736873D01*
X1295400Y2736509D01*
X1303723Y2736873D01*
X1311982Y2737960D01*
X1320115Y2739763D01*
X1328060Y2742268D01*
X1335756Y2745456D01*
X1343145Y2749302D01*
X1350171Y2753778D01*
X1356780Y2758850D01*
X1362922Y2764478D01*
X1368550Y2770620D01*
X1373622Y2777229D01*
X1378098Y2784255D01*
X1381944Y2791644D01*
X1385132Y2799340D01*
X1387637Y2807285D01*
X1389440Y2815418D01*
X1390527Y2823677D01*
X1390891Y2832000D01*
Y2892000D01*
X1390527Y2900323D01*
X1389440Y2908582D01*
X1387637Y2916715D01*
X1385132Y2924660D01*
X1381944Y2932356D01*
X1378098Y2939746D01*
X1373622Y2946772D01*
X1368550Y2953381D01*
X1362922Y2959522D01*
X1356780Y2965151D01*
X1350171Y2970222D01*
X1343145Y2974698D01*
X1335756Y2978544D01*
X1328060Y2981732D01*
X1320115Y2984237D01*
X1311982Y2986041D01*
X1303723Y2987128D01*
X1295400Y2987491D01*
D02*
G37*
G36*
X1041400D02*
X1033077Y2987128D01*
X1024818Y2986041D01*
X1016685Y2984237D01*
X1008740Y2981732D01*
X1001044Y2978544D01*
X993655Y2974698D01*
X986629Y2970222D01*
X980020Y2965151D01*
X973878Y2959522D01*
X968250Y2953381D01*
X963178Y2946772D01*
X958702Y2939746D01*
X954856Y2932356D01*
X951668Y2924660D01*
X949163Y2916715D01*
X947360Y2908582D01*
X946273Y2900323D01*
X945909Y2892000D01*
Y2832000D01*
X946273Y2823677D01*
X947360Y2815418D01*
X949163Y2807285D01*
X951668Y2799340D01*
X954856Y2791644D01*
X958702Y2784255D01*
X963178Y2777229D01*
X968250Y2770620D01*
X973878Y2764478D01*
X980020Y2758850D01*
X986629Y2753778D01*
X993655Y2749302D01*
X1001044Y2745456D01*
X1008740Y2742268D01*
X1016685Y2739763D01*
X1024818Y2737960D01*
X1033077Y2736873D01*
X1041400Y2736509D01*
X1049723Y2736873D01*
X1057982Y2737960D01*
X1066115Y2739763D01*
X1074060Y2742268D01*
X1081756Y2745456D01*
X1089145Y2749302D01*
X1096171Y2753778D01*
X1102780Y2758850D01*
X1108922Y2764478D01*
X1114550Y2770620D01*
X1119622Y2777229D01*
X1124098Y2784255D01*
X1127944Y2791644D01*
X1131132Y2799340D01*
X1133637Y2807285D01*
X1135440Y2815418D01*
X1136527Y2823677D01*
X1136891Y2832000D01*
Y2892000D01*
X1136527Y2900323D01*
X1135440Y2908582D01*
X1133637Y2916715D01*
X1131132Y2924660D01*
X1127944Y2932356D01*
X1124098Y2939746D01*
X1119622Y2946772D01*
X1114550Y2953381D01*
X1108922Y2959522D01*
X1102780Y2965151D01*
X1096171Y2970222D01*
X1089145Y2974698D01*
X1081756Y2978544D01*
X1074060Y2981732D01*
X1066115Y2984237D01*
X1057982Y2986041D01*
X1049723Y2987128D01*
X1041400Y2987491D01*
D02*
G37*
G36*
X787400D02*
X779077Y2987128D01*
X770818Y2986041D01*
X762685Y2984237D01*
X754740Y2981732D01*
X747044Y2978544D01*
X739655Y2974698D01*
X732629Y2970222D01*
X726020Y2965151D01*
X719878Y2959522D01*
X714250Y2953381D01*
X709178Y2946772D01*
X704702Y2939746D01*
X700856Y2932356D01*
X697668Y2924660D01*
X695163Y2916715D01*
X693360Y2908582D01*
X692273Y2900323D01*
X691909Y2892000D01*
Y2832000D01*
X692273Y2823677D01*
X693360Y2815418D01*
X695163Y2807285D01*
X697668Y2799340D01*
X700856Y2791644D01*
X704702Y2784255D01*
X709178Y2777229D01*
X714250Y2770620D01*
X719878Y2764478D01*
X726020Y2758850D01*
X732629Y2753778D01*
X739655Y2749302D01*
X747044Y2745456D01*
X754740Y2742268D01*
X762685Y2739763D01*
X770818Y2737960D01*
X779077Y2736873D01*
X787400Y2736509D01*
X795723Y2736873D01*
X803982Y2737960D01*
X812115Y2739763D01*
X820060Y2742268D01*
X827756Y2745456D01*
X835145Y2749302D01*
X842171Y2753778D01*
X848780Y2758850D01*
X854922Y2764478D01*
X860550Y2770620D01*
X865622Y2777229D01*
X870098Y2784255D01*
X873944Y2791644D01*
X877132Y2799340D01*
X879637Y2807285D01*
X881440Y2815418D01*
X882527Y2823677D01*
X882891Y2832000D01*
Y2892000D01*
X882527Y2900323D01*
X881440Y2908582D01*
X879637Y2916715D01*
X877132Y2924660D01*
X873944Y2932356D01*
X870098Y2939746D01*
X865622Y2946772D01*
X860550Y2953381D01*
X854922Y2959522D01*
X848780Y2965151D01*
X842171Y2970222D01*
X835145Y2974698D01*
X827756Y2978544D01*
X820060Y2981732D01*
X812115Y2984237D01*
X803982Y2986041D01*
X795723Y2987128D01*
X787400Y2987491D01*
D02*
G37*
G36*
X533400Y2796078D02*
X486292Y2748970D01*
X493044Y2745456D01*
X500740Y2742268D01*
X508685Y2739763D01*
X516818Y2737960D01*
X525077Y2736873D01*
X533400Y2736509D01*
X541723Y2736873D01*
X549982Y2737960D01*
X558115Y2739763D01*
X566060Y2742268D01*
X573756Y2745456D01*
X580508Y2748971D01*
X533400Y2796078D01*
D02*
G37*
G36*
X279400Y2987491D02*
X271077Y2987128D01*
X262818Y2986041D01*
X254685Y2984237D01*
X246740Y2981732D01*
X239044Y2978544D01*
X231655Y2974698D01*
X224629Y2970222D01*
X218020Y2965151D01*
X211878Y2959522D01*
X206250Y2953381D01*
X201178Y2946772D01*
X196702Y2939746D01*
X192856Y2932356D01*
X189668Y2924660D01*
X187163Y2916715D01*
X185360Y2908582D01*
X184273Y2900323D01*
X183909Y2892000D01*
Y2832000D01*
X184273Y2823677D01*
X185360Y2815418D01*
X187163Y2807285D01*
X189668Y2799340D01*
X192856Y2791644D01*
X196702Y2784255D01*
X201178Y2777229D01*
X206250Y2770620D01*
X211878Y2764478D01*
X218020Y2758850D01*
X224629Y2753778D01*
X231655Y2749302D01*
X239044Y2745456D01*
X246740Y2742268D01*
X254685Y2739763D01*
X262818Y2737960D01*
X271077Y2736873D01*
X279400Y2736509D01*
X287723Y2736873D01*
X295982Y2737960D01*
X304115Y2739763D01*
X312060Y2742268D01*
X319756Y2745456D01*
X327145Y2749302D01*
X334171Y2753778D01*
X340780Y2758850D01*
X346922Y2764478D01*
X352550Y2770620D01*
X357622Y2777229D01*
X362098Y2784255D01*
X365944Y2791644D01*
X369132Y2799340D01*
X371637Y2807285D01*
X373440Y2815418D01*
X374527Y2823677D01*
X374891Y2832000D01*
Y2892000D01*
X374527Y2900323D01*
X373440Y2908582D01*
X371637Y2916715D01*
X369132Y2924660D01*
X365944Y2932356D01*
X362098Y2939746D01*
X357622Y2946772D01*
X352550Y2953381D01*
X346922Y2959522D01*
X340780Y2965151D01*
X334171Y2970222D01*
X327145Y2974698D01*
X319756Y2978544D01*
X312060Y2981732D01*
X304115Y2984237D01*
X295982Y2986041D01*
X287723Y2987128D01*
X279400Y2987491D01*
D02*
G37*
G36*
X9316800Y2864781D02*
X9276800D01*
X9268524Y2864456D01*
X9260299Y2863482D01*
X9252176Y2861867D01*
X9244204Y2859619D01*
X9236434Y2856752D01*
X9228912Y2853284D01*
X9221686Y2849237D01*
X9214800Y2844636D01*
X9208295Y2839508D01*
X9202213Y2833886D01*
X9196591Y2827805D01*
X9191464Y2821300D01*
X9186862Y2814414D01*
X9182816Y2807187D01*
X9179348Y2799666D01*
X9176481Y2791896D01*
X9174233Y2783924D01*
X9172617Y2775801D01*
X9171644Y2767576D01*
X9171319Y2759300D01*
X9171644Y2751024D01*
X9172617Y2742799D01*
X9174233Y2734676D01*
X9176481Y2726704D01*
X9179348Y2718934D01*
X9182816Y2711413D01*
X9186862Y2704186D01*
X9191464Y2697300D01*
X9196591Y2690795D01*
X9202213Y2684714D01*
X9208295Y2679092D01*
X9214800Y2673964D01*
X9221686Y2669363D01*
X9228912Y2665316D01*
X9236434Y2661848D01*
X9244204Y2658981D01*
X9252176Y2656733D01*
X9260299Y2655118D01*
X9268524Y2654144D01*
X9276800Y2653819D01*
X9316800D01*
X9325076Y2654144D01*
X9333301Y2655118D01*
X9341424Y2656733D01*
X9349396Y2658981D01*
X9357166Y2661848D01*
X9364688Y2665316D01*
X9371914Y2669363D01*
X9378800Y2673964D01*
X9385305Y2679092D01*
X9391387Y2684714D01*
X9397009Y2690795D01*
X9402136Y2697300D01*
X9406738Y2704186D01*
X9410785Y2711413D01*
X9414252Y2718934D01*
X9417119Y2726704D01*
X9419367Y2734676D01*
X9420983Y2742799D01*
X9421956Y2751024D01*
X9422281Y2759300D01*
X9421956Y2767576D01*
X9420983Y2775801D01*
X9419367Y2783924D01*
X9417119Y2791896D01*
X9414252Y2799666D01*
X9410785Y2807187D01*
X9406738Y2814414D01*
X9402136Y2821300D01*
X9397009Y2827805D01*
X9391387Y2833886D01*
X9385305Y2839508D01*
X9378800Y2844636D01*
X9371914Y2849237D01*
X9364688Y2853284D01*
X9357166Y2856752D01*
X9349396Y2859619D01*
X9341424Y2861867D01*
X9333301Y2863482D01*
X9325076Y2864456D01*
X9316800Y2864781D01*
D02*
G37*
G36*
X7462600D02*
X7422600D01*
X7414324Y2864456D01*
X7406099Y2863482D01*
X7397976Y2861867D01*
X7390004Y2859619D01*
X7382234Y2856752D01*
X7374712Y2853284D01*
X7367486Y2849237D01*
X7360600Y2844636D01*
X7354095Y2839508D01*
X7348013Y2833886D01*
X7342391Y2827805D01*
X7337264Y2821300D01*
X7332663Y2814414D01*
X7328616Y2807187D01*
X7325148Y2799666D01*
X7322281Y2791896D01*
X7320033Y2783924D01*
X7318417Y2775801D01*
X7317444Y2767576D01*
X7317119Y2759300D01*
X7317444Y2751024D01*
X7318417Y2742799D01*
X7320033Y2734676D01*
X7322281Y2726704D01*
X7325148Y2718934D01*
X7328616Y2711413D01*
X7332663Y2704186D01*
X7337264Y2697300D01*
X7342391Y2690795D01*
X7348013Y2684714D01*
X7354095Y2679092D01*
X7360600Y2673964D01*
X7367486Y2669363D01*
X7374712Y2665316D01*
X7382234Y2661848D01*
X7390004Y2658981D01*
X7397976Y2656733D01*
X7406099Y2655118D01*
X7414324Y2654144D01*
X7422600Y2653819D01*
X7462600D01*
X7470876Y2654144D01*
X7479101Y2655118D01*
X7487224Y2656733D01*
X7495196Y2658981D01*
X7502966Y2661848D01*
X7510488Y2665316D01*
X7517714Y2669363D01*
X7524600Y2673964D01*
X7531105Y2679092D01*
X7537187Y2684714D01*
X7542809Y2690795D01*
X7547936Y2697300D01*
X7552538Y2704186D01*
X7556585Y2711413D01*
X7560052Y2718934D01*
X7562919Y2726704D01*
X7565167Y2734676D01*
X7566783Y2742799D01*
X7567756Y2751024D01*
X7568081Y2759300D01*
X7567756Y2767576D01*
X7566783Y2775801D01*
X7565167Y2783924D01*
X7562919Y2791896D01*
X7560052Y2799666D01*
X7556585Y2807187D01*
X7552538Y2814414D01*
X7547936Y2821300D01*
X7542809Y2827805D01*
X7537187Y2833886D01*
X7531105Y2839508D01*
X7524600Y2844636D01*
X7517714Y2849237D01*
X7510488Y2853284D01*
X7502966Y2856752D01*
X7495196Y2859619D01*
X7487224Y2861867D01*
X7479101Y2863482D01*
X7470876Y2864456D01*
X7462600Y2864781D01*
D02*
G37*
G36*
Y2610781D02*
X7422600D01*
X7414324Y2610456D01*
X7406099Y2609482D01*
X7397976Y2607867D01*
X7390004Y2605619D01*
X7382234Y2602752D01*
X7374712Y2599284D01*
X7367486Y2595237D01*
X7360600Y2590636D01*
X7354095Y2585508D01*
X7348013Y2579886D01*
X7342391Y2573805D01*
X7337264Y2567300D01*
X7332663Y2560414D01*
X7328616Y2553187D01*
X7325148Y2545666D01*
X7322281Y2537896D01*
X7320033Y2529924D01*
X7318417Y2521801D01*
X7317444Y2513576D01*
X7317119Y2505300D01*
X7317444Y2497024D01*
X7318417Y2488799D01*
X7320033Y2480676D01*
X7322281Y2472704D01*
X7325148Y2464934D01*
X7328616Y2457413D01*
X7332663Y2450186D01*
X7337264Y2443300D01*
X7342391Y2436795D01*
X7348013Y2430714D01*
X7354095Y2425092D01*
X7360600Y2419964D01*
X7367486Y2415363D01*
X7374712Y2411316D01*
X7382234Y2407848D01*
X7390004Y2404981D01*
X7397976Y2402733D01*
X7406099Y2401118D01*
X7414324Y2400144D01*
X7422600Y2399819D01*
X7462600D01*
X7470876Y2400144D01*
X7479101Y2401118D01*
X7487224Y2402733D01*
X7495196Y2404981D01*
X7502966Y2407848D01*
X7510488Y2411316D01*
X7517714Y2415363D01*
X7524600Y2419964D01*
X7531105Y2425092D01*
X7537187Y2430714D01*
X7542809Y2436795D01*
X7547936Y2443300D01*
X7552538Y2450186D01*
X7556585Y2457413D01*
X7560052Y2464934D01*
X7562919Y2472704D01*
X7565167Y2480676D01*
X7566783Y2488799D01*
X7567756Y2497024D01*
X7568081Y2505300D01*
X7567756Y2513576D01*
X7566783Y2521801D01*
X7565167Y2529924D01*
X7562919Y2537896D01*
X7560052Y2545666D01*
X7556585Y2553187D01*
X7552538Y2560414D01*
X7547936Y2567300D01*
X7542809Y2573805D01*
X7537187Y2579886D01*
X7531105Y2585508D01*
X7524600Y2590636D01*
X7517714Y2595237D01*
X7510488Y2599284D01*
X7502966Y2602752D01*
X7495196Y2605619D01*
X7487224Y2607867D01*
X7479101Y2609482D01*
X7470876Y2610456D01*
X7462600Y2610781D01*
D02*
G37*
G36*
X9316800Y2615385D02*
X9276800D01*
X9268163Y2615045D01*
X9259579Y2614029D01*
X9251101Y2612343D01*
X9242782Y2609997D01*
X9234672Y2607005D01*
X9226823Y2603386D01*
X9219281Y2599163D01*
X9212094Y2594360D01*
X9205306Y2589009D01*
X9198958Y2583142D01*
X9193091Y2576794D01*
X9187740Y2570006D01*
X9182937Y2562819D01*
X9178714Y2555277D01*
X9175095Y2547428D01*
X9172103Y2539318D01*
X9169757Y2530999D01*
X9168071Y2522521D01*
X9167055Y2513937D01*
X9166715Y2505300D01*
X9167055Y2496663D01*
X9168071Y2488079D01*
X9169757Y2479601D01*
X9172103Y2471282D01*
X9175095Y2463172D01*
X9178714Y2455323D01*
X9182937Y2447781D01*
X9187740Y2440594D01*
X9193091Y2433806D01*
X9198958Y2427458D01*
X9205306Y2421591D01*
X9212094Y2416240D01*
X9219281Y2411437D01*
X9226823Y2407214D01*
X9234672Y2403595D01*
X9239210Y2401921D01*
Y2260655D01*
X9136146Y2157591D01*
X7330144Y2157590D01*
X7327825Y2158830D01*
X7321924Y2161274D01*
X7315813Y2163128D01*
X7309549Y2164374D01*
X7303193Y2165000D01*
X7296807D01*
X7290451Y2164374D01*
X7284187Y2163128D01*
X7278076Y2161274D01*
X7272175Y2158830D01*
X7266543Y2155820D01*
X7261233Y2152272D01*
X7256296Y2148220D01*
X7251780Y2143704D01*
X7247728Y2138767D01*
X7244180Y2133457D01*
X7241170Y2127825D01*
X7238726Y2121924D01*
X7236872Y2115813D01*
X7235626Y2109549D01*
X7235000Y2103193D01*
Y2096807D01*
X7235626Y2090451D01*
X7236872Y2084187D01*
X7238726Y2078076D01*
X7241170Y2072175D01*
X7244180Y2066543D01*
X7247728Y2061233D01*
X7251780Y2056296D01*
X7256296Y2051780D01*
X7261233Y2047729D01*
X7266543Y2044181D01*
X7272175Y2041170D01*
X7278076Y2038726D01*
X7284187Y2036872D01*
X7290451Y2035626D01*
X7296807Y2035000D01*
X7303193D01*
X7309549Y2035626D01*
X7315813Y2036872D01*
X7321924Y2038726D01*
X7327825Y2041170D01*
X7330143Y2042409D01*
X9160000Y2042410D01*
X9166449Y2042772D01*
X9172815Y2043854D01*
X9179021Y2045642D01*
X9184988Y2048113D01*
X9190640Y2051237D01*
X9195907Y2054974D01*
X9200723Y2059278D01*
X9337523Y2196077D01*
X9341826Y2200893D01*
X9345563Y2206160D01*
X9348687Y2211812D01*
X9351159Y2217779D01*
X9352946Y2223985D01*
X9354028Y2230352D01*
X9354390Y2236800D01*
Y2401921D01*
X9358928Y2403595D01*
X9366778Y2407214D01*
X9374319Y2411437D01*
X9381506Y2416240D01*
X9388294Y2421591D01*
X9394642Y2427458D01*
X9400509Y2433806D01*
X9405861Y2440594D01*
X9410663Y2447781D01*
X9414886Y2455323D01*
X9418505Y2463172D01*
X9421497Y2471282D01*
X9423843Y2479601D01*
X9425530Y2488079D01*
X9426546Y2496663D01*
X9426885Y2505300D01*
X9426546Y2513937D01*
X9425530Y2522521D01*
X9423843Y2530999D01*
X9421497Y2539318D01*
X9418505Y2547428D01*
X9414886Y2555277D01*
X9410663Y2562819D01*
X9405861Y2570006D01*
X9400509Y2576794D01*
X9394642Y2583142D01*
X9388294Y2589009D01*
X9381506Y2594360D01*
X9374319Y2599163D01*
X9366778Y2603386D01*
X9358928Y2607005D01*
X9350818Y2609997D01*
X9342499Y2612343D01*
X9334021Y2614029D01*
X9325437Y2615045D01*
X9316800Y2615385D01*
D02*
G37*
G36*
X5630000Y2830491D02*
X5570000D01*
X5561677Y2830127D01*
X5553418Y2829040D01*
X5545285Y2827237D01*
X5537340Y2824732D01*
X5529644Y2821544D01*
X5522254Y2817698D01*
X5515228Y2813222D01*
X5508619Y2808150D01*
X5502478Y2802522D01*
X5496850Y2796380D01*
X5491778Y2789771D01*
X5487302Y2782746D01*
X5483456Y2775356D01*
X5480268Y2767660D01*
X5477763Y2759715D01*
X5475960Y2751582D01*
X5474872Y2743323D01*
X5474509Y2735000D01*
X5474872Y2726678D01*
X5475960Y2718418D01*
X5477763Y2710285D01*
X5480268Y2702340D01*
X5483456Y2694644D01*
X5487302Y2687255D01*
X5491778Y2680229D01*
X5496850Y2673620D01*
X5497253Y2673180D01*
X5491665Y2660480D01*
X3710000D01*
X3704348Y2660162D01*
X3698767Y2659214D01*
X3693328Y2657647D01*
X3688098Y2655481D01*
X3683143Y2652742D01*
X3678527Y2649467D01*
X3674306Y2645694D01*
X3545706Y2517095D01*
X3541933Y2512874D01*
X3538658Y2508257D01*
X3535920Y2503302D01*
X3533753Y2498072D01*
X3532186Y2492633D01*
X3531238Y2487052D01*
X3530921Y2481400D01*
Y2136599D01*
X3518221Y2135348D01*
X3518128Y2135813D01*
X3516274Y2141924D01*
X3513830Y2147825D01*
X3510819Y2153457D01*
X3507271Y2158767D01*
X3503220Y2163704D01*
X3498704Y2168220D01*
X3493767Y2172272D01*
X3488457Y2175820D01*
X3482825Y2178830D01*
X3476924Y2181274D01*
X3470813Y2183128D01*
X3464549Y2184374D01*
X3458193Y2185000D01*
X3451807D01*
X3445451Y2184374D01*
X3439187Y2183128D01*
X3433076Y2181274D01*
X3427175Y2178830D01*
X3421543Y2175820D01*
X3416233Y2172272D01*
X3411296Y2168220D01*
X3406780Y2163704D01*
X3402729Y2158767D01*
X3399180Y2153457D01*
X3396170Y2147825D01*
X3393726Y2141924D01*
X3391872Y2135813D01*
X3390626Y2129549D01*
X3390000Y2123193D01*
Y2116807D01*
X3390626Y2110451D01*
X3391872Y2104187D01*
X3393726Y2098076D01*
X3396170Y2092175D01*
X3399180Y2086543D01*
X3399913Y2085446D01*
Y1495000D01*
Y1448174D01*
X3392744Y1443651D01*
X3387213Y1442353D01*
X3382171Y1446222D01*
X3375145Y1450698D01*
X3367756Y1454544D01*
X3360060Y1457732D01*
X3352115Y1460237D01*
X3343982Y1462041D01*
X3335723Y1463128D01*
X3327400Y1463491D01*
X3319077Y1463128D01*
X3310818Y1462041D01*
X3302685Y1460237D01*
X3294740Y1457732D01*
X3287044Y1454544D01*
X3279655Y1450698D01*
X3272629Y1446222D01*
X3266020Y1441151D01*
X3259878Y1435522D01*
X3254250Y1429381D01*
X3249178Y1422772D01*
X3244702Y1415746D01*
X3240856Y1408356D01*
X3237668Y1400660D01*
X3235163Y1392715D01*
X3233360Y1384582D01*
X3232273Y1376323D01*
X3231909Y1368000D01*
Y1308000D01*
X3232273Y1299677D01*
X3233360Y1291418D01*
X3235163Y1283285D01*
X3237668Y1275340D01*
X3240856Y1267644D01*
X3244702Y1260255D01*
X3249178Y1253229D01*
X3254250Y1246620D01*
X3259878Y1240478D01*
X3266020Y1234850D01*
X3272629Y1229778D01*
X3279655Y1225302D01*
X3287044Y1221456D01*
X3294740Y1218268D01*
X3302685Y1215763D01*
X3310818Y1213960D01*
X3319077Y1212873D01*
X3327400Y1212509D01*
X3335723Y1212873D01*
X3343982Y1213960D01*
X3352115Y1215763D01*
X3360060Y1218268D01*
X3367756Y1221456D01*
X3375145Y1225302D01*
X3382171Y1229778D01*
X3387213Y1233647D01*
X3392744Y1232349D01*
X3399913Y1227826D01*
Y719554D01*
X3399180Y718457D01*
X3396170Y712825D01*
X3393726Y706924D01*
X3391872Y700813D01*
X3390626Y694549D01*
X3390000Y688193D01*
Y681807D01*
X3390626Y675451D01*
X3391872Y669187D01*
X3393726Y663076D01*
X3396170Y657175D01*
X3399180Y651543D01*
X3402729Y646233D01*
X3406780Y641296D01*
X3411296Y636780D01*
X3416233Y632728D01*
X3421543Y629180D01*
X3427175Y626170D01*
X3433076Y623726D01*
X3439187Y621872D01*
X3445451Y620626D01*
X3451807Y620000D01*
X3458193D01*
X3464549Y620626D01*
X3470813Y621872D01*
X3476924Y623726D01*
X3482825Y626170D01*
X3488457Y629180D01*
X3493767Y632728D01*
X3498704Y636780D01*
X3503220Y641296D01*
X3507271Y646233D01*
X3510819Y651543D01*
X3513830Y657175D01*
X3516274Y663076D01*
X3518128Y669187D01*
X3519374Y675451D01*
X3520000Y681807D01*
Y688193D01*
X3519374Y694549D01*
X3518128Y700813D01*
X3516274Y706924D01*
X3513830Y712825D01*
X3510819Y718457D01*
X3510086Y719554D01*
Y1226726D01*
X3513871Y1229821D01*
X3522786Y1232727D01*
X3526629Y1229778D01*
X3533655Y1225302D01*
X3541044Y1221456D01*
X3548740Y1218268D01*
X3556685Y1215763D01*
X3564818Y1213960D01*
X3573077Y1212873D01*
X3581400Y1212509D01*
X3589723Y1212873D01*
X3597982Y1213960D01*
X3606115Y1215763D01*
X3614060Y1218268D01*
X3621756Y1221456D01*
X3629145Y1225302D01*
X3636171Y1229778D01*
X3642780Y1234850D01*
X3648922Y1240478D01*
X3654550Y1246620D01*
X3659622Y1253229D01*
X3664098Y1260255D01*
X3667944Y1267644D01*
X3671132Y1275340D01*
X3673637Y1283285D01*
X3675440Y1291418D01*
X3676527Y1299677D01*
X3676891Y1308000D01*
Y1368000D01*
X3676527Y1376323D01*
X3675440Y1384582D01*
X3673637Y1392715D01*
X3671132Y1400660D01*
X3667944Y1408356D01*
X3664098Y1415746D01*
X3659622Y1422772D01*
X3654550Y1429381D01*
X3648922Y1435522D01*
X3642780Y1441151D01*
X3636171Y1446222D01*
X3631879Y1448956D01*
Y2460491D01*
X3730909Y2559521D01*
X4620082D01*
X4624012Y2553161D01*
X4625318Y2546821D01*
X4621250Y2542380D01*
X4616178Y2535771D01*
X4611702Y2528746D01*
X4607856Y2521356D01*
X4604668Y2513660D01*
X4602163Y2505715D01*
X4600360Y2497582D01*
X4599272Y2489323D01*
X4598909Y2481000D01*
X4599272Y2472678D01*
X4600360Y2464418D01*
X4602163Y2456285D01*
X4604668Y2448340D01*
X4607856Y2440644D01*
X4611702Y2433255D01*
X4616178Y2426229D01*
X4621250Y2419620D01*
X4622569Y2418180D01*
X4616981Y2405480D01*
X3960000D01*
X3954348Y2405162D01*
X3948768Y2404214D01*
X3943328Y2402647D01*
X3938098Y2400481D01*
X3933144Y2397742D01*
X3928527Y2394467D01*
X3924306Y2390694D01*
X3799706Y2266094D01*
X3795933Y2261873D01*
X3792658Y2257257D01*
X3789920Y2252302D01*
X3787753Y2247072D01*
X3786186Y2241633D01*
X3785238Y2236052D01*
X3784921Y2230400D01*
Y1448956D01*
X3780629Y1446222D01*
X3774020Y1441151D01*
X3767878Y1435522D01*
X3762250Y1429381D01*
X3757178Y1422772D01*
X3752702Y1415746D01*
X3748856Y1408356D01*
X3745668Y1400660D01*
X3743163Y1392715D01*
X3741360Y1384582D01*
X3740273Y1376323D01*
X3739909Y1368000D01*
Y1308000D01*
X3740273Y1299677D01*
X3741360Y1291418D01*
X3743163Y1283285D01*
X3745668Y1275340D01*
X3748856Y1267644D01*
X3752702Y1260255D01*
X3757178Y1253229D01*
X3762250Y1246620D01*
X3767878Y1240478D01*
X3774020Y1234850D01*
X3780629Y1229778D01*
X3787655Y1225302D01*
X3795044Y1221456D01*
X3802740Y1218268D01*
X3810685Y1215763D01*
X3818818Y1213960D01*
X3827077Y1212873D01*
X3835400Y1212509D01*
X3843723Y1212873D01*
X3851982Y1213960D01*
X3860115Y1215763D01*
X3868060Y1218268D01*
X3875756Y1221456D01*
X3883145Y1225302D01*
X3890171Y1229778D01*
X3896780Y1234850D01*
X3902922Y1240478D01*
X3908550Y1246620D01*
X3913622Y1253229D01*
X3918098Y1260255D01*
X3921944Y1267644D01*
X3925132Y1275340D01*
X3927637Y1283285D01*
X3929440Y1291418D01*
X3930527Y1299677D01*
X3930891Y1308000D01*
Y1368000D01*
X3930527Y1376323D01*
X3929440Y1384582D01*
X3927637Y1392715D01*
X3925132Y1400660D01*
X3921944Y1408356D01*
X3918098Y1415746D01*
X3913622Y1422772D01*
X3908550Y1429381D01*
X3902922Y1435522D01*
X3896780Y1441151D01*
X3890171Y1446222D01*
X3885879Y1448956D01*
Y2209491D01*
X3980909Y2304521D01*
X4618991D01*
X4621532Y2301300D01*
X4624402Y2291821D01*
X4621250Y2288380D01*
X4616178Y2281771D01*
X4611702Y2274746D01*
X4607856Y2267356D01*
X4604668Y2259660D01*
X4602163Y2251715D01*
X4600360Y2243582D01*
X4599272Y2235323D01*
X4598909Y2227000D01*
X4599272Y2218678D01*
X4600360Y2210418D01*
X4602163Y2202285D01*
X4604668Y2194340D01*
X4607856Y2186644D01*
X4611702Y2179255D01*
X4616178Y2172229D01*
X4621250Y2165620D01*
X4626878Y2159478D01*
X4633019Y2153850D01*
X4639629Y2148779D01*
X4646654Y2144303D01*
X4654044Y2140456D01*
X4661740Y2137268D01*
X4669685Y2134763D01*
X4677818Y2132960D01*
X4686077Y2131873D01*
X4694400Y2131509D01*
X4754400D01*
X4762723Y2131873D01*
X4770982Y2132960D01*
X4779115Y2134763D01*
X4787060Y2137268D01*
X4794756Y2140456D01*
X4802146Y2144303D01*
X4809171Y2148779D01*
X4815466Y2153608D01*
X5161290D01*
X5334521Y1980378D01*
Y1885265D01*
X5333432Y1884407D01*
X5321821Y1880628D01*
X5320344Y1882258D01*
X5183301Y2019301D01*
X5178540Y2023616D01*
X5173378Y2027444D01*
X5167867Y2030748D01*
X5162058Y2033495D01*
X5156008Y2035660D01*
X5149775Y2037221D01*
X5143418Y2038164D01*
X5137000Y2038479D01*
X4823795D01*
X4821922Y2040522D01*
X4815781Y2046150D01*
X4809171Y2051222D01*
X4802146Y2055698D01*
X4794756Y2059544D01*
X4787060Y2062732D01*
X4779115Y2065237D01*
X4770982Y2067040D01*
X4762723Y2068127D01*
X4754400Y2068491D01*
X4694400D01*
X4686077Y2068127D01*
X4677818Y2067040D01*
X4669685Y2065237D01*
X4661740Y2062732D01*
X4654044Y2059544D01*
X4646654Y2055698D01*
X4639629Y2051222D01*
X4633019Y2046150D01*
X4626878Y2040522D01*
X4621250Y2034380D01*
X4616178Y2027771D01*
X4611702Y2020746D01*
X4607856Y2013356D01*
X4604668Y2005660D01*
X4602163Y1997715D01*
X4600360Y1989582D01*
X4599272Y1981323D01*
X4598909Y1973000D01*
X4599272Y1964678D01*
X4600360Y1956418D01*
X4602163Y1948285D01*
X4604668Y1940340D01*
X4607856Y1932644D01*
X4611702Y1925255D01*
X4616178Y1918229D01*
X4621250Y1911620D01*
X4626878Y1905478D01*
X4633019Y1899850D01*
X4639629Y1894779D01*
X4646654Y1890303D01*
X4654044Y1886456D01*
X4661740Y1883268D01*
X4669685Y1880763D01*
X4677818Y1878960D01*
X4686077Y1877873D01*
X4694400Y1877509D01*
X4754400D01*
X4762723Y1877873D01*
X4770982Y1878960D01*
X4779115Y1880763D01*
X4787060Y1883268D01*
X4794756Y1886456D01*
X4802146Y1890303D01*
X4809171Y1894779D01*
X4815781Y1899850D01*
X4821922Y1905478D01*
X4823795Y1907521D01*
X5109878D01*
X5208564Y1808835D01*
Y1472884D01*
X5200800Y1463400D01*
X5195864Y1463400D01*
X5010000D01*
Y1212600D01*
X5039921D01*
Y1198300D01*
X5039992Y1196850D01*
X5039921Y1195400D01*
Y857100D01*
X5040236Y850682D01*
X5041179Y844326D01*
X5042740Y838093D01*
X5044905Y832042D01*
X5047653Y826234D01*
X5050956Y820722D01*
X5054784Y815561D01*
X5059099Y810799D01*
X5306201Y563698D01*
X5310962Y559383D01*
X5316123Y555555D01*
X5321635Y552251D01*
X5327444Y549504D01*
X5333494Y547339D01*
X5339727Y545778D01*
X5346084Y544835D01*
X5352502Y544520D01*
X5773389D01*
X5945112Y372797D01*
Y214599D01*
X6175911D01*
Y485399D01*
X6017713D01*
X5846812Y656299D01*
X5842051Y660614D01*
X5836890Y664442D01*
X5831378Y667746D01*
X5825570Y670493D01*
X5819519Y672658D01*
X5813286Y674219D01*
X5806930Y675162D01*
X5800512Y675477D01*
X5379624D01*
X5170879Y884223D01*
Y1195400D01*
X5170808Y1196850D01*
X5170879Y1198300D01*
Y1203620D01*
X5179859Y1212600D01*
X5200800Y1212600D01*
X5208564Y1203116D01*
Y925957D01*
X5208879Y919539D01*
X5209822Y913183D01*
X5211384Y906949D01*
X5213548Y900899D01*
X5216296Y895090D01*
X5219599Y889579D01*
X5223427Y884418D01*
X5227742Y879656D01*
X5391199Y716199D01*
X5395961Y711884D01*
X5401122Y708056D01*
X5406633Y704753D01*
X5412442Y702005D01*
X5418492Y699841D01*
X5424725Y698279D01*
X5431082Y697336D01*
X5437500Y697021D01*
X6098222D01*
X6245033Y550210D01*
Y465037D01*
X6242629Y463431D01*
X6235507Y457817D01*
X6228849Y451662D01*
X6222693Y445003D01*
X6217079Y437882D01*
X6212041Y430342D01*
X6207610Y422430D01*
X6203814Y414194D01*
X6200675Y405687D01*
X6198214Y396959D01*
X6196445Y388065D01*
X6195379Y379060D01*
X6195023Y369999D01*
Y329998D01*
X6195379Y320937D01*
X6196445Y311932D01*
X6198214Y303038D01*
X6200675Y294310D01*
X6203814Y285803D01*
X6207610Y277567D01*
X6212041Y269656D01*
X6217079Y262116D01*
X6222693Y254994D01*
X6228849Y248335D01*
X6235507Y242180D01*
X6242629Y236566D01*
X6250169Y231528D01*
X6258081Y227097D01*
X6266316Y223301D01*
X6274824Y220162D01*
X6283551Y217700D01*
X6292445Y215931D01*
X6301450Y214865D01*
X6310512Y214509D01*
X6319573Y214865D01*
X6328578Y215931D01*
X6337472Y217700D01*
X6346200Y220162D01*
X6354707Y223301D01*
X6362943Y227097D01*
X6370854Y231528D01*
X6378394Y236566D01*
X6385516Y242180D01*
X6392175Y248335D01*
X6398330Y254994D01*
X6403944Y262116D01*
X6408982Y269656D01*
X6413413Y277567D01*
X6417209Y285803D01*
X6420348Y294310D01*
X6422810Y303038D01*
X6424579Y311932D01*
X6425645Y320937D01*
X6426001Y329998D01*
Y369999D01*
X6425645Y379060D01*
X6424579Y388065D01*
X6422810Y396959D01*
X6420348Y405687D01*
X6417209Y414194D01*
X6413413Y422430D01*
X6408982Y430342D01*
X6403944Y437882D01*
X6398330Y445003D01*
X6392175Y451662D01*
X6385516Y457817D01*
X6378394Y463431D01*
X6375991Y465037D01*
Y577333D01*
X6375675Y583751D01*
X6374732Y590107D01*
X6373171Y596340D01*
X6371006Y602390D01*
X6368259Y608199D01*
X6364956Y613711D01*
X6361127Y618872D01*
X6356812Y623633D01*
X6171645Y808801D01*
X6166884Y813116D01*
X6161722Y816944D01*
X6156211Y820248D01*
X6150402Y822995D01*
X6144352Y825160D01*
X6138119Y826721D01*
X6131762Y827664D01*
X6125344Y827979D01*
X5464622D01*
X5339522Y953079D01*
Y1008192D01*
X5340611Y1009050D01*
X5352222Y1012829D01*
X5353699Y1011199D01*
X5493699Y871199D01*
X5498460Y866884D01*
X5503622Y863056D01*
X5509133Y859753D01*
X5514942Y857005D01*
X5520992Y854841D01*
X5527225Y853279D01*
X5533582Y852336D01*
X5540000Y852021D01*
X6395378D01*
X6494521Y752878D01*
Y464696D01*
X6492629Y463431D01*
X6485507Y457817D01*
X6478849Y451662D01*
X6472693Y445003D01*
X6467079Y437882D01*
X6462041Y430342D01*
X6457610Y422430D01*
X6453814Y414194D01*
X6450675Y405687D01*
X6448214Y396959D01*
X6446445Y388065D01*
X6445379Y379060D01*
X6445023Y369999D01*
Y329998D01*
X6445379Y320937D01*
X6446445Y311932D01*
X6448214Y303038D01*
X6450675Y294310D01*
X6453814Y285803D01*
X6457610Y277567D01*
X6462041Y269656D01*
X6467079Y262116D01*
X6472693Y254994D01*
X6478849Y248335D01*
X6485507Y242180D01*
X6492629Y236566D01*
X6500169Y231528D01*
X6508081Y227097D01*
X6516316Y223301D01*
X6524824Y220162D01*
X6533551Y217700D01*
X6542445Y215931D01*
X6551450Y214865D01*
X6560512Y214509D01*
X6569573Y214865D01*
X6578578Y215931D01*
X6587472Y217700D01*
X6596200Y220162D01*
X6604707Y223301D01*
X6612943Y227097D01*
X6620854Y231528D01*
X6628394Y236566D01*
X6635516Y242180D01*
X6642175Y248335D01*
X6648330Y254994D01*
X6653944Y262116D01*
X6658982Y269656D01*
X6663413Y277567D01*
X6667209Y285803D01*
X6670348Y294310D01*
X6672810Y303038D01*
X6674579Y311932D01*
X6675645Y320937D01*
X6676001Y329998D01*
Y369999D01*
X6675645Y379060D01*
X6674579Y388065D01*
X6672810Y396959D01*
X6670348Y405687D01*
X6667209Y414194D01*
X6663413Y422430D01*
X6658982Y430342D01*
X6653944Y437882D01*
X6648330Y445003D01*
X6642175Y451662D01*
X6635516Y457817D01*
X6628394Y463431D01*
X6625479Y465379D01*
Y780000D01*
X6625164Y786418D01*
X6624221Y792774D01*
X6622660Y799008D01*
X6620495Y805058D01*
X6617747Y810867D01*
X6614444Y816378D01*
X6610616Y821539D01*
X6606301Y826301D01*
X6468801Y963801D01*
X6464039Y968116D01*
X6458878Y971944D01*
X6453367Y975247D01*
X6447558Y977995D01*
X6441508Y980160D01*
X6435274Y981721D01*
X6428918Y982664D01*
X6422500Y982979D01*
X5567122D01*
X5465479Y1084622D01*
Y1183372D01*
X5477763Y1186285D01*
X5480268Y1178340D01*
X5483456Y1170644D01*
X5487302Y1163255D01*
X5491778Y1156229D01*
X5496850Y1149620D01*
X5502478Y1143478D01*
X5508619Y1137850D01*
X5515228Y1132779D01*
X5522254Y1128303D01*
X5529644Y1124456D01*
X5537340Y1121268D01*
X5545285Y1118763D01*
X5553418Y1116960D01*
X5561677Y1115873D01*
X5570000Y1115509D01*
X5630000D01*
X5638323Y1115873D01*
X5646582Y1116960D01*
X5654715Y1118763D01*
X5662660Y1121268D01*
X5670356Y1124456D01*
X5677746Y1128303D01*
X5684771Y1132779D01*
X5691381Y1137850D01*
X5697522Y1143478D01*
X5703150Y1149620D01*
X5708222Y1156229D01*
X5712698Y1163255D01*
X5716544Y1170644D01*
X5719732Y1178340D01*
X5722237Y1186285D01*
X5724040Y1194418D01*
X5725127Y1202678D01*
X5725491Y1211000D01*
X5725127Y1219323D01*
X5724040Y1227582D01*
X5722237Y1235715D01*
X5719732Y1243660D01*
X5716544Y1251356D01*
X5712698Y1258746D01*
X5708222Y1265771D01*
X5703150Y1272380D01*
X5697522Y1278522D01*
X5691381Y1284150D01*
X5684771Y1289222D01*
X5677746Y1293698D01*
X5670356Y1297544D01*
X5662660Y1300732D01*
X5654715Y1303237D01*
X5646582Y1305040D01*
X5638323Y1306127D01*
X5630000Y1306491D01*
X5570000D01*
X5561677Y1306127D01*
X5553418Y1305040D01*
X5545285Y1303237D01*
X5537340Y1300732D01*
X5529644Y1297544D01*
X5522254Y1293698D01*
X5515228Y1289222D01*
X5508619Y1284150D01*
X5502478Y1278522D01*
X5496850Y1272380D01*
X5491778Y1265771D01*
X5487302Y1258746D01*
X5483456Y1251356D01*
X5480268Y1243660D01*
X5477763Y1235715D01*
X5465479Y1238629D01*
Y1437372D01*
X5477763Y1440285D01*
X5480268Y1432340D01*
X5483456Y1424644D01*
X5487302Y1417255D01*
X5491778Y1410229D01*
X5496850Y1403620D01*
X5502478Y1397478D01*
X5508619Y1391850D01*
X5515228Y1386779D01*
X5522254Y1382303D01*
X5529644Y1378456D01*
X5537340Y1375268D01*
X5545285Y1372763D01*
X5553418Y1370960D01*
X5561677Y1369873D01*
X5570000Y1369509D01*
X5630000D01*
X5638323Y1369873D01*
X5646582Y1370960D01*
X5654715Y1372763D01*
X5662660Y1375268D01*
X5670356Y1378456D01*
X5677746Y1382303D01*
X5684771Y1386779D01*
X5691381Y1391850D01*
X5697522Y1397478D01*
X5703150Y1403620D01*
X5708222Y1410229D01*
X5712698Y1417255D01*
X5716544Y1424644D01*
X5719732Y1432340D01*
X5722237Y1440285D01*
X5724040Y1448418D01*
X5725127Y1456678D01*
X5725491Y1465000D01*
X5725127Y1473323D01*
X5724040Y1481582D01*
X5722237Y1489715D01*
X5719732Y1497660D01*
X5716544Y1505356D01*
X5712698Y1512746D01*
X5708222Y1519771D01*
X5703150Y1526380D01*
X5697522Y1532522D01*
X5691381Y1538150D01*
X5684771Y1543222D01*
X5677746Y1547698D01*
X5670356Y1551544D01*
X5662660Y1554732D01*
X5654715Y1557237D01*
X5646582Y1559040D01*
X5638323Y1560127D01*
X5630000Y1560491D01*
X5570000D01*
X5561677Y1560127D01*
X5553418Y1559040D01*
X5545285Y1557237D01*
X5537340Y1554732D01*
X5529644Y1551544D01*
X5522254Y1547698D01*
X5515228Y1543222D01*
X5508619Y1538150D01*
X5502478Y1532522D01*
X5496850Y1526380D01*
X5491778Y1519771D01*
X5487302Y1512746D01*
X5483456Y1505356D01*
X5480268Y1497660D01*
X5477763Y1489715D01*
X5465479Y1492629D01*
Y1691372D01*
X5477763Y1694285D01*
X5480268Y1686340D01*
X5483456Y1678644D01*
X5487302Y1671255D01*
X5491778Y1664229D01*
X5496850Y1657620D01*
X5502478Y1651478D01*
X5508619Y1645850D01*
X5515228Y1640779D01*
X5522254Y1636303D01*
X5529644Y1632456D01*
X5537340Y1629268D01*
X5545285Y1626763D01*
X5553418Y1624960D01*
X5561677Y1623873D01*
X5570000Y1623509D01*
X5630000D01*
X5638323Y1623873D01*
X5646582Y1624960D01*
X5654715Y1626763D01*
X5662660Y1629268D01*
X5670356Y1632456D01*
X5677746Y1636303D01*
X5684771Y1640779D01*
X5691381Y1645850D01*
X5697522Y1651478D01*
X5703150Y1657620D01*
X5708222Y1664229D01*
X5712698Y1671255D01*
X5716544Y1678644D01*
X5719732Y1686340D01*
X5722237Y1694285D01*
X5724040Y1702418D01*
X5725127Y1710678D01*
X5725491Y1719000D01*
X5725127Y1727323D01*
X5724040Y1735582D01*
X5722237Y1743715D01*
X5719732Y1751660D01*
X5716544Y1759356D01*
X5712698Y1766746D01*
X5708222Y1773771D01*
X5703150Y1780380D01*
X5697522Y1786522D01*
X5691381Y1792150D01*
X5684771Y1797222D01*
X5677746Y1801698D01*
X5670356Y1805544D01*
X5662660Y1808732D01*
X5654715Y1811237D01*
X5646582Y1813040D01*
X5638323Y1814127D01*
X5630000Y1814491D01*
X5570000D01*
X5561677Y1814127D01*
X5553418Y1813040D01*
X5545285Y1811237D01*
X5537340Y1808732D01*
X5529644Y1805544D01*
X5522254Y1801698D01*
X5515228Y1797222D01*
X5508619Y1792150D01*
X5502478Y1786522D01*
X5496850Y1780380D01*
X5491778Y1773771D01*
X5487302Y1766746D01*
X5483456Y1759356D01*
X5480268Y1751660D01*
X5477763Y1743715D01*
X5465479Y1746629D01*
Y1945372D01*
X5477763Y1948285D01*
X5480268Y1940340D01*
X5483456Y1932644D01*
X5487302Y1925255D01*
X5491778Y1918229D01*
X5496850Y1911620D01*
X5502478Y1905478D01*
X5508619Y1899850D01*
X5515228Y1894779D01*
X5522254Y1890303D01*
X5529644Y1886456D01*
X5537340Y1883268D01*
X5545285Y1880763D01*
X5553418Y1878960D01*
X5561677Y1877873D01*
X5570000Y1877509D01*
X5630000D01*
X5638323Y1877873D01*
X5646582Y1878960D01*
X5654715Y1880763D01*
X5662660Y1883268D01*
X5670356Y1886456D01*
X5677746Y1890303D01*
X5684771Y1894779D01*
X5691381Y1899850D01*
X5697522Y1905478D01*
X5703150Y1911620D01*
X5708222Y1918229D01*
X5709045Y1919521D01*
X5725000D01*
X5730652Y1919838D01*
X5736233Y1920786D01*
X5741672Y1922353D01*
X5746902Y1924520D01*
X5751857Y1927258D01*
X5756473Y1930534D01*
X5760694Y1934306D01*
X5860694Y2034306D01*
X5864467Y2038527D01*
X5867742Y2043143D01*
X5870481Y2048098D01*
X5872647Y2053328D01*
X5874214Y2058768D01*
X5875162Y2064348D01*
X5875479Y2070000D01*
Y2505000D01*
X5875162Y2510652D01*
X5874214Y2516233D01*
X5872647Y2521673D01*
X5870481Y2526902D01*
X5867742Y2531857D01*
X5864467Y2536474D01*
X5860694Y2540695D01*
X5755695Y2645694D01*
X5751474Y2649467D01*
X5746857Y2652742D01*
X5741902Y2655481D01*
X5736673Y2657647D01*
X5731233Y2659214D01*
X5725652Y2660162D01*
X5720000Y2660480D01*
X5708335D01*
X5702747Y2673180D01*
X5703150Y2673620D01*
X5708222Y2680229D01*
X5712698Y2687255D01*
X5716544Y2694644D01*
X5719732Y2702340D01*
X5722237Y2710285D01*
X5724040Y2718418D01*
X5725127Y2726678D01*
X5725491Y2735000D01*
X5725127Y2743323D01*
X5724040Y2751582D01*
X5722237Y2759715D01*
X5719732Y2767660D01*
X5716544Y2775356D01*
X5712698Y2782746D01*
X5708222Y2789771D01*
X5703150Y2796380D01*
X5697522Y2802522D01*
X5691381Y2808150D01*
X5684771Y2813222D01*
X5677746Y2817698D01*
X5670356Y2821544D01*
X5662660Y2824732D01*
X5654715Y2827237D01*
X5646582Y2829040D01*
X5638323Y2830127D01*
X5630000Y2830491D01*
D02*
G37*
G36*
X9316800Y1797981D02*
X9276800D01*
X9268524Y1797656D01*
X9260299Y1796682D01*
X9252176Y1795067D01*
X9246535Y1793476D01*
X9296801Y1743210D01*
X9347066Y1793476D01*
X9341424Y1795067D01*
X9333301Y1796682D01*
X9325076Y1797656D01*
X9316800Y1797981D01*
D02*
G37*
G36*
X7462600D02*
X7422600D01*
X7414324Y1797656D01*
X7406099Y1796682D01*
X7397976Y1795067D01*
X7392335Y1793476D01*
X7442601Y1743210D01*
X7492866Y1793476D01*
X7487224Y1795067D01*
X7479101Y1796682D01*
X7470876Y1797656D01*
X7462600Y1797981D01*
D02*
G37*
G36*
X9296801Y1712500D02*
X9276800Y1692500D01*
X9296801Y1672500D01*
X9316801Y1692500D01*
X9296801Y1712500D01*
D02*
G37*
G36*
X7442601D02*
X7422600Y1692500D01*
X7442601Y1672500D01*
X7462601Y1692500D01*
X7442601Y1712500D01*
D02*
G37*
G36*
X9417776Y1722765D02*
X9387511Y1692500D01*
X9417776Y1662235D01*
X9419367Y1667876D01*
X9420983Y1675999D01*
X9421956Y1684224D01*
X9422281Y1692500D01*
X9421956Y1700776D01*
X9420983Y1709001D01*
X9419367Y1717124D01*
X9417776Y1722765D01*
D02*
G37*
G36*
X7563576D02*
X7533311Y1692500D01*
X7563576Y1662235D01*
X7565167Y1667876D01*
X7566783Y1675999D01*
X7567756Y1684224D01*
X7568081Y1692500D01*
X7567756Y1700776D01*
X7566783Y1709001D01*
X7565167Y1717124D01*
X7563576Y1722765D01*
D02*
G37*
G36*
X9175824Y1722765D02*
X9174233Y1717124D01*
X9172617Y1709001D01*
X9171644Y1700776D01*
X9171319Y1692500D01*
X9171644Y1684224D01*
X9172617Y1675999D01*
X9174233Y1667876D01*
X9175824Y1662234D01*
X9206090Y1692500D01*
X9175824Y1722765D01*
D02*
G37*
G36*
X7321624D02*
X7320033Y1717124D01*
X7318417Y1709001D01*
X7317444Y1700776D01*
X7317119Y1692500D01*
X7317444Y1684224D01*
X7318417Y1675999D01*
X7320033Y1667876D01*
X7321624Y1662234D01*
X7351890Y1692500D01*
X7321624Y1722765D01*
D02*
G37*
G36*
X4754400Y1814491D02*
X4694400D01*
X4686077Y1814127D01*
X4677818Y1813040D01*
X4669685Y1811237D01*
X4661740Y1808732D01*
X4654044Y1805544D01*
X4646654Y1801698D01*
X4639629Y1797222D01*
X4633019Y1792150D01*
X4626878Y1786522D01*
X4621250Y1780380D01*
X4616178Y1773771D01*
X4611702Y1766746D01*
X4607856Y1759356D01*
X4604668Y1751660D01*
X4602163Y1743715D01*
X4600360Y1735582D01*
X4599272Y1727323D01*
X4598909Y1719000D01*
X4599272Y1710678D01*
X4600360Y1702418D01*
X4602163Y1694285D01*
X4604668Y1686340D01*
X4607856Y1678644D01*
X4611702Y1671255D01*
X4616178Y1664229D01*
X4621250Y1657620D01*
X4626878Y1651478D01*
X4633019Y1645850D01*
X4639629Y1640779D01*
X4646654Y1636303D01*
X4654044Y1632456D01*
X4661740Y1629268D01*
X4669685Y1626763D01*
X4677818Y1624960D01*
X4686077Y1623873D01*
X4694400Y1623509D01*
X4754400D01*
X4762723Y1623873D01*
X4770982Y1624960D01*
X4779115Y1626763D01*
X4787060Y1629268D01*
X4794756Y1632456D01*
X4802146Y1636303D01*
X4809171Y1640779D01*
X4815781Y1645850D01*
X4821922Y1651478D01*
X4827550Y1657620D01*
X4832622Y1664229D01*
X4837098Y1671255D01*
X4840944Y1678644D01*
X4844132Y1686340D01*
X4846637Y1694285D01*
X4848440Y1702418D01*
X4849528Y1710678D01*
X4849891Y1719000D01*
X4849528Y1727323D01*
X4848440Y1735582D01*
X4846637Y1743715D01*
X4844132Y1751660D01*
X4840944Y1759356D01*
X4837098Y1766746D01*
X4832622Y1773771D01*
X4827550Y1780380D01*
X4821922Y1786522D01*
X4815781Y1792150D01*
X4809171Y1797222D01*
X4802146Y1801698D01*
X4794756Y1805544D01*
X4787060Y1808732D01*
X4779115Y1811237D01*
X4770982Y1813040D01*
X4762723Y1814127D01*
X4754400Y1814491D01*
D02*
G37*
G36*
X9296801Y1641790D02*
X9246535Y1591524D01*
X9252176Y1589933D01*
X9260299Y1588318D01*
X9268524Y1587344D01*
X9276800Y1587019D01*
X9316800D01*
X9325076Y1587344D01*
X9333301Y1588318D01*
X9341424Y1589933D01*
X9347066Y1591524D01*
X9296801Y1641790D01*
D02*
G37*
G36*
X7442601D02*
X7392335Y1591524D01*
X7397976Y1589933D01*
X7406099Y1588318D01*
X7414324Y1587344D01*
X7422600Y1587019D01*
X7462600D01*
X7470876Y1587344D01*
X7479101Y1588318D01*
X7487224Y1589933D01*
X7492866Y1591524D01*
X7442601Y1641790D01*
D02*
G37*
G36*
X9316800Y1543981D02*
X9276800D01*
X9268524Y1543656D01*
X9260299Y1542682D01*
X9252176Y1541067D01*
X9246535Y1539476D01*
X9296801Y1489210D01*
X9347066Y1539476D01*
X9341424Y1541067D01*
X9333301Y1542682D01*
X9325076Y1543656D01*
X9316800Y1543981D01*
D02*
G37*
G36*
X7462600D02*
X7422600D01*
X7414324Y1543656D01*
X7406099Y1542682D01*
X7397976Y1541067D01*
X7392335Y1539476D01*
X7442601Y1489210D01*
X7492866Y1539476D01*
X7487224Y1541067D01*
X7479101Y1542682D01*
X7470876Y1543656D01*
X7462600Y1543981D01*
D02*
G37*
G36*
X1803400Y2987491D02*
X1795077Y2987128D01*
X1786818Y2986041D01*
X1778685Y2984237D01*
X1770740Y2981732D01*
X1763044Y2978544D01*
X1755655Y2974698D01*
X1748629Y2970222D01*
X1742020Y2965151D01*
X1735878Y2959522D01*
X1730250Y2953381D01*
X1725178Y2946772D01*
X1720702Y2939746D01*
X1716856Y2932356D01*
X1713668Y2924660D01*
X1711163Y2916715D01*
X1709360Y2908582D01*
X1708273Y2900323D01*
X1707909Y2892000D01*
Y2832000D01*
X1708273Y2823677D01*
X1709360Y2815418D01*
X1711163Y2807285D01*
X1713668Y2799340D01*
X1716856Y2791644D01*
X1720702Y2784255D01*
X1725178Y2777229D01*
X1730250Y2770620D01*
X1735878Y2764478D01*
X1742020Y2758850D01*
X1748629Y2753778D01*
X1752921Y2751044D01*
Y1924309D01*
X1674091Y1845479D01*
X1020000D01*
X1014348Y1845162D01*
X1008767Y1844214D01*
X1003328Y1842647D01*
X998098Y1840480D01*
X993143Y1837742D01*
X988527Y1834466D01*
X984306Y1830694D01*
X879306Y1725694D01*
X875533Y1721473D01*
X872258Y1716857D01*
X869519Y1711902D01*
X867353Y1706672D01*
X865786Y1701233D01*
X864838Y1695652D01*
X864520Y1690000D01*
Y1443846D01*
X862344Y1441959D01*
X851820Y1438365D01*
X848780Y1441151D01*
X842171Y1446222D01*
X835145Y1450698D01*
X827756Y1454544D01*
X820060Y1457732D01*
X812115Y1460237D01*
X803982Y1462041D01*
X795723Y1463128D01*
X787400Y1463491D01*
X779077Y1463128D01*
X770818Y1462041D01*
X762685Y1460237D01*
X754740Y1457732D01*
X747044Y1454544D01*
X739655Y1450698D01*
X732629Y1446222D01*
X726020Y1441151D01*
X719878Y1435522D01*
X714250Y1429381D01*
X709178Y1422772D01*
X704702Y1415746D01*
X700856Y1408356D01*
X697668Y1400660D01*
X695163Y1392715D01*
X693360Y1384582D01*
X692273Y1376323D01*
X691909Y1368000D01*
Y1308000D01*
X692273Y1299677D01*
X693360Y1291418D01*
X695163Y1283285D01*
X697668Y1275340D01*
X700856Y1267644D01*
X704702Y1260255D01*
X709178Y1253229D01*
X714250Y1246620D01*
X719878Y1240478D01*
X726020Y1234850D01*
X732629Y1229778D01*
X739655Y1225302D01*
X747044Y1221456D01*
X754740Y1218268D01*
X762685Y1215763D01*
X770818Y1213960D01*
X779077Y1212873D01*
X787400Y1212509D01*
X795723Y1212873D01*
X803982Y1213960D01*
X812115Y1215763D01*
X820060Y1218268D01*
X827756Y1221456D01*
X835145Y1225302D01*
X842171Y1229778D01*
X848780Y1234850D01*
X851820Y1237636D01*
X862344Y1234041D01*
X864520Y1232154D01*
Y445000D01*
X864838Y439348D01*
X865786Y433767D01*
X867353Y428328D01*
X869519Y423098D01*
X872258Y418143D01*
X875533Y413527D01*
X879306Y409306D01*
X974306Y314306D01*
X978527Y310534D01*
X983143Y307258D01*
X988098Y304520D01*
X993327Y302353D01*
X994700Y301958D01*
Y214599D01*
X1225499D01*
Y485399D01*
X994700D01*
Y453283D01*
X982967Y448422D01*
X965479Y465909D01*
Y1230948D01*
X978179Y1236536D01*
X980020Y1234850D01*
X986629Y1229778D01*
X993655Y1225302D01*
X1001044Y1221456D01*
X1008740Y1218268D01*
X1016685Y1215763D01*
X1024818Y1213960D01*
X1033077Y1212873D01*
X1041400Y1212509D01*
X1049723Y1212873D01*
X1057982Y1213960D01*
X1066115Y1215763D01*
X1074060Y1218268D01*
X1081756Y1221456D01*
X1089145Y1225302D01*
X1096171Y1229778D01*
X1102780Y1234850D01*
X1108922Y1240478D01*
X1114550Y1246620D01*
X1119622Y1253229D01*
X1124098Y1260255D01*
X1127944Y1267644D01*
X1131132Y1275340D01*
X1133637Y1283285D01*
X1135440Y1291418D01*
X1136527Y1299677D01*
X1136891Y1308000D01*
Y1368000D01*
X1136527Y1376323D01*
X1135440Y1384582D01*
X1133637Y1392715D01*
X1131132Y1400660D01*
X1127944Y1408356D01*
X1124098Y1415746D01*
X1119622Y1422772D01*
X1114550Y1429381D01*
X1108922Y1435522D01*
X1102780Y1441151D01*
X1096171Y1446222D01*
X1089145Y1450698D01*
X1081756Y1454544D01*
X1074060Y1457732D01*
X1066115Y1460237D01*
X1057982Y1462041D01*
X1049723Y1463128D01*
X1041400Y1463491D01*
X1033077Y1463128D01*
X1024818Y1462041D01*
X1016685Y1460237D01*
X1008740Y1457732D01*
X1001044Y1454544D01*
X993655Y1450698D01*
X986629Y1446222D01*
X980020Y1441151D01*
X978179Y1439464D01*
X965479Y1445052D01*
Y1669091D01*
X1040909Y1744521D01*
X1695000D01*
X1700652Y1744838D01*
X1706233Y1745786D01*
X1711672Y1747353D01*
X1716902Y1749519D01*
X1721857Y1752258D01*
X1726474Y1755533D01*
X1730695Y1759306D01*
X1839094Y1867705D01*
X1842867Y1871926D01*
X1846142Y1876543D01*
X1848880Y1881498D01*
X1851047Y1886727D01*
X1852614Y1892167D01*
X1853562Y1897748D01*
X1853879Y1903400D01*
Y2751044D01*
X1858171Y2753778D01*
X1864780Y2758850D01*
X1870922Y2764478D01*
X1876550Y2770620D01*
X1881622Y2777229D01*
X1886098Y2784255D01*
X1889944Y2791644D01*
X1893132Y2799340D01*
X1895637Y2807285D01*
X1897440Y2815418D01*
X1898527Y2823677D01*
X1898891Y2832000D01*
Y2892000D01*
X1898527Y2900323D01*
X1897440Y2908582D01*
X1895637Y2916715D01*
X1893132Y2924660D01*
X1889944Y2932356D01*
X1886098Y2939746D01*
X1881622Y2946772D01*
X1876550Y2953381D01*
X1870922Y2959522D01*
X1864780Y2965151D01*
X1858171Y2970222D01*
X1851145Y2974698D01*
X1843756Y2978544D01*
X1836060Y2981732D01*
X1828115Y2984237D01*
X1819982Y2986041D01*
X1811723Y2987128D01*
X1803400Y2987491D01*
D02*
G37*
G36*
X9296801Y1458500D02*
X9276800Y1438500D01*
X9296801Y1418500D01*
X9316801Y1438500D01*
X9296801Y1458500D01*
D02*
G37*
G36*
X7442601D02*
X7422600Y1438500D01*
X7442601Y1418500D01*
X7462601Y1438500D01*
X7442601Y1458500D01*
D02*
G37*
G36*
X9417776Y1468765D02*
X9387511Y1438500D01*
X9417776Y1408235D01*
X9419367Y1413876D01*
X9420983Y1421999D01*
X9421956Y1430224D01*
X9422281Y1438500D01*
X9421956Y1446776D01*
X9420983Y1455001D01*
X9419367Y1463124D01*
X9417776Y1468765D01*
D02*
G37*
G36*
X7563576D02*
X7533311Y1438500D01*
X7563576Y1408235D01*
X7565167Y1413876D01*
X7566783Y1421999D01*
X7567756Y1430224D01*
X7568081Y1438500D01*
X7567756Y1446776D01*
X7566783Y1455001D01*
X7565167Y1463124D01*
X7563576Y1468765D01*
D02*
G37*
G36*
X9175824Y1468765D02*
X9174233Y1463124D01*
X9172617Y1455001D01*
X9171644Y1446776D01*
X9171319Y1438500D01*
X9171644Y1430224D01*
X9172617Y1421999D01*
X9174233Y1413876D01*
X9175824Y1408234D01*
X9206090Y1438500D01*
X9175824Y1468765D01*
D02*
G37*
G36*
X7321624D02*
X7320033Y1463124D01*
X7318417Y1455001D01*
X7317444Y1446776D01*
X7317119Y1438500D01*
X7317444Y1430224D01*
X7318417Y1421999D01*
X7320033Y1413876D01*
X7321624Y1408234D01*
X7351890Y1438500D01*
X7321624Y1468765D01*
D02*
G37*
G36*
X4851400Y1463491D02*
X4843077Y1463128D01*
X4834818Y1462041D01*
X4826685Y1460237D01*
X4818740Y1457732D01*
X4811044Y1454544D01*
X4804292Y1451030D01*
X4851400Y1403921D01*
X4898509Y1451029D01*
X4891756Y1454544D01*
X4884060Y1457732D01*
X4876115Y1460237D01*
X4867982Y1462041D01*
X4859723Y1463128D01*
X4851400Y1463491D01*
D02*
G37*
G36*
X9296801Y1387790D02*
X9246535Y1337524D01*
X9252176Y1335933D01*
X9260299Y1334318D01*
X9268524Y1333344D01*
X9276800Y1333019D01*
X9316800D01*
X9325076Y1333344D01*
X9333301Y1334318D01*
X9341424Y1335933D01*
X9347066Y1337524D01*
X9296801Y1387790D01*
D02*
G37*
G36*
X7442601D02*
X7392335Y1337524D01*
X7397976Y1335933D01*
X7406099Y1334318D01*
X7414324Y1333344D01*
X7422600Y1333019D01*
X7462600D01*
X7470876Y1333344D01*
X7479101Y1334318D01*
X7487224Y1335933D01*
X7492866Y1337524D01*
X7442601Y1387790D01*
D02*
G37*
G36*
X4768371Y1415108D02*
X4764856Y1408356D01*
X4761668Y1400660D01*
X4759163Y1392715D01*
X4757360Y1384582D01*
X4756273Y1376323D01*
X4755909Y1368000D01*
Y1308000D01*
X4756273Y1299677D01*
X4757360Y1291418D01*
X4759163Y1283285D01*
X4761668Y1275340D01*
X4764856Y1267644D01*
X4768371Y1260891D01*
X4833440Y1325960D01*
X4851400Y1308000D01*
X4869361Y1325960D01*
X4934429Y1260892D01*
X4937944Y1267644D01*
X4941132Y1275340D01*
X4943637Y1283285D01*
X4945440Y1291418D01*
X4946527Y1299677D01*
X4946891Y1308000D01*
Y1368000D01*
X4946527Y1376323D01*
X4945440Y1384582D01*
X4943637Y1392715D01*
X4941132Y1400660D01*
X4937944Y1408356D01*
X4934430Y1415108D01*
X4869361Y1350039D01*
X4851400Y1368000D01*
X4833440Y1350039D01*
X4768371Y1415108D01*
D02*
G37*
G36*
X4851400Y1272078D02*
X4804292Y1224970D01*
X4811044Y1221456D01*
X4818740Y1218268D01*
X4826685Y1215763D01*
X4834818Y1213960D01*
X4843077Y1212873D01*
X4851400Y1212509D01*
X4859723Y1212873D01*
X4867982Y1213960D01*
X4876115Y1215763D01*
X4884060Y1218268D01*
X4891756Y1221456D01*
X4898508Y1224971D01*
X4851400Y1272078D01*
D02*
G37*
G36*
X4597400Y1463491D02*
X4589077Y1463128D01*
X4580818Y1462041D01*
X4572685Y1460237D01*
X4564740Y1457732D01*
X4557044Y1454544D01*
X4549655Y1450698D01*
X4542629Y1446222D01*
X4536020Y1441151D01*
X4529878Y1435522D01*
X4524250Y1429381D01*
X4519178Y1422772D01*
X4514702Y1415746D01*
X4510856Y1408356D01*
X4507668Y1400660D01*
X4505163Y1392715D01*
X4503360Y1384582D01*
X4502273Y1376323D01*
X4501909Y1368000D01*
Y1308000D01*
X4502273Y1299677D01*
X4503360Y1291418D01*
X4505163Y1283285D01*
X4507668Y1275340D01*
X4510856Y1267644D01*
X4514702Y1260255D01*
X4519178Y1253229D01*
X4524250Y1246620D01*
X4529878Y1240478D01*
X4536020Y1234850D01*
X4542629Y1229778D01*
X4549655Y1225302D01*
X4557044Y1221456D01*
X4564740Y1218268D01*
X4572685Y1215763D01*
X4580818Y1213960D01*
X4589077Y1212873D01*
X4597400Y1212509D01*
X4605723Y1212873D01*
X4613982Y1213960D01*
X4622115Y1215763D01*
X4630060Y1218268D01*
X4637756Y1221456D01*
X4645145Y1225302D01*
X4652171Y1229778D01*
X4658780Y1234850D01*
X4664922Y1240478D01*
X4670550Y1246620D01*
X4675622Y1253229D01*
X4680098Y1260255D01*
X4683944Y1267644D01*
X4687132Y1275340D01*
X4689637Y1283285D01*
X4691440Y1291418D01*
X4692527Y1299677D01*
X4692891Y1308000D01*
Y1368000D01*
X4692527Y1376323D01*
X4691440Y1384582D01*
X4689637Y1392715D01*
X4687132Y1400660D01*
X4683944Y1408356D01*
X4680098Y1415746D01*
X4675622Y1422772D01*
X4670550Y1429381D01*
X4664922Y1435522D01*
X4658780Y1441151D01*
X4652171Y1446222D01*
X4645145Y1450698D01*
X4637756Y1454544D01*
X4630060Y1457732D01*
X4622115Y1460237D01*
X4613982Y1462041D01*
X4605723Y1463128D01*
X4597400Y1463491D01*
D02*
G37*
G36*
X4343400D02*
X4335077Y1463128D01*
X4326818Y1462041D01*
X4318685Y1460237D01*
X4310740Y1457732D01*
X4303044Y1454544D01*
X4295655Y1450698D01*
X4288629Y1446222D01*
X4282020Y1441151D01*
X4275878Y1435522D01*
X4270250Y1429381D01*
X4265178Y1422772D01*
X4260702Y1415746D01*
X4256856Y1408356D01*
X4253668Y1400660D01*
X4251163Y1392715D01*
X4249360Y1384582D01*
X4248273Y1376323D01*
X4247909Y1368000D01*
Y1308000D01*
X4248273Y1299677D01*
X4249360Y1291418D01*
X4251163Y1283285D01*
X4253668Y1275340D01*
X4256856Y1267644D01*
X4260702Y1260255D01*
X4265178Y1253229D01*
X4270250Y1246620D01*
X4275878Y1240478D01*
X4282020Y1234850D01*
X4288629Y1229778D01*
X4295655Y1225302D01*
X4303044Y1221456D01*
X4310740Y1218268D01*
X4318685Y1215763D01*
X4326818Y1213960D01*
X4335077Y1212873D01*
X4343400Y1212509D01*
X4351723Y1212873D01*
X4359982Y1213960D01*
X4368115Y1215763D01*
X4376060Y1218268D01*
X4383756Y1221456D01*
X4391145Y1225302D01*
X4398171Y1229778D01*
X4404780Y1234850D01*
X4410922Y1240478D01*
X4416550Y1246620D01*
X4421622Y1253229D01*
X4426098Y1260255D01*
X4429944Y1267644D01*
X4433132Y1275340D01*
X4435637Y1283285D01*
X4437440Y1291418D01*
X4438527Y1299677D01*
X4438891Y1308000D01*
Y1368000D01*
X4438527Y1376323D01*
X4437440Y1384582D01*
X4435637Y1392715D01*
X4433132Y1400660D01*
X4429944Y1408356D01*
X4426098Y1415746D01*
X4421622Y1422772D01*
X4416550Y1429381D01*
X4410922Y1435522D01*
X4404780Y1441151D01*
X4398171Y1446222D01*
X4391145Y1450698D01*
X4383756Y1454544D01*
X4376060Y1457732D01*
X4368115Y1460237D01*
X4359982Y1462041D01*
X4351723Y1463128D01*
X4343400Y1463491D01*
D02*
G37*
G36*
X4089400D02*
X4081077Y1463128D01*
X4072818Y1462041D01*
X4064685Y1460237D01*
X4056740Y1457732D01*
X4049044Y1454544D01*
X4041655Y1450698D01*
X4034629Y1446222D01*
X4028020Y1441151D01*
X4021878Y1435522D01*
X4016250Y1429381D01*
X4011178Y1422772D01*
X4006702Y1415746D01*
X4002856Y1408356D01*
X3999668Y1400660D01*
X3997163Y1392715D01*
X3995360Y1384582D01*
X3994273Y1376323D01*
X3993909Y1368000D01*
Y1308000D01*
X3994273Y1299677D01*
X3995360Y1291418D01*
X3997163Y1283285D01*
X3999668Y1275340D01*
X4002856Y1267644D01*
X4006702Y1260255D01*
X4011178Y1253229D01*
X4016250Y1246620D01*
X4021878Y1240478D01*
X4028020Y1234850D01*
X4034629Y1229778D01*
X4041655Y1225302D01*
X4049044Y1221456D01*
X4056740Y1218268D01*
X4064685Y1215763D01*
X4072818Y1213960D01*
X4081077Y1212873D01*
X4089400Y1212509D01*
X4097723Y1212873D01*
X4105982Y1213960D01*
X4114115Y1215763D01*
X4122060Y1218268D01*
X4129756Y1221456D01*
X4137145Y1225302D01*
X4144171Y1229778D01*
X4150780Y1234850D01*
X4156922Y1240478D01*
X4162550Y1246620D01*
X4167622Y1253229D01*
X4172098Y1260255D01*
X4175944Y1267644D01*
X4179132Y1275340D01*
X4181637Y1283285D01*
X4183440Y1291418D01*
X4184527Y1299677D01*
X4184891Y1308000D01*
Y1368000D01*
X4184527Y1376323D01*
X4183440Y1384582D01*
X4181637Y1392715D01*
X4179132Y1400660D01*
X4175944Y1408356D01*
X4172098Y1415746D01*
X4167622Y1422772D01*
X4162550Y1429381D01*
X4156922Y1435522D01*
X4150780Y1441151D01*
X4144171Y1446222D01*
X4137145Y1450698D01*
X4129756Y1454544D01*
X4122060Y1457732D01*
X4114115Y1460237D01*
X4105982Y1462041D01*
X4097723Y1463128D01*
X4089400Y1463491D01*
D02*
G37*
G36*
X3073400D02*
X3065077Y1463128D01*
X3056818Y1462041D01*
X3048685Y1460237D01*
X3040740Y1457732D01*
X3033044Y1454544D01*
X3025655Y1450698D01*
X3018629Y1446222D01*
X3012020Y1441151D01*
X3005878Y1435522D01*
X3000250Y1429381D01*
X2995178Y1422772D01*
X2990702Y1415746D01*
X2986856Y1408356D01*
X2983668Y1400660D01*
X2981163Y1392715D01*
X2979360Y1384582D01*
X2978273Y1376323D01*
X2977909Y1368000D01*
Y1308000D01*
X2978273Y1299677D01*
X2979360Y1291418D01*
X2981163Y1283285D01*
X2983668Y1275340D01*
X2986856Y1267644D01*
X2990702Y1260255D01*
X2995178Y1253229D01*
X3000250Y1246620D01*
X3005878Y1240478D01*
X3012020Y1234850D01*
X3018629Y1229778D01*
X3025655Y1225302D01*
X3033044Y1221456D01*
X3040740Y1218268D01*
X3048685Y1215763D01*
X3056818Y1213960D01*
X3065077Y1212873D01*
X3073400Y1212509D01*
X3081723Y1212873D01*
X3089982Y1213960D01*
X3098115Y1215763D01*
X3106060Y1218268D01*
X3113756Y1221456D01*
X3121145Y1225302D01*
X3128171Y1229778D01*
X3134780Y1234850D01*
X3140922Y1240478D01*
X3146550Y1246620D01*
X3151622Y1253229D01*
X3156098Y1260255D01*
X3159944Y1267644D01*
X3163132Y1275340D01*
X3165637Y1283285D01*
X3167440Y1291418D01*
X3168527Y1299677D01*
X3168891Y1308000D01*
Y1368000D01*
X3168527Y1376323D01*
X3167440Y1384582D01*
X3165637Y1392715D01*
X3163132Y1400660D01*
X3159944Y1408356D01*
X3156098Y1415746D01*
X3151622Y1422772D01*
X3146550Y1429381D01*
X3140922Y1435522D01*
X3134780Y1441151D01*
X3128171Y1446222D01*
X3121145Y1450698D01*
X3113756Y1454544D01*
X3106060Y1457732D01*
X3098115Y1460237D01*
X3089982Y1462041D01*
X3081723Y1463128D01*
X3073400Y1463491D01*
D02*
G37*
G36*
X2819400D02*
X2811077Y1463128D01*
X2802818Y1462041D01*
X2794685Y1460237D01*
X2786740Y1457732D01*
X2779044Y1454544D01*
X2771655Y1450698D01*
X2764629Y1446222D01*
X2758020Y1441151D01*
X2751878Y1435522D01*
X2746250Y1429381D01*
X2741178Y1422772D01*
X2736702Y1415746D01*
X2732856Y1408356D01*
X2729668Y1400660D01*
X2727163Y1392715D01*
X2725360Y1384582D01*
X2724273Y1376323D01*
X2723909Y1368000D01*
Y1308000D01*
X2724273Y1299677D01*
X2725360Y1291418D01*
X2727163Y1283285D01*
X2729668Y1275340D01*
X2732856Y1267644D01*
X2736702Y1260255D01*
X2741178Y1253229D01*
X2746250Y1246620D01*
X2751878Y1240478D01*
X2758020Y1234850D01*
X2764629Y1229778D01*
X2771655Y1225302D01*
X2779044Y1221456D01*
X2786740Y1218268D01*
X2794685Y1215763D01*
X2802818Y1213960D01*
X2811077Y1212873D01*
X2819400Y1212509D01*
X2827723Y1212873D01*
X2835982Y1213960D01*
X2844115Y1215763D01*
X2852060Y1218268D01*
X2859756Y1221456D01*
X2867145Y1225302D01*
X2874171Y1229778D01*
X2880780Y1234850D01*
X2886922Y1240478D01*
X2892550Y1246620D01*
X2897622Y1253229D01*
X2902098Y1260255D01*
X2905944Y1267644D01*
X2909132Y1275340D01*
X2911637Y1283285D01*
X2913440Y1291418D01*
X2914527Y1299677D01*
X2914891Y1308000D01*
Y1368000D01*
X2914527Y1376323D01*
X2913440Y1384582D01*
X2911637Y1392715D01*
X2909132Y1400660D01*
X2905944Y1408356D01*
X2902098Y1415746D01*
X2897622Y1422772D01*
X2892550Y1429381D01*
X2886922Y1435522D01*
X2880780Y1441151D01*
X2874171Y1446222D01*
X2867145Y1450698D01*
X2859756Y1454544D01*
X2852060Y1457732D01*
X2844115Y1460237D01*
X2835982Y1462041D01*
X2827723Y1463128D01*
X2819400Y1463491D01*
D02*
G37*
G36*
X2565400D02*
X2557077Y1463128D01*
X2548818Y1462041D01*
X2540685Y1460237D01*
X2532740Y1457732D01*
X2525044Y1454544D01*
X2517655Y1450698D01*
X2510629Y1446222D01*
X2504020Y1441151D01*
X2497878Y1435522D01*
X2492250Y1429381D01*
X2487178Y1422772D01*
X2482702Y1415746D01*
X2478856Y1408356D01*
X2475668Y1400660D01*
X2473163Y1392715D01*
X2471360Y1384582D01*
X2470273Y1376323D01*
X2469909Y1368000D01*
Y1308000D01*
X2470273Y1299677D01*
X2471360Y1291418D01*
X2473163Y1283285D01*
X2475668Y1275340D01*
X2478856Y1267644D01*
X2482702Y1260255D01*
X2487178Y1253229D01*
X2492250Y1246620D01*
X2497878Y1240478D01*
X2504020Y1234850D01*
X2510629Y1229778D01*
X2517655Y1225302D01*
X2525044Y1221456D01*
X2532740Y1218268D01*
X2540685Y1215763D01*
X2548818Y1213960D01*
X2557077Y1212873D01*
X2565400Y1212509D01*
X2573723Y1212873D01*
X2581982Y1213960D01*
X2590115Y1215763D01*
X2598060Y1218268D01*
X2605756Y1221456D01*
X2613145Y1225302D01*
X2620171Y1229778D01*
X2626780Y1234850D01*
X2632922Y1240478D01*
X2638550Y1246620D01*
X2643622Y1253229D01*
X2648098Y1260255D01*
X2651944Y1267644D01*
X2655132Y1275340D01*
X2657637Y1283285D01*
X2659440Y1291418D01*
X2660527Y1299677D01*
X2660891Y1308000D01*
Y1368000D01*
X2660527Y1376323D01*
X2659440Y1384582D01*
X2657637Y1392715D01*
X2655132Y1400660D01*
X2651944Y1408356D01*
X2648098Y1415746D01*
X2643622Y1422772D01*
X2638550Y1429381D01*
X2632922Y1435522D01*
X2626780Y1441151D01*
X2620171Y1446222D01*
X2613145Y1450698D01*
X2605756Y1454544D01*
X2598060Y1457732D01*
X2590115Y1460237D01*
X2581982Y1462041D01*
X2573723Y1463128D01*
X2565400Y1463491D01*
D02*
G37*
G36*
X2311400D02*
X2303077Y1463128D01*
X2294818Y1462041D01*
X2286685Y1460237D01*
X2278740Y1457732D01*
X2271044Y1454544D01*
X2263655Y1450698D01*
X2256629Y1446222D01*
X2250020Y1441151D01*
X2243878Y1435522D01*
X2238250Y1429381D01*
X2233178Y1422772D01*
X2228702Y1415746D01*
X2224856Y1408356D01*
X2221668Y1400660D01*
X2219163Y1392715D01*
X2217360Y1384582D01*
X2216273Y1376323D01*
X2215909Y1368000D01*
Y1308000D01*
X2216273Y1299677D01*
X2217360Y1291418D01*
X2219163Y1283285D01*
X2221668Y1275340D01*
X2224856Y1267644D01*
X2228702Y1260255D01*
X2233178Y1253229D01*
X2238250Y1246620D01*
X2243878Y1240478D01*
X2250020Y1234850D01*
X2256629Y1229778D01*
X2263655Y1225302D01*
X2271044Y1221456D01*
X2278740Y1218268D01*
X2286685Y1215763D01*
X2294818Y1213960D01*
X2303077Y1212873D01*
X2311400Y1212509D01*
X2319723Y1212873D01*
X2327982Y1213960D01*
X2336115Y1215763D01*
X2344060Y1218268D01*
X2351756Y1221456D01*
X2359145Y1225302D01*
X2366171Y1229778D01*
X2372780Y1234850D01*
X2378922Y1240478D01*
X2384550Y1246620D01*
X2389622Y1253229D01*
X2394098Y1260255D01*
X2397944Y1267644D01*
X2401132Y1275340D01*
X2403637Y1283285D01*
X2405440Y1291418D01*
X2406527Y1299677D01*
X2406891Y1308000D01*
Y1368000D01*
X2406527Y1376323D01*
X2405440Y1384582D01*
X2403637Y1392715D01*
X2401132Y1400660D01*
X2397944Y1408356D01*
X2394098Y1415746D01*
X2389622Y1422772D01*
X2384550Y1429381D01*
X2378922Y1435522D01*
X2372780Y1441151D01*
X2366171Y1446222D01*
X2359145Y1450698D01*
X2351756Y1454544D01*
X2344060Y1457732D01*
X2336115Y1460237D01*
X2327982Y1462041D01*
X2319723Y1463128D01*
X2311400Y1463491D01*
D02*
G37*
G36*
X2057400D02*
X2049077Y1463128D01*
X2040818Y1462041D01*
X2032685Y1460237D01*
X2024740Y1457732D01*
X2017044Y1454544D01*
X2009655Y1450698D01*
X2002629Y1446222D01*
X1996020Y1441151D01*
X1989878Y1435522D01*
X1984250Y1429381D01*
X1979178Y1422772D01*
X1974702Y1415746D01*
X1970856Y1408356D01*
X1967668Y1400660D01*
X1965163Y1392715D01*
X1963360Y1384582D01*
X1962273Y1376323D01*
X1961909Y1368000D01*
Y1308000D01*
X1962273Y1299677D01*
X1963360Y1291418D01*
X1965163Y1283285D01*
X1967668Y1275340D01*
X1970856Y1267644D01*
X1974702Y1260255D01*
X1979178Y1253229D01*
X1984250Y1246620D01*
X1989878Y1240478D01*
X1996020Y1234850D01*
X2002629Y1229778D01*
X2009655Y1225302D01*
X2017044Y1221456D01*
X2024740Y1218268D01*
X2032685Y1215763D01*
X2040818Y1213960D01*
X2049077Y1212873D01*
X2057400Y1212509D01*
X2065723Y1212873D01*
X2073982Y1213960D01*
X2082115Y1215763D01*
X2090060Y1218268D01*
X2097756Y1221456D01*
X2105145Y1225302D01*
X2112171Y1229778D01*
X2118780Y1234850D01*
X2124922Y1240478D01*
X2130550Y1246620D01*
X2135622Y1253229D01*
X2140098Y1260255D01*
X2143944Y1267644D01*
X2147132Y1275340D01*
X2149637Y1283285D01*
X2151440Y1291418D01*
X2152527Y1299677D01*
X2152891Y1308000D01*
Y1368000D01*
X2152527Y1376323D01*
X2151440Y1384582D01*
X2149637Y1392715D01*
X2147132Y1400660D01*
X2143944Y1408356D01*
X2140098Y1415746D01*
X2135622Y1422772D01*
X2130550Y1429381D01*
X2124922Y1435522D01*
X2118780Y1441151D01*
X2112171Y1446222D01*
X2105145Y1450698D01*
X2097756Y1454544D01*
X2090060Y1457732D01*
X2082115Y1460237D01*
X2073982Y1462041D01*
X2065723Y1463128D01*
X2057400Y1463491D01*
D02*
G37*
G36*
X1803400D02*
X1795077Y1463128D01*
X1786818Y1462041D01*
X1778685Y1460237D01*
X1770740Y1457732D01*
X1763044Y1454544D01*
X1755655Y1450698D01*
X1748629Y1446222D01*
X1742020Y1441151D01*
X1735878Y1435522D01*
X1730250Y1429381D01*
X1725178Y1422772D01*
X1720702Y1415746D01*
X1716856Y1408356D01*
X1713668Y1400660D01*
X1711163Y1392715D01*
X1709360Y1384582D01*
X1708273Y1376323D01*
X1707909Y1368000D01*
Y1308000D01*
X1708273Y1299677D01*
X1709360Y1291418D01*
X1711163Y1283285D01*
X1713668Y1275340D01*
X1716856Y1267644D01*
X1720702Y1260255D01*
X1725178Y1253229D01*
X1730250Y1246620D01*
X1735878Y1240478D01*
X1742020Y1234850D01*
X1748629Y1229778D01*
X1755655Y1225302D01*
X1763044Y1221456D01*
X1770740Y1218268D01*
X1778685Y1215763D01*
X1786818Y1213960D01*
X1795077Y1212873D01*
X1803400Y1212509D01*
X1811723Y1212873D01*
X1819982Y1213960D01*
X1828115Y1215763D01*
X1836060Y1218268D01*
X1843756Y1221456D01*
X1851145Y1225302D01*
X1858171Y1229778D01*
X1864780Y1234850D01*
X1870922Y1240478D01*
X1876550Y1246620D01*
X1881622Y1253229D01*
X1886098Y1260255D01*
X1889944Y1267644D01*
X1893132Y1275340D01*
X1895637Y1283285D01*
X1897440Y1291418D01*
X1898527Y1299677D01*
X1898891Y1308000D01*
Y1368000D01*
X1898527Y1376323D01*
X1897440Y1384582D01*
X1895637Y1392715D01*
X1893132Y1400660D01*
X1889944Y1408356D01*
X1886098Y1415746D01*
X1881622Y1422772D01*
X1876550Y1429381D01*
X1870922Y1435522D01*
X1864780Y1441151D01*
X1858171Y1446222D01*
X1851145Y1450698D01*
X1843756Y1454544D01*
X1836060Y1457732D01*
X1828115Y1460237D01*
X1819982Y1462041D01*
X1811723Y1463128D01*
X1803400Y1463491D01*
D02*
G37*
G36*
X1549400D02*
X1541077Y1463128D01*
X1532818Y1462041D01*
X1524685Y1460237D01*
X1516740Y1457732D01*
X1509044Y1454544D01*
X1501655Y1450698D01*
X1494629Y1446222D01*
X1488020Y1441151D01*
X1481878Y1435522D01*
X1476250Y1429381D01*
X1471178Y1422772D01*
X1466702Y1415746D01*
X1462856Y1408356D01*
X1459668Y1400660D01*
X1457163Y1392715D01*
X1455360Y1384582D01*
X1454273Y1376323D01*
X1453909Y1368000D01*
Y1308000D01*
X1454273Y1299677D01*
X1455360Y1291418D01*
X1457163Y1283285D01*
X1459668Y1275340D01*
X1462856Y1267644D01*
X1466702Y1260255D01*
X1471178Y1253229D01*
X1476250Y1246620D01*
X1481878Y1240478D01*
X1488020Y1234850D01*
X1494629Y1229778D01*
X1501655Y1225302D01*
X1509044Y1221456D01*
X1516740Y1218268D01*
X1524685Y1215763D01*
X1532818Y1213960D01*
X1541077Y1212873D01*
X1549400Y1212509D01*
X1557723Y1212873D01*
X1565982Y1213960D01*
X1574115Y1215763D01*
X1582060Y1218268D01*
X1589756Y1221456D01*
X1597145Y1225302D01*
X1604171Y1229778D01*
X1610780Y1234850D01*
X1616922Y1240478D01*
X1622550Y1246620D01*
X1627622Y1253229D01*
X1632098Y1260255D01*
X1635944Y1267644D01*
X1639132Y1275340D01*
X1641637Y1283285D01*
X1643440Y1291418D01*
X1644527Y1299677D01*
X1644891Y1308000D01*
Y1368000D01*
X1644527Y1376323D01*
X1643440Y1384582D01*
X1641637Y1392715D01*
X1639132Y1400660D01*
X1635944Y1408356D01*
X1632098Y1415746D01*
X1627622Y1422772D01*
X1622550Y1429381D01*
X1616922Y1435522D01*
X1610780Y1441151D01*
X1604171Y1446222D01*
X1597145Y1450698D01*
X1589756Y1454544D01*
X1582060Y1457732D01*
X1574115Y1460237D01*
X1565982Y1462041D01*
X1557723Y1463128D01*
X1549400Y1463491D01*
D02*
G37*
G36*
X1295400D02*
X1287077Y1463128D01*
X1278818Y1462041D01*
X1270685Y1460237D01*
X1262740Y1457732D01*
X1255044Y1454544D01*
X1247655Y1450698D01*
X1240629Y1446222D01*
X1234020Y1441151D01*
X1227878Y1435522D01*
X1222250Y1429381D01*
X1217178Y1422772D01*
X1212702Y1415746D01*
X1208856Y1408356D01*
X1205668Y1400660D01*
X1203163Y1392715D01*
X1201360Y1384582D01*
X1200273Y1376323D01*
X1199909Y1368000D01*
Y1308000D01*
X1200273Y1299677D01*
X1201360Y1291418D01*
X1203163Y1283285D01*
X1205668Y1275340D01*
X1208856Y1267644D01*
X1212702Y1260255D01*
X1217178Y1253229D01*
X1222250Y1246620D01*
X1227878Y1240478D01*
X1234020Y1234850D01*
X1240629Y1229778D01*
X1247655Y1225302D01*
X1255044Y1221456D01*
X1262740Y1218268D01*
X1270685Y1215763D01*
X1278818Y1213960D01*
X1287077Y1212873D01*
X1295400Y1212509D01*
X1303723Y1212873D01*
X1311982Y1213960D01*
X1320115Y1215763D01*
X1328060Y1218268D01*
X1335756Y1221456D01*
X1343145Y1225302D01*
X1350171Y1229778D01*
X1356780Y1234850D01*
X1362922Y1240478D01*
X1368550Y1246620D01*
X1373622Y1253229D01*
X1378098Y1260255D01*
X1381944Y1267644D01*
X1385132Y1275340D01*
X1387637Y1283285D01*
X1389440Y1291418D01*
X1390527Y1299677D01*
X1390891Y1308000D01*
Y1368000D01*
X1390527Y1376323D01*
X1389440Y1384582D01*
X1387637Y1392715D01*
X1385132Y1400660D01*
X1381944Y1408356D01*
X1378098Y1415746D01*
X1373622Y1422772D01*
X1368550Y1429381D01*
X1362922Y1435522D01*
X1356780Y1441151D01*
X1350171Y1446222D01*
X1343145Y1450698D01*
X1335756Y1454544D01*
X1328060Y1457732D01*
X1320115Y1460237D01*
X1311982Y1462041D01*
X1303723Y1463128D01*
X1295400Y1463491D01*
D02*
G37*
G36*
X533400D02*
X525077Y1463128D01*
X516818Y1462041D01*
X508685Y1460237D01*
X500740Y1457732D01*
X493044Y1454544D01*
X485655Y1450698D01*
X478629Y1446222D01*
X472020Y1441151D01*
X465878Y1435522D01*
X460250Y1429381D01*
X455178Y1422772D01*
X450702Y1415746D01*
X446856Y1408356D01*
X443668Y1400660D01*
X441163Y1392715D01*
X439360Y1384582D01*
X438273Y1376323D01*
X437909Y1368000D01*
Y1308000D01*
X438273Y1299677D01*
X439360Y1291418D01*
X441163Y1283285D01*
X443668Y1275340D01*
X446856Y1267644D01*
X450702Y1260255D01*
X455178Y1253229D01*
X460250Y1246620D01*
X465878Y1240478D01*
X472020Y1234850D01*
X478629Y1229778D01*
X485655Y1225302D01*
X493044Y1221456D01*
X500740Y1218268D01*
X508685Y1215763D01*
X516818Y1213960D01*
X525077Y1212873D01*
X533400Y1212509D01*
X541723Y1212873D01*
X549982Y1213960D01*
X558115Y1215763D01*
X566060Y1218268D01*
X573756Y1221456D01*
X581145Y1225302D01*
X588171Y1229778D01*
X594780Y1234850D01*
X600922Y1240478D01*
X606550Y1246620D01*
X611622Y1253229D01*
X616098Y1260255D01*
X619944Y1267644D01*
X623132Y1275340D01*
X625637Y1283285D01*
X627440Y1291418D01*
X628527Y1299677D01*
X628891Y1308000D01*
Y1368000D01*
X628527Y1376323D01*
X627440Y1384582D01*
X625637Y1392715D01*
X623132Y1400660D01*
X619944Y1408356D01*
X616098Y1415746D01*
X611622Y1422772D01*
X606550Y1429381D01*
X600922Y1435522D01*
X594780Y1441151D01*
X588171Y1446222D01*
X581145Y1450698D01*
X573756Y1454544D01*
X566060Y1457732D01*
X558115Y1460237D01*
X549982Y1462041D01*
X541723Y1463128D01*
X533400Y1463491D01*
D02*
G37*
G36*
X279400D02*
X271077Y1463128D01*
X262818Y1462041D01*
X254685Y1460237D01*
X246740Y1457732D01*
X239044Y1454544D01*
X231655Y1450698D01*
X224629Y1446222D01*
X218020Y1441151D01*
X211878Y1435522D01*
X206250Y1429381D01*
X201178Y1422772D01*
X196702Y1415746D01*
X192856Y1408356D01*
X189668Y1400660D01*
X187163Y1392715D01*
X185360Y1384582D01*
X184273Y1376323D01*
X183909Y1368000D01*
Y1308000D01*
X184273Y1299677D01*
X185360Y1291418D01*
X187163Y1283285D01*
X189668Y1275340D01*
X192856Y1267644D01*
X196702Y1260255D01*
X201178Y1253229D01*
X206250Y1246620D01*
X211878Y1240478D01*
X218020Y1234850D01*
X224629Y1229778D01*
X231655Y1225302D01*
X239044Y1221456D01*
X246740Y1218268D01*
X254685Y1215763D01*
X262818Y1213960D01*
X271077Y1212873D01*
X279400Y1212509D01*
X287723Y1212873D01*
X295982Y1213960D01*
X304115Y1215763D01*
X312060Y1218268D01*
X319756Y1221456D01*
X327145Y1225302D01*
X334171Y1229778D01*
X340780Y1234850D01*
X346922Y1240478D01*
X352550Y1246620D01*
X357622Y1253229D01*
X362098Y1260255D01*
X365944Y1267644D01*
X369132Y1275340D01*
X371637Y1283285D01*
X373440Y1291418D01*
X374527Y1299677D01*
X374891Y1308000D01*
Y1368000D01*
X374527Y1376323D01*
X373440Y1384582D01*
X371637Y1392715D01*
X369132Y1400660D01*
X365944Y1408356D01*
X362098Y1415746D01*
X357622Y1422772D01*
X352550Y1429381D01*
X346922Y1435522D01*
X340780Y1441151D01*
X334171Y1446222D01*
X327145Y1450698D01*
X319756Y1454544D01*
X312060Y1457732D01*
X304115Y1460237D01*
X295982Y1462041D01*
X287723Y1463128D01*
X279400Y1463491D01*
D02*
G37*
G36*
X6810512Y485488D02*
X6801450Y485132D01*
X6792445Y484066D01*
X6783551Y482297D01*
X6774824Y479835D01*
X6766316Y476697D01*
X6758081Y472900D01*
X6750169Y468469D01*
X6748847Y467586D01*
X6810513Y405920D01*
X6872178Y467585D01*
X6870854Y468469D01*
X6862943Y472900D01*
X6854707Y476697D01*
X6846200Y479835D01*
X6837472Y482297D01*
X6828578Y484066D01*
X6819573Y485132D01*
X6810512Y485488D01*
D02*
G37*
G36*
X1610100D02*
X1601038Y485132D01*
X1592033Y484066D01*
X1583139Y482297D01*
X1574412Y479835D01*
X1565904Y476697D01*
X1557669Y472900D01*
X1549757Y468469D01*
X1548435Y467586D01*
X1610100Y405920D01*
X1671765Y467586D01*
X1670442Y468469D01*
X1662531Y472900D01*
X1654295Y476697D01*
X1645788Y479835D01*
X1637060Y482297D01*
X1628166Y484066D01*
X1619161Y485132D01*
X1610100Y485488D01*
D02*
G37*
G36*
X3640512D02*
X3631451Y485132D01*
X3622445Y484066D01*
X3613552Y482297D01*
X3604824Y479835D01*
X3596316Y476697D01*
X3588081Y472900D01*
X3580169Y468469D01*
X3578847Y467586D01*
X3640512Y405920D01*
X3702177Y467586D01*
X3700855Y468469D01*
X3692943Y472900D01*
X3684708Y476697D01*
X3676200Y479835D01*
X3667472Y482297D01*
X3658578Y484066D01*
X3649573Y485132D01*
X3640512Y485488D01*
D02*
G37*
G36*
X3738098Y431665D02*
X3658472Y352039D01*
X3640512Y369999D01*
X3622551Y352039D01*
X3542925Y431664D01*
X3542041Y430342D01*
X3537610Y422430D01*
X3533814Y414194D01*
X3530675Y405687D01*
X3528214Y396959D01*
X3526445Y388065D01*
X3525379Y379060D01*
X3525023Y369999D01*
Y329998D01*
X3525379Y320937D01*
X3526445Y311932D01*
X3528214Y303038D01*
X3530675Y294310D01*
X3533814Y285803D01*
X3537610Y277567D01*
X3542041Y269656D01*
X3542925Y268333D01*
X3622551Y347959D01*
X3640512Y329999D01*
X3658472Y347959D01*
X3738099Y268333D01*
X3738982Y269656D01*
X3743413Y277567D01*
X3747210Y285803D01*
X3750348Y294310D01*
X3752810Y303038D01*
X3754579Y311932D01*
X3755645Y320937D01*
X3756001Y329998D01*
Y369999D01*
X3755645Y379060D01*
X3754579Y388065D01*
X3752810Y396959D01*
X3750348Y405687D01*
X3747210Y414194D01*
X3743413Y422430D01*
X3738982Y430342D01*
X3738098Y431665D01*
D02*
G37*
G36*
X6712925Y431665D02*
X6712041Y430342D01*
X6707610Y422430D01*
X6703814Y414194D01*
X6700675Y405687D01*
X6698214Y396959D01*
X6696445Y388065D01*
X6695379Y379060D01*
X6695023Y369999D01*
Y329998D01*
X6695379Y320937D01*
X6696445Y311932D01*
X6698214Y303038D01*
X6700675Y294310D01*
X6703814Y285803D01*
X6707610Y277567D01*
X6712041Y269656D01*
X6712925Y268332D01*
X6792552Y347959D01*
X6810513Y329999D01*
X6828473Y347959D01*
X6908099Y268334D01*
X6908982Y269656D01*
X6913413Y277567D01*
X6917209Y285803D01*
X6920348Y294310D01*
X6922810Y303038D01*
X6924579Y311932D01*
X6925645Y320937D01*
X6926001Y329998D01*
Y369999D01*
X6925645Y379060D01*
X6924579Y388065D01*
X6922810Y396959D01*
X6920348Y405687D01*
X6917209Y414194D01*
X6913413Y422430D01*
X6908982Y430342D01*
X6908098Y431664D01*
X6828473Y352039D01*
X6810513Y369999D01*
X6792552Y352039D01*
X6712925Y431665D01*
D02*
G37*
G36*
X1512513Y431665D02*
X1511629Y430342D01*
X1507198Y422430D01*
X1503402Y414194D01*
X1500263Y405687D01*
X1497802Y396959D01*
X1496033Y388065D01*
X1494967Y379060D01*
X1494611Y369999D01*
Y329998D01*
X1494967Y320937D01*
X1496033Y311932D01*
X1497802Y303038D01*
X1500263Y294310D01*
X1503402Y285803D01*
X1507198Y277567D01*
X1511629Y269656D01*
X1512513Y268333D01*
X1592140Y347959D01*
X1610100Y329999D01*
X1628061Y347959D01*
X1707687Y268333D01*
X1708570Y269656D01*
X1713001Y277567D01*
X1716797Y285803D01*
X1719936Y294310D01*
X1722398Y303038D01*
X1724167Y311932D01*
X1725233Y320937D01*
X1725589Y329998D01*
Y369999D01*
X1725233Y379060D01*
X1724167Y388065D01*
X1722398Y396959D01*
X1719936Y405687D01*
X1716797Y414194D01*
X1713001Y422430D01*
X1708570Y430342D01*
X1707686Y431664D01*
X1628061Y352039D01*
X1610100Y369999D01*
X1592140Y352039D01*
X1512513Y431665D01*
D02*
G37*
G36*
X5285911Y485399D02*
X5055112D01*
Y214599D01*
X5285911D01*
Y485399D01*
D02*
G37*
G36*
X4395912D02*
X4165112D01*
Y214599D01*
X4395912D01*
Y485399D01*
D02*
G37*
G36*
X3255912D02*
X3025112D01*
Y214599D01*
X3255912D01*
Y485399D01*
D02*
G37*
G36*
X2365912D02*
X2135112D01*
Y214599D01*
X2365912D01*
Y485399D01*
D02*
G37*
G36*
X6810513Y294078D02*
X6748847Y232412D01*
X6750169Y231528D01*
X6758081Y227097D01*
X6766316Y223301D01*
X6774824Y220162D01*
X6783551Y217700D01*
X6792445Y215931D01*
X6801450Y214865D01*
X6810512Y214509D01*
X6819573Y214865D01*
X6828578Y215931D01*
X6837472Y217700D01*
X6846200Y220162D01*
X6854707Y223301D01*
X6862943Y227097D01*
X6870854Y231528D01*
X6872178Y232412D01*
X6810513Y294078D01*
D02*
G37*
G36*
X5420512Y485488D02*
X5411450Y485132D01*
X5402445Y484066D01*
X5393551Y482297D01*
X5384824Y479835D01*
X5376316Y476697D01*
X5368081Y472900D01*
X5360169Y468469D01*
X5352629Y463431D01*
X5345507Y457817D01*
X5338849Y451662D01*
X5332693Y445003D01*
X5327079Y437882D01*
X5322041Y430342D01*
X5317610Y422430D01*
X5313814Y414194D01*
X5310675Y405687D01*
X5308214Y396959D01*
X5306445Y388065D01*
X5305379Y379060D01*
X5305023Y369999D01*
Y329998D01*
X5305379Y320937D01*
X5306445Y311932D01*
X5308214Y303038D01*
X5310675Y294310D01*
X5313814Y285803D01*
X5317610Y277567D01*
X5322041Y269656D01*
X5327079Y262116D01*
X5332693Y254994D01*
X5338849Y248335D01*
X5345507Y242180D01*
X5352629Y236566D01*
X5360169Y231528D01*
X5368081Y227097D01*
X5376316Y223301D01*
X5384824Y220162D01*
X5393551Y217700D01*
X5402445Y215931D01*
X5411450Y214865D01*
X5420512Y214509D01*
X5429573Y214865D01*
X5438578Y215931D01*
X5447472Y217700D01*
X5456200Y220162D01*
X5464707Y223301D01*
X5472943Y227097D01*
X5480854Y231528D01*
X5488394Y236566D01*
X5495516Y242180D01*
X5502175Y248335D01*
X5508330Y254994D01*
X5513944Y262116D01*
X5518982Y269656D01*
X5523413Y277567D01*
X5527209Y285803D01*
X5530348Y294310D01*
X5532810Y303038D01*
X5534579Y311932D01*
X5535645Y320937D01*
X5536001Y329998D01*
Y369999D01*
X5535645Y379060D01*
X5534579Y388065D01*
X5532810Y396959D01*
X5530348Y405687D01*
X5527209Y414194D01*
X5523413Y422430D01*
X5518982Y430342D01*
X5513944Y437882D01*
X5508330Y445003D01*
X5502175Y451662D01*
X5495516Y457817D01*
X5488394Y463431D01*
X5480854Y468469D01*
X5472943Y472900D01*
X5464707Y476697D01*
X5456200Y479835D01*
X5447472Y482297D01*
X5438578Y484066D01*
X5429573Y485132D01*
X5420512Y485488D01*
D02*
G37*
G36*
X4530512D02*
X4521451Y485132D01*
X4512445Y484066D01*
X4503552Y482297D01*
X4494824Y479835D01*
X4486316Y476697D01*
X4478081Y472900D01*
X4470169Y468469D01*
X4462629Y463431D01*
X4455508Y457817D01*
X4448849Y451662D01*
X4442693Y445003D01*
X4437079Y437882D01*
X4432041Y430342D01*
X4427610Y422430D01*
X4423814Y414194D01*
X4420675Y405687D01*
X4418214Y396959D01*
X4416445Y388065D01*
X4415379Y379060D01*
X4415023Y369999D01*
Y329998D01*
X4415379Y320937D01*
X4416445Y311932D01*
X4418214Y303038D01*
X4420675Y294310D01*
X4423814Y285803D01*
X4427610Y277567D01*
X4432041Y269656D01*
X4437079Y262116D01*
X4442693Y254994D01*
X4448849Y248335D01*
X4455508Y242180D01*
X4462629Y236566D01*
X4470169Y231528D01*
X4478081Y227097D01*
X4486316Y223301D01*
X4494824Y220162D01*
X4503552Y217700D01*
X4512445Y215931D01*
X4521451Y214865D01*
X4530512Y214509D01*
X4539573Y214865D01*
X4548578Y215931D01*
X4557472Y217700D01*
X4566200Y220162D01*
X4574708Y223301D01*
X4582943Y227097D01*
X4590855Y231528D01*
X4598395Y236566D01*
X4605516Y242180D01*
X4612175Y248335D01*
X4618330Y254994D01*
X4623945Y262116D01*
X4628982Y269656D01*
X4633413Y277567D01*
X4637210Y285803D01*
X4640348Y294310D01*
X4642810Y303038D01*
X4644579Y311932D01*
X4645645Y320937D01*
X4646001Y329998D01*
Y369999D01*
X4645645Y379060D01*
X4644579Y388065D01*
X4642810Y396959D01*
X4640348Y405687D01*
X4637210Y414194D01*
X4633413Y422430D01*
X4628982Y430342D01*
X4623945Y437882D01*
X4618330Y445003D01*
X4612175Y451662D01*
X4605516Y457817D01*
X4598395Y463431D01*
X4590855Y468469D01*
X4582943Y472900D01*
X4574708Y476697D01*
X4566200Y479835D01*
X4557472Y482297D01*
X4548578Y484066D01*
X4539573Y485132D01*
X4530512Y485488D01*
D02*
G37*
G36*
X3640512Y294078D02*
X3578846Y232412D01*
X3580169Y231528D01*
X3588081Y227097D01*
X3596316Y223301D01*
X3604824Y220162D01*
X3613552Y217700D01*
X3622445Y215931D01*
X3631451Y214865D01*
X3640512Y214509D01*
X3649573Y214865D01*
X3658578Y215931D01*
X3667472Y217700D01*
X3676200Y220162D01*
X3684708Y223301D01*
X3692943Y227097D01*
X3700855Y231528D01*
X3702178Y232412D01*
X3640512Y294078D01*
D02*
G37*
G36*
X3390512Y485488D02*
X3381451Y485132D01*
X3372445Y484066D01*
X3363552Y482297D01*
X3354824Y479835D01*
X3346316Y476697D01*
X3338081Y472900D01*
X3330169Y468469D01*
X3322629Y463431D01*
X3315508Y457817D01*
X3308849Y451662D01*
X3302693Y445003D01*
X3297079Y437882D01*
X3292041Y430342D01*
X3287610Y422430D01*
X3283814Y414194D01*
X3280675Y405687D01*
X3278214Y396959D01*
X3276445Y388065D01*
X3275379Y379060D01*
X3275023Y369999D01*
Y329998D01*
X3275379Y320937D01*
X3276445Y311932D01*
X3278214Y303038D01*
X3280675Y294310D01*
X3283814Y285803D01*
X3287610Y277567D01*
X3292041Y269656D01*
X3297079Y262116D01*
X3302693Y254994D01*
X3308849Y248335D01*
X3315508Y242180D01*
X3322629Y236566D01*
X3330169Y231528D01*
X3338081Y227097D01*
X3346316Y223301D01*
X3354824Y220162D01*
X3363552Y217700D01*
X3372445Y215931D01*
X3381451Y214865D01*
X3390512Y214509D01*
X3399573Y214865D01*
X3408578Y215931D01*
X3417472Y217700D01*
X3426200Y220162D01*
X3434708Y223301D01*
X3442943Y227097D01*
X3450855Y231528D01*
X3458395Y236566D01*
X3465516Y242180D01*
X3472175Y248335D01*
X3478330Y254994D01*
X3483945Y262116D01*
X3488982Y269656D01*
X3493413Y277567D01*
X3497210Y285803D01*
X3500348Y294310D01*
X3502810Y303038D01*
X3504579Y311932D01*
X3505645Y320937D01*
X3506001Y329998D01*
Y369999D01*
X3505645Y379060D01*
X3504579Y388065D01*
X3502810Y396959D01*
X3500348Y405687D01*
X3497210Y414194D01*
X3493413Y422430D01*
X3488982Y430342D01*
X3483945Y437882D01*
X3478330Y445003D01*
X3472175Y451662D01*
X3465516Y457817D01*
X3458395Y463431D01*
X3450855Y468469D01*
X3442943Y472900D01*
X3434708Y476697D01*
X3426200Y479835D01*
X3417472Y482297D01*
X3408578Y484066D01*
X3399573Y485132D01*
X3390512Y485488D01*
D02*
G37*
G36*
X2500512D02*
X2491451Y485132D01*
X2482445Y484066D01*
X2473552Y482297D01*
X2464824Y479835D01*
X2456316Y476697D01*
X2448081Y472900D01*
X2440169Y468469D01*
X2432629Y463431D01*
X2425508Y457817D01*
X2418849Y451662D01*
X2412693Y445003D01*
X2407079Y437882D01*
X2402041Y430342D01*
X2397610Y422430D01*
X2393814Y414194D01*
X2390675Y405687D01*
X2388214Y396959D01*
X2386445Y388065D01*
X2385379Y379060D01*
X2385023Y369999D01*
Y329998D01*
X2385379Y320937D01*
X2386445Y311932D01*
X2388214Y303038D01*
X2390675Y294310D01*
X2393814Y285803D01*
X2397610Y277567D01*
X2402041Y269656D01*
X2407079Y262116D01*
X2412693Y254994D01*
X2418849Y248335D01*
X2425508Y242180D01*
X2432629Y236566D01*
X2440169Y231528D01*
X2448081Y227097D01*
X2456316Y223301D01*
X2464824Y220162D01*
X2473552Y217700D01*
X2482445Y215931D01*
X2491451Y214865D01*
X2500512Y214509D01*
X2509573Y214865D01*
X2518578Y215931D01*
X2527472Y217700D01*
X2536200Y220162D01*
X2544708Y223301D01*
X2552943Y227097D01*
X2560855Y231528D01*
X2568395Y236566D01*
X2575516Y242180D01*
X2582175Y248335D01*
X2588330Y254994D01*
X2593945Y262116D01*
X2598982Y269656D01*
X2603413Y277567D01*
X2607210Y285803D01*
X2610348Y294310D01*
X2612810Y303038D01*
X2614579Y311932D01*
X2615645Y320937D01*
X2616001Y329998D01*
Y369999D01*
X2615645Y379060D01*
X2614579Y388065D01*
X2612810Y396959D01*
X2610348Y405687D01*
X2607210Y414194D01*
X2603413Y422430D01*
X2598982Y430342D01*
X2593945Y437882D01*
X2588330Y445003D01*
X2582175Y451662D01*
X2575516Y457817D01*
X2568395Y463431D01*
X2560855Y468469D01*
X2552943Y472900D01*
X2544708Y476697D01*
X2536200Y479835D01*
X2527472Y482297D01*
X2518578Y484066D01*
X2509573Y485132D01*
X2500512Y485488D01*
D02*
G37*
G36*
X1610100Y294078D02*
X1548434Y232412D01*
X1549757Y231528D01*
X1557669Y227097D01*
X1565904Y223301D01*
X1574412Y220162D01*
X1583139Y217700D01*
X1592033Y215931D01*
X1601038Y214865D01*
X1610100Y214509D01*
X1619161Y214865D01*
X1628166Y215931D01*
X1637060Y217700D01*
X1645788Y220162D01*
X1654295Y223301D01*
X1662531Y227097D01*
X1670442Y231528D01*
X1671766Y232412D01*
X1610100Y294078D01*
D02*
G37*
G36*
X1360100Y485488D02*
X1351038Y485132D01*
X1342033Y484066D01*
X1333139Y482297D01*
X1324412Y479835D01*
X1315904Y476697D01*
X1307669Y472900D01*
X1299757Y468469D01*
X1292217Y463431D01*
X1285095Y457817D01*
X1278437Y451662D01*
X1272281Y445003D01*
X1266667Y437882D01*
X1261629Y430342D01*
X1257198Y422430D01*
X1253402Y414194D01*
X1250263Y405687D01*
X1247802Y396959D01*
X1246033Y388065D01*
X1244967Y379060D01*
X1244611Y369999D01*
Y329998D01*
X1244967Y320937D01*
X1246033Y311932D01*
X1247802Y303038D01*
X1250263Y294310D01*
X1253402Y285803D01*
X1257198Y277567D01*
X1261629Y269656D01*
X1266667Y262116D01*
X1272281Y254994D01*
X1278437Y248335D01*
X1285095Y242180D01*
X1292217Y236566D01*
X1299757Y231528D01*
X1307669Y227097D01*
X1315904Y223301D01*
X1324412Y220162D01*
X1333139Y217700D01*
X1342033Y215931D01*
X1351038Y214865D01*
X1360100Y214509D01*
X1369161Y214865D01*
X1378166Y215931D01*
X1387060Y217700D01*
X1395788Y220162D01*
X1404295Y223301D01*
X1412531Y227097D01*
X1420442Y231528D01*
X1427982Y236566D01*
X1435104Y242180D01*
X1441763Y248335D01*
X1447918Y254994D01*
X1453532Y262116D01*
X1458570Y269656D01*
X1463001Y277567D01*
X1466797Y285803D01*
X1469936Y294310D01*
X1472398Y303038D01*
X1474167Y311932D01*
X1475233Y320937D01*
X1475589Y329998D01*
Y369999D01*
X1475233Y379060D01*
X1474167Y388065D01*
X1472398Y396959D01*
X1469936Y405687D01*
X1466797Y414194D01*
X1463001Y422430D01*
X1458570Y430342D01*
X1453532Y437882D01*
X1447918Y445003D01*
X1441763Y451662D01*
X1435104Y457817D01*
X1427982Y463431D01*
X1420442Y468469D01*
X1412531Y472900D01*
X1404295Y476697D01*
X1395788Y479835D01*
X1387060Y482297D01*
X1378166Y484066D01*
X1369161Y485132D01*
X1360100Y485488D01*
D02*
G37*
G36*
X9501453Y630000D02*
X9488546D01*
X9475660Y629276D01*
X9462835Y627831D01*
X9450111Y625669D01*
X9437528Y622797D01*
X9425126Y619224D01*
X9412944Y614961D01*
X9401021Y610022D01*
X9389392Y604423D01*
X9378096Y598180D01*
X9367168Y591313D01*
X9356642Y583844D01*
X9346552Y575797D01*
X9336928Y567197D01*
X9327802Y558071D01*
X9319202Y548448D01*
X9311155Y538357D01*
X9303686Y527831D01*
X9296820Y516903D01*
X9290577Y505607D01*
X9284977Y493979D01*
X9280038Y482055D01*
X9275775Y469873D01*
X9272202Y457471D01*
X9269330Y444888D01*
X9267169Y432164D01*
X9265723Y419339D01*
X9265000Y406453D01*
Y393547D01*
X9265723Y380661D01*
X9267169Y367836D01*
X9269330Y355112D01*
X9272202Y342529D01*
X9275775Y330127D01*
X9280038Y317945D01*
X9284977Y306021D01*
X9290577Y294393D01*
X9296820Y283097D01*
X9303686Y272169D01*
X9311155Y261643D01*
X9319202Y251552D01*
X9327802Y241929D01*
X9336928Y232802D01*
X9346552Y224202D01*
X9356642Y216156D01*
X9367168Y208687D01*
X9378096Y201820D01*
X9389392Y195577D01*
X9401021Y189978D01*
X9412944Y185038D01*
X9425126Y180776D01*
X9437528Y177203D01*
X9450111Y174331D01*
X9462835Y172169D01*
X9475660Y170724D01*
X9488546Y170000D01*
X9501453D01*
X9514339Y170724D01*
X9527164Y172169D01*
X9539888Y174331D01*
X9552471Y177203D01*
X9564873Y180776D01*
X9577055Y185038D01*
X9588979Y189978D01*
X9600607Y195577D01*
X9611903Y201820D01*
X9622831Y208687D01*
X9633357Y216156D01*
X9643447Y224202D01*
X9653071Y232802D01*
X9662197Y241929D01*
X9670797Y251552D01*
X9678844Y261643D01*
X9686313Y272169D01*
X9693179Y283097D01*
X9699422Y294393D01*
X9705022Y306021D01*
X9709961Y317945D01*
X9714224Y330127D01*
X9717797Y342529D01*
X9720669Y355112D01*
X9722830Y367836D01*
X9724276Y380661D01*
X9724999Y393547D01*
Y406453D01*
X9724276Y419339D01*
X9722830Y432164D01*
X9720669Y444888D01*
X9717797Y457471D01*
X9714224Y469873D01*
X9709961Y482055D01*
X9705022Y493979D01*
X9699422Y505607D01*
X9693179Y516903D01*
X9686313Y527831D01*
X9678844Y538357D01*
X9670797Y548448D01*
X9662197Y558071D01*
X9653071Y567197D01*
X9643447Y575797D01*
X9633357Y583844D01*
X9622831Y591313D01*
X9611903Y598180D01*
X9600607Y604423D01*
X9588979Y610022D01*
X9577055Y614961D01*
X9564873Y619224D01*
X9552471Y622797D01*
X9539888Y625669D01*
X9527164Y627831D01*
X9514339Y629276D01*
X9501453Y630000D01*
D02*
G37*
G36*
X8246453D02*
X8233546D01*
X8220660Y629276D01*
X8207835Y627831D01*
X8195111Y625669D01*
X8182528Y622797D01*
X8170126Y619224D01*
X8157944Y614961D01*
X8146021Y610022D01*
X8134392Y604423D01*
X8123096Y598180D01*
X8112168Y591313D01*
X8101642Y583844D01*
X8091552Y575797D01*
X8081928Y567197D01*
X8072802Y558071D01*
X8064202Y548448D01*
X8056155Y538357D01*
X8048686Y527831D01*
X8041820Y516903D01*
X8035577Y505607D01*
X8029977Y493979D01*
X8025038Y482055D01*
X8020775Y469873D01*
X8017202Y457471D01*
X8014330Y444888D01*
X8012169Y432164D01*
X8010723Y419339D01*
X8010000Y406453D01*
Y393547D01*
X8010723Y380661D01*
X8012169Y367836D01*
X8014330Y355112D01*
X8017202Y342529D01*
X8020775Y330127D01*
X8025038Y317945D01*
X8029977Y306021D01*
X8035577Y294393D01*
X8041820Y283097D01*
X8048686Y272169D01*
X8056155Y261643D01*
X8064202Y251552D01*
X8072802Y241929D01*
X8081928Y232802D01*
X8091552Y224202D01*
X8101642Y216156D01*
X8112168Y208687D01*
X8123096Y201820D01*
X8134392Y195577D01*
X8146021Y189978D01*
X8157944Y185038D01*
X8170126Y180776D01*
X8182528Y177203D01*
X8195111Y174331D01*
X8207835Y172169D01*
X8220660Y170724D01*
X8233546Y170000D01*
X8246453D01*
X8259339Y170724D01*
X8272164Y172169D01*
X8284888Y174331D01*
X8297471Y177203D01*
X8309873Y180776D01*
X8322055Y185038D01*
X8333979Y189978D01*
X8345607Y195577D01*
X8356903Y201820D01*
X8367831Y208687D01*
X8378357Y216156D01*
X8388447Y224202D01*
X8398071Y232802D01*
X8407197Y241929D01*
X8415797Y251552D01*
X8423844Y261643D01*
X8431313Y272169D01*
X8438179Y283097D01*
X8444422Y294393D01*
X8450022Y306021D01*
X8454961Y317945D01*
X8459224Y330127D01*
X8462797Y342529D01*
X8465669Y355112D01*
X8467830Y367836D01*
X8469276Y380661D01*
X8469999Y393547D01*
Y406453D01*
X8469276Y419339D01*
X8467830Y432164D01*
X8465669Y444888D01*
X8462797Y457471D01*
X8459224Y469873D01*
X8454961Y482055D01*
X8450022Y493979D01*
X8444422Y505607D01*
X8438179Y516903D01*
X8431313Y527831D01*
X8423844Y538357D01*
X8415797Y548448D01*
X8407197Y558071D01*
X8398071Y567197D01*
X8388447Y575797D01*
X8378357Y583844D01*
X8367831Y591313D01*
X8356903Y598180D01*
X8345607Y604423D01*
X8333979Y610022D01*
X8322055Y614961D01*
X8309873Y619224D01*
X8297471Y622797D01*
X8284888Y625669D01*
X8272164Y627831D01*
X8259339Y629276D01*
X8246453Y630000D01*
D02*
G37*
%LPD*%
G36*
X5499612Y2553161D02*
X5500918Y2546821D01*
X5496850Y2542380D01*
X5491778Y2535771D01*
X5487302Y2528746D01*
X5483456Y2521356D01*
X5480268Y2513660D01*
X5477979Y2506400D01*
X5600000D01*
X5722021D01*
X5719732Y2513660D01*
X5716544Y2521356D01*
X5712698Y2528745D01*
X5723487Y2535124D01*
X5774521Y2484091D01*
Y2090909D01*
X5718470Y2034859D01*
X5705496Y2034454D01*
X5701659Y2036008D01*
X5697522Y2040522D01*
X5691381Y2046150D01*
X5684771Y2051222D01*
X5677746Y2055698D01*
X5670356Y2059544D01*
X5662660Y2062732D01*
X5654715Y2065237D01*
X5646582Y2067040D01*
X5638323Y2068127D01*
X5630000Y2068491D01*
X5570000D01*
X5561677Y2068127D01*
X5553418Y2067040D01*
X5545285Y2065237D01*
X5537340Y2062732D01*
X5529644Y2059544D01*
X5522254Y2055698D01*
X5515228Y2051222D01*
X5508619Y2046150D01*
X5502478Y2040522D01*
X5496850Y2034380D01*
X5491778Y2027771D01*
X5487302Y2020746D01*
X5483456Y2013356D01*
X5480268Y2005660D01*
X5477763Y1997715D01*
X5465479Y2000629D01*
Y2007495D01*
X5465479Y2007500D01*
X5465164Y2013918D01*
X5464221Y2020274D01*
X5462660Y2026508D01*
X5460495Y2032558D01*
X5457748Y2038367D01*
X5454444Y2043878D01*
X5450616Y2049039D01*
X5446301Y2053801D01*
X5446298Y2053803D01*
X5234713Y2265388D01*
X5229952Y2269703D01*
X5224791Y2273531D01*
X5219279Y2276835D01*
X5213471Y2279582D01*
X5207420Y2281747D01*
X5201187Y2283308D01*
X5194831Y2284251D01*
X5188413Y2284566D01*
X4833623D01*
X4827152Y2292921D01*
X4832694Y2304521D01*
X5319091D01*
X5430776Y2192836D01*
X5434996Y2189064D01*
X5439613Y2185788D01*
X5444568Y2183050D01*
X5449798Y2180884D01*
X5455237Y2179317D01*
X5460818Y2178368D01*
X5466470Y2178051D01*
X5488069D01*
X5491778Y2172229D01*
X5496850Y2165620D01*
X5502478Y2159478D01*
X5508619Y2153850D01*
X5515228Y2148779D01*
X5522254Y2144303D01*
X5529644Y2140456D01*
X5537340Y2137268D01*
X5545285Y2134763D01*
X5553418Y2132960D01*
X5561677Y2131873D01*
X5570000Y2131509D01*
X5630000D01*
X5638323Y2131873D01*
X5646582Y2132960D01*
X5654715Y2134763D01*
X5662660Y2137268D01*
X5670356Y2140456D01*
X5677746Y2144303D01*
X5684771Y2148779D01*
X5691381Y2153850D01*
X5697522Y2159478D01*
X5703150Y2165620D01*
X5708222Y2172229D01*
X5712698Y2179255D01*
X5716544Y2186644D01*
X5719732Y2194340D01*
X5722237Y2202285D01*
X5724040Y2210418D01*
X5725127Y2218678D01*
X5725491Y2227000D01*
X5725127Y2235323D01*
X5724040Y2243582D01*
X5722237Y2251715D01*
X5719732Y2259660D01*
X5716544Y2267356D01*
X5712698Y2274746D01*
X5708222Y2281771D01*
X5703150Y2288380D01*
X5697522Y2294522D01*
X5691381Y2300150D01*
X5684771Y2305222D01*
X5677746Y2309698D01*
X5670356Y2313544D01*
X5662660Y2316732D01*
X5654715Y2319237D01*
X5646582Y2321040D01*
X5638323Y2322127D01*
X5630000Y2322491D01*
X5570000D01*
X5561677Y2322127D01*
X5553418Y2321040D01*
X5545285Y2319237D01*
X5537340Y2316732D01*
X5529644Y2313544D01*
X5522254Y2309698D01*
X5515228Y2305222D01*
X5508619Y2300150D01*
X5502478Y2294522D01*
X5496850Y2288380D01*
X5496426Y2287829D01*
X5481676Y2285838D01*
X5479793Y2286596D01*
X5375695Y2390694D01*
X5371474Y2394467D01*
X5366857Y2397742D01*
X5361902Y2400481D01*
X5356673Y2402647D01*
X5351233Y2404214D01*
X5345652Y2405162D01*
X5340000Y2405480D01*
X4831819D01*
X4826231Y2418180D01*
X4827550Y2419620D01*
X4832622Y2426229D01*
X4837098Y2433255D01*
X4840944Y2440644D01*
X4844132Y2448340D01*
X4846637Y2456285D01*
X4848440Y2464418D01*
X4849528Y2472678D01*
X4849891Y2481000D01*
X4849528Y2489323D01*
X4848440Y2497582D01*
X4846637Y2505715D01*
X4844132Y2513660D01*
X4840944Y2521356D01*
X4837098Y2528746D01*
X4832622Y2535771D01*
X4827550Y2542380D01*
X4823482Y2546821D01*
X4824788Y2553161D01*
X4828718Y2559521D01*
X5495682D01*
X5499612Y2553161D01*
D02*
G37*
%LPC*%
G36*
X5722021Y2455600D02*
X5625400D01*
Y2385509D01*
X5630000D01*
X5638323Y2385873D01*
X5646582Y2386960D01*
X5654715Y2388763D01*
X5662660Y2391268D01*
X5670356Y2394456D01*
X5677746Y2398303D01*
X5684771Y2402779D01*
X5691381Y2407850D01*
X5697522Y2413478D01*
X5703150Y2419620D01*
X5708222Y2426229D01*
X5712698Y2433255D01*
X5716544Y2440644D01*
X5719732Y2448340D01*
X5722021Y2455600D01*
D02*
G37*
G36*
X5574600D02*
X5477979D01*
X5480268Y2448340D01*
X5483456Y2440644D01*
X5487302Y2433255D01*
X5491778Y2426229D01*
X5496850Y2419620D01*
X5502478Y2413478D01*
X5508619Y2407850D01*
X5515228Y2402779D01*
X5522254Y2398303D01*
X5529644Y2394456D01*
X5537340Y2391268D01*
X5545285Y2388763D01*
X5553418Y2386960D01*
X5561677Y2385873D01*
X5570000Y2385509D01*
X5574600D01*
Y2455600D01*
D02*
G37*
%LPD*%
D10*
X6272500Y1927500D02*
Y3400000D01*
Y1927500D02*
X6317500Y1882500D01*
X6272500Y3400000D02*
X6722500D01*
X5105400Y857100D02*
Y1195400D01*
X6310512Y349999D02*
Y577333D01*
X6125344Y762500D02*
X6310512Y577333D01*
X5352502Y609999D02*
X5800512D01*
X5105400Y857100D02*
X5352502Y609999D01*
X5800512D02*
X6060512Y349999D01*
X5274043Y925957D02*
X5437500Y762500D01*
X6125344D01*
X5540000Y917500D02*
X6422500D01*
X6560000Y780000D01*
Y350510D02*
Y780000D01*
X5400000Y1057500D02*
X5540000Y917500D01*
X5400000Y1057500D02*
Y2007500D01*
X4732313Y2219087D02*
X5188413D01*
X5400000Y2007500D01*
X5274043Y925957D02*
Y1835957D01*
X6560000Y350510D02*
X6560512Y349999D01*
X5105400Y1198300D02*
Y1308000D01*
X5137000Y1973000D02*
X5274043Y1835957D01*
X4724400Y1973000D02*
X5137000D01*
X4724400Y2227000D02*
X4732313Y2219087D01*
D11*
X3455000Y1495000D02*
Y2120000D01*
Y685000D02*
Y1495000D01*
X915000Y1690000D02*
X1020000Y1795000D01*
X915000Y445000D02*
Y1690000D01*
X3710000Y2610000D02*
X5720000D01*
X3581400Y1338000D02*
Y2481400D01*
X3710000Y2610000D01*
X5725000Y1970000D02*
X5825000Y2070000D01*
Y2505000D01*
X5720000Y2610000D02*
X5825000Y2505000D01*
X5603000Y1970000D02*
X5725000D01*
X5600000Y1973000D02*
X5603000Y1970000D01*
X5466470Y2228530D02*
X5598470D01*
X3960000Y2355000D02*
X5340000D01*
X5598470Y2228530D02*
X5600000Y2227000D01*
X3835400Y2230400D02*
X3960000Y2355000D01*
X3835400Y1338000D02*
Y2230400D01*
X5340000Y2355000D02*
X5466470Y2228530D01*
X1020000Y1795000D02*
X1695000D01*
X1803400Y1903400D01*
Y2862000D01*
X1110098Y350000D02*
X1110100Y349999D01*
X1010000Y350000D02*
X1110098D01*
X915000Y445000D02*
X1010000Y350000D01*
X5105400Y1195400D02*
Y1198300D01*
Y1308000D02*
Y1338000D01*
D12*
X3447500Y1502500D02*
X3455000Y1495000D01*
D13*
X7300000Y2100000D02*
X9160000Y2100000D01*
X9296800Y2236800D02*
Y2505300D01*
X9160000Y2100000D02*
X9296800Y2236800D01*
D14*
X10450000Y300000D02*
D03*
Y3900000D02*
D03*
X300000D02*
D03*
Y300000D02*
D03*
D15*
X6272500Y4050000D02*
D03*
X6722500Y4050000D02*
D03*
X6272500Y3400000D02*
D03*
X6722500D02*
D03*
D16*
X2248512Y3850000D02*
D03*
X4530512Y349999D02*
D03*
X2500512D02*
D03*
X4278512Y3850000D02*
D03*
X5420512Y349999D02*
D03*
X6560512D02*
D03*
X6810512D02*
D03*
X6310512D02*
D03*
X3390512Y3850000D02*
D03*
X3140512D02*
D03*
X1360100D02*
D03*
X1110100D02*
D03*
X5420512D02*
D03*
X5170512D02*
D03*
X3390512Y349999D02*
D03*
X3640512D02*
D03*
X1360100D02*
D03*
X1610100D02*
D03*
D17*
X9495000Y3800000D02*
D03*
X8995000D02*
D03*
X8240000D02*
D03*
X7740000D02*
D03*
Y400000D02*
D03*
X8240000D02*
D03*
X8995000D02*
D03*
X9495000D02*
D03*
D18*
X10330000Y2460000D02*
D03*
D19*
Y1740000D02*
D03*
D20*
X2250512Y349999D02*
D03*
X6060512D02*
D03*
X4528512Y3850000D02*
D03*
X3640512D02*
D03*
X2498512D02*
D03*
X1610100D02*
D03*
X5670512D02*
D03*
X3140512Y349999D02*
D03*
X4280512D02*
D03*
X1110100D02*
D03*
X5170512D02*
D03*
D21*
X5600000Y2989000D02*
D03*
Y2735000D02*
D03*
Y2481000D02*
D03*
Y2227000D02*
D03*
Y1973000D02*
D03*
Y1719000D02*
D03*
Y1465000D02*
D03*
Y1211000D02*
D03*
X4724400Y1973000D02*
D03*
Y1719000D02*
D03*
Y2227000D02*
D03*
Y2481000D02*
D03*
D22*
X9296800Y2759300D02*
D03*
Y1438500D02*
D03*
Y2505300D02*
D03*
X7442600Y1438500D02*
D03*
Y1692500D02*
D03*
X9296800D02*
D03*
X7442600Y2759300D02*
D03*
Y2505300D02*
D03*
D23*
X787400Y1338000D02*
D03*
X279400D02*
D03*
X533400D02*
D03*
X1295400D02*
D03*
X1041400D02*
D03*
X1803400D02*
D03*
X2057400D02*
D03*
X2819400D02*
D03*
X2311400D02*
D03*
X2565400D02*
D03*
X1549400D02*
D03*
X533400Y2862000D02*
D03*
X279400D02*
D03*
X787400D02*
D03*
X1549400D02*
D03*
X1041400D02*
D03*
X1295400D02*
D03*
X1803400D02*
D03*
X2565400D02*
D03*
X2057400D02*
D03*
X2311400D02*
D03*
X3327400Y1338000D02*
D03*
X3073400D02*
D03*
X4089400D02*
D03*
X3581400D02*
D03*
X3835400D02*
D03*
X4597400D02*
D03*
X4343400D02*
D03*
X4851400D02*
D03*
X3327400Y2862000D02*
D03*
X2819400D02*
D03*
X3073400D02*
D03*
X4089400D02*
D03*
X3581400D02*
D03*
X3835400D02*
D03*
X4343400D02*
D03*
X4597400D02*
D03*
X4851400D02*
D03*
D24*
X5105400Y1338000D02*
D03*
Y2862000D02*
D03*
D25*
X3455000Y2120000D02*
D03*
Y685000D02*
D03*
X6317500Y1882500D02*
D03*
X7300000Y2100000D02*
D03*
%TF.MD5,0184bbf430d768a304c8e2655df7aa1a*%
M02*
